<?xml version="1.0" standalone="no"?><!DOCTYPE svg PUBLIC "-//W3C//DTD SVG 1.1//EN" "http://www.w3.org/Graphics/SVG/1.1/DTD/svg11.dtd" ><svg xmlns="http://www.w3.org/2000/svg"><metadata></metadata><defs><font id="LiSong" horiz-adv-x="1000"><font-face font-family="LiSong" font-weight="400" font-stretch="normal" units-per-em="1000" panose-1="2 2 3 0 0 0 0 0 0 0" ascent="800" descent="-200" x-height="0" bbox="23 -194 972 795" underline-thickness="50" underline-position="-110" unicode-range="U+002f-ff09" /><missing-glyph horiz-adv-x="1000" d="M215 507 q0 -52 -17 -168 q-17 -116 -17 -174 l0 -68 l-29 0 l0 68 q0 58 -17 174 q-17 116 -17 168 q0 62 49 62 q48 0 48 -62 ZM216 -11 q0 -20 -14 -35 q-15 -14 -35 -14 q-21 0 -35 14 q-15 15 -15 35 q0 20 15 35 q14 14 35 14 q20 0 35 -14 q14 -15 14 -35 Z" /><glyph glyph-name="" unicode="/" d="M255 662 l-198 -808 l-34 12 l199 807 l33 -11 Z" /><glyph glyph-name="" unicode="&#x4e00;" d="M46 340 q80 -9 184 -12 l578 0 q16 19 36 47 q17 19 23 19 q10 0 20 -11 q21 -21 49 -49 q13 -13 13 -18 q0 -16 -16 -16 l-703 0 q-124 0 -160 -7 l-24 47 Z" /><glyph glyph-name="" unicode="&#x4e0a;" d="M421 730 q49 -11 80 -17 q30 -5 30 -18 q0 -9 -27 -18 q-20 -5 -20 -21 l0 -262 l238 0 q0 0 20 26 q21 29 31 29 q8 0 38 -26 q36 -34 36 -40 q0 -16 -15 -16 l-348 0 l0 -426 l324 0 q17 19 30 41 q16 22 25 22 q11 0 45 -32 q41 -36 41 -43 q0 -15 -28 -15 l-769 0 q-63 0 -86 -8 l-16 43 q34 -8 102 -8 l281 0 l0 621 q0 108 -12 168 Z" /><glyph glyph-name="" unicode="&#x4e0d;" d="M70 664 q34 -8 101 -8 l645 0 q14 17 25 36 q14 19 22 19 q9 0 39 -29 q35 -31 35 -38 q0 -15 -23 -15 l-318 0 q-42 -71 -85 -128 q9 -3 17 -7 q22 -7 22 -18 q0 -8 -19 -11 q-12 -5 -12 -12 l0 -461 q0 -64 4 -125 q0 -8 -16 -13 q-12 -7 -23 -7 q-20 0 -20 20 q4 85 4 125 l0 455 q-50 -59 -100 -102 q-142 -126 -314 -205 l-8 16 q157 77 286 199 q109 99 206 274 l-367 0 q-62 0 -86 -8 l-15 43 ZM609 437 q241 -136 278 -188 q30 -38 30 -66 q0 -27 -19 -27 q-23 0 -63 58 q-63 88 -234 211 l8 12 Z" /><glyph glyph-name="" unicode="&#x4e2a;" d="M492 734 q38 -14 69 -26 q13 -6 13 -13 q0 -6 -19 -9 q-25 -4 -33 -15 q72 -115 182 -200 q109 -85 249 -128 l0 -15 q-52 0 -64 -12 q-8 -12 -11 -12 q-23 0 -101 59 q-89 63 -155 137 q-71 75 -111 155 q-91 -137 -187 -223 q-118 -100 -250 -167 l-8 12 q168 99 259 202 q82 84 167 255 ZM464 445 q75 -14 75 -14 q23 -3 23 -13 q0 -10 -23 -15 q-20 -6 -20 -17 l0 -511 q0 -16 -23 -22 q-8 -2 -12 -2 q-12 0 -12 20 q0 55 4 115 l0 369 q0 64 -12 90 Z" /><glyph glyph-name="" unicode="&#x4e2d;" d="M121 570 q36 -14 65 -39 l282 0 l0 105 q0 73 -8 102 q84 -16 84 -16 q26 -4 26 -15 q0 -10 -30 -15 q-25 -6 -25 -17 l0 -144 l289 0 q6 6 17 17 q14 14 18 14 q8 0 35 -25 q24 -21 24 -29 q0 -8 -22 -18 q-21 -12 -21 -18 l0 -203 q0 -48 8 -117 q0 -14 -19 -19 q-16 -4 -24 -4 q-16 0 -16 23 q2 18 2 39 l-291 0 l0 -147 q4 -87 4 -169 q0 -19 -28 -25 q-10 -3 -15 -3 q-12 0 -12 24 q0 83 4 173 l0 147 l-287 0 l2 -39 q0 -14 -20 -19 q-13 -4 -19 -4 q-16 0 -16 23 l4 63 l0 250 q0 57 -11 105 ZM179 218 l289 0 l0 286 l-289 0 l0 -286 ZM515 504 l0 -286 l292 0 q1 24 1 51 l0 235 l-293 0 Z" /><glyph glyph-name="" unicode="&#x4e3a;" d="M246 699 q65 -47 95 -83 q26 -33 26 -54 q0 -21 -5 -32 q-9 -11 -19 -11 q-18 1 -27 24 q-17 52 -31 76 q-15 27 -51 68 l12 12 ZM574 730 q30 -13 63 -26 q23 -7 23 -13 q0 -10 -15 -14 q-29 -2 -32 -9 q-30 -97 -60 -180 l263 0 q16 19 25 30 q13 13 22 13 q6 0 34 -25 q24 -22 24 -30 q0 -10 -31 -24 q-19 -8 -19 -11 q-23 -370 -53 -465 q-25 -74 -72 -95 q-36 -18 -59 -18 q-5 0 -12 16 q-13 29 -67 48 q-43 14 -81 26 l4 12 q128 -24 187 -24 q21 0 34 15 q24 22 39 111 q21 114 33 394 l-281 0 q-80 -213 -165 -340 q-120 -171 -293 -278 l-7 12 q205 157 319 369 q59 108 103 237 l-227 0 q-95 0 -156 -8 l-20 47 q71 -12 176 -12 l236 0 q38 114 65 242 ZM562 297 q76 -49 111 -85 q30 -35 30 -56 q0 -20 -5 -29 q-10 -10 -19 -10 q-16 0 -23 19 q-22 55 -40 79 q-19 28 -66 70 l12 12 Z" /><glyph glyph-name="" unicode="&#x4e50;" d="M796 633 q-260 -27 -566 -28 q-4 -95 -23 -277 l289 0 l0 105 q0 83 -8 125 q70 -14 70 -14 q27 -6 27 -17 q0 -7 -26 -14 q-17 -5 -17 -13 l0 -172 l239 0 q11 19 22 32 q17 19 21 19 q7 0 34 -22 q40 -35 40 -41 q0 -16 -12 -16 l-344 0 l0 -367 q0 -33 -26 -55 q-36 -27 -67 -27 q-7 0 -13 23 q-9 26 -128 40 l0 11 q76 -7 168 -7 q20 0 20 15 l0 367 l-289 0 q-9 -10 -18 -20 q-11 -11 -18 -11 q-7 0 -27 21 q-19 22 -19 30 q0 4 21 15 q21 9 21 24 q17 160 20 234 q0 24 -8 67 l69 -37 q324 9 548 64 q30 -23 53 -41 q10 -7 10 -13 q-1 -7 -24 -8 q-16 1 -39 8 ZM300 211 q34 -18 60 -34 q11 -5 11 -13 q-2 -6 -17 -6 q-27 -1 -30 -6 q-59 -71 -116 -119 q-63 -48 -126 -80 l-8 8 q74 49 124 107 q58 61 102 143 ZM667 207 q127 -79 185 -137 q50 -55 50 -90 q0 -21 -5 -32 q-9 -11 -19 -11 q-18 1 -27 24 q-40 85 -74 124 q-34 44 -121 110 l11 12 Z" /><glyph glyph-name="" unicode="&#x4e8e;" d="M156 656 q34 -8 101 -8 l485 0 q14 16 25 33 q14 18 22 18 q8 0 37 -27 q33 -30 33 -36 q0 -15 -20 -15 l-300 0 l0 -274 l285 0 q14 17 25 37 q14 18 22 18 q9 0 39 -28 q35 -32 35 -38 q0 -16 -24 -16 l-382 0 l0 -371 q0 -51 -40 -77 q-32 -21 -46 -21 q-19 0 -23 23 q-15 27 -130 44 l4 19 l137 -12 q47 0 47 28 l0 367 l-328 0 q-63 0 -86 -8 l-16 43 q34 -8 102 -8 l328 0 l0 274 l-231 0 q-62 0 -86 -8 l-15 43 Z" /><glyph glyph-name="" unicode="&#x4e9a;" d="M382 617 l-179 0 q-63 0 -86 -8 l-16 43 q34 -8 102 -8 l558 0 q14 17 26 36 q13 19 21 19 q9 0 39 -28 q35 -32 35 -38 q0 -16 -23 -16 l-266 0 l0 -664 l188 0 q15 17 27 36 q15 19 24 19 q9 0 41 -29 q37 -32 37 -38 q0 -16 -24 -16 l-707 0 q-62 0 -86 -7 l-15 43 q34 -8 101 -8 l203 0 l0 664 ZM425 -47 l125 0 l0 664 l-125 0 l0 -664 ZM183 449 q57 -111 83 -194 q23 -78 23 -126 q0 -20 -5 -30 q-10 -9 -19 -9 q-16 0 -23 19 q-15 120 -27 173 q-12 62 -44 155 l12 12 ZM753 453 q76 -27 76 -27 q20 -7 18 -16 q0 -6 -21 -10 l-30 -6 q-66 -198 -129 -312 l-15 8 q56 122 101 363 Z" /><glyph glyph-name="" unicode="&#x4eab;" d="M421 742 q80 -27 105 -50 q16 -16 16 -32 q0 -31 -19 -31 q-8 0 -23 21 q-21 37 -86 80 l7 12 ZM54 633 q34 -8 102 -8 l679 0 q13 14 24 30 q12 17 19 17 q9 0 36 -25 q31 -29 31 -34 q0 -16 -20 -16 l-769 0 q-63 0 -86 -7 l-16 43 ZM238 558 q32 -10 58 -35 l418 0 q2 0 13 13 q14 14 19 14 q7 0 31 -22 q19 -19 19 -24 q0 -5 -23 -16 q-16 -10 -16 -16 q0 -73 4 -140 q0 -7 -12 -12 q-10 -3 -11 -4 q-20 0 -20 16 l0 15 l-430 0 l1 -15 q0 -11 -19 -16 q-11 -4 -17 -4 q-11 0 -11 20 l4 51 l0 85 q0 49 -8 90 ZM286 375 l432 0 l0 121 l-433 0 l0 -113 l1 -8 ZM156 277 q60 -8 160 -8 l402 0 q11 6 22 15 q8 5 13 5 q6 0 34 -21 q33 -28 33 -38 q0 -8 -51 -8 l-55 -20 q-63 -26 -145 -49 q1 -1 1 -1 q0 -7 -25 -14 q-14 -5 -14 -13 l0 -24 l297 0 q14 16 25 33 q14 18 22 18 q8 0 37 -27 q33 -30 33 -35 q0 -16 -20 -16 l-394 0 l0 -137 q0 -33 -22 -55 q-30 -27 -56 -27 q-7 0 -14 23 q-9 26 -135 40 l0 11 q76 -7 168 -7 q20 0 20 15 l0 137 l-332 0 q-63 0 -86 -8 l-16 43 q34 -8 102 -8 l332 0 q-1 47 -4 74 q58 -10 58 -10 q5 -1 7 -2 q84 28 165 79 l-402 0 q-99 0 -141 -8 l-19 43 Z" /><glyph glyph-name="" unicode="&#x4eba;" d="M449 711 q42 -6 80 -12 q21 -4 21 -12 q0 -9 -14 -13 q-27 -9 -28 -12 q21 -232 59 -341 q44 -133 130 -230 q89 -104 240 -169 l-4 -12 q-32 -3 -47 -20 q-12 -15 -19 -15 q-13 0 -91 66 q-172 148 -240 374 q-24 71 -38 172 q-23 -217 -109 -349 q-85 -169 -347 -279 l-7 16 q204 95 306 274 q116 187 116 487 l-8 75 Z" /><glyph glyph-name="" unicode="&#x4ecb;" d="M460 738 q39 -14 69 -26 q13 -6 13 -13 q0 -6 -18 -9 q-7 -1 -13 -3 q75 -112 188 -193 q112 -79 254 -119 l0 -16 q-58 0 -71 -14 q-8 -13 -11 -13 q-23 0 -102 55 q-89 61 -155 130 q-77 78 -119 162 q-5 -3 -7 -7 q-94 -138 -195 -222 q-119 -95 -251 -157 l-7 11 q168 94 259 192 q81 79 166 242 ZM289 394 q29 -6 72 -16 q21 -4 21 -15 q0 -8 -20 -12 q-23 -9 -23 -19 l0 -28 q-5 -140 -30 -215 q-28 -88 -84 -145 q-58 -62 -143 -97 l-12 12 q70 37 123 98 q49 55 72 137 q27 79 27 210 q0 62 -3 90 ZM628 390 q24 -4 76 -14 q10 -3 10 -9 q0 -8 -20 -14 q-15 -6 -15 -17 l0 -465 q0 -10 -18 -16 q-11 -4 -21 -4 q-12 0 -12 24 q0 59 4 129 l0 281 q0 63 -4 105 Z" /><glyph glyph-name="" unicode="&#x4ee4;" d="M460 738 q39 -14 69 -26 q13 -6 13 -13 q0 -6 -18 -9 q-12 -2 -18 -5 q77 -111 195 -192 q114 -79 259 -118 l0 -16 q-51 0 -64 -12 q-7 -11 -10 -11 q-24 0 -106 54 q-94 59 -164 127 q-80 77 -124 159 q-3 -2 -4 -4 q-93 -135 -194 -218 q-117 -92 -248 -154 l-7 12 q166 92 256 188 q81 78 165 238 ZM386 480 q87 -46 126 -80 q34 -32 34 -53 q0 -19 -5 -29 q-9 -10 -18 -10 q-16 1 -23 20 q-26 51 -48 74 q-22 26 -77 66 l11 12 ZM152 265 q46 -11 156 -11 l399 0 q15 16 26 29 q9 6 13 6 q5 0 37 -29 q29 -27 29 -42 q0 -7 -26 -9 q-31 -2 -33 -6 q-65 -81 -131 -140 q-58 -47 -125 -87 q55 -30 86 -54 q30 -28 30 -47 q0 -27 -20 -28 q-23 3 -35 20 q-96 103 -277 183 l4 20 q117 -46 193 -84 q66 46 119 100 q60 61 110 140 l-399 0 q-102 0 -137 -8 l-19 47 Z" /><glyph glyph-name="" unicode="&#x4ef6;" d="M253 734 q44 -17 79 -32 q15 -6 15 -15 q0 -6 -21 -11 q-33 -4 -41 -20 q-37 -102 -74 -174 q4 -2 9 -4 q18 -5 18 -13 q0 -7 -15 -10 q-9 -4 -9 -10 l0 -473 q0 -53 4 -105 q0 -6 -13 -10 q-9 -6 -18 -6 q-20 0 -20 16 q4 72 4 105 l0 441 q-61 -91 -129 -152 l-7 16 q86 99 133 202 q41 84 85 255 ZM437 664 q33 -9 68 -24 q22 -6 22 -19 q0 -6 -22 -8 q-24 -5 -29 -8 q-21 -70 -43 -117 l172 0 l0 141 q0 72 -8 101 q84 -15 84 -15 q26 -4 26 -16 q0 -10 -30 -15 q-25 -6 -25 -16 l0 -180 l152 0 q0 0 19 21 q19 26 28 26 q7 0 34 -24 q32 -29 32 -35 q0 -15 -15 -15 l-250 0 l0 -227 l180 0 q14 16 25 33 q14 18 21 18 q9 0 38 -27 q33 -30 33 -36 q0 -15 -20 -15 l-277 0 l0 -165 q4 -85 4 -167 q0 -19 -29 -25 q-9 -3 -14 -3 q-12 0 -12 24 q0 82 4 171 l0 165 l-211 0 q-62 0 -86 -8 l-16 43 q35 -8 102 -8 l211 0 l0 227 l-184 0 q-7 -13 -13 -22 q-36 -75 -92 -139 l-12 12 q47 64 76 140 q37 90 57 212 Z" /><glyph glyph-name="" unicode="&#x4f1a;" d="M468 742 q38 -14 69 -26 q13 -6 13 -13 q0 -6 -18 -9 q-12 -2 -19 -5 q76 -101 188 -174 q112 -72 256 -109 l0 -16 q-58 0 -71 -14 q-9 -13 -11 -13 q-23 0 -103 51 q-90 56 -157 121 q-75 69 -116 144 q-2 -2 -3 -4 q-95 -127 -195 -205 q-119 -88 -251 -146 l-8 12 q168 87 260 179 q81 75 166 227 ZM261 383 q34 -8 102 -8 l301 0 q10 12 19 26 q10 13 16 13 q7 0 30 -22 q28 -24 28 -29 q0 -16 -15 -16 l-379 0 q-63 0 -86 -7 l-16 43 ZM156 207 q34 -8 101 -8 l493 0 q11 12 20 26 q12 13 19 13 q7 0 30 -21 q28 -25 28 -30 q0 -15 -19 -15 l-391 0 q-68 -124 -176 -235 q175 1 448 44 q-3 4 -5 7 q-25 39 -87 98 l11 11 q96 -68 139 -120 q37 -48 37 -79 q0 -19 -5 -29 q-9 -10 -18 -10 q-16 1 -24 20 q-20 54 -38 86 q-248 -51 -395 -63 q-96 -8 -107 -21 l-3 -6 q-6 -24 -15 -24 q-9 0 -17 18 q-16 39 -26 76 q51 -7 81 -8 q97 119 139 235 l-119 0 q-62 0 -86 -8 l-15 43 Z" /><glyph glyph-name="" unicode="&#x4f5c;" d="M277 738 q41 -15 75 -29 q15 -6 15 -14 q0 -6 -20 -11 q-31 -5 -39 -20 q-37 -98 -76 -170 q6 -2 12 -4 q17 -5 17 -14 q0 -7 -14 -9 q-9 -4 -9 -10 l0 -481 q0 -53 4 -105 q0 -7 -13 -10 q-10 -6 -19 -6 q-19 0 -19 16 q4 72 4 105 l0 455 q-1 -2 -2 -3 q-69 -100 -147 -167 l-7 12 q93 100 145 206 q45 85 93 259 ZM492 738 q40 -12 70 -22 q20 -7 20 -17 q0 -8 -18 -10 q-28 -6 -29 -14 q-23 -62 -46 -113 l350 0 q0 0 19 22 q19 25 28 25 q7 0 34 -23 q33 -30 33 -36 q0 -15 -16 -15 l-316 0 l0 -176 l191 0 q0 0 17 22 q17 25 26 25 q7 0 32 -23 q30 -30 30 -36 q0 -15 -15 -15 l-281 0 l0 -176 l195 0 q0 0 17 21 q17 26 26 26 q7 0 32 -24 q30 -29 30 -35 q0 -15 -15 -15 l-285 0 l0 -121 l4 -125 q0 -19 -13 -23 q-15 -9 -27 -9 q-11 0 -11 32 l4 125 l0 527 l-102 0 q-19 -39 -38 -70 q-63 -99 -126 -157 l-8 8 q72 92 116 182 q53 110 72 240 Z" /><glyph glyph-name="" unicode="&#x4f7f;" d="M238 734 q40 -12 70 -22 q20 -7 20 -17 q0 -8 -18 -10 q-28 -6 -29 -13 q-33 -99 -68 -172 q7 -3 15 -6 q18 -6 18 -14 q0 -7 -15 -10 q-9 -3 -9 -9 l0 -496 q0 -54 4 -106 q0 -6 -13 -10 q-9 -6 -18 -6 q-20 0 -20 16 q4 72 4 106 l0 471 q-64 -108 -129 -171 l-8 8 q75 101 121 198 q55 121 75 263 ZM296 613 q35 -8 102 -8 l192 0 q-1 96 -5 125 q39 -6 73 -14 q21 -3 21 -13 q0 -4 -14 -10 q-33 -10 -33 -21 l0 -67 l207 0 q13 15 24 31 q12 16 19 16 q9 0 35 -25 q32 -28 32 -34 q0 -15 -20 -15 l-297 0 l0 -110 l176 0 q2 0 14 15 q16 17 21 17 q8 0 34 -27 q21 -22 21 -28 q0 -5 -21 -16 q-14 -9 -14 -15 q0 -109 4 -207 q0 -7 -15 -12 q-11 -3 -13 -4 q-19 0 -19 16 l0 23 l-194 0 q-8 -77 -26 -118 q-24 -56 -57 -97 q78 -44 180 -67 q111 -23 230 -23 l0 -19 q-56 -3 -67 -26 q-5 -13 -11 -13 q-29 0 -153 34 q-116 32 -202 88 q-25 -26 -53 -45 q-90 -60 -210 -89 l-4 12 q136 47 193 97 q25 19 46 42 q-68 48 -137 146 l16 8 q71 -87 142 -128 q24 33 43 70 q22 49 31 128 l-174 0 l1 -19 q0 -12 -21 -16 q-13 -4 -18 -4 q-12 0 -12 20 l4 58 l0 137 q0 53 -12 98 q33 -13 58 -36 l179 0 q0 63 -1 110 l-193 0 q-63 0 -86 -8 l-16 43 ZM411 258 l179 0 q2 24 3 50 q0 75 -1 133 l-182 0 l0 -172 l1 -11 ZM632 441 l0 -133 q-1 -27 -3 -50 l191 0 l0 183 l-188 0 Z" /><glyph glyph-name="" unicode="&#x4fa0;" d="M242 726 q43 -16 69 -26 q17 -6 17 -13 q0 -11 -25 -14 q-20 -8 -22 -17 q-37 -88 -74 -161 q6 -2 13 -5 q18 -5 18 -14 q0 -7 -15 -9 q-9 -4 -9 -10 l0 -489 q0 -53 4 -105 q0 -6 -13 -10 q-9 -6 -18 -6 q-20 0 -20 16 q4 72 4 105 l0 460 q-60 -106 -121 -178 l-11 8 q147 227 203 468 ZM304 574 q34 -8 102 -8 l156 0 q-2 130 -8 156 q47 -7 88 -18 q25 -4 25 -17 q0 -4 -18 -10 q-40 -9 -40 -21 l0 -90 l199 0 q13 13 24 28 q12 15 19 15 q8 0 33 -23 q30 -26 30 -32 q0 -15 -20 -15 l-285 0 l0 -51 q-5 -160 -22 -242 l260 0 q13 14 24 31 q12 16 19 16 q8 0 35 -25 q32 -29 32 -34 q0 -16 -20 -16 l-317 0 q55 -118 128 -187 q55 -55 201 -121 l0 -20 q-48 0 -63 -17 q-9 -14 -15 -14 q-18 0 -117 100 q-108 112 -156 259 l-17 0 q-1 -3 -2 -6 q-46 -154 -125 -236 q-84 -85 -197 -125 l-4 16 q123 66 175 136 q60 73 100 194 q3 10 5 21 l-178 0 q-63 0 -86 -7 l-16 43 q35 -8 102 -8 l184 0 q20 94 23 242 l0 51 l-156 0 q-63 0 -86 -8 l-16 43 ZM359 480 q61 -49 89 -85 q24 -34 24 -55 q0 -20 -5 -30 q-9 -10 -18 -10 q-16 1 -24 20 q-16 54 -30 79 q-13 27 -48 69 l12 12 ZM769 492 q40 -12 69 -20 q25 -5 25 -15 q0 -9 -22 -13 q-25 -8 -29 -15 q-48 -87 -125 -148 l-16 4 q84 116 98 207 Z" /><glyph glyph-name="" unicode="&#x4fdd;" d="M234 738 q41 -15 75 -29 q15 -6 15 -14 q0 -6 -20 -11 q-31 -5 -39 -20 q-30 -95 -62 -166 q7 -2 13 -4 q18 -6 18 -14 q0 -7 -15 -10 q-9 -3 -9 -9 l0 -496 q0 -54 4 -106 q0 -6 -13 -10 q-9 -6 -18 -6 q-19 0 -19 16 q3 72 3 106 l0 461 q-59 -102 -125 -168 l-7 11 q78 101 121 207 q38 86 78 262 ZM375 711 q32 -13 58 -36 l324 0 q2 0 14 15 q16 17 21 17 q8 0 34 -27 q21 -22 21 -28 q0 -5 -20 -16 q-15 -9 -15 -15 q0 -121 4 -231 q0 -6 -15 -11 q-11 -4 -12 -4 q-20 0 -20 15 l0 16 l-148 0 l0 -129 l222 0 q13 13 24 28 q12 15 19 15 q8 0 33 -23 q30 -26 30 -32 q0 -15 -20 -15 l-285 0 q51 -99 119 -158 q52 -47 190 -104 l0 -16 q-41 0 -54 -15 q-7 -12 -13 -12 q-16 0 -111 85 q-103 96 -148 220 l-6 0 l0 -246 l4 -125 q0 -18 -13 -23 q-15 -9 -27 -9 q-11 0 -11 32 l4 125 l0 241 q-64 -116 -133 -181 q-87 -85 -192 -139 l-7 16 q90 51 164 132 q62 64 118 177 l-173 0 q-63 0 -86 -8 l-16 43 q35 -8 102 -8 l223 0 l0 129 l-147 0 l2 -23 q0 -12 -20 -17 q-13 -3 -19 -3 q-12 0 -12 20 l4 58 l0 172 q0 53 -11 98 ZM429 433 l340 0 l0 215 l-340 0 l0 -215 Z" /><glyph glyph-name="" unicode="&#x4fe1;" d="M265 730 q42 -15 75 -29 q15 -6 15 -14 q0 -6 -20 -11 q-31 -4 -39 -20 q-37 -104 -76 -177 q6 -2 12 -5 q18 -5 18 -13 q0 -7 -15 -10 q-9 -4 -9 -10 l0 -465 q0 -53 4 -105 q0 -7 -13 -10 q-9 -6 -18 -6 q-20 0 -20 16 q4 72 4 105 l0 439 q-64 -97 -137 -161 l-7 11 q89 100 137 206 q44 85 89 259 ZM535 742 q61 -39 89 -68 q24 -28 24 -45 q0 -20 -5 -30 q-9 -9 -18 -9 q-17 0 -24 19 q-16 45 -30 64 q-13 23 -48 57 l12 12 ZM296 586 q35 -8 102 -8 l453 0 q12 12 21 26 q11 13 18 13 q7 0 31 -22 q28 -24 28 -29 q0 -16 -20 -16 l-531 0 q-63 0 -86 -7 l-16 43 ZM378 453 q35 -8 102 -8 l289 0 q10 12 19 26 q10 13 16 13 q8 0 31 -21 q28 -25 28 -30 q0 -15 -16 -15 l-367 0 q-63 0 -86 -8 l-16 43 ZM386 316 q34 -8 102 -8 l285 0 q10 13 19 26 q10 13 16 13 q7 0 31 -21 q28 -25 28 -29 q0 -16 -16 -16 l-363 0 q-63 0 -86 -8 l-16 43 ZM394 207 q32 -11 57 -35 l318 0 q1 0 14 13 q16 14 21 14 q8 0 34 -26 q21 -22 21 -29 q0 -5 -23 -15 q-16 -10 -16 -16 q0 -124 4 -234 q0 -7 -15 -12 q-11 -4 -13 -4 q-19 0 -19 16 l0 43 l-327 0 l3 -39 q0 -12 -21 -17 q-13 -3 -18 -3 q-12 0 -12 20 l4 58 l0 168 q0 53 -12 98 ZM449 -51 l328 0 l0 195 l-328 0 l0 -195 Z" /><glyph glyph-name="" unicode="&#x504f;" d="M242 738 q40 -12 70 -22 q20 -7 20 -17 q0 -8 -18 -10 q-28 -6 -29 -14 q-33 -99 -68 -171 q7 -3 15 -6 q18 -6 18 -14 q0 -7 -15 -10 q-9 -3 -9 -9 l0 -493 q0 -53 4 -105 q0 -6 -13 -10 q-9 -6 -18 -6 q-20 0 -20 16 q4 72 4 105 l0 468 q-64 -108 -129 -171 l-8 8 q75 101 120 198 q56 121 76 263 ZM800 679 q-190 -57 -414 -58 l0 -82 l414 0 q2 0 13 13 q14 14 19 14 q7 0 31 -22 q19 -19 19 -25 q0 -5 -20 -15 q-15 -10 -15 -16 q0 -70 4 -133 q0 -7 -13 -12 q-9 -3 -10 -3 q-20 0 -20 15 l0 20 l-423 0 q-2 -83 -10 -160 q-12 -97 -33 -161 q-24 -74 -81 -156 l-11 12 q44 79 62 153 q17 62 26 156 q9 109 9 226 l0 125 q0 67 -12 102 l60 -34 q240 15 405 100 q32 -23 56 -42 q11 -6 11 -13 q-1 -10 -24 -11 q-18 1 -43 7 ZM385 402 l423 0 l0 109 l-422 0 l0 -66 q0 -23 -1 -43 ZM402 304 q27 -9 49 -27 l396 0 q0 0 11 12 q10 11 17 11 q6 0 30 -18 q20 -17 20 -24 q0 -6 -16 -17 q-15 -9 -15 -19 l0 -281 q0 -37 -31 -57 q-23 -17 -31 -17 q-4 0 -7 15 q-4 22 -64 36 l4 15 q46 -4 74 -4 q16 0 16 32 l0 140 l-121 0 l0 -179 q0 -18 -10 -23 q-12 -9 -21 -9 q-12 0 -12 32 l4 109 l0 70 l-102 0 l0 -183 q0 -18 -10 -23 q-12 -9 -21 -9 q-12 0 -12 32 l4 109 l0 74 l-105 0 l0 -176 l4 -50 q0 -12 -19 -16 q-11 -4 -17 -4 q-11 0 -11 20 l4 50 l0 290 q0 48 -8 89 ZM449 129 l105 0 l0 121 l-105 0 l0 -121 ZM593 250 l0 -121 l102 0 l0 121 l-102 0 ZM734 250 l0 -121 l121 0 l0 121 l-121 0 Z" /><glyph glyph-name="" unicode="&#x50cf;" d="M246 742 q41 -15 75 -29 q14 -6 14 -14 q0 -6 -20 -11 q-30 -5 -38 -20 q-35 -106 -71 -182 q7 -2 12 -4 q16 -5 16 -14 q0 -5 -15 -7 q-9 -3 -9 -8 l0 -488 q0 -48 4 -94 q0 -7 -11 -10 q-8 -6 -16 -6 q-20 0 -20 16 q4 64 4 94 l0 456 q-58 -93 -121 -156 l-8 12 q81 100 124 206 q39 85 80 259 ZM468 730 q62 -12 62 -12 q24 -4 24 -15 q0 -6 -13 -6 l-34 -2 q-15 -26 -28 -47 l173 0 q8 6 15 11 q14 13 24 13 q4 0 30 -25 q25 -24 25 -30 q0 -8 -17 -10 q-31 -1 -34 -10 q-40 -44 -82 -82 l207 0 q4 4 13 11 q11 9 14 9 q7 0 29 -20 q22 -16 22 -23 q0 -7 -18 -16 q-17 -10 -17 -15 l0 -80 q0 -18 4 -45 q0 -12 -16 -17 q-13 -3 -19 -3 q-12 0 -12 20 q1 3 1 7 l-217 0 q-27 -25 -52 -44 q47 -49 77 -117 q34 14 74 40 q58 32 101 78 q50 -29 50 -29 q17 -9 17 -13 q-2 -8 -12 -8 l-35 4 q-37 -21 -85 -43 q37 -84 93 -145 q55 -59 125 -90 l0 -15 q-47 0 -58 -11 q-6 -9 -9 -9 q-10 0 -44 42 q-39 46 -68 99 q-34 60 -51 124 q-43 -18 -94 -36 q27 -72 27 -170 q-2 -66 -36 -103 q-34 -34 -58 -34 q-8 0 -12 14 q-12 28 -94 48 l4 12 q62 -8 102 -8 q25 0 33 10 q14 18 18 61 q0 52 -5 93 q-155 -107 -339 -156 l-4 12 q186 58 337 186 q-1 9 -3 16 q-7 26 -17 50 q-142 -99 -313 -143 l-4 12 q166 52 301 165 q-14 28 -32 53 q-38 -28 -77 -47 q-96 -50 -211 -81 l-4 15 q101 29 184 75 q66 35 124 93 l-172 0 l0 -15 q0 -9 -14 -15 q-16 -5 -21 -5 q-8 0 -8 20 q8 74 8 97 q0 45 -2 66 q-38 -32 -84 -58 l-8 16 q82 60 122 113 q52 60 93 168 ZM382 371 l200 0 l0 117 l-200 0 l0 -117 ZM621 371 l203 0 l0 117 l-203 0 l0 -117 ZM395 515 l197 0 q36 58 60 106 l-191 0 q-38 -58 -69 -87 q-4 -5 -8 -8 l11 -11 Z" /><glyph glyph-name="" unicode="&#x50f5;" d="M253 734 q42 -15 76 -29 q14 -6 14 -14 q0 -2 -1 -1 q29 -3 68 -3 l410 0 q13 13 23 29 q12 14 20 14 q8 0 33 -23 q29 -26 29 -32 q0 -15 -19 -15 l-496 0 q-63 0 -86 -8 l-10 26 q-23 -5 -29 -18 q-35 -99 -71 -170 q5 -2 10 -4 q18 -5 18 -14 q0 -6 -15 -9 q-9 -4 -9 -10 l0 -473 q0 -54 4 -105 q0 -7 -13 -11 q-9 -5 -18 -5 q-20 0 -20 16 q4 71 4 105 l0 440 q-63 -95 -133 -159 l-7 12 q86 99 133 204 q41 84 85 257 ZM347 625 q27 -9 50 -28 l392 0 q4 5 12 13 q11 11 15 11 q7 0 29 -20 q22 -16 22 -23 q0 -7 -16 -16 q-16 -10 -16 -15 l0 -112 q0 -27 4 -64 q0 -12 -15 -17 q-13 -3 -20 -3 q-12 0 -12 20 q0 2 1 4 l-396 0 l1 -12 q0 -11 -19 -16 q-11 -4 -16 -4 q-12 0 -12 20 l4 51 l0 121 q0 49 -8 90 ZM395 402 l175 0 l0 70 l-176 0 l0 -58 l1 -12 ZM609 472 l0 -70 l186 0 q1 16 1 33 l0 37 l-187 0 ZM394 500 l176 0 l0 70 l-176 0 l0 -70 ZM609 570 l0 -70 l187 0 l0 70 l-187 0 ZM273 324 q34 -8 102 -8 l460 0 q12 12 21 26 q12 13 19 13 q7 0 30 -21 q28 -25 28 -30 q0 -15 -19 -15 l-539 0 q-63 0 -86 -8 l-16 43 ZM339 254 q27 -9 50 -28 l407 0 q5 5 13 13 q11 11 15 11 q7 0 29 -20 q22 -16 22 -23 q0 -7 -16 -16 q-16 -10 -16 -16 l0 -121 q0 -29 4 -70 q0 -12 -15 -17 q-14 -2 -20 -2 q-12 0 -12 19 q1 4 1 8 l-413 0 l2 -20 q0 -11 -18 -16 q-12 -3 -17 -3 q-12 0 -12 19 l4 51 l0 141 q0 49 -8 90 ZM386 19 l188 0 l0 78 l-188 0 l0 -78 ZM613 97 l0 -78 l190 0 q1 17 1 35 l0 43 l-191 0 ZM386 125 l188 0 l0 74 l-188 0 l0 -74 ZM613 199 l0 -74 l191 0 l0 74 l-191 0 ZM253 -75 q35 -7 102 -7 l492 0 q13 14 24 30 q12 17 19 17 q8 0 35 -25 q32 -29 32 -34 q0 -16 -20 -16 l-582 0 q-63 0 -86 -7 l-16 42 Z" /><glyph glyph-name="" unicode="&#x5145;" d="M410 734 q80 -37 116 -63 q32 -26 32 -42 q0 -22 -5 -33 q-9 -10 -18 -10 q-19 0 -28 23 q-22 42 -41 60 q-20 21 -68 53 l12 12 ZM66 578 q34 -8 101 -8 l641 0 q15 17 27 36 q15 19 24 19 q10 0 41 -29 q37 -31 37 -38 q0 -15 -23 -15 l-449 0 q-55 -116 -143 -219 q199 8 412 32 q-41 47 -106 101 l8 11 q155 -95 180 -133 q19 -26 19 -46 q0 -31 -19 -31 q-14 0 -40 42 q-11 19 -27 39 q-77 -13 -152 -24 l0 -339 q0 -35 14 -45 q15 -13 140 -13 q72 0 100 15 q15 6 16 29 q5 65 8 155 l19 0 l0 -110 q0 -49 21 -64 q14 -8 14 -21 q0 -18 -24 -28 q-41 -15 -154 -15 l-110 0 q-49 2 -70 27 q-17 22 -17 70 l0 333 q-74 -9 -145 -16 q-7 -140 -29 -204 q-21 -64 -64 -115 q-84 -95 -242 -131 l-4 16 q140 34 214 126 q38 49 57 111 q18 61 25 193 q-36 -4 -71 -6 q-128 -9 -128 -18 q-5 -19 -15 -19 q-9 0 -14 27 q-5 22 -10 47 l51 0 q60 1 120 3 q74 112 106 220 l-238 0 q-62 0 -85 -8 l-16 43 Z" /><glyph glyph-name="" unicode="&#x5165;" d="M234 668 q63 -8 129 -8 l117 0 q9 7 20 20 q9 11 15 11 q11 0 37 -22 q30 -23 30 -33 q0 -6 -24 -16 q-27 -11 -27 -19 q0 -130 39 -248 q47 -147 140 -264 q98 -110 247 -171 l-4 -16 q-41 0 -65 -14 q-14 -13 -17 -13 q-19 0 -80 59 q-93 86 -154 184 q-52 79 -91 207 q-14 42 -24 89 q-54 -145 -113 -239 q-56 -90 -130 -157 q-97 -95 -225 -163 l-8 20 q125 77 220 186 q71 77 126 180 q60 112 114 284 q-5 52 -6 108 l-137 0 q-53 0 -113 -8 l-16 43 Z" /><glyph glyph-name="" unicode="&#x5173;" d="M285 703 q78 -49 113 -85 q31 -34 31 -56 q0 -19 -5 -29 q-9 -10 -18 -10 q-16 1 -24 20 q-22 54 -41 78 q-20 28 -68 70 l12 12 ZM660 726 q53 -19 53 -19 q25 -8 25 -16 q0 -8 -23 -11 q-17 -1 -20 -5 q-63 -104 -149 -175 l-7 11 q48 54 68 91 q30 46 53 124 ZM164 496 q34 -8 101 -8 l449 0 q13 15 24 31 q12 16 19 16 q9 0 35 -25 q32 -28 32 -34 q0 -15 -20 -15 l-293 0 q-1 -150 -16 -223 l305 0 q14 16 26 33 q13 18 21 18 q9 0 37 -27 q33 -30 33 -36 q0 -15 -19 -15 l-367 0 q55 -98 120 -154 q51 -50 146 -85 q62 -25 152 -31 l-4 -19 q-31 0 -41 -21 q-9 -18 -14 -18 q-19 0 -93 32 q-87 34 -166 109 q-66 62 -119 187 l-24 0 q-2 -8 -4 -13 q-23 -73 -75 -144 q-55 -68 -134 -115 q-87 -49 -221 -88 l-8 20 q122 38 203 85 q71 45 122 112 q47 68 68 139 q1 2 1 4 l-265 0 q-62 0 -86 -8 l-15 43 q34 -8 101 -8 l272 0 q16 75 17 223 l-199 0 q-62 0 -86 -8 l-15 43 Z" /><glyph glyph-name="" unicode="&#x5176;" d="M78 586 q34 -8 101 -8 l110 0 l0 8 q0 89 -8 140 q42 -8 69 -13 q25 -4 25 -14 q0 -8 -25 -16 q-18 -5 -18 -19 l0 -86 l335 0 l0 12 q0 89 -7 140 q42 -8 69 -13 q24 -4 24 -14 q0 -8 -24 -16 q-19 -5 -19 -19 l0 -90 l106 0 q13 14 23 31 q13 16 20 16 q8 0 35 -25 q31 -29 31 -34 q0 -16 -19 -16 l-196 0 l0 -417 l118 0 q14 15 25 33 q14 17 22 17 q8 0 37 -27 q33 -29 33 -35 q0 -16 -20 -16 l-769 0 q-63 0 -86 -8 l-16 43 q34 -7 102 -7 l133 0 l0 417 l-110 0 q-62 0 -86 -7 l-15 43 ZM332 133 l335 0 l0 132 l-335 0 l0 -132 ZM332 293 l335 0 l0 117 l-335 0 l0 -117 ZM332 437 l335 0 l0 113 l-335 0 l0 -113 ZM367 62 q31 -16 62 -32 q16 -9 16 -19 q0 -6 -13 -9 q-48 -1 -50 -6 q-103 -81 -300 -145 l-8 16 q134 54 188 95 q54 29 105 100 ZM605 54 q210 -87 243 -121 q27 -25 27 -43 q0 -27 -20 -27 q-20 0 -55 39 q-54 59 -203 141 l8 11 Z" /><glyph glyph-name="" unicode="&#x5185;" d="M113 566 q31 -11 57 -35 l281 0 q9 67 13 144 l0 55 q35 -10 65 -18 q29 -9 29 -13 q0 -12 -19 -17 q-26 -7 -28 -18 q-7 -74 -17 -133 l310 0 q0 0 12 18 q13 17 19 17 q7 0 33 -20 q22 -19 22 -27 q0 -6 -18 -18 q-17 -11 -17 -21 l0 -547 q0 -43 -31 -66 q-23 -20 -32 -20 q-6 0 -14 21 q-9 30 -138 50 l4 15 q94 -15 152 -15 q16 0 16 35 l0 551 l-323 0 q-9 -50 -20 -90 q176 -120 239 -208 q26 -41 26 -70 q0 -26 -20 -27 q-20 3 -31 20 q-76 149 -219 265 q-15 -55 -34 -96 q-62 -136 -196 -224 l-12 12 q116 90 167 214 q39 82 58 204 l-280 0 l0 -575 l4 -58 q0 -11 -20 -16 q-13 -4 -19 -4 q-11 0 -11 20 l4 58 l0 539 q0 53 -12 98 Z" /><glyph glyph-name="" unicode="&#x518c;" d="M140 699 q27 -9 49 -27 l182 0 q0 0 12 15 q12 16 19 16 q7 0 33 -21 q22 -18 22 -26 q0 -6 -19 -19 q-17 -10 -17 -20 l0 -270 l106 0 l0 262 q0 53 -12 98 q32 -11 57 -35 l217 0 q0 0 12 15 q12 16 19 16 q7 0 33 -21 q22 -18 22 -26 q0 -6 -19 -19 q-17 -10 -17 -20 l0 -270 l20 0 q0 0 20 29 q14 22 23 22 q10 0 43 -36 q19 -24 19 -26 q0 -16 -11 -16 l-114 0 l0 -383 q0 -39 -40 -60 q-31 -18 -42 -18 q-5 0 -11 20 q-7 28 -110 46 l4 16 q87 -16 141 -16 q15 0 15 32 l0 363 l-226 0 l0 -395 l4 -58 q0 -11 -21 -16 q-12 -4 -18 -4 q-12 0 -12 20 l4 58 l0 395 l-106 0 l0 -379 q0 -39 -34 -60 q-27 -18 -36 -18 q-5 0 -10 21 q-6 29 -95 49 l4 16 q69 -20 113 -20 q15 0 15 32 l0 359 l-191 0 l0 -398 l4 -51 q0 -11 -19 -16 q-11 -4 -16 -4 q-12 0 -12 20 l4 51 l0 398 q-56 -2 -94 -8 l-12 43 q47 -6 106 -8 l0 262 q0 49 -8 90 ZM187 347 l191 0 l0 297 l-191 0 l0 -297 ZM570 347 l226 0 l0 297 l-226 0 l0 -297 Z" /><glyph glyph-name="" unicode="&#x51fb;" d="M101 547 q34 -8 102 -8 l269 0 l0 39 q0 99 -8 156 q46 -10 75 -16 q27 -3 27 -15 q0 -9 -27 -18 q-20 -6 -20 -21 l0 -125 l238 0 q13 14 24 31 q12 16 19 16 q9 0 35 -25 q32 -29 32 -34 q0 -16 -20 -16 l-328 0 l0 -168 l316 0 q15 16 26 34 q14 17 21 17 q9 0 37 -27 q34 -29 34 -35 q0 -16 -20 -16 l-414 0 l0 -375 l280 0 q1 5 1 8 l0 211 q0 64 -11 90 q74 -14 74 -14 q23 -3 23 -14 q0 -9 -23 -14 q-20 -7 -20 -17 l0 -312 q0 -16 -23 -22 q-8 -2 -12 -2 q-12 0 -12 20 q0 20 1 39 l-575 0 q-11 0 -26 -16 q-13 -15 -17 -15 q-6 0 -29 20 q-22 15 -22 22 q0 7 24 19 q8 8 8 28 l0 172 q0 45 -8 106 q35 -11 56 -15 q34 -7 34 -17 q0 -7 -23 -11 q-16 -6 -16 -12 l0 -254 l269 0 l0 375 l-332 0 q-62 0 -86 -8 l-15 43 q34 -8 101 -8 l332 0 l0 168 l-269 0 q-63 0 -86 -7 l-16 43 Z" /><glyph glyph-name="" unicode="&#x51fd;" d="M46 679 q80 -8 184 -11 l602 0 q13 15 28 36 q14 14 18 14 q9 0 17 -9 q17 -17 39 -39 q11 -11 11 -14 q0 -16 -12 -16 l-499 0 l-57 -132 l134 0 q4 3 12 14 q13 13 16 13 q11 0 34 -18 q24 -19 24 -29 q0 -4 -21 -13 q-18 -8 -22 -14 q-4 -91 -9 -160 q34 20 72 52 q60 43 105 108 q52 -33 52 -33 q18 -9 18 -14 q-1 -8 -15 -8 l-35 4 q-76 -64 -198 -128 q-1 -15 -2 -28 q120 -59 176 -103 q51 -45 51 -73 q0 -18 -4 -27 q-8 -8 -15 -8 q-14 0 -20 15 q-43 70 -80 101 q-33 33 -109 78 q-9 -116 -19 -160 q-11 -53 -35 -74 q-25 -19 -50 -19 q-2 0 -9 15 q-6 21 -93 44 l4 15 q35 -11 114 -11 q13 0 20 5 q11 12 15 46 q20 145 27 382 l-150 0 l-6 -15 q0 -5 -8 -9 q-12 -3 -19 -3 q-16 0 -16 15 l75 172 l-161 0 q-124 0 -160 -7 l-24 46 ZM257 441 q104 -67 120 -93 q13 -18 13 -32 q0 -35 -23 -35 q-9 0 -25 32 q-25 49 -92 116 l7 12 ZM484 269 l4 -11 q-100 -84 -223 -157 q-10 -6 -7 -20 q6 -23 -5 -23 q-8 0 -25 22 q-19 21 -33 37 q96 34 289 152 ZM125 500 q74 -14 74 -14 q23 -3 23 -14 q0 -9 -23 -14 q-20 -7 -20 -17 l0 -492 l634 0 q1 30 3 60 l0 401 q0 64 -12 90 q75 -14 75 -14 q23 -3 23 -14 q0 -9 -24 -14 q-19 -7 -19 -17 l0 -551 q0 -16 -23 -21 q-8 -2 -12 -2 q-12 0 -12 19 q0 19 1 36 l-634 0 l0 -39 q0 -17 -23 -22 q-8 -2 -12 -2 q-12 0 -12 20 q0 60 4 124 l0 407 q0 64 -11 90 Z" /><glyph glyph-name="" unicode="&#x5206;" d="M328 675 q41 -15 75 -29 q14 -6 14 -13 q0 -7 -20 -11 q-30 -5 -38 -21 q-65 -127 -133 -205 q-81 -88 -172 -146 l-8 11 q111 90 172 184 q53 75 110 230 ZM472 691 q48 -8 133 -8 q9 10 17 20 q7 12 14 12 q9 0 33 -22 q26 -23 26 -29 q0 -7 -23 -17 q-24 -8 -24 -14 q15 -73 102 -168 q62 -75 191 -137 l-8 -16 q-21 -2 -36 -14 q-14 -17 -19 -17 q-10 0 -59 48 q-66 57 -123 148 q-61 91 -75 179 q-90 0 -133 -4 l-16 39 ZM183 343 q45 -7 141 -7 l351 0 q8 6 16 16 q14 15 19 15 q6 0 32 -19 q27 -22 27 -28 q0 -9 -18 -18 q-17 -7 -17 -13 q-20 -305 -49 -363 q-16 -44 -96 -59 q-8 0 -16 25 q-23 24 -124 45 l8 16 q126 -16 156 -16 q13 0 31 27 q31 62 43 344 l-260 0 q-14 -111 -52 -193 q-43 -99 -113 -155 q-76 -61 -192 -105 l-12 16 q103 42 169 101 q62 55 100 150 q34 80 46 186 l-49 0 q-84 0 -125 -8 l-16 43 Z" /><glyph glyph-name="" unicode="&#x5217;" d="M50 672 q34 -8 102 -8 l305 0 q12 14 23 31 q12 16 20 16 q8 0 35 -25 q31 -29 31 -34 q0 -16 -20 -16 l-247 0 q-27 -95 -55 -160 l185 0 q8 7 16 17 q8 11 15 11 q7 0 31 -17 q20 -17 20 -22 q0 -6 -11 -13 q-16 -10 -16 -15 q-42 -199 -146 -340 q-109 -139 -264 -222 l-12 11 q143 91 233 216 q101 140 138 347 l-201 0 q-16 -35 -32 -59 q-12 -23 -27 -44 q89 -38 118 -70 q21 -24 21 -50 q0 -27 -20 -27 q-10 0 -29 31 q-26 48 -100 102 q-45 -60 -109 -114 l-8 12 q81 81 120 167 q42 74 83 239 l-97 0 q-63 0 -86 -7 l-16 43 ZM621 648 q23 -7 57 -15 q29 -5 29 -12 q0 -8 -17 -15 q-19 -4 -19 -13 l0 -476 q0 -7 -13 -14 q-18 -6 -22 -6 q-11 0 -11 8 l3 43 l0 430 q0 34 -7 70 ZM828 726 q64 -12 64 -12 q25 -6 25 -15 q0 -7 -24 -14 q-15 -6 -15 -13 l0 -735 q0 -35 -24 -57 q-33 -29 -62 -29 q-6 0 -14 23 q-9 26 -138 40 l0 15 q80 -7 176 -7 q19 0 19 15 l0 676 q0 75 -7 113 Z" /><glyph glyph-name="" unicode="&#x5219;" d="M121 703 q31 -11 57 -35 l271 0 q1 0 14 14 q16 17 21 17 q8 0 34 -26 q21 -22 21 -29 q0 -5 -21 -15 q-15 -10 -15 -16 q0 -271 4 -516 q0 -6 -14 -11 q-12 -4 -13 -4 q-20 0 -20 15 l0 543 l-285 0 l0 -480 l4 -59 q0 -11 -20 -16 q-13 -3 -19 -3 q-12 0 -12 19 l4 59 l0 445 q0 53 -11 98 ZM277 531 q43 -7 81 -17 q24 -3 24 -14 q0 -4 -16 -10 q-34 -10 -34 -22 l0 -140 q-4 -146 -22 -208 q-32 -116 -89 -178 q-59 -64 -139 -95 l-4 16 q84 49 119 102 q41 54 68 145 q20 75 24 218 q0 173 -12 203 ZM375 82 q123 -82 148 -121 q16 -26 16 -36 q0 -21 -9 -35 q-5 -11 -15 -11 q-12 0 -19 11 q-46 101 -129 180 l8 12 ZM636 648 q69 -12 69 -12 q21 -2 21 -11 q0 -9 -23 -13 q-20 -6 -20 -15 l0 -500 q0 -16 -20 -21 q-8 -2 -11 -2 q-12 0 -12 19 q0 54 4 111 l0 362 q0 59 -8 82 ZM839 730 q65 -13 65 -13 q25 -5 25 -14 q0 -7 -24 -14 q-15 -6 -15 -14 l0 -738 q0 -35 -23 -57 q-31 -29 -59 -29 q-6 0 -13 24 q-8 28 -128 43 l0 15 q73 -11 161 -11 q19 0 19 15 l0 680 q0 75 -8 113 Z" /><glyph glyph-name="" unicode="&#x522b;" d="M113 699 q27 -9 48 -27 l276 0 q1 0 13 13 q13 14 18 14 q8 0 32 -23 q19 -19 19 -24 q0 -5 -23 -16 q-16 -9 -16 -15 q0 -126 4 -238 q0 -7 -13 -12 q-9 -4 -11 -4 q-19 0 -19 16 l0 23 l-130 0 q-6 -79 -17 -145 l151 0 q7 8 13 21 q13 18 18 18 q5 0 27 -17 q24 -20 24 -25 q0 -8 -14 -17 q-13 -6 -13 -11 q-19 -268 -44 -319 q-15 -39 -85 -52 q-8 0 -15 27 q-19 25 -106 47 l7 16 q111 -20 137 -20 q11 0 26 22 q27 51 37 283 l-168 0 q-7 -37 -16 -70 q-31 -122 -81 -192 q-54 -74 -138 -129 l-8 16 q71 53 117 126 q43 67 69 186 q7 30 13 63 l-50 0 q-84 0 -125 -8 l-16 43 q45 -8 141 -8 l54 0 q10 67 15 145 l-102 0 l2 -23 q0 -12 -19 -17 q-11 -3 -17 -3 q-11 0 -11 20 l4 50 l0 176 q0 49 -8 90 ZM160 433 l281 0 l0 211 l-281 0 l0 -211 ZM628 629 q21 -5 69 -15 q10 -3 10 -9 q0 -7 -19 -12 q-13 -5 -13 -15 l0 -469 q0 -8 -18 -13 q-11 -3 -21 -3 q-8 0 -8 24 q0 54 4 117 l0 301 q0 56 -4 94 ZM832 718 q64 -12 64 -12 q25 -6 25 -15 q0 -7 -24 -14 q-15 -5 -15 -13 l0 -723 q0 -35 -23 -57 q-31 -29 -59 -29 q-7 0 -13 21 q-10 25 -135 38 l0 15 q76 -4 168 -4 q19 0 19 16 l0 664 q0 75 -7 113 Z" /><glyph glyph-name="" unicode="&#x5230;" d="M66 675 q34 -7 101 -7 l321 0 q12 14 23 30 q12 17 20 17 q8 0 35 -25 q31 -29 31 -34 q0 -16 -19 -16 l-238 0 q-51 -118 -133 -221 q127 4 304 26 q-11 16 -21 26 q-24 29 -84 72 l11 11 q94 -49 136 -87 q36 -35 36 -57 q0 -20 -5 -29 q-9 -10 -18 -10 q-16 0 -24 19 q-12 24 -23 42 q-94 -19 -168 -31 l0 -179 l121 0 q13 15 24 31 q12 16 19 16 q8 0 35 -25 q32 -28 32 -33 q0 -16 -20 -16 l-211 0 l0 -195 q105 23 242 62 l8 -12 q-250 -87 -389 -117 q-91 -20 -91 -31 q0 -27 -8 -27 q-11 0 -22 24 q-16 34 -25 54 q78 6 181 25 q29 5 61 12 l0 205 l-105 0 q-63 0 -86 -8 l-16 43 q34 -8 102 -8 l105 0 l0 173 q-53 -8 -95 -11 q-77 -5 -85 -16 l-3 -5 q-5 -20 -12 -20 q-7 0 -14 15 q-13 33 -21 64 q50 -4 78 -4 l28 0 q70 113 100 222 l-117 0 q-62 0 -85 -7 l-16 42 ZM656 640 q23 -7 57 -15 q29 -5 29 -12 q0 -8 -16 -15 q-19 -4 -19 -12 l0 -477 q0 -7 -14 -14 q-18 -5 -22 -5 q-11 0 -11 7 l4 43 l0 430 q0 34 -8 70 ZM835 734 q65 -13 65 -13 q25 -5 25 -14 q0 -7 -24 -14 q-15 -6 -15 -14 l0 -730 q0 -35 -24 -58 q-33 -28 -62 -28 q-6 0 -13 22 q-9 27 -131 40 l0 16 q75 -8 168 -8 q19 0 19 16 l0 672 q0 75 -8 113 Z" /><glyph glyph-name="" unicode="&#x524d;" d="M285 734 q52 -40 76 -71 q21 -28 21 -46 q0 -20 -5 -29 q-9 -10 -18 -10 q-16 0 -24 19 q-12 46 -23 66 q-11 24 -39 59 l12 12 ZM652 738 q64 -20 64 -20 q22 -8 22 -19 q0 -5 -20 -9 q-22 -5 -23 -7 q-33 -58 -91 -117 l220 0 q14 16 25 33 q14 18 22 18 q8 0 37 -27 q33 -30 33 -36 q0 -15 -20 -15 l-746 0 q-62 0 -86 -8 l-15 43 q34 -8 101 -8 l407 0 q58 83 70 172 ZM144 468 q33 -12 58 -35 l212 0 q0 0 10 14 q11 14 17 14 q6 0 30 -19 q21 -17 21 -24 q0 -6 -17 -17 q-15 -9 -15 -18 l0 -461 q0 -38 -32 -58 q-25 -17 -34 -17 q-4 0 -9 16 q-6 24 -89 39 l4 16 q65 -8 106 -8 q15 0 15 31 l0 172 l-222 0 l0 -195 l4 -59 q0 -11 -21 -16 q-13 -3 -18 -3 q-12 0 -12 19 l4 59 l0 453 q0 53 -12 97 ZM199 140 l222 0 l0 125 l-222 0 l0 -125 ZM199 293 l222 0 l0 113 l-222 0 l0 -113 ZM593 445 q69 -12 69 -12 q21 -3 21 -11 q0 -9 -23 -13 q-20 -6 -20 -15 l0 -386 q0 -17 -20 -22 q-8 -2 -11 -2 q-12 0 -12 20 q0 42 4 88 l0 271 q0 59 -8 82 ZM800 484 q65 -13 65 -13 q25 -5 25 -14 q0 -7 -24 -14 q-15 -6 -15 -14 l0 -496 q0 -32 -21 -52 q-28 -26 -53 -26 q-5 0 -9 21 q-7 25 -93 38 l0 11 q52 -7 114 -7 q19 0 19 15 l0 438 q0 75 -8 113 Z" /><glyph glyph-name="" unicode="&#x529b;" d="M93 527 q72 -12 176 -12 l173 0 q3 48 3 98 q0 68 -4 117 q66 -13 66 -13 q35 -5 35 -14 q0 -12 -26 -17 q-20 -6 -20 -14 q0 -84 -5 -157 l337 0 q16 15 25 25 q12 10 22 10 q6 0 34 -24 q24 -22 24 -30 q0 -11 -31 -24 q-20 -9 -20 -11 q-24 -378 -56 -475 q-26 -76 -76 -97 q-39 -18 -63 -18 q-5 0 -12 14 q-13 27 -67 45 q-43 12 -81 23 l4 12 q128 -16 187 -16 q24 0 38 15 q26 23 43 116 q23 117 36 408 l-346 0 q-20 -255 -102 -376 q-95 -162 -294 -265 l-11 16 q87 50 157 120 q68 65 112 147 q75 135 90 358 l-172 0 q-95 0 -156 -8 l-20 47 Z" /><glyph glyph-name="" unicode="&#x529f;" d="M46 582 q35 -8 102 -8 l191 0 q13 15 24 31 q12 16 19 16 q9 0 35 -25 q32 -28 32 -34 q0 -15 -20 -15 l-168 0 l0 -411 q85 29 199 79 l8 -12 q-189 -101 -294 -136 q-69 -24 -69 -36 q0 -27 -8 -27 q-11 0 -22 24 q-16 34 -25 54 q61 7 141 31 q14 4 27 8 l0 426 l-70 0 q-63 0 -86 -8 l-16 43 ZM375 511 q71 -11 175 -11 l31 0 q1 24 1 47 q0 131 -4 191 q29 -6 72 -17 q21 -4 21 -14 q0 -9 -20 -12 q-23 -9 -23 -20 l0 -128 q-1 -25 -2 -47 l186 0 q16 16 25 27 q13 12 22 12 q6 0 35 -25 q23 -22 23 -30 q0 -11 -31 -24 q-19 -9 -19 -11 q-21 -365 -49 -459 q-22 -73 -65 -93 q-33 -18 -54 -18 q-5 0 -11 13 q-13 26 -62 43 q-40 11 -76 22 l4 11 q117 -15 172 -15 q19 0 31 14 q20 22 34 112 q19 114 29 393 l-196 0 q-10 -158 -38 -250 q-39 -132 -116 -218 q-82 -94 -201 -145 l-12 12 q103 55 180 148 q71 84 105 208 q33 97 38 245 l-30 0 q-94 0 -156 -7 l-19 46 Z" /><glyph glyph-name="" unicode="&#x52a0;" d="M42 539 q45 -8 141 -8 l38 0 q1 50 1 102 q0 59 -4 101 q56 -12 56 -12 q30 -3 30 -11 q0 -11 -22 -15 q-17 -5 -17 -13 q0 -83 -2 -152 l158 0 q8 6 16 15 q14 12 20 12 q5 0 31 -18 q27 -23 27 -29 q0 -9 -17 -18 q-18 -7 -18 -13 q-20 -440 -49 -523 q-16 -65 -96 -86 q-7 0 -14 25 q-18 24 -103 45 l4 12 q107 -16 133 -16 q14 0 33 40 q33 95 45 527 l-171 0 q-11 -263 -55 -386 q-50 -163 -157 -267 l-8 12 q44 51 78 124 q34 65 56 150 q36 138 44 367 l-37 0 q-84 0 -125 -8 l-16 43 ZM578 605 q31 -11 57 -35 l212 0 q6 6 15 19 q13 16 16 16 q8 0 32 -23 q23 -20 23 -28 q0 -7 -17 -17 q-18 -12 -18 -18 l0 -400 q0 -94 8 -229 q0 -13 -19 -19 q-16 -4 -24 -4 q-12 0 -12 23 q1 29 2 63 l-221 0 l0 -16 l4 -58 q0 -12 -20 -16 q-13 -4 -19 -4 q-12 0 -12 20 l4 58 l0 571 q0 52 -11 97 ZM632 -20 l222 0 q1 63 1 139 l0 424 l-223 0 l0 -563 Z" /><glyph glyph-name="" unicode="&#x52a8;" d="M97 590 q34 -8 102 -8 l191 0 q13 13 24 28 q12 15 19 15 q8 0 33 -24 q30 -26 30 -31 q0 -16 -20 -16 l-277 0 q-63 0 -86 -7 l-16 43 ZM58 363 q34 -8 102 -8 l269 0 q13 15 24 31 q12 16 19 16 q8 0 35 -25 q32 -28 32 -34 q0 -15 -20 -15 l-215 0 q-53 -164 -138 -310 q18 3 34 7 q89 18 230 62 q-7 21 -13 33 q-14 36 -50 91 l8 11 q61 -63 89 -110 q24 -45 24 -73 q0 -18 -4 -27 q-8 -8 -16 -8 q-13 0 -19 15 q-7 31 -14 53 q-158 -68 -247 -92 q-63 -18 -63 -27 q0 -24 -8 -24 q-12 0 -22 23 q-16 33 -25 52 q32 3 70 9 q76 159 107 315 l-87 0 q-63 0 -86 -8 l-16 43 ZM500 504 q44 -8 140 -8 l4 0 q0 7 0 12 q0 155 -4 226 q29 -6 73 -17 q21 -3 21 -14 q0 -8 -21 -12 q-22 -9 -22 -19 l0 -164 q0 -7 -1 -12 l157 0 q7 6 14 14 q12 13 17 13 q5 0 27 -17 q24 -20 24 -26 q0 -8 -13 -16 q-14 -6 -14 -11 q-22 -426 -53 -507 q-17 -62 -103 -83 q-8 0 -16 27 q-21 25 -113 47 l4 12 q116 -20 144 -20 q17 0 40 38 q39 91 54 501 l-170 0 q-8 -175 -37 -272 q-36 -126 -106 -209 q-74 -90 -183 -140 l-12 12 q92 53 162 142 q65 81 95 200 q32 102 36 267 l-4 0 q-84 0 -125 -7 l-15 43 Z" /><glyph glyph-name="" unicode="&#x5339;" d="M42 660 q35 -8 102 -8 l688 0 q14 16 25 33 q14 18 21 18 q9 0 38 -27 q33 -30 33 -36 q0 -15 -20 -15 l-281 0 l0 -399 q0 -33 4 -43 q6 -11 17 -11 l42 0 q80 0 109 7 q19 3 31 19 q10 13 12 13 q7 0 21 -14 q18 -17 18 -25 q0 -13 -21 -24 q-34 -15 -119 -15 l-70 0 q-53 0 -71 18 q-20 14 -20 75 l0 399 l-156 0 l0 -71 q0 -129 -23 -213 q-17 -80 -61 -145 q-41 -69 -135 -130 l-12 12 q79 59 114 127 q37 63 51 141 q19 82 19 208 l0 71 l-211 0 l0 -621 q0 -32 30 -46 q51 -13 204 -13 l294 0 q37 0 120 20 q36 15 40 15 q2 0 24 -20 q15 -14 15 -23 q0 -12 -39 -18 q-90 -17 -181 -17 l-273 0 q-139 0 -212 17 q-69 19 -69 85 l0 621 q-59 0 -82 -8 l-16 43 Z" /><glyph glyph-name="" unicode="&#x533a;" d="M42 660 q35 -8 102 -8 l688 0 q14 16 25 33 q14 18 21 18 q9 0 38 -27 q33 -30 33 -36 q0 -15 -20 -15 l-742 0 l0 -645 q0 -32 30 -46 q51 -12 204 -12 l294 0 q37 0 120 19 q36 16 40 16 q2 0 24 -20 q15 -14 15 -23 q0 -12 -39 -19 q-90 -16 -181 -16 l-273 0 q-137 0 -209 17 q-68 19 -68 84 l0 645 q-62 0 -86 -8 l-16 43 ZM699 582 q43 -17 80 -34 q13 -4 13 -13 q0 -10 -15 -13 q-48 -4 -55 -11 q-67 -133 -128 -217 q100 -87 152 -147 q54 -63 54 -93 q-1 -27 -19 -27 q-18 0 -43 39 q-59 87 -167 198 q-15 -19 -30 -34 q-114 -124 -268 -199 l-8 12 q175 118 278 249 q-97 101 -215 196 l11 12 q132 -101 225 -180 q74 104 135 262 Z" /><glyph glyph-name="" unicode="&#x5355;" d="M273 718 q65 -35 95 -61 q26 -24 26 -40 q0 -22 -5 -32 q-9 -11 -18 -11 q-19 0 -28 23 q-17 40 -31 58 q-15 21 -51 52 l12 11 ZM656 738 q79 -22 79 -22 q26 -9 26 -21 q0 -6 -23 -11 q-26 -6 -28 -9 q-49 -59 -136 -121 l199 0 q1 0 14 15 q16 17 21 17 q8 0 34 -27 q21 -22 21 -28 q0 -5 -28 -16 q-19 -9 -19 -15 q0 -165 4 -313 q0 -7 -15 -12 q-11 -3 -13 -3 q-19 0 -19 15 l0 31 l-270 0 l0 -121 l332 0 q15 16 26 34 q14 17 21 17 q9 0 37 -27 q34 -29 34 -35 q0 -16 -20 -16 l-430 0 l0 -70 l4 -125 q0 -18 -12 -23 q-15 -9 -27 -9 q-11 0 -11 32 l3 125 l0 70 l-308 0 q-63 0 -86 -8 l-16 43 q34 -8 102 -8 l308 0 l0 121 l-255 0 l2 -27 q0 -11 -21 -16 q-13 -3 -19 -3 q-11 0 -11 19 l4 59 l0 242 q0 53 -12 98 q33 -13 58 -36 l340 0 q91 87 110 184 ZM203 246 l257 0 l0 129 l-257 0 l0 -129 ZM503 375 l0 -129 l270 0 l0 129 l-270 0 ZM203 402 l257 0 l0 125 l-257 0 l0 -125 ZM503 527 l0 -125 l270 0 l0 125 l-270 0 Z" /><glyph glyph-name="" unicode="&#x5373;" d="M439 699 q8 0 34 -26 q21 -22 21 -29 q0 -5 -23 -15 q-16 -10 -16 -16 q0 -195 4 -362 q0 -6 -15 -11 q-11 -4 -13 -4 q-19 0 -19 15 l0 28 l-237 0 l0 -266 q88 24 220 78 q-2 4 -4 7 q-21 41 -75 105 l8 12 q82 -75 120 -130 q32 -52 32 -85 q0 -18 -4 -27 q-8 -8 -15 -8 q-14 0 -20 15 q-20 63 -36 98 q-157 -84 -246 -113 q-62 -21 -62 -32 q0 -23 -8 -23 q-11 0 -22 23 q-16 32 -24 51 q41 5 93 17 l0 628 q0 39 -7 70 q30 -11 60 -31 l219 0 q1 0 14 14 q16 17 21 17 ZM175 640 l0 -146 l237 0 l0 146 l-237 0 ZM175 466 l0 -160 l237 0 l0 160 l-237 0 ZM871 699 q6 0 32 -21 q22 -18 22 -26 q0 -6 -18 -18 q-17 -11 -17 -21 l0 -527 q0 -43 -35 -67 q-26 -19 -35 -19 q-6 0 -12 18 q-7 27 -109 44 l4 16 q79 -8 129 -8 q15 0 15 35 l0 535 l-222 0 l0 -715 l3 -58 q0 -11 -20 -16 q-13 -4 -19 -4 q-11 0 -11 20 l4 58 l0 680 q0 53 -12 98 q31 -11 57 -35 l212 0 q0 0 13 15 q12 16 19 16 Z" /><glyph glyph-name="" unicode="&#x5382;" d="M871 703 q7 0 35 -25 q35 -32 35 -38 q0 -15 -16 -15 l-715 0 l0 -172 q0 -129 -15 -249 q-15 -103 -43 -173 q-31 -80 -106 -168 l-11 16 q58 85 83 164 q22 67 33 168 q13 116 13 242 l0 117 q0 83 -12 125 l67 -43 l601 0 q0 0 20 23 q20 28 31 28 Z" /><glyph glyph-name="" unicode="&#x539f;" d="M875 715 q6 0 33 -24 q33 -29 33 -35 q0 -16 -16 -16 l-354 0 q-29 -67 -71 -125 l242 0 q1 0 14 14 q15 14 21 14 q8 0 34 -27 q21 -22 21 -28 q0 -5 -23 -16 q-17 -9 -17 -15 q0 -148 4 -282 q0 -6 -14 -11 q-12 -4 -13 -4 q-19 0 -19 15 l0 28 l-165 0 l0 -258 q0 -45 -36 -67 q-29 -19 -42 -19 q-17 0 -21 21 q-13 26 -119 42 l4 15 l129 -12 q42 0 42 24 l0 254 l-165 0 l1 -28 q0 -11 -20 -16 q-13 -3 -19 -3 q-11 0 -11 19 l4 59 l0 219 q0 53 -12 97 q32 -12 58 -35 l103 0 q27 65 39 125 l-321 0 l0 -175 q0 -133 -13 -256 q-12 -106 -34 -177 q-26 -83 -86 -173 l-12 16 q45 88 63 168 q17 70 26 173 q9 120 9 249 l0 121 q0 82 -12 125 l67 -43 l621 0 q0 0 18 21 q19 26 29 26 ZM375 230 l375 0 l0 113 l-375 0 l0 -113 ZM375 371 l375 0 l0 117 l-375 0 l0 -117 ZM367 133 q34 -18 59 -34 q11 -5 11 -13 q-2 -6 -17 -6 q-26 -1 -30 -6 q-52 -67 -102 -112 q-56 -45 -113 -76 l-8 8 q65 48 110 103 q51 57 90 136 ZM691 117 q159 -94 183 -130 q20 -26 20 -46 q0 -35 -23 -35 q-15 0 -40 43 q-40 65 -148 156 l8 12 Z" /><glyph glyph-name="" unicode="&#x53cb;" d="M42 558 q35 -8 102 -8 l226 0 q6 61 8 125 l-7 67 q76 -17 91 -22 q14 -5 14 -13 q0 -8 -20 -12 q-25 -4 -27 -16 q-5 -66 -15 -129 l418 0 q14 18 25 37 q14 18 21 18 q10 0 39 -28 q36 -32 36 -38 q0 -16 -24 -16 l-519 0 q-14 -82 -34 -156 l346 0 q5 3 11 9 q16 14 20 14 q14 0 40 -22 q31 -27 31 -36 q0 -9 -29 -11 q-28 -1 -30 -5 q-64 -131 -148 -225 q-12 -13 -22 -23 q29 -23 59 -43 q107 -73 291 -103 l0 -20 q-34 0 -56 -25 q-8 -14 -14 -14 q-12 0 -71 23 q-90 37 -157 85 q-47 32 -83 67 q-60 -54 -121 -87 q-114 -67 -287 -108 l-4 16 q152 47 255 109 q72 37 134 94 q-32 35 -56 71 q-52 74 -94 207 l-23 0 q-22 -73 -50 -140 q-71 -168 -268 -317 l-8 11 q159 132 246 327 q59 133 79 302 l-223 0 q-62 0 -86 -8 l-16 43 ZM415 340 q27 -86 65 -145 q36 -58 89 -105 q1 1 2 2 q67 75 155 248 l-311 0 Z" /><glyph glyph-name="" unicode="&#x53d1;" d="M582 703 q130 -65 151 -90 q17 -18 17 -31 q0 -35 -24 -35 q-12 0 -32 31 q-32 47 -120 113 l8 12 ZM191 668 q21 -8 54 -18 q24 -8 24 -17 q0 -9 -24 -11 q-25 -2 -27 -9 q-14 -79 -35 -137 l224 0 q7 77 7 164 q0 59 -4 102 q55 -12 55 -12 q31 -3 31 -12 q0 -10 -22 -14 q-17 -6 -17 -13 q0 -119 -9 -215 l344 0 q15 26 31 46 q11 17 20 17 q4 0 33 -29 q34 -34 34 -45 q0 -16 -16 -16 l-449 0 q-8 -76 -23 -137 l304 0 q4 4 11 11 q15 17 20 17 q13 0 40 -23 q31 -27 31 -36 q0 -8 -29 -10 q-28 -2 -30 -6 q-57 -116 -131 -200 q-11 -12 -20 -22 q27 -24 56 -43 q95 -66 259 -94 l0 -16 q-32 0 -52 -25 q-8 -14 -14 -14 q-11 0 -63 22 q-80 33 -139 77 q-43 30 -78 64 q-52 -47 -103 -75 q-101 -59 -254 -96 l-4 16 q134 42 224 97 q61 32 115 82 q-25 29 -44 59 q-46 68 -83 188 l-23 0 q-24 -89 -61 -146 q-89 -159 -276 -260 l-8 11 q83 50 149 120 q64 65 106 147 q60 114 79 292 l-221 0 q-5 -8 -13 -22 q-10 -17 -14 -17 q-5 0 -21 21 q-8 13 -18 26 q0 12 17 19 q16 11 25 39 q16 34 32 153 ZM462 285 q24 -76 58 -130 q30 -50 73 -90 q1 1 1 1 q59 66 136 219 l-268 0 Z" /><glyph glyph-name="" unicode="&#x53d6;" d="M39 679 q34 -7 101 -7 l324 0 q13 13 24 28 q12 15 19 15 q8 0 34 -24 q29 -26 29 -31 q0 -16 -20 -16 l-129 0 l0 -636 l4 -125 q0 -19 -12 -23 q-15 -9 -27 -9 q-11 0 -11 32 l3 125 l0 118 q-145 -70 -227 -95 q-58 -18 -58 -27 q0 -28 -8 -28 q-11 0 -22 25 q-16 33 -24 53 q45 4 105 19 l0 571 l-4 0 q-62 0 -86 -8 l-15 43 ZM187 83 q78 21 191 61 l0 133 l-191 0 l0 -194 ZM187 304 l191 0 l0 157 l-191 0 l0 -157 ZM187 488 l191 0 l0 156 l-191 0 l0 -156 ZM449 562 q51 -4 156 -4 l215 0 q11 11 22 22 q9 10 17 10 q9 0 37 -23 q25 -21 25 -28 q0 -9 -21 -13 q-20 -7 -22 -15 q-33 -218 -140 -380 q-6 -8 -11 -16 q10 -13 21 -26 q83 -96 209 -140 l0 -16 q-39 0 -52 -17 q-10 -22 -15 -22 q-12 0 -81 64 q-68 58 -110 122 q-94 -110 -242 -190 l-8 12 q148 101 231 209 q-58 92 -87 201 q-28 105 -37 217 q-52 -2 -92 -6 l-15 39 ZM580 530 q11 -129 49 -235 q25 -78 76 -151 q4 7 7 11 q88 145 120 376 l-163 0 q-48 0 -89 -1 Z" /><glyph glyph-name="" unicode="&#x53d8;" d="M421 750 q79 -22 97 -46 q17 -22 17 -44 q-2 -20 -20 -20 q-14 2 -23 12 q-25 50 -71 86 l0 12 ZM54 633 q34 -8 102 -8 l679 0 q13 14 24 30 q12 17 19 17 q9 0 36 -25 q31 -29 31 -34 q0 -16 -20 -16 l-293 0 l0 -293 q0 -18 -9 -23 q-13 -8 -22 -8 q-12 0 -12 31 l4 110 l0 183 l-191 0 l0 -297 q0 -18 -10 -22 q-12 -9 -21 -9 q-12 0 -12 31 l4 110 l0 187 l-207 0 q-63 0 -86 -7 l-16 43 ZM214 519 q50 -9 50 -9 q32 -4 32 -14 q0 -11 -22 -13 q-17 -2 -17 -3 q-35 -46 -82 -81 q-45 -36 -121 -63 l-12 11 q58 30 97 70 q38 32 75 102 ZM191 258 q37 -5 129 -8 l351 0 q15 18 30 35 q7 4 9 4 q7 0 33 -30 q22 -25 22 -37 q0 -5 -9 -6 q-10 -2 -30 -9 q-102 -115 -185 -174 q71 -39 158 -62 q121 -30 250 -30 l-4 -19 q-58 -4 -70 -29 q-5 -14 -12 -14 q-31 0 -165 41 q-107 34 -191 90 q-110 -66 -216 -99 q-118 -38 -206 -52 l-3 16 q248 69 389 149 q4 2 8 5 q-1 1 -1 1 q-86 54 -173 192 q-56 -1 -95 -7 l-19 43 ZM330 222 q77 -106 156 -155 q13 -9 25 -17 q87 63 164 172 l-345 0 ZM718 511 q131 -66 178 -115 q18 -22 18 -37 q0 -27 -20 -27 q-20 2 -31 19 q-51 79 -149 141 l4 19 Z" /><glyph glyph-name="" unicode="&#x53e3;" d="M140 636 q36 -13 66 -39 l575 0 q2 0 17 17 q19 19 26 19 q8 0 36 -29 q22 -23 22 -30 q0 -5 -25 -18 q-18 -10 -18 -17 q0 -319 4 -606 q0 -8 -14 -15 q-12 -3 -13 -4 q-24 0 -24 15 l0 67 l-593 0 l4 -63 q0 -13 -21 -19 q-13 -4 -18 -4 q-16 0 -16 23 l4 63 l0 535 q0 57 -12 105 ZM199 23 l593 0 l0 547 l-593 0 l0 -547 Z" /><glyph glyph-name="" unicode="&#x53ec;" d="M93 683 q72 -11 176 -11 l543 0 q15 13 23 21 q11 10 20 10 q5 0 30 -21 q21 -19 21 -26 q0 -10 -27 -22 q-16 -7 -16 -9 q-19 -200 -44 -252 q-20 -40 -59 -51 q-31 -10 -50 -10 q-4 0 -10 13 q-12 24 -58 40 q-38 12 -72 21 l4 12 q109 -19 160 -19 q17 0 28 7 q19 12 31 57 q17 58 27 201 l-361 0 q-54 -172 -123 -246 q-24 -35 -113 -87 q-55 -32 -145 -57 l-8 19 q81 25 130 55 q80 50 102 83 q62 71 110 233 l-143 0 q-95 0 -156 -8 l-20 47 ZM222 285 q32 -11 57 -35 l463 0 q1 0 14 14 q15 17 21 17 q8 0 34 -26 q21 -22 21 -29 q0 -5 -23 -15 q-17 -10 -17 -16 q0 -173 4 -328 q0 -7 -14 -12 q-12 -3 -13 -4 q-19 0 -19 16 l0 58 l-473 0 l4 -58 q0 -11 -21 -16 q-12 -4 -18 -4 q-12 0 -12 20 l4 58 l0 262 q0 53 -12 98 ZM277 -47 l473 0 l0 269 l-473 0 l0 -269 Z" /><glyph glyph-name="" unicode="&#x53f0;" d="M441 734 q69 -24 69 -24 q19 -7 17 -15 q0 -6 -19 -10 l-28 -6 q-106 -167 -206 -269 q217 4 527 21 q-9 14 -18 24 q-32 41 -112 103 l12 12 q116 -73 170 -127 q45 -52 45 -84 q0 -19 -5 -29 q-9 -10 -18 -10 q-17 1 -24 20 q-21 44 -39 75 q-325 -38 -519 -47 q-136 -7 -144 -18 q-1 -3 -1 -3 q-6 -23 -16 -23 q-7 0 -15 17 q-14 38 -24 73 q58 -4 90 -4 l70 0 q103 115 188 324 ZM218 265 q32 -11 58 -35 l450 0 q5 6 15 17 q12 14 16 14 q8 0 32 -23 q23 -20 23 -27 q0 -8 -16 -18 q-15 -12 -15 -18 l0 -188 q0 -45 8 -108 q0 -14 -19 -20 q-17 -4 -24 -4 q-12 0 -12 24 q2 21 3 46 l-463 0 l3 -50 q0 -12 -21 -16 q-12 -4 -18 -4 q-12 0 -12 20 l4 58 l0 235 q0 52 -12 97 ZM273 -47 l465 0 q0 17 0 34 l0 216 l-465 0 l0 -250 Z" /><glyph glyph-name="" unicode="&#x53f7;" d="M214 718 q33 -12 59 -35 l434 0 q1 0 14 15 q15 17 21 17 q8 0 33 -27 q21 -22 21 -28 q0 -5 -20 -16 q-15 -10 -15 -15 q0 -107 4 -204 q0 -6 -15 -11 q-11 -4 -12 -4 q-20 0 -20 15 l0 24 l-447 0 l2 -31 q0 -12 -21 -16 q-12 -4 -18 -4 q-12 0 -12 20 l4 58 l0 145 q0 53 -12 97 ZM269 476 l449 0 l0 180 l-449 0 l0 -180 ZM50 351 q34 -8 102 -8 l680 0 q14 16 25 34 q14 17 21 17 q9 0 38 -27 q33 -29 33 -35 q0 -16 -20 -16 l-591 0 l-45 -129 l437 0 q4 5 14 19 q12 16 17 16 q10 0 38 -28 q21 -21 21 -30 q0 -6 -22 -12 q-19 -6 -21 -16 q-32 -164 -52 -211 q-14 -37 -39 -52 q-28 -18 -50 -18 q-16 0 -21 19 q-6 18 -26 27 q-20 16 -97 36 l0 16 q108 -31 160 -31 q18 0 29 16 q24 38 53 222 l-450 0 l-23 -67 q0 -4 -9 -8 q-13 -3 -22 -3 q-15 0 -16 15 l76 219 l-138 0 q-63 0 -86 -8 l-16 43 Z" /><glyph glyph-name="" unicode="&#x540c;" d="M113 707 q31 -11 57 -35 l654 0 q0 0 12 15 q12 16 19 16 q7 0 33 -21 q22 -18 22 -26 q0 -6 -19 -19 q-16 -10 -16 -20 l0 -680 q0 -43 -42 -66 q-33 -20 -44 -20 q-7 0 -14 17 q-8 25 -127 42 l4 15 q101 -3 164 -3 q16 0 16 35 l0 687 l-665 0 l0 -722 l4 -59 q0 -11 -20 -16 q-13 -4 -19 -4 q-11 0 -11 20 l4 59 l0 687 q0 53 -12 98 ZM253 523 q35 -8 102 -8 l289 0 q13 14 23 29 q13 14 20 14 q8 0 33 -23 q30 -26 30 -31 q0 -16 -20 -16 l-375 0 q-63 0 -86 -8 l-16 43 ZM308 375 q32 -11 57 -35 l248 0 q1 0 14 16 q16 19 21 19 q8 0 34 -27 q21 -22 21 -28 q0 -5 -23 -16 q-16 -9 -16 -15 q0 -132 3 -250 q0 -7 -14 -12 q-11 -3 -13 -4 q-19 0 -19 16 l0 51 l-258 0 l4 -51 q0 -11 -21 -16 q-13 -4 -18 -4 q-12 0 -12 20 l4 58 l0 180 q0 53 -12 98 ZM363 117 l258 0 l0 195 l-258 0 l0 -195 Z" /><glyph glyph-name="" unicode="&#x540d;" d="M457 734 q38 -14 68 -26 q14 -6 14 -13 q0 -6 -19 -9 q-29 -5 -36 -18 q-20 -29 -40 -55 l235 0 q12 14 22 23 q14 12 21 12 q6 0 50 -32 q32 -25 32 -34 q0 -7 -35 -17 q-24 -5 -31 -11 q-127 -164 -219 -240 q-53 -45 -110 -80 l387 0 q2 0 15 17 q15 18 21 18 q7 0 33 -26 q21 -22 21 -28 q0 -5 -23 -16 q-16 -10 -16 -16 q0 -166 4 -316 q0 -7 -15 -12 q-11 -3 -12 -4 q-20 0 -20 16 l0 58 l-409 0 q1 -31 3 -58 q0 -10 -12 -14 q-21 -6 -27 -6 q-11 0 -12 16 q1 75 4 113 l0 225 q-18 -10 -36 -19 q-108 -55 -253 -112 l-8 20 q227 99 322 161 q88 58 182 151 q70 71 141 184 l-277 0 q-51 -60 -101 -101 q-4 -4 -9 -7 q113 -55 132 -77 q16 -17 16 -30 q0 -35 -23 -35 q-12 0 -32 30 q-30 43 -108 101 q-88 -67 -184 -112 l-8 12 q139 79 214 162 q67 67 138 205 ZM394 -47 l410 0 l0 254 l-410 0 l0 -231 q0 -12 0 -23 Z" /><glyph glyph-name="" unicode="&#x5411;" d="M457 746 q76 -30 76 -30 q17 -6 17 -17 q0 -10 -28 -10 q-26 0 -30 -6 q-38 -66 -97 -133 l417 0 q0 0 16 16 q14 16 23 16 q7 0 35 -22 q24 -21 24 -29 q0 -7 -23 -20 q-20 -11 -20 -23 l0 -555 q0 -43 -44 -66 q-34 -20 -46 -20 q-7 0 -14 20 q-9 28 -131 47 l4 15 q101 -7 164 -7 q20 0 20 35 l0 566 l-645 0 l0 -590 l4 -62 q0 -14 -20 -20 q-13 -4 -19 -4 q-15 0 -15 24 l3 62 l0 551 q0 57 -11 106 q36 -14 66 -40 l191 0 q24 38 42 76 q23 47 41 120 ZM312 406 q32 -11 57 -35 l232 0 q2 0 14 16 q16 19 21 19 q8 0 34 -26 q21 -22 21 -29 q0 -5 -21 -15 q-14 -10 -14 -16 q0 -132 4 -250 q0 -7 -15 -12 q-11 -3 -13 -4 q-19 0 -19 16 l0 47 l-245 0 l3 -47 q0 -11 -21 -16 q-13 -4 -18 -4 q-12 0 -12 20 l4 59 l0 179 q0 53 -12 98 ZM367 144 l246 0 l0 199 l-246 0 l0 -199 Z" /><glyph glyph-name="" unicode="&#x5458;" d="M246 715 q32 -13 58 -36 l403 0 q1 0 14 17 q15 19 21 19 q8 0 33 -27 q21 -22 21 -28 q0 -5 -20 -16 q-15 -10 -15 -15 q0 -79 4 -149 q0 -7 -15 -12 q-11 -3 -12 -3 q-20 0 -20 15 l0 28 l-416 0 l2 -24 q0 -11 -20 -16 q-13 -3 -19 -3 q-12 0 -12 19 l4 59 l0 74 q0 53 -11 98 ZM300 535 l418 0 l0 117 l-418 0 l0 -117 ZM187 457 q32 -11 57 -35 l509 0 q2 0 15 16 q15 19 21 19 q7 0 33 -27 q21 -22 21 -28 q0 -5 -20 -16 q-15 -9 -15 -15 q0 -177 4 -336 q0 -7 -15 -12 q-11 -3 -12 -4 q-20 0 -20 16 l0 359 l-523 0 l0 -316 l4 -59 q0 -11 -21 -16 q-13 -3 -18 -3 q-12 0 -12 19 l4 59 l0 281 q0 53 -12 98 ZM457 340 q43 -8 81 -17 q24 -3 24 -15 q0 -4 -16 -9 q-35 -10 -35 -22 l0 -55 q-7 -114 -37 -162 q-56 -91 -153 -139 q-102 -50 -239 -74 l-4 16 q155 38 221 79 q76 42 126 112 q37 58 43 168 q0 100 -11 118 ZM542 43 q250 -68 312 -118 q33 -27 36 -58 q0 -20 -19 -20 q-11 0 -72 45 q-84 63 -260 135 l3 16 Z" /><glyph glyph-name="" unicode="&#x5468;" d="M167 711 l63 -39 l570 0 q0 0 12 15 q13 16 20 16 q6 0 32 -21 q22 -18 22 -26 q0 -6 -18 -19 q-17 -10 -17 -20 l0 -684 q0 -43 -40 -66 q-31 -20 -42 -20 q-6 0 -14 18 q-8 27 -130 45 l3 15 q101 -7 164 -7 q16 0 16 35 l0 691 l-586 0 l0 -328 q0 -103 -14 -199 q-13 -83 -38 -138 q-29 -65 -96 -136 l-12 16 q53 68 76 130 q19 54 30 135 q11 93 11 192 l0 281 q0 76 -12 114 ZM285 508 q34 -8 101 -8 l102 0 l0 39 q0 58 -8 82 q68 -12 68 -12 q22 -3 22 -12 q0 -8 -24 -12 q-19 -6 -19 -15 l0 -70 l121 0 q10 12 19 26 q10 13 16 13 q7 0 31 -22 q28 -24 28 -29 q0 -16 -16 -16 l-199 0 l0 -109 l156 0 q12 12 21 26 q11 13 18 13 q7 0 31 -21 q28 -25 28 -30 q0 -15 -20 -15 l-234 0 l0 -55 q0 -16 -21 -22 q-7 -1 -10 -1 q-12 0 -12 19 q0 29 3 59 l-136 0 q-62 0 -86 -8 l-15 43 q34 -8 101 -8 l137 0 l0 109 l-102 0 q-62 0 -86 -7 l-15 43 ZM343 254 q27 -9 50 -28 l216 0 q1 0 13 13 q13 15 18 15 q7 0 31 -23 q20 -19 20 -24 q0 -5 -21 -16 q-14 -10 -14 -16 q0 -98 4 -187 q0 -7 -13 -12 q-9 -3 -11 -4 q-19 0 -19 16 l0 27 l-226 0 l3 -39 q0 -11 -19 -16 q-11 -3 -16 -3 q-12 0 -12 19 l4 51 l0 137 q0 49 -8 90 ZM390 43 l227 0 l0 156 l-227 0 l0 -156 Z" /><glyph glyph-name="" unicode="&#x547d;" d="M453 742 q38 -12 83 -25 q10 -2 10 -10 q0 -11 -17 -13 q-23 0 -37 -2 q80 -94 198 -162 q118 -67 267 -101 l0 -15 q-52 0 -64 -12 q-8 -12 -11 -12 q-25 0 -110 48 q-96 51 -168 111 q-83 66 -128 138 q-62 -82 -175 -170 q-99 -78 -255 -150 l-7 16 q172 95 261 171 q96 87 153 188 ZM257 449 q34 -8 102 -8 l223 0 q12 13 23 28 q12 15 20 15 q7 0 33 -23 q29 -26 29 -32 q0 -15 -20 -15 l-308 0 q-63 0 -86 -8 l-16 43 ZM132 336 q33 -13 59 -36 l152 0 q2 0 14 15 q16 17 21 17 q8 0 34 -27 q21 -22 21 -28 q0 -5 -23 -16 q-16 -9 -16 -15 q0 -146 4 -278 q0 -6 -15 -11 q-11 -4 -12 -4 q-20 0 -20 15 l0 36 l-163 0 l3 -47 q0 -11 -21 -16 q-12 -4 -18 -4 q-12 0 -12 20 l4 58 l0 223 q0 53 -12 98 ZM187 31 l164 0 l0 242 l-164 0 l0 -242 ZM515 340 q33 -13 58 -36 l188 0 q0 0 12 14 q13 14 19 14 q7 0 33 -21 q22 -18 22 -26 q0 -6 -18 -19 q-17 -10 -17 -20 l0 -231 q0 -39 -31 -60 q-23 -18 -31 -18 q-5 0 -11 16 q-7 24 -103 39 l4 16 q70 -4 113 -4 q16 0 16 31 l0 242 l-199 0 l0 -355 l4 -59 q0 -11 -21 -16 q-12 -4 -18 -4 q-12 0 -12 20 l4 59 l0 320 q0 53 -12 98 Z" /><glyph glyph-name="" unicode="&#x54c1;" d="M269 699 q32 -11 57 -35 l341 0 q2 0 15 14 q15 17 21 17 q7 0 33 -26 q21 -22 21 -29 q0 -5 -23 -15 q-16 -10 -16 -16 q0 -140 4 -266 q0 -6 -14 -11 q-12 -4 -13 -4 q-20 0 -20 15 l0 47 l-350 0 l3 -43 q0 -11 -21 -16 q-13 -3 -18 -3 q-12 0 -12 19 l4 59 l0 195 q0 53 -12 98 ZM324 418 l351 0 l0 218 l-351 0 l0 -218 ZM105 281 q32 -11 57 -35 l197 0 q1 0 14 14 q16 17 21 17 q8 0 34 -26 q21 -22 21 -29 q0 -5 -18 -15 q-14 -10 -14 -16 q0 -161 4 -305 q0 -6 -14 -11 q-12 -4 -13 -4 q-19 0 -19 15 l0 47 l-215 0 l4 -58 q0 -12 -21 -16 q-13 -4 -18 -4 q-12 0 -12 20 l4 58 l0 250 q0 53 -12 98 ZM160 -39 l215 0 l0 257 l-215 0 l0 -257 ZM554 281 q32 -11 58 -35 l220 0 q1 0 14 14 q15 17 21 17 q8 0 33 -26 q21 -22 21 -29 q0 -5 -23 -15 q-16 -10 -16 -16 q0 -162 4 -308 q0 -7 -14 -12 q-12 -4 -13 -4 q-20 0 -20 16 l0 50 l-230 0 l4 -54 q0 -12 -21 -16 q-12 -4 -18 -4 q-12 0 -12 20 l4 58 l0 246 q0 53 -12 98 ZM609 -39 l230 0 l0 257 l-230 0 l0 -257 Z" /><glyph glyph-name="" unicode="&#x5524;" d="M89 613 q27 -9 49 -27 l104 0 q1 0 12 11 q14 12 19 12 q7 0 31 -22 q20 -19 20 -25 q0 -5 -18 -15 q-14 -10 -14 -16 q0 -249 4 -473 q0 -7 -12 -11 q-10 -4 -11 -4 q-20 0 -20 15 l0 59 l-117 0 l0 -31 l4 -51 q0 -11 -18 -16 q-12 -4 -17 -4 q-12 0 -12 20 l4 51 l0 437 q0 49 -8 90 ZM136 144 l117 0 l0 414 l-117 0 l0 -414 ZM523 742 q30 -8 62 -22 q20 -6 20 -17 q0 -6 -20 -8 q-23 -5 -27 -8 q-15 -28 -28 -51 l145 0 q8 5 16 10 q14 10 23 10 q4 0 31 -24 q24 -24 24 -31 q0 -8 -17 -9 q-31 -2 -34 -10 q-44 -67 -88 -125 l151 0 q19 20 19 21 q7 6 12 6 q8 0 33 -23 q18 -18 18 -24 q0 -5 -23 -14 q-12 -5 -12 -17 l0 -234 l19 0 q13 14 24 30 q12 16 19 16 q8 0 35 -24 q32 -29 32 -34 q0 -16 -20 -16 l-296 0 q16 -45 37 -77 q36 -56 103 -98 q63 -42 172 -59 l0 -16 q-27 0 -43 -20 q-7 -11 -12 -11 q-7 0 -41 14 q-51 22 -90 51 q-58 42 -93 98 q-29 43 -52 118 l-16 0 q-21 -55 -57 -108 q-49 -66 -118 -111 q-78 -47 -197 -85 l-4 15 q107 37 178 83 q63 44 107 109 q31 48 48 97 l-161 0 q-63 0 -86 -8 l-16 43 q33 -7 98 -7 l0 250 q0 32 -3 57 q-35 -30 -75 -57 l-12 7 q76 57 123 125 q61 80 92 188 ZM437 172 l135 0 q2 6 3 11 q21 66 22 246 l-160 0 l0 -257 ZM640 429 q-1 -185 -24 -254 q-1 -2 -1 -3 l174 0 l0 257 l-149 0 ZM446 457 l167 0 q37 82 62 152 l-162 0 q-28 -41 -55 -67 q-28 -33 -60 -60 q25 -10 48 -25 Z" /><glyph glyph-name="" unicode="&#x552f;" d="M70 609 q27 -9 48 -27 l124 0 q1 0 12 14 q14 17 19 17 q7 0 31 -22 q20 -20 20 -25 q0 -5 -18 -16 q-14 -9 -14 -15 q0 -94 1 -184 q65 77 105 150 q58 105 78 229 q37 -10 64 -19 q18 -7 18 -16 q0 -8 -16 -10 q-25 -6 -27 -13 q-30 -74 -59 -129 l364 0 q0 0 20 23 q20 27 31 27 q7 0 35 -24 q35 -32 35 -38 q0 -16 -16 -16 l-250 0 l0 -156 l133 0 q0 0 17 22 q17 25 26 25 q7 0 32 -23 q31 -30 31 -36 q0 -15 -16 -15 l-223 0 l0 -168 l129 0 q0 0 17 21 q17 26 26 26 q7 0 32 -24 q31 -29 31 -35 q0 -16 -16 -16 l-219 0 l0 -195 l160 0 q0 0 20 24 q21 27 31 27 q8 0 36 -25 q35 -32 35 -38 q0 -15 -16 -15 l-487 0 q1 -27 3 -51 q0 -10 -13 -14 q-21 -6 -27 -6 q-11 0 -11 16 q1 75 4 113 l0 494 q-60 -86 -117 -135 q1 -119 3 -230 q0 -7 -12 -11 q-10 -4 -11 -4 q-20 0 -20 15 l0 67 l-136 0 l0 -28 l4 -50 q0 -12 -19 -17 q-11 -3 -17 -3 q-11 0 -11 20 l4 50 l0 379 q0 49 -8 90 ZM453 -59 l183 0 l0 195 l-183 0 l0 -164 q0 -17 0 -31 ZM636 164 l0 168 l-183 0 l0 -168 l183 0 ZM636 359 l0 156 l-183 0 l0 -156 l183 0 ZM117 195 l136 0 l0 359 l-136 0 l0 -359 ZM609 730 q55 -46 80 -80 q21 -32 21 -53 q0 -19 -4 -29 q-10 -10 -19 -10 q-16 1 -23 20 q-14 51 -26 74 q-12 26 -41 66 l12 12 Z" /><glyph glyph-name="" unicode="&#x5546;" d="M382 742 q91 -30 118 -55 q19 -17 19 -35 q0 -31 -19 -31 q-9 0 -26 23 q-24 40 -99 86 l7 12 ZM50 621 q34 -8 102 -8 l680 0 q12 15 23 31 q12 16 20 16 q8 0 35 -25 q31 -28 31 -34 q0 -15 -20 -15 l-769 0 q-63 0 -86 -8 l-16 43 ZM308 578 q48 -32 71 -57 q19 -22 19 -37 q0 -17 -4 -26 q-8 -9 -16 -9 q-13 0 -19 16 q-12 37 -23 53 q-10 19 -36 48 l8 12 ZM632 582 q52 -17 52 -17 q23 -7 23 -15 q0 -8 -20 -11 q-17 -1 -20 -4 q-31 -60 -71 -102 l224 0 q0 0 12 16 q12 16 19 16 q7 0 33 -21 q22 -19 22 -26 q0 -6 -19 -19 q-16 -10 -16 -20 l0 -446 q0 -39 -39 -60 q-29 -18 -40 -18 q-5 0 -12 17 q-8 25 -120 42 l4 15 q91 -7 148 -7 q16 0 16 31 l0 453 l-235 0 l0 -70 q0 -26 7 -37 q12 -10 49 -10 l73 0 q9 0 29 15 q9 12 10 12 q2 0 20 -15 q11 -9 11 -16 q0 -11 -11 -17 q-26 -14 -52 -14 l-80 0 q-47 0 -72 13 q-23 16 -23 69 l0 70 l-134 0 q-29 -91 -66 -130 q-14 -19 -63 -49 q-30 -18 -81 -32 l-7 16 q42 13 67 29 q41 28 52 46 q31 37 55 120 l-198 0 l0 -469 l4 -58 q0 -12 -20 -16 q-13 -4 -19 -4 q-12 0 -12 20 l4 58 l0 434 q0 53 -11 97 q32 -12 58 -35 l394 0 q20 32 28 56 q16 34 27 93 ZM324 226 q27 -9 49 -27 l228 0 q2 0 13 13 q13 14 18 14 q8 0 32 -22 q19 -19 19 -25 q0 -4 -20 -15 q-15 -10 -15 -16 q0 -92 4 -176 q0 -6 -13 -11 q-9 -4 -11 -4 q-19 0 -19 15 l0 36 l-237 0 l3 -43 q0 -12 -19 -17 q-11 -3 -17 -3 q-11 0 -11 20 l4 50 l0 121 q0 49 -8 90 ZM371 35 l238 0 l0 137 l-238 0 l0 -137 Z" /><glyph glyph-name="" unicode="&#x5584;" d="M312 734 q46 -34 67 -59 q19 -23 19 -39 q0 -19 -5 -29 q-9 -10 -18 -10 q-17 1 -24 20 q-11 38 -19 56 q-9 20 -32 49 l12 12 ZM648 734 q70 -27 70 -27 q16 -6 16 -16 q0 -10 -26 -10 q-25 0 -29 -6 q-31 -40 -78 -82 l172 0 q14 16 25 34 q14 17 22 17 q9 0 37 -27 q33 -29 33 -35 q0 -16 -19 -16 l-356 0 l0 -98 l188 0 q12 14 23 29 q12 14 20 14 q7 0 33 -23 q29 -26 29 -31 q0 -16 -19 -16 l-274 0 l0 -90 l289 0 q13 15 24 31 q12 16 19 16 q8 0 35 -25 q32 -28 32 -33 q0 -16 -20 -16 l-239 0 q56 -21 56 -21 q15 -5 15 -14 q0 -10 -24 -10 q-23 0 -27 -6 q-27 -33 -67 -66 l227 0 q13 14 24 31 q12 16 19 16 q9 0 36 -25 q31 -29 31 -34 q0 -16 -20 -16 l-777 0 q-63 0 -86 -7 l-16 43 q35 -8 102 -8 l213 0 q-13 9 -14 39 q-2 31 -35 78 l-137 0 q-62 0 -86 -8 l-15 43 q34 -8 101 -8 l297 0 l0 90 l-199 0 q-63 0 -86 -8 l-16 43 q35 -8 102 -8 l199 0 l0 98 l-273 0 q-63 0 -86 -8 l-16 43 q34 -8 102 -8 l379 0 q20 26 34 53 q21 35 36 88 ZM387 207 l203 0 q15 21 26 44 q16 29 27 73 l-310 0 q65 -52 65 -78 q0 -32 -11 -39 ZM218 133 q27 -9 50 -28 l454 0 q5 5 13 15 q11 13 15 13 q6 0 29 -20 q21 -17 21 -23 q0 -7 -17 -16 q-18 -10 -18 -16 l0 -121 q0 -29 4 -70 q0 -12 -16 -17 q-13 -3 -19 -3 q-12 0 -12 20 q2 14 3 31 l-459 0 l3 -35 q0 -11 -19 -16 q-11 -4 -16 -4 q-12 0 -12 20 l4 51 l0 129 q0 49 -8 90 ZM265 -75 l461 0 q0 7 0 12 l0 141 l-461 0 l0 -153 Z" /><glyph glyph-name="" unicode="&#x5668;" d="M140 703 q27 -9 50 -28 l188 0 q5 6 13 17 q11 15 15 15 q7 0 29 -20 q22 -16 22 -23 q0 -7 -18 -16 q-18 -10 -18 -15 l0 -115 q0 -27 4 -65 q0 -12 -15 -17 q-14 -3 -20 -3 q-12 0 -12 20 q1 7 2 15 l-190 0 l1 -19 q0 -11 -19 -16 q-11 -4 -16 -4 q-12 0 -12 20 l4 51 l0 113 q0 49 -8 90 ZM187 496 l195 0 l0 152 l-195 0 l0 -152 ZM554 703 q27 -9 50 -28 l196 0 q5 5 13 15 q11 13 15 13 q6 0 29 -20 q21 -16 21 -23 q0 -7 -15 -16 q-16 -10 -16 -15 l0 -112 q0 -27 4 -64 q0 -12 -16 -17 q-13 -3 -19 -3 q-12 0 -12 20 q1 7 2 15 l-202 0 l1 -15 q0 -11 -19 -16 q-11 -4 -16 -4 q-12 0 -12 20 l4 51 l0 109 q0 49 -8 90 ZM602 496 l206 0 l0 152 l-207 0 l0 -144 l1 -8 ZM54 340 q34 -8 102 -8 l227 0 q40 54 77 125 q64 -21 64 -21 q11 -3 11 -11 q0 -5 -12 -9 q-26 -3 -31 -10 q-32 -43 -58 -74 l382 0 q13 13 23 28 q13 15 20 15 q8 0 33 -24 q29 -26 29 -31 q0 -16 -19 -16 l-303 0 q62 -56 153 -98 q95 -44 216 -66 l0 -15 q-46 0 -57 -11 q-7 -9 -9 -9 q-16 0 -60 20 q-4 -5 -10 -8 q-16 -10 -16 -16 l0 -141 q0 -34 4 -81 q0 -12 -16 -17 q-13 -3 -19 -3 q-12 0 -12 20 q2 14 3 31 l-185 0 l2 -31 q0 -12 -18 -16 q-12 -4 -17 -4 q-12 0 -12 20 l4 50 l0 153 q0 49 -8 90 q27 -9 50 -28 l177 0 q3 4 9 11 q-55 29 -97 58 q-64 43 -100 91 l-170 0 q-49 -56 -83 -80 q-45 -36 -119 -73 l11 -7 l166 0 q5 6 13 17 q11 14 15 14 q6 0 29 -19 q21 -17 21 -23 q0 -7 -15 -16 q-16 -10 -16 -16 l0 -139 q0 -33 4 -79 q0 -12 -16 -17 q-13 -3 -19 -3 q-12 0 -12 20 q2 13 2 27 l-174 0 l0 -39 q0 -11 -15 -15 q-12 -5 -16 -5 q-12 0 -12 12 q4 49 4 98 l0 109 q-1 43 -3 66 q-59 -27 -134 -54 l-3 8 q84 36 146 72 q2 1 3 2 q75 43 119 86 q28 23 54 54 l-205 0 q-63 0 -86 -7 l-16 43 ZM589 -63 l188 0 q0 12 0 23 l0 157 l-188 0 l0 -180 ZM218 -63 l176 0 l0 180 l-176 0 l0 -180 ZM621 437 q54 -18 80 -32 q21 -14 21 -22 q0 -18 -4 -27 q-8 -9 -15 -9 q-14 1 -20 16 q-15 23 -27 33 q-12 12 -43 29 l8 12 Z" /><glyph glyph-name="" unicode="&#x56fe;" d="M109 711 q29 -11 54 -32 l661 0 q5 5 14 15 q13 13 17 13 q7 0 32 -23 q23 -20 23 -28 q0 -8 -16 -18 q-16 -11 -16 -17 l0 -472 q0 -112 8 -270 q0 -14 -19 -20 q-16 -4 -24 -4 q-11 0 -11 24 q0 15 1 31 l-668 0 l2 -39 q0 -11 -20 -16 q-13 -4 -19 -4 q-11 0 -11 20 l4 58 l0 684 q0 53 -12 98 ZM164 -63 l669 0 q2 91 2 212 l0 503 l-671 0 l0 -715 ZM425 629 q29 -12 53 -21 q10 -5 10 -11 q0 -5 -15 -7 q-22 -4 -28 -16 q-14 -22 -28 -39 l172 0 q8 8 15 18 q10 9 13 9 q9 0 32 -21 q26 -23 26 -30 q0 -8 -10 -11 q-12 -2 -29 -8 q-64 -74 -123 -125 q28 -21 58 -38 q65 -40 128 -52 q77 -19 125 -19 l-4 -20 q-48 0 -59 -14 q-9 -13 -11 -13 q-16 0 -67 21 q-56 20 -107 55 q-45 27 -83 62 q-20 -17 -39 -31 q-86 -67 -275 -143 l-4 12 q170 82 259 155 q19 13 35 29 q-5 4 -8 8 q-42 43 -84 107 q-22 -24 -44 -42 q-67 -56 -142 -93 l-4 8 q94 58 145 119 q45 50 93 151 ZM387 497 q33 -47 75 -87 q12 -12 24 -22 q52 49 103 120 l-193 0 q-5 -6 -9 -11 ZM421 250 q117 -29 153 -53 q23 -16 23 -33 q0 -24 -15 -24 q-12 0 -34 21 q-31 35 -131 77 l4 12 ZM363 136 q146 -39 214 -73 q48 -22 51 -44 q0 -27 -19 -27 q-12 0 -51 27 q-79 61 -199 102 l4 15 Z" /><glyph glyph-name="" unicode="&#x578b;" d="M97 675 q34 -7 102 -7 l265 0 q13 13 24 28 q12 15 19 15 q8 0 34 -24 q29 -26 29 -31 q0 -16 -20 -16 l-109 0 l0 -175 l55 0 q11 12 21 25 q11 14 18 14 q7 0 30 -22 q28 -24 28 -29 q0 -16 -19 -16 l-133 0 l0 -109 l4 -125 q0 -18 -12 -23 q-16 -8 -27 -8 q-12 0 -12 31 l4 125 l0 109 l-126 0 q-5 -43 -15 -77 q-15 -68 -55 -122 q-37 -58 -120 -109 l-12 11 q70 50 101 106 q33 54 46 118 q8 33 12 73 l-62 0 q-62 0 -85 -8 l-16 43 q34 -7 101 -7 l64 0 q3 35 3 74 l0 101 l-35 0 q-63 0 -86 -7 l-16 42 ZM398 465 l0 175 l-121 0 l0 -101 q0 -40 -3 -74 l124 0 ZM632 679 q21 -4 69 -14 q9 -3 9 -9 q0 -7 -18 -12 q-13 -5 -13 -15 l0 -348 q0 -8 -18 -13 q-11 -3 -21 -3 q-8 0 -8 24 q0 54 4 117 l0 180 q0 55 -4 93 ZM816 718 q64 -12 64 -12 q26 -6 26 -15 q0 -7 -25 -14 q-14 -5 -14 -13 l0 -434 q0 -32 -19 -53 q-25 -25 -48 -25 q-4 0 -9 18 q-6 22 -92 33 l0 12 l105 0 q20 0 20 15 l0 375 q0 75 -8 113 ZM171 101 q35 -8 102 -8 l203 0 q-1 69 -8 110 q39 -8 63 -14 q23 -3 23 -14 q0 -6 -22 -14 q-17 -5 -17 -17 l0 -51 l195 0 q13 15 24 31 q12 16 19 16 q9 0 36 -25 q31 -28 31 -33 q0 -16 -20 -16 l-285 0 l0 -144 l317 0 q14 17 25 36 q14 18 21 18 q10 0 39 -28 q36 -32 36 -38 q0 -16 -24 -16 l-781 0 q-63 0 -86 -8 l-16 43 q35 -7 102 -7 l328 0 l0 144 l-203 0 q-63 0 -86 -8 l-16 43 Z" /><glyph glyph-name="" unicode="&#x57ce;" d="M46 468 q35 -7 102 -7 l35 0 l0 121 q0 90 -8 140 q42 -8 69 -13 q25 -4 25 -14 q0 -8 -25 -16 q-18 -5 -18 -19 l0 -199 l47 0 q10 10 19 23 q10 12 16 12 q7 0 29 -20 q26 -23 26 -27 q0 -16 -16 -16 l-121 0 l0 -291 q54 18 121 45 l8 -12 q-136 -73 -212 -99 q-50 -17 -50 -26 q0 -23 -8 -23 q-10 0 -20 22 q-15 30 -23 48 q45 5 105 21 q18 5 36 10 l0 305 l-35 0 q-63 0 -86 -8 l-16 43 ZM886 586 q7 0 30 -22 q29 -28 29 -33 q0 -16 -16 -16 l-235 0 q2 -89 8 -152 q16 -121 47 -210 q5 7 8 14 q56 112 78 247 q63 -24 75 -30 q17 -5 19 -17 q0 -7 -30 -11 q-23 -5 -24 -16 q-55 -141 -110 -228 q33 -78 74 -132 q41 -51 51 -51 q7 0 12 18 q17 60 35 127 l12 0 q-16 -128 -16 -152 q0 -17 8 -32 q8 -11 8 -15 q0 -12 -20 -12 q-31 0 -77 44 q-61 60 -109 162 q-2 4 -2 6 q-17 -24 -34 -42 q-96 -105 -270 -182 l-12 12 q101 50 183 114 q68 60 117 136 q-35 92 -51 188 q-19 98 -24 214 l-233 0 l0 -125 q0 -20 -1 -39 l123 0 q5 9 10 13 q10 15 13 15 q8 0 32 -19 q23 -18 23 -24 q0 -4 -16 -11 q-16 -10 -16 -17 q0 -179 -10 -230 q-5 -34 -31 -51 q-27 -19 -41 -19 q-4 0 -7 16 q-5 21 -79 34 l4 16 q42 -8 82 -8 q18 0 26 6 q7 5 11 44 q6 69 6 208 l-131 0 q-3 -81 -16 -154 q-17 -92 -49 -154 q-37 -71 -124 -149 l-12 12 q75 76 106 146 q28 60 43 150 q15 104 15 215 l0 82 q0 68 -11 102 l53 -31 l229 0 q-1 31 -1 62 q0 80 -8 133 q31 -5 62 -14 q28 -5 28 -13 q0 -7 -19 -11 q-18 -5 -20 -17 q0 -76 2 -140 l154 0 q0 0 15 20 q16 23 24 23 ZM757 707 q51 -27 74 -47 q20 -19 20 -31 q0 -18 -4 -27 q-8 -9 -15 -9 q-14 1 -20 16 q-13 31 -24 46 q-11 16 -38 40 l7 12 Z" /><glyph glyph-name="" unicode="&#x582a;" d="M46 465 q35 -8 102 -8 l31 0 l0 117 q0 90 -8 141 q42 -9 69 -14 q25 -4 25 -14 q0 -8 -25 -15 q-18 -6 -18 -20 l0 -195 l55 0 q10 12 19 26 q10 13 16 13 q7 0 31 -22 q28 -24 28 -29 q0 -16 -16 -16 l-133 0 l0 -300 q53 18 117 46 l8 -11 q-128 -78 -199 -105 q-47 -18 -47 -28 q0 -23 -8 -23 q-11 0 -22 22 q-16 33 -25 52 q44 5 101 22 q16 4 32 10 l0 315 l-31 0 q-63 0 -86 -7 l-16 43 ZM328 597 q34 -7 101 -7 l47 0 l0 11 q0 83 -8 129 q39 -8 63 -13 q23 -4 23 -14 q0 -7 -22 -14 q-17 -5 -17 -17 l0 -82 l211 0 l0 7 q0 83 -8 129 q39 -8 63 -13 q23 -4 23 -14 q0 -7 -22 -14 q-17 -5 -17 -17 l0 -78 l70 0 q11 12 19 25 q11 14 17 14 q7 0 30 -22 q28 -24 28 -29 q0 -16 -15 -16 l-149 0 l0 -340 l86 0 q13 14 24 29 q12 14 19 14 q8 0 33 -23 q30 -26 30 -31 q0 -16 -20 -16 l-219 0 l0 -98 q0 -23 6 -33 q10 -10 40 -10 l64 0 q8 0 26 14 q8 10 9 10 q1 0 17 -13 q10 -9 10 -15 q0 -9 -10 -14 q-23 -13 -46 -13 l-70 0 q-42 0 -64 12 q-21 15 -21 62 l0 98 l-78 0 q-22 -87 -49 -125 q-11 -19 -47 -47 q-23 -17 -60 -31 l-8 16 q29 12 47 28 q29 27 36 44 q22 36 39 115 l-138 0 l0 -270 l434 0 q0 0 14 19 q14 21 21 21 q6 0 28 -20 q27 -26 27 -31 q0 -16 -16 -16 l-508 0 l0 -27 q0 -18 -9 -23 q-13 -8 -22 -8 q-12 0 -12 31 l4 109 l0 215 q-47 -1 -66 -8 l-16 43 q34 -8 102 -8 l74 0 l0 340 l-47 0 q-62 0 -86 -8 l-15 43 ZM515 222 l211 0 l0 110 l-211 0 l0 -110 ZM515 359 l211 0 l0 86 l-211 0 l0 -86 ZM515 472 l211 0 l0 90 l-211 0 l0 -90 Z" /><glyph glyph-name="" unicode="&#x5854;" d="M42 449 q35 -8 102 -8 l27 0 l0 129 q0 83 -7 129 q38 -8 63 -14 q23 -3 23 -13 q0 -7 -23 -15 q-17 -4 -17 -17 l0 -199 l55 0 q10 11 19 23 q10 12 16 12 q7 0 29 -20 q26 -22 26 -27 q0 -15 -16 -15 l-129 0 l0 -317 q62 27 141 71 l8 -12 q-138 -94 -215 -127 q-51 -21 -51 -33 q0 -24 -8 -24 q-10 0 -20 22 q-15 31 -23 49 q46 6 106 28 q12 4 23 9 l0 334 l-27 0 q-62 0 -86 -8 l-16 43 ZM285 617 q34 -8 101 -8 l82 0 l0 39 q0 64 -11 90 q74 -14 74 -14 q23 -3 23 -13 q0 -10 -23 -15 q-20 -6 -20 -17 l0 -70 l172 0 l0 35 q0 64 -12 90 q75 -14 75 -14 q23 -3 23 -13 q0 -10 -23 -15 q-20 -6 -20 -17 l0 -66 l113 0 q11 11 19 23 q11 12 17 12 q6 0 28 -20 q26 -22 26 -27 q0 -15 -15 -15 l-188 0 l0 -82 q0 -16 -23 -22 q-8 -2 -12 -2 q-12 0 -12 20 q0 23 4 48 l0 38 l-172 0 l0 -86 q0 -16 -23 -22 q-8 -2 -12 -2 q-12 0 -12 20 q0 24 4 49 l0 41 l-82 0 q-62 0 -86 -8 l-15 43 ZM574 527 q32 -13 58 -24 q12 -5 12 -11 q0 -5 -16 -8 q-9 -2 -15 -4 q59 -87 135 -137 q58 -41 212 -89 l0 -16 q-40 0 -53 -16 q-8 -11 -13 -11 q-19 0 -127 74 q-114 82 -168 186 q-1 -2 -2 -3 q-69 -96 -143 -155 q-88 -66 -185 -110 l-4 12 q122 67 188 138 q59 57 121 174 ZM437 269 q34 -8 102 -8 l105 0 q12 13 21 26 q11 13 18 13 q7 0 31 -21 q28 -24 28 -29 q0 -16 -20 -16 l-183 0 q-63 0 -86 -8 l-16 43 ZM394 168 q32 -11 57 -35 l271 0 q2 0 14 14 q16 17 21 17 q8 0 34 -27 q21 -22 21 -28 q0 -5 -21 -16 q-14 -9 -14 -15 q0 -113 4 -215 q0 -7 -15 -12 q-11 -3 -13 -4 q-19 0 -19 16 l0 27 l-283 0 l2 -27 q0 -11 -21 -16 q-13 -4 -18 -4 q-12 0 -12 20 l4 59 l0 148 q0 53 -12 98 ZM449 -82 l285 0 l0 187 l-285 0 l0 -187 Z" /><glyph glyph-name="" unicode="&#x58f0;" d="M792 394 q8 0 34 -26 q21 -22 21 -28 q0 -5 -20 -16 q-15 -10 -15 -16 q0 -92 4 -175 q0 -7 -15 -12 q-11 -4 -12 -4 q-20 0 -20 16 l0 31 l-580 0 q-6 -107 -26 -154 q-25 -77 -97 -151 l-16 8 q58 73 79 148 q23 64 23 239 q0 82 -12 144 q30 -17 53 -35 l564 0 q2 0 14 15 q16 16 21 16 ZM191 336 l0 -82 q0 -34 -1 -63 l294 0 l0 145 l-293 0 ZM519 336 l0 -145 l250 0 l0 145 l-250 0 ZM74 636 q34 -7 101 -7 l293 0 q-1 71 -8 113 q42 -8 69 -14 q25 -3 25 -13 q0 -8 -25 -16 q-18 -5 -18 -20 l0 -50 l305 0 q14 15 25 33 q14 17 22 17 q9 0 37 -26 q33 -30 33 -36 q0 -16 -19 -16 l-403 0 l0 -113 l231 0 q12 15 23 31 q12 16 20 16 q8 0 35 -25 q31 -28 31 -34 q0 -15 -19 -15 l-579 0 q-62 0 -86 -8 l-15 43 q34 -8 101 -8 l215 0 l0 113 l-293 0 q-62 0 -86 -8 l-15 43 Z" /><glyph glyph-name="" unicode="&#x5927;" d="M50 480 q34 -8 102 -8 l301 0 q7 73 7 153 q0 63 -3 109 q61 -14 61 -14 q32 -4 32 -13 q0 -11 -24 -14 q-19 -6 -19 -14 q0 -114 -10 -207 l319 0 q15 18 27 39 q15 20 24 20 q10 0 43 -30 q39 -34 39 -40 q0 -16 -24 -16 l-401 0 q30 -116 84 -210 q54 -90 137 -176 q83 -85 200 -134 l0 -19 q-36 0 -51 -16 q-14 -11 -16 -11 q-13 0 -76 54 q-58 46 -114 121 q-54 61 -99 143 q-50 95 -89 248 l-6 0 q-27 -216 -109 -323 q-106 -160 -331 -263 l-12 12 q102 50 182 121 q78 64 129 147 q74 119 97 306 l-298 0 q-63 0 -86 -8 l-16 43 Z" /><glyph glyph-name="" unicode="&#x5934;" d="M46 324 q35 -8 102 -8 l314 0 q30 138 30 313 q0 63 -4 109 q61 -14 61 -14 q32 -4 32 -13 q0 -11 -24 -14 q-19 -6 -19 -14 q0 -218 -29 -367 l311 0 q15 17 27 36 q15 19 24 19 q9 0 41 -29 q37 -31 37 -38 q0 -15 -24 -15 l-422 0 q-6 -24 -14 -47 q209 -106 373 -262 q36 -43 36 -73 q0 -27 -20 -27 q-20 2 -31 19 q-203 235 -365 323 q-28 -63 -67 -115 q-111 -151 -340 -240 l-12 12 q111 50 193 115 q78 65 128 140 q54 82 71 155 l-307 0 q-63 0 -86 -8 l-16 43 ZM144 531 q119 -41 156 -75 q24 -22 24 -46 q-1 -27 -20 -27 q-12 0 -34 29 q-32 49 -134 107 l8 12 ZM207 691 q126 -44 165 -81 q26 -25 26 -52 q-1 -27 -20 -27 q-12 0 -36 32 q-35 53 -143 116 l8 12 Z" /><glyph glyph-name="" unicode="&#x597d;" d="M214 722 q31 -6 66 -15 q20 -5 20 -12 q0 -8 -22 -11 q-19 -4 -21 -12 q-16 -89 -33 -168 l108 0 q7 7 19 20 q8 7 12 7 q7 0 30 -25 q17 -21 17 -26 q0 -8 -11 -12 q-12 -5 -21 -11 q-12 -77 -25 -137 l264 0 l0 63 q0 75 -8 113 q38 -8 53 -11 q80 60 162 151 l-258 0 q-110 0 -164 -7 l-20 46 q88 -11 184 -11 l254 0 q10 13 18 28 q11 11 13 11 q8 0 45 -38 q29 -31 29 -40 q0 -12 -62 -12 q-71 -59 -178 -133 q14 -5 14 -12 q0 -6 -25 -13 q-14 -6 -14 -14 l0 -121 l172 0 q0 0 20 25 q20 30 30 30 q8 0 38 -27 q37 -33 37 -40 q0 -15 -16 -15 l-281 0 l0 -348 q0 -39 -22 -63 q-30 -31 -56 -31 q-6 0 -12 24 q-7 28 -110 43 l0 15 q60 -8 133 -8 q24 0 24 20 l0 348 l-270 0 q-18 -85 -39 -137 q-11 -32 -24 -58 q32 -20 54 -37 q56 -47 56 -77 q0 -17 -4 -26 q-8 -9 -15 -9 q-14 0 -20 16 q-46 72 -85 104 q-24 -46 -53 -87 q-59 -75 -155 -127 l-8 12 q99 74 152 157 q20 34 35 68 q-39 30 -104 67 q-8 -25 -16 -50 q-7 -12 -20 -12 q-9 0 -18 4 q-9 4 -9 12 q64 170 104 363 q-75 -1 -108 -8 l-20 43 q52 -4 134 -7 q23 101 30 218 ZM141 173 q64 -30 110 -56 q21 47 36 95 q27 93 48 264 l-117 0 q-35 -163 -77 -303 Z" /><glyph glyph-name="" unicode="&#x5b50;" d="M156 683 q87 -11 183 -11 l418 0 q12 10 21 23 q13 8 14 8 q8 0 47 -40 q32 -32 32 -42 q0 -12 -71 -12 q-97 -64 -248 -148 q6 -3 6 -8 q0 -7 -27 -14 q-16 -6 -16 -14 l0 -109 l297 0 q15 17 27 36 q15 19 24 19 q10 0 41 -29 q37 -31 37 -38 q0 -15 -24 -15 l-402 0 l0 -344 q0 -40 -23 -66 q-31 -32 -59 -32 q-7 0 -14 24 q-9 28 -134 43 l0 15 q72 -4 160 -4 q23 0 23 20 l0 344 l-312 0 q-63 0 -86 -8 l-16 43 q34 -8 102 -8 l312 0 l0 43 q0 83 -8 125 q53 -11 64 -14 q117 66 237 174 l-422 0 q-110 0 -164 -8 l-19 47 Z" /><glyph glyph-name="" unicode="&#x5b62;" d="M54 675 q60 -7 160 -7 l137 0 q11 6 22 17 q8 6 13 6 q6 0 31 -19 q32 -27 32 -36 q0 -7 -51 -7 l-38 -33 q-40 -40 -91 -73 q20 -5 20 -12 q0 -6 -25 -13 q-14 -6 -14 -14 l0 -161 q70 19 156 48 l8 -12 q-95 -41 -164 -67 l0 -355 q0 -33 -19 -55 q-25 -27 -48 -27 q-5 0 -10 21 q-6 25 -95 38 l0 11 q51 -3 113 -3 q19 0 19 15 l0 341 q-33 -11 -59 -18 q-62 -17 -62 -26 q0 -23 -7 -23 q-11 0 -20 22 q-16 30 -23 48 q54 5 126 21 q21 4 45 10 l0 121 q0 68 -3 102 q29 -6 43 -8 q50 41 101 113 l-137 0 q-98 0 -140 -7 l-20 42 ZM511 730 q38 -14 69 -26 q13 -6 13 -13 q0 -6 -18 -9 q-29 -5 -36 -18 q-18 -49 -34 -86 l327 0 q5 8 13 21 q12 14 18 14 q10 0 37 -24 q25 -24 25 -35 q0 -5 -16 -13 q-17 -8 -19 -18 q0 -223 -18 -316 q-14 -71 -28 -94 q-13 -23 -43 -40 q-31 -15 -51 -15 q-9 0 -16 16 q-4 25 -78 43 l0 16 q59 -12 94 -12 q27 0 39 5 q15 5 25 34 q16 33 22 116 q11 102 11 274 l-355 0 q-12 -23 -22 -40 q-41 -65 -88 -108 l-7 12 q53 68 83 140 q26 58 53 176 ZM664 445 q6 0 29 -20 q21 -16 21 -23 q0 -7 -11 -16 q-12 -10 -12 -15 l0 -122 q0 -29 4 -70 q0 -11 -16 -16 q-13 -3 -19 -3 q-12 0 -12 19 q1 8 2 16 l-158 0 l0 -230 q0 -25 7 -35 q11 -12 179 -12 q177 0 201 16 q18 10 21 67 q6 49 10 92 l15 0 l0 -83 q0 -60 14 -69 q14 -14 14 -23 q0 -12 -16 -19 q-28 -16 -204 -16 q-247 0 -268 17 q-12 12 -12 65 l0 371 q0 71 -4 109 q22 -13 41 -27 l146 0 q5 5 13 14 q11 13 15 13 ZM492 390 l0 -168 l160 0 l0 168 l-160 0 Z" /><glyph glyph-name="" unicode="&#x5b88;" d="M390 742 q106 -35 139 -65 q21 -19 21 -41 q0 -35 -23 -35 q-10 0 -30 27 q-27 45 -115 98 l8 16 ZM179 640 q0 -27 -1 -50 l669 0 q8 5 14 19 q15 16 17 16 q13 0 44 -26 q31 -28 31 -37 q0 -11 -30 -12 q-23 -5 -29 -7 l-94 -90 l-8 12 q27 35 59 97 l-675 0 q-5 -57 -17 -81 q-14 -28 -50 -36 q-27 0 -27 31 q56 68 63 101 q15 26 15 59 l19 4 ZM46 351 q35 -8 102 -8 l508 0 l0 51 q0 83 -8 125 q70 -14 70 -14 q28 -6 28 -17 q0 -7 -27 -14 q-16 -6 -16 -13 l0 -118 l129 0 q14 16 25 34 q14 17 21 17 q9 0 38 -27 q33 -29 33 -35 q0 -16 -20 -16 l-226 0 l0 -375 q0 -38 -28 -63 q-37 -31 -70 -31 q-6 0 -13 26 q-9 29 -132 45 l0 15 q78 -11 172 -11 q24 0 24 19 l0 375 l-508 0 q-63 0 -86 -8 l-16 43 ZM261 242 q89 -61 130 -106 q34 -43 34 -70 q0 -21 -5 -32 q-9 -11 -18 -11 q-19 1 -27 24 q-26 66 -48 97 q-22 34 -77 86 l11 12 Z" /><glyph glyph-name="" unicode="&#x5b8c;" d="M398 742 q93 -35 122 -65 q19 -19 19 -41 q-1 -35 -24 -35 q-9 0 -25 27 q-24 45 -100 98 l8 16 ZM156 648 l27 0 q0 -32 -2 -58 l643 0 q9 5 16 19 q16 16 19 16 q14 0 46 -28 q32 -29 32 -39 q0 -10 -33 -12 q-27 -5 -33 -7 l-94 -82 l-8 11 q27 34 59 94 l-649 0 q-4 -39 -11 -61 q-9 -36 -30 -56 q-16 -16 -29 -16 q-26 3 -27 20 q0 11 18 32 q25 29 39 63 q14 29 17 104 ZM214 445 q35 -8 102 -8 l351 0 q13 13 24 29 q12 14 19 14 q8 0 34 -23 q29 -26 29 -32 q0 -15 -20 -15 l-437 0 q-63 0 -86 -8 l-16 43 ZM89 277 q35 -8 102 -8 l601 0 q15 16 26 33 q14 18 21 18 q9 0 37 -27 q34 -30 34 -35 q0 -16 -20 -16 l-281 0 l0 -266 q0 -35 14 -45 q14 -13 138 -13 q68 0 95 13 q14 6 15 26 q5 59 7 140 l20 0 l0 -99 q0 -43 23 -57 q16 -8 16 -19 q0 -18 -23 -28 q-42 -15 -153 -15 l-109 0 q-48 2 -69 27 q-17 22 -17 70 l0 266 l-144 0 q-20 -122 -62 -193 q-34 -64 -101 -113 q-72 -53 -197 -93 l-8 12 q113 38 178 90 q60 47 91 110 q38 69 57 187 l-189 0 q-63 0 -86 -8 l-16 43 Z" /><glyph glyph-name="" unicode="&#x5b9a;" d="M398 742 q93 -31 122 -58 q19 -17 19 -36 q-1 -31 -20 -31 q-9 0 -26 24 q-25 41 -103 89 l8 12 ZM160 660 l23 0 q0 -33 -2 -59 l654 0 q8 4 15 13 q15 11 17 11 q12 0 41 -24 q29 -27 29 -35 q0 -8 -29 -10 q-23 -4 -30 -6 l-74 -78 l-8 8 q20 34 43 94 l-660 0 q-4 -32 -11 -51 q-9 -34 -30 -52 q-16 -14 -29 -14 q-23 2 -24 15 q0 11 19 31 q25 27 39 59 q14 28 17 98 ZM148 429 q34 -7 102 -7 l480 0 q13 14 23 30 q13 16 20 16 q8 0 35 -24 q31 -29 31 -34 q0 -16 -19 -16 l-297 0 l0 -183 l203 0 q0 0 17 21 q17 26 26 26 q7 0 32 -24 q31 -29 31 -35 q0 -16 -16 -16 l-293 0 l0 -236 q75 -14 202 -14 q110 0 216 12 l0 -12 q-41 -13 -47 -35 q0 -12 -23 -12 q-245 0 -324 19 q-77 12 -139 46 q-57 29 -89 75 q-27 32 -50 94 q-24 -61 -51 -100 q-64 -91 -160 -157 l-8 12 q71 62 117 126 q41 57 64 122 q22 61 42 193 q63 -22 63 -22 q19 -5 19 -13 q0 -6 -13 -9 q-30 -7 -30 -14 q-16 -65 -34 -114 q28 -70 74 -115 q44 -46 124 -70 q2 -1 4 -1 l0 436 l-230 0 q-63 0 -86 -8 l-16 43 Z" /><glyph glyph-name="" unicode="&#x5bb6;" d="M410 746 q90 -30 118 -55 q18 -17 18 -35 q0 -35 -23 -35 q-9 0 -25 23 q-23 40 -96 86 l8 16 ZM156 664 l23 0 q0 -31 -1 -55 l654 0 q7 4 14 15 q15 12 17 12 q12 0 43 -25 q31 -28 31 -37 q0 -11 -29 -13 q-23 -4 -30 -7 l-74 -58 l-8 12 q18 26 39 74 l-659 0 q-5 -37 -12 -58 q-10 -34 -32 -53 q-17 -14 -31 -14 q-26 2 -27 19 q0 11 20 31 q29 26 43 59 q15 27 19 98 ZM164 484 q34 -8 101 -8 l442 0 q11 12 21 26 q11 13 18 13 q7 0 30 -21 q28 -25 28 -29 q0 -16 -19 -16 l-254 0 q-39 -32 -78 -56 q53 -46 79 -95 q16 -28 26 -59 q87 43 124 75 q41 26 79 88 q29 -14 56 -27 q15 -8 15 -16 q0 -7 -12 -10 q-42 0 -43 -6 q-54 -46 -138 -86 q23 -65 61 -117 q38 -49 98 -97 q59 -48 143 -75 l0 -15 q-32 0 -46 -16 q-11 -12 -13 -12 q-9 0 -53 33 q-40 26 -79 70 q-37 36 -68 84 q-34 53 -60 137 q-29 -13 -60 -25 q5 -14 7 -27 q9 -51 9 -111 q0 -90 -23 -150 q-14 -41 -45 -66 q-29 -23 -50 -23 q-6 0 -15 16 q-12 22 -110 43 l4 19 q90 -11 129 -11 q13 0 26 11 q16 15 26 53 q15 42 15 108 q0 39 -3 74 q-95 -100 -177 -145 q-118 -70 -285 -117 l-8 20 q166 52 283 132 q83 54 179 170 q-6 34 -20 64 q-102 -76 -199 -120 q-97 -47 -220 -82 l-7 11 q117 41 211 94 q94 51 193 140 q-18 28 -44 57 q-39 -23 -78 -40 q-113 -51 -251 -83 l-8 20 q120 29 218 75 q77 35 146 93 l-200 0 q-62 0 -86 -8 l-15 43 Z" /><glyph glyph-name="" unicode="&#x5bfc;" d="M730 738 q8 0 34 -26 q21 -22 21 -29 q0 -5 -21 -15 q-14 -10 -14 -16 q0 -101 3 -191 q0 -7 -14 -12 q-11 -3 -13 -4 q-19 0 -19 16 l0 31 l-493 0 l0 -149 q0 -20 12 -30 q15 -9 53 -9 l397 0 q104 0 129 10 q20 9 31 65 q6 46 11 82 l16 0 l0 -80 q0 -48 23 -58 q24 -9 24 -19 q0 -14 -26 -22 q-35 -13 -103 -13 l-517 0 q-53 0 -72 15 q-21 16 -21 59 l0 293 q0 63 -7 102 q38 -22 57 -39 l474 0 q1 0 14 18 q16 21 21 21 ZM214 672 l0 -153 l493 0 l0 153 l-493 0 ZM54 156 q34 -8 102 -8 l508 0 q-1 64 -8 98 q64 -13 64 -13 q26 -5 26 -15 q0 -6 -25 -13 q-14 -6 -14 -14 l0 -43 l128 0 q13 15 24 31 q12 16 19 16 q9 0 36 -25 q31 -28 31 -34 q0 -15 -20 -15 l-218 0 l0 -196 q0 -32 -22 -52 q-30 -26 -57 -26 q-6 0 -12 21 q-9 25 -124 38 l0 12 q69 -8 152 -8 q20 0 20 15 l0 196 l-508 0 q-63 0 -86 -8 l-16 43 ZM320 105 q68 -37 98 -66 q27 -26 27 -43 q0 -18 -4 -27 q-8 -8 -16 -8 q-13 0 -19 15 q-19 43 -36 62 q-16 22 -58 55 l8 12 Z" /><glyph glyph-name="" unicode="&#x5c01;" d="M78 570 q34 -8 101 -8 l74 0 l0 24 q0 89 -7 140 q42 -8 68 -13 q25 -4 25 -14 q0 -8 -25 -16 q-18 -5 -18 -19 l0 -102 l82 0 q13 15 24 31 q12 16 19 16 q9 0 36 -25 q31 -28 31 -34 q0 -15 -20 -15 l-172 0 l0 -141 l106 0 q13 13 23 29 q12 14 20 14 q8 0 33 -23 q29 -26 29 -31 q0 -16 -19 -16 l-340 0 q-63 0 -86 -8 l-16 43 q35 -8 102 -8 l105 0 l0 141 l-74 0 q-62 0 -86 -8 l-15 43 ZM62 207 q34 -8 102 -8 l86 0 q0 88 -8 137 q42 -9 69 -14 q24 -3 24 -14 q0 -8 -24 -15 q-19 -6 -19 -20 l0 -74 l86 0 q13 15 24 31 q12 16 19 16 q9 0 36 -25 q31 -28 31 -34 q0 -15 -20 -15 l-176 0 l0 -171 q96 23 227 61 l8 -12 q-217 -82 -339 -111 q-79 -19 -79 -29 q0 -27 -8 -27 q-11 0 -22 24 q-16 34 -25 54 q69 5 160 23 q17 3 36 8 l0 180 l-86 0 q-63 0 -86 -8 l-16 43 ZM484 484 q34 -8 101 -8 l168 0 l0 137 q0 75 -7 113 q64 -12 64 -12 q25 -6 25 -15 q0 -7 -24 -14 q-15 -6 -15 -13 l0 -196 l47 0 q13 15 24 31 q12 16 19 16 q9 0 35 -25 q32 -28 32 -33 q0 -16 -20 -16 l-137 0 l0 -492 q0 -40 -25 -66 q-34 -32 -64 -32 q-6 0 -12 25 q-8 30 -117 45 l0 16 q68 -8 152 -8 q23 0 23 20 l0 492 l-168 0 q-62 0 -85 -8 l-16 43 ZM539 336 q57 -53 83 -92 q22 -37 22 -61 q0 -19 -5 -29 q-9 -10 -18 -10 q-17 1 -24 20 q-14 58 -27 84 q-12 31 -43 76 l12 12 Z" /><glyph glyph-name="" unicode="&#x5c04;" d="M253 730 q59 -18 59 -18 q20 -7 20 -17 q0 -5 -19 -9 q-19 -5 -21 -7 q-19 -37 -52 -74 l138 0 q0 0 11 14 q10 14 17 14 q6 0 30 -19 q21 -17 21 -24 q0 -6 -17 -17 q-15 -9 -15 -19 l0 -322 q22 30 43 61 q26 -16 48 -34 q11 -7 11 -17 q0 -1 -8 -4 q-20 1 -39 4 q-29 -39 -55 -68 l0 -245 q0 -39 -40 -60 q-31 -18 -42 -18 q-5 0 -10 17 q-7 25 -99 42 l4 15 q81 -7 133 -7 q15 0 15 31 l0 181 q-42 -45 -77 -71 q-89 -76 -267 -145 l-7 15 q99 36 232 136 q59 45 119 118 l0 10 q-151 -43 -236 -59 q-61 -11 -61 -17 q0 -24 -7 -24 q-11 0 -20 22 q-16 31 -23 49 q41 2 93 7 l0 399 q0 35 -4 63 q27 -10 54 -28 l37 0 q29 60 34 125 ZM171 176 q86 11 215 33 l0 95 l-215 0 l0 -128 ZM171 332 l215 0 l0 113 l-215 0 l0 -113 ZM171 472 l215 0 l0 106 l-215 0 l0 -106 ZM464 484 q35 -8 102 -8 l207 0 l0 137 q0 75 -8 113 q65 -12 65 -12 q25 -6 25 -15 q0 -7 -24 -14 q-15 -6 -15 -13 l0 -196 l31 0 q13 13 24 29 q12 14 19 14 q8 0 33 -23 q30 -26 30 -31 q0 -16 -20 -16 l-117 0 l0 -512 q0 -35 -25 -57 q-35 -29 -65 -29 q-6 0 -12 23 q-8 26 -117 40 l0 15 q71 -7 156 -7 q20 0 20 15 l0 512 l-207 0 q-63 0 -86 -8 l-16 43 ZM554 343 q70 -63 102 -110 q27 -45 27 -73 q0 -20 -5 -29 q-9 -10 -18 -10 q-16 0 -24 19 q-19 70 -35 101 q-17 37 -59 91 l12 11 Z" /><glyph glyph-name="" unicode="&#x5c38;" d="M855 703 q8 0 34 -27 q21 -21 21 -28 q0 -5 -25 -15 q-18 -10 -18 -16 q0 -144 4 -274 q0 -6 -15 -11 q-11 -4 -13 -4 q-19 0 -19 15 l0 51 l-588 0 q-7 -201 -35 -285 q-34 -132 -127 -258 l-16 8 q78 125 106 254 q31 109 31 410 q0 107 -12 188 q34 -19 60 -39 l577 0 q1 0 14 14 q16 17 21 17 ZM238 644 l0 -121 q0 -55 -1 -101 l587 0 l0 222 l-586 0 Z" /><glyph glyph-name="" unicode="&#x5dee;" d="M292 718 q53 -30 77 -54 q21 -21 21 -35 q0 -20 -5 -30 q-9 -9 -18 -9 q-16 0 -24 19 q-12 36 -24 52 q-10 18 -38 46 l11 11 ZM640 722 q73 -27 73 -27 q17 -6 17 -16 q0 -9 -28 -9 q-27 0 -31 -6 q-23 -39 -56 -78 l181 0 q13 14 24 30 q12 17 19 17 q9 0 36 -25 q31 -29 31 -34 q0 -16 -20 -16 l-367 0 l0 -109 l215 0 q13 13 23 28 q13 15 20 15 q8 0 33 -24 q29 -25 29 -31 q0 -15 -19 -15 l-301 0 l0 -118 l316 0 q13 15 24 31 q12 16 19 16 q9 0 36 -25 q31 -28 31 -33 q0 -16 -20 -16 l-596 0 q-23 -137 -91 -237 q-72 -107 -188 -197 l-11 12 q100 88 161 192 q59 98 79 230 l-123 0 q-63 0 -86 -8 l-16 43 q34 -8 102 -8 l320 0 l0 118 l-199 0 q-63 0 -86 -8 l-16 43 q34 -8 102 -8 l199 0 l0 109 l-301 0 q-62 0 -86 -8 l-15 43 q34 -7 101 -7 l416 0 q15 25 24 51 q14 34 25 85 ZM324 152 q34 -8 101 -8 l289 0 q13 15 24 31 q12 16 19 16 q9 0 35 -25 q32 -28 32 -33 q0 -16 -20 -16 l-222 0 l0 -203 l242 0 q14 15 25 33 q14 18 22 18 q8 0 37 -27 q33 -30 33 -36 q0 -16 -20 -16 l-629 0 q-62 0 -85 -7 l-16 43 q34 -8 101 -8 l243 0 l0 203 l-110 0 q-62 0 -86 -8 l-15 43 Z" /><glyph glyph-name="" unicode="&#x5e02;" d="M394 742 q78 -35 114 -61 q31 -25 31 -41 q0 -21 -5 -32 q-10 -11 -19 -11 q-18 1 -27 24 q-22 40 -40 58 q-19 20 -66 51 l12 12 ZM46 593 q35 -7 102 -7 l687 0 q13 14 24 30 q12 17 19 17 q9 0 36 -25 q31 -29 31 -34 q0 -16 -20 -16 l-777 0 q-63 0 -86 -8 l-16 43 ZM160 422 q32 -13 58 -36 l254 0 l0 43 q0 63 -4 106 q24 -5 75 -14 q11 -4 11 -10 q0 -7 -20 -13 q-15 -6 -15 -18 l0 -94 l262 0 q0 0 12 14 q12 14 19 14 q7 0 33 -21 q22 -18 22 -26 q0 -6 -19 -19 q-16 -10 -16 -20 l0 -297 q0 -43 -42 -66 q-33 -20 -44 -20 q-6 0 -12 18 q-7 27 -113 45 l4 15 q91 -8 148 -8 q16 0 16 35 l0 309 l-270 0 l0 -492 q0 -10 -18 -16 q-11 -4 -21 -4 q-12 0 -12 24 q0 59 4 129 l0 359 l-258 0 l0 -355 l4 -59 q0 -11 -20 -16 q-13 -4 -19 -4 q-12 0 -12 20 l4 59 l0 320 q0 53 -11 98 Z" /><glyph glyph-name="" unicode="&#x5e1d;" d="M390 742 q93 -30 122 -55 q19 -17 19 -35 q-1 -35 -24 -35 q-8 0 -25 23 q-24 40 -100 86 l8 16 ZM58 617 q34 -8 102 -8 l672 0 q12 15 23 31 q12 16 20 16 q8 0 35 -25 q31 -28 31 -34 q0 -15 -20 -15 l-761 0 q-63 0 -86 -8 l-16 43 ZM312 566 q46 -34 67 -59 q19 -23 19 -39 q0 -17 -4 -26 q-8 -9 -16 -9 q-13 1 -19 16 q-11 39 -21 56 q-10 20 -34 49 l8 12 ZM652 566 q62 -22 62 -22 q17 -5 16 -13 q0 -6 -18 -10 l-25 -6 q-44 -64 -84 -105 l240 0 q8 4 14 13 q16 10 18 10 q12 0 41 -24 q29 -26 29 -34 q0 -9 -29 -11 q-23 -3 -30 -5 l-90 -70 l-7 8 q26 30 58 86 l-679 0 q-4 -42 -12 -64 q-10 -33 -32 -51 q-17 -14 -31 -14 q-22 2 -23 15 q0 11 19 30 q27 26 41 58 q15 27 18 96 l23 0 q0 -24 -1 -43 l409 0 q40 57 73 156 ZM210 277 q32 -11 58 -35 l200 0 l0 23 q0 56 -4 94 q21 -4 69 -14 q9 -3 9 -9 q0 -7 -18 -13 q-13 -4 -13 -15 l0 -66 l211 0 q0 0 12 14 q13 13 19 13 q7 0 33 -20 q22 -19 22 -27 q0 -5 -18 -18 q-17 -10 -17 -21 l0 -191 q0 -37 -35 -58 q-26 -16 -35 -16 q-5 0 -11 16 q-5 23 -95 38 l4 16 q70 -8 113 -8 q16 0 16 31 l0 204 l-219 0 l0 -352 q0 -8 -18 -13 q-11 -3 -21 -3 q-8 0 -8 24 q0 54 4 117 l0 227 l-203 0 l0 -219 l4 -59 q0 -11 -20 -16 q-13 -3 -19 -3 q-12 0 -12 19 l4 59 l0 183 q0 53 -12 98 Z" /><glyph glyph-name="" unicode="&#x5e45;" d="M85 574 q27 -9 49 -27 l80 0 l0 109 q0 59 -7 82 q68 -12 68 -12 q21 -3 21 -11 q0 -9 -23 -13 q-20 -6 -20 -15 l0 -140 l71 0 q0 0 10 11 q11 12 17 12 q6 0 30 -19 q21 -17 21 -24 q0 -5 -17 -17 q-14 -9 -14 -18 l0 -367 q0 -35 -27 -54 q-21 -17 -28 -17 q-4 0 -7 16 q-4 19 -56 32 l0 -235 q0 -16 -20 -22 q-7 -2 -11 -2 q-12 0 -12 20 q0 84 4 174 l0 482 l-82 0 l0 -410 l4 -51 q0 -11 -18 -16 q-12 -3 -17 -3 q-12 0 -12 19 l4 51 l0 375 q0 49 -8 90 ZM253 519 l0 -403 q41 -3 67 -3 q12 0 12 27 l0 379 l-79 0 ZM394 683 q34 -8 102 -8 l339 0 q13 15 24 31 q12 16 19 16 q9 0 36 -25 q31 -28 31 -33 q0 -16 -20 -16 l-429 0 q-63 0 -86 -8 l-16 43 ZM480 582 q27 -9 50 -28 l259 0 q1 0 12 14 q14 14 19 14 q7 0 31 -23 q20 -19 20 -24 q0 -5 -21 -16 q-15 -10 -15 -15 q0 -91 4 -172 q0 -7 -12 -12 q-10 -3 -11 -4 q-20 0 -20 16 l0 35 l-267 0 l2 -31 q0 -12 -19 -16 q-11 -4 -16 -4 q-12 0 -12 20 l4 50 l0 106 q0 49 -8 90 ZM527 394 l269 0 l0 133 l-269 0 l0 -133 ZM417 308 q32 -11 58 -35 l360 0 q2 0 15 13 q15 14 21 14 q7 0 33 -26 q21 -22 21 -28 q0 -5 -20 -16 q-15 -10 -15 -15 q0 -184 4 -348 q0 -7 -15 -12 q-11 -3 -12 -4 q-20 0 -20 16 l0 43 l-374 0 l3 -39 q0 -11 -20 -16 q-13 -4 -19 -4 q-12 0 -12 20 l4 58 l0 282 q0 52 -12 97 ZM472 -63 l164 0 l0 149 l-164 0 l0 -149 ZM675 -63 l172 0 l0 149 l-172 0 l0 -149 ZM472 113 l164 0 l0 133 l-164 0 l0 -133 ZM675 246 l0 -133 l172 0 l0 133 l-172 0 Z" /><glyph glyph-name="" unicode="&#x5e73;" d="M97 675 q80 -8 184 -11 l527 0 q13 15 29 36 q13 15 18 15 q8 0 16 -10 q18 -17 40 -39 q10 -11 10 -14 q0 -16 -11 -16 l-387 0 l0 -394 l309 0 q13 15 28 36 q14 15 18 15 q9 0 17 -10 q17 -17 39 -39 q11 -10 11 -14 q0 -15 -12 -15 l-410 0 l0 -204 l4 -132 q0 -20 -12 -26 q-15 -10 -27 -10 q-16 0 -16 36 l4 132 l0 204 l-246 0 q-124 0 -160 -8 l-24 47 q80 -9 184 -12 l246 0 l0 394 l-195 0 q-124 0 -160 -7 l-24 46 ZM214 578 q72 -77 105 -135 q28 -54 28 -88 q0 -19 -5 -29 q-9 -10 -18 -10 q-16 1 -24 20 q-20 84 -37 121 q-17 44 -60 109 l11 12 ZM742 582 q69 -25 69 -25 q19 -6 17 -14 q0 -6 -19 -10 l-28 -6 q-73 -151 -141 -238 l-12 8 q62 96 114 285 Z" /><glyph glyph-name="" unicode="&#x5e97;" d="M433 742 q64 -31 92 -54 q25 -22 25 -36 q0 -19 -5 -29 q-9 -10 -18 -10 q-16 0 -24 20 q-17 35 -31 51 q-14 18 -51 46 l12 12 ZM882 652 q7 0 34 -23 q33 -30 33 -36 q0 -15 -16 -15 l-730 0 l0 -110 q0 -258 -34 -351 q-30 -112 -115 -219 l-15 8 q69 105 93 215 q28 93 28 347 q0 100 -12 176 q34 -19 59 -39 l628 0 q0 0 19 22 q19 25 28 25 ZM492 558 q42 -8 69 -13 q24 -4 24 -14 q0 -8 -24 -16 q-19 -5 -19 -19 l0 -102 l254 0 q0 0 19 22 q19 25 28 25 q7 0 34 -23 q33 -30 33 -35 q0 -16 -16 -16 l-352 0 l0 -172 l223 0 q2 0 14 15 q16 16 21 16 q8 0 34 -26 q21 -22 21 -28 q0 -5 -23 -16 q-16 -10 -16 -16 q0 -144 4 -273 q0 -7 -15 -12 q-11 -3 -13 -4 q-19 0 -19 16 l0 58 l-430 0 l4 -58 q0 -11 -20 -16 q-13 -4 -19 -4 q-12 0 -12 20 l4 58 l0 208 q0 52 -11 97 q31 -11 57 -35 l154 0 l0 223 q0 90 -8 140 ZM343 -47 l430 0 l0 215 l-430 0 l0 -215 Z" /><glyph glyph-name="" unicode="&#x5f00;" d="M117 664 q34 -8 101 -8 l559 0 q13 15 23 31 q12 16 20 16 q8 0 35 -25 q31 -28 31 -34 q0 -15 -19 -15 l-184 0 l0 -313 l145 0 q12 15 23 31 q12 16 20 16 q8 0 35 -25 q31 -28 31 -34 q0 -15 -20 -15 l-234 0 l0 -270 l4 -133 q0 -20 -12 -25 q-15 -10 -27 -10 q-16 0 -16 35 l4 133 l0 270 l-266 0 q-6 -73 -21 -128 q-20 -90 -72 -163 q-48 -78 -156 -147 l-12 12 q94 67 135 144 q44 71 61 159 q13 54 19 123 l-153 0 q-62 0 -86 -8 l-15 43 q34 -8 101 -8 l154 0 q3 42 3 86 l0 227 l-110 0 q-62 0 -86 -8 l-15 43 ZM636 316 l0 313 l-261 0 l0 -227 q0 -47 -3 -86 l264 0 Z" /><glyph glyph-name="" unicode="&#x5f15;" d="M85 687 q44 -8 145 -8 l195 0 q14 16 25 24 q8 8 10 8 q8 0 35 -22 q24 -17 24 -29 q0 -5 -15 -13 q-20 -8 -20 -18 q0 -121 8 -227 q0 -3 -6 -10 q-8 -6 -26 -9 q-18 0 -19 19 l0 35 l-249 0 q-16 -96 -37 -187 l302 0 q8 8 14 19 q8 12 17 12 q6 0 32 -23 q26 -23 26 -36 q0 -5 -12 -8 q-29 -8 -31 -19 q-9 -108 -28 -211 q-7 -53 -40 -91 q-29 -37 -88 -50 q-9 0 -14 18 q-9 25 -51 34 q-31 9 -79 19 l4 15 q113 -15 144 -15 q35 0 52 17 q27 33 33 101 q17 106 24 190 l-311 0 q-4 -18 -9 -35 q0 -15 -23 -15 q-24 0 -24 15 q22 63 39 166 q20 109 20 143 q29 -14 53 -31 l236 0 l0 187 l-211 0 q-85 0 -125 -8 l-20 43 ZM781 726 q74 -13 74 -13 q23 -4 23 -14 q0 -10 -23 -15 q-20 -6 -20 -16 l0 -801 q0 -16 -23 -22 q-8 -2 -12 -2 q-11 0 -11 20 q0 83 3 172 l0 601 q0 64 -11 90 Z" /><glyph glyph-name="" unicode="&#x5f53;" d="M433 730 q42 -8 69 -13 q25 -4 25 -14 q0 -8 -25 -16 q-18 -5 -18 -19 l0 -301 l297 0 q13 19 24 30 q8 9 11 9 q8 0 35 -22 q24 -17 24 -29 q0 -5 -18 -13 q-22 -7 -22 -18 q0 -242 8 -453 q0 -4 -6 -10 q-7 -6 -25 -10 q-19 0 -20 20 l0 39 l-574 0 q-67 0 -117 -12 l-16 51 q48 -12 133 -12 l574 0 l0 188 l-527 0 q-67 0 -117 -12 l-16 51 q48 -12 133 -12 l527 0 l0 188 l-550 0 q-86 0 -125 -8 l-20 43 q44 -8 145 -8 l199 0 l0 223 q0 89 -8 140 ZM144 636 q87 -66 126 -115 q34 -47 34 -76 q0 -20 -5 -29 q-9 -10 -18 -10 q-16 0 -24 19 q-25 73 -47 106 q-22 37 -78 94 l12 11 ZM789 586 q-81 -110 -157 -180 l-7 12 q74 87 136 238 q37 -21 65 -40 q17 -12 17 -19 q-2 -9 -11 -11 l-43 0 Z" /><glyph glyph-name="" unicode="&#x5f55;" d="M191 691 q26 -8 164 -8 l309 0 q2 0 11 11 q21 21 28 21 q7 0 35 -24 q23 -27 23 -31 q0 -8 -25 -18 q-22 -8 -22 -9 l-47 -215 l172 0 q15 15 26 33 q13 17 21 17 q9 0 37 -26 q34 -30 34 -36 q0 -16 -20 -16 l-419 0 q52 -115 117 -195 q79 55 146 141 q33 -20 58 -37 q16 -12 16 -18 q-2 -6 -12 -8 l-35 0 q-85 -53 -164 -89 q20 -26 42 -47 q70 -73 259 -161 l0 -19 q-46 0 -60 -16 q-9 -12 -14 -12 q-24 0 -159 127 q-134 131 -201 298 l0 -421 q0 -42 -29 -64 q-23 -18 -33 -18 q-16 0 -20 20 q-12 24 -109 39 l4 15 l105 -11 q39 0 39 23 l0 232 q-175 -97 -320 -165 q-3 -4 -3 -28 q3 -23 -9 -23 q-6 0 -31 33 q-27 39 -27 41 q195 71 390 166 l0 197 l-324 0 q-62 0 -86 -7 l-16 42 q35 -7 102 -7 l476 0 l26 105 l-307 0 q-67 0 -117 -12 l-15 51 q47 -12 132 -12 l314 0 l26 110 l-324 0 q-110 0 -152 -8 l-12 39 ZM179 324 q85 -35 123 -61 q33 -25 33 -41 q0 -21 -4 -32 q-10 -11 -19 -11 q-19 1 -27 24 q-24 40 -45 58 q-21 20 -73 51 l12 12 Z" /><glyph glyph-name="" unicode="&#x5f85;" d="M234 730 q38 -19 66 -36 q12 -6 12 -15 q-2 -7 -18 -7 q-29 -2 -33 -8 q-49 -76 -97 -126 q-52 -51 -106 -85 l-8 8 q60 53 101 116 q47 65 83 153 ZM265 547 q40 -21 70 -39 q12 -6 12 -16 q-2 -8 -19 -8 q-31 -1 -36 -8 q-36 -67 -70 -119 l0 -396 q0 -53 4 -98 q0 -10 -11 -14 q-19 -6 -24 -6 q-11 0 -12 16 q1 67 4 102 l0 341 q-2 -3 -4 -5 q-62 -73 -125 -122 l-12 8 q73 73 123 157 q56 87 100 207 ZM363 597 q34 -7 101 -7 l125 0 l0 11 q0 83 -7 129 q38 -8 63 -13 q22 -4 22 -14 q0 -7 -22 -14 q-17 -5 -17 -17 l0 -82 l153 0 q12 13 23 28 q12 15 20 15 q8 0 33 -24 q29 -26 29 -31 q0 -16 -19 -16 l-239 0 l0 -137 l192 0 q13 14 23 29 q12 14 20 14 q8 0 33 -23 q29 -26 29 -31 q0 -16 -19 -16 l-473 0 q-62 0 -86 -8 l-15 43 q34 -8 101 -8 l156 0 l0 137 l-125 0 q-62 0 -86 -8 l-15 43 ZM289 258 q34 -8 101 -8 l332 0 l0 19 q0 75 -8 114 q65 -13 65 -13 q25 -6 25 -15 q0 -7 -24 -13 q-15 -6 -15 -14 l0 -78 l63 0 q12 14 23 30 q12 17 20 17 q8 0 35 -25 q31 -29 31 -34 q0 -16 -20 -16 l-152 0 l0 -281 q0 -35 -25 -57 q-34 -29 -65 -29 q-6 0 -11 21 q-9 25 -118 38 l0 15 q71 -4 157 -4 q19 0 19 16 l0 281 l-332 0 q-62 0 -86 -7 l-15 43 ZM441 179 q63 -47 92 -82 q25 -33 25 -54 q0 -22 -5 -33 q-9 -10 -18 -10 q-19 0 -28 23 q-16 53 -29 77 q-14 27 -49 68 l12 11 Z" /><glyph glyph-name="" unicode="&#x6001;" d="M46 582 q35 -8 102 -8 l293 0 q8 45 8 94 l-8 70 q39 -6 74 -12 q20 -4 20 -11 q0 -8 -14 -12 q-24 -8 -25 -12 q0 -63 -10 -117 l342 0 q14 16 25 33 q14 18 22 18 q8 0 37 -27 q33 -30 33 -36 q0 -15 -20 -15 l-417 0 q44 -89 100 -151 q60 -59 146 -104 q77 -38 195 -66 l0 -15 q-51 0 -62 -14 q-9 -14 -16 -14 q-13 0 -80 34 q-85 45 -170 125 q-73 69 -127 205 l-13 0 q-27 -114 -99 -187 q-81 -107 -332 -177 l-8 12 q197 59 295 170 q74 77 98 182 l-287 0 q-63 0 -86 -8 l-16 43 ZM433 332 q74 -35 108 -61 q29 -25 29 -41 q0 -19 -5 -29 q-9 -10 -19 -10 q-16 1 -23 20 q-21 40 -39 58 q-18 20 -63 51 l12 12 ZM207 133 l15 0 q-18 -147 -50 -185 q-38 -46 -71 -46 q-19 0 -19 16 q2 13 15 27 q78 76 110 188 ZM312 156 q33 -6 57 -11 q29 -7 29 -16 q0 -9 -20 -16 q-15 -7 -15 -23 l0 -133 q0 -17 14 -28 q20 -11 135 -11 q114 0 139 7 q24 7 29 68 q7 37 11 93 l16 0 l0 -89 q0 -59 19 -69 q12 -6 12 -18 q0 -16 -36 -22 q-40 -9 -190 -9 q-141 0 -166 17 q-26 19 -26 61 l0 133 q0 27 -8 66 ZM460 156 q86 -38 112 -70 q17 -20 17 -43 q0 -35 -23 -35 q-8 0 -24 28 q-21 48 -89 104 l7 16 ZM773 125 q113 -77 130 -107 q14 -22 14 -38 q0 -39 -27 -39 q-9 0 -26 36 q-27 55 -99 132 l8 16 Z" /><glyph glyph-name="" unicode="&#x6027;" d="M195 734 q75 -14 75 -14 q22 -3 22 -13 q0 -10 -23 -15 q-19 -6 -19 -17 l0 -800 q0 -16 -23 -22 q-9 -2 -13 -2 q-11 0 -11 20 q0 83 4 172 l0 601 q0 64 -12 90 ZM121 558 l23 0 q0 -107 -15 -153 q-9 -37 -30 -57 q-16 -16 -29 -16 q-27 2 -28 19 q0 12 20 33 q27 31 41 66 q14 31 18 108 ZM277 578 q55 -41 80 -71 q21 -28 21 -46 q0 -18 -3 -27 q-8 -9 -16 -9 q-13 1 -20 16 q-14 46 -27 66 q-12 23 -43 59 l8 12 ZM472 652 q71 -23 71 -23 q11 -4 11 -12 q0 -6 -13 -9 q-28 -3 -34 -11 q-21 -73 -37 -117 l155 0 l0 106 q0 89 -8 140 q42 -8 69 -13 q24 -4 24 -14 q0 -8 -24 -16 q-19 -5 -19 -19 l0 -184 l141 0 q0 0 17 22 q17 25 26 25 q7 0 32 -23 q31 -30 31 -36 q0 -15 -16 -15 l-231 0 l0 -219 l110 0 q13 15 23 31 q12 16 20 16 q8 0 35 -25 q31 -28 31 -34 q0 -15 -19 -15 l-200 0 l0 -274 l168 0 q15 16 26 34 q14 17 21 17 q9 0 37 -27 q34 -30 34 -35 q0 -16 -20 -16 l-519 0 q-63 0 -86 -8 l-16 43 q34 -8 102 -8 l211 0 l0 274 l-129 0 q-63 0 -86 -8 l-16 43 q34 -8 102 -8 l129 0 l0 219 l-165 0 q-9 -24 -15 -36 q-34 -70 -110 -140 l-7 12 q63 79 91 159 q27 64 53 204 Z" /><glyph glyph-name="" unicode="&#x606f;" d="M460 738 q59 -18 59 -18 q20 -7 20 -17 q0 -6 -19 -9 q-19 -5 -20 -7 q-19 -37 -52 -74 l270 0 q2 0 14 17 q16 18 21 18 q8 0 34 -26 q21 -22 21 -29 q0 -4 -20 -15 q-15 -10 -15 -16 q0 -199 4 -379 q0 -7 -15 -11 q-11 -4 -12 -4 q-20 0 -20 15 l0 24 l-459 0 l2 -28 q0 -11 -21 -16 q-12 -3 -18 -3 q-12 0 -12 19 l4 59 l0 312 q0 53 -12 98 q32 -11 58 -35 l154 0 q29 60 34 125 ZM269 234 l461 0 l0 106 l-461 0 l0 -106 ZM269 367 l461 0 l0 101 l-461 0 l0 -101 ZM269 496 l461 0 l0 90 l-461 0 l0 -90 ZM171 105 l24 0 q0 -99 -20 -142 q-12 -35 -40 -54 q-21 -15 -38 -15 q-22 2 -23 16 q0 11 24 32 q34 27 51 61 q18 29 22 102 ZM304 148 q33 -6 57 -11 q29 -7 29 -16 q0 -9 -19 -16 q-16 -7 -16 -23 l0 -145 q0 -16 16 -28 q22 -11 145 -11 q124 0 151 7 q26 7 31 67 q8 36 12 90 l16 0 l0 -87 q0 -57 19 -67 q12 -6 12 -18 q0 -15 -38 -21 q-43 -10 -203 -10 q-149 0 -176 17 q-28 19 -28 61 l0 145 q0 27 -8 66 ZM449 168 q83 -37 108 -68 q17 -20 17 -42 q-1 -35 -24 -35 q-8 0 -22 27 q-21 47 -87 102 l8 16 ZM765 117 q85 -47 123 -83 q33 -33 33 -54 q0 -19 -5 -29 q-9 -10 -18 -10 q-16 1 -23 20 q-25 52 -46 76 q-22 27 -76 68 l12 12 Z" /><glyph glyph-name="" unicode="&#x620f;" d="M58 636 q53 -4 137 -7 l164 0 q9 8 22 23 q9 8 13 8 q7 0 32 -29 q19 -25 19 -30 q0 -6 -11 -9 q-15 -5 -24 -10 q-36 -245 -80 -362 q-16 -48 -37 -92 q1 -1 1 -1 q68 -103 170 -151 l0 -15 q-35 0 -48 -16 q-10 -20 -14 -20 q-10 0 -65 68 q-39 44 -65 91 q-20 -38 -43 -72 q-67 -90 -175 -153 l-8 12 q111 89 171 188 q18 32 33 66 q-8 15 -14 30 q-46 98 -69 214 q-22 112 -30 231 q-38 -2 -59 -7 l-20 43 ZM157 601 q9 -140 41 -254 q23 -93 71 -178 q22 56 39 116 q31 111 55 316 l-206 0 ZM849 470 q10 18 18 35 q8 18 15 18 q10 0 39 -24 q28 -23 28 -31 q0 -19 -16 -19 l-290 -23 q3 -41 7 -74 q19 -116 56 -203 q81 115 118 241 q38 -18 70 -37 q16 -7 16 -13 q0 -14 -31 -14 q-22 0 -24 -2 q-62 -130 -130 -215 q42 -82 95 -138 q51 -49 62 -49 q7 0 12 22 q15 72 31 153 l16 0 q-12 -154 -12 -183 q0 -17 10 -31 q10 -12 10 -16 q0 -16 -24 -16 q-36 0 -91 44 q-72 61 -128 162 q-5 10 -9 18 q-13 -15 -25 -27 q-90 -97 -251 -177 l-7 15 q151 91 249 207 q9 11 16 20 q-38 87 -55 176 q-15 64 -22 134 l-84 -6 q-66 -4 -101 -15 l-23 39 l98 0 l107 9 q-6 69 -6 143 q0 80 -8 133 q31 -5 62 -13 q28 -5 28 -14 q0 -6 -18 -10 q-19 -6 -21 -17 q0 -127 5 -219 l208 17 ZM722 687 q83 -35 109 -65 q16 -19 16 -40 q0 -35 -23 -35 q-8 0 -23 26 q-21 45 -87 99 l8 15 Z" /><glyph glyph-name="" unicode="&#x6210;" d="M875 597 q7 0 35 -25 q35 -31 35 -37 q0 -16 -16 -16 l-344 0 q4 -91 13 -156 q22 -112 62 -198 q100 127 144 264 q37 -18 67 -37 q15 -7 15 -13 q0 -10 -29 -10 q-20 -1 -22 -2 q-76 -146 -157 -239 q49 -85 110 -141 q58 -50 71 -50 q9 0 16 19 q22 61 46 130 l16 0 q-27 -132 -27 -157 q0 -18 7 -33 q8 -13 8 -17 q0 -16 -23 -16 q-40 0 -100 43 q-79 61 -140 162 q-7 14 -14 26 q-18 -19 -34 -34 q-108 -108 -302 -197 l-8 16 q186 99 305 226 q12 13 21 24 q-39 84 -58 170 q-25 100 -31 220 l-346 0 l0 -179 l207 0 q7 6 13 14 q7 9 14 9 q6 0 30 -21 q25 -21 25 -34 q0 -4 -11 -7 q-27 -7 -28 -16 q-7 -88 -19 -172 q-5 -42 -28 -73 q-19 -30 -59 -40 q-6 0 -10 13 q-7 20 -39 27 q-23 6 -60 14 l4 12 q82 -8 105 -8 q21 0 32 14 q16 27 20 84 q10 87 15 156 l-212 0 q-5 -181 -27 -255 q-24 -109 -93 -214 l-16 8 q54 104 73 211 q21 91 21 340 q0 104 -12 184 q34 -19 60 -39 l340 0 q-1 27 -1 54 q0 80 -8 133 q31 -5 62 -14 q28 -4 28 -13 q0 -7 -19 -11 q-19 -5 -20 -17 q0 -72 2 -132 l240 0 q0 0 20 23 q20 27 31 27 ZM679 711 q68 -29 99 -50 q26 -20 26 -32 q0 -20 -5 -30 q-9 -9 -18 -9 q-16 0 -24 19 q-18 33 -34 48 q-16 17 -56 42 l12 12 Z" /><glyph glyph-name="" unicode="&#x6212;" d="M46 574 q35 -8 102 -8 l419 0 q-1 20 -1 39 q0 80 -8 133 q31 -5 62 -14 q28 -5 28 -13 q0 -7 -19 -11 q-18 -5 -20 -17 q0 -63 1 -117 l218 0 q14 16 25 33 q14 18 22 18 q8 0 37 -27 q33 -30 33 -36 q0 -15 -20 -15 l-314 0 q4 -104 14 -175 q20 -106 58 -190 q10 17 19 33 q62 108 87 246 q38 -15 70 -28 q23 -7 23 -15 q0 -9 -17 -10 q-33 -6 -33 -10 q-58 -167 -128 -258 q49 -89 114 -149 q59 -50 72 -50 q5 0 9 21 q13 70 26 147 l16 0 l0 -176 q0 -18 8 -33 q8 -13 8 -17 q0 -16 -24 -16 q-40 0 -100 44 q-81 61 -143 163 q-8 15 -15 29 q-56 -67 -115 -111 q-85 -67 -244 -133 l-8 12 q154 76 252 164 q54 45 96 106 q-38 83 -56 167 q-27 107 -33 239 l-419 0 q-63 0 -86 -8 l-16 43 ZM54 297 q34 -8 102 -8 l62 0 l0 23 q0 111 -4 160 q25 -4 61 -12 q17 -3 17 -11 q0 -7 -17 -11 q-18 -7 -18 -16 l0 -110 q0 -12 -1 -23 l134 0 l0 113 q0 34 -8 70 q23 -7 57 -15 q29 -5 29 -12 q0 -8 -16 -15 q-19 -4 -19 -12 l0 -129 l47 0 q10 12 19 26 q10 13 16 13 q7 0 31 -22 q28 -24 28 -29 q0 -16 -16 -16 l-125 0 l0 -257 q0 -7 -14 -14 q-17 -6 -21 -6 q-12 0 -12 8 l4 43 l0 226 l-135 0 q-6 -98 -20 -155 q-20 -84 -59 -139 q-42 -60 -102 -92 l-8 8 q48 35 84 94 q34 53 50 133 q14 60 17 151 l-61 0 q-63 0 -86 -7 l-16 43 ZM687 699 q78 -25 102 -45 q15 -14 15 -29 q0 -28 -19 -28 q-8 0 -21 19 q-20 33 -81 71 l4 12 Z" /><glyph glyph-name="" unicode="&#x6237;" d="M835 629 q8 0 34 -27 q21 -22 21 -28 q0 -5 -23 -16 q-16 -9 -16 -15 q0 -146 4 -278 q0 -6 -15 -11 q-11 -4 -12 -4 q-20 0 -20 15 l0 51 l-569 0 q-7 -166 -34 -237 q-34 -116 -127 -228 l-16 8 q78 110 106 225 q31 96 31 361 q0 106 -12 188 q35 -20 61 -40 l278 0 q-10 9 -21 25 q-31 56 -130 120 l7 12 q117 -45 153 -82 q23 -24 23 -51 q0 -17 -6 -24 l248 0 q2 0 14 17 q16 19 21 19 ZM242 566 l0 -121 q0 -55 -2 -102 l568 0 l0 223 l-566 0 Z" /><glyph glyph-name="" unicode="&#x624b;" d="M777 675 q-105 -32 -254 -51 l0 -175 l246 0 q12 14 26 33 q13 14 17 14 q8 0 15 -8 q17 -17 37 -37 q11 -10 11 -14 q0 -15 -12 -15 l-340 0 l0 -184 l309 0 q13 15 28 36 q14 15 18 15 q9 0 17 -9 q17 -18 39 -40 q11 -10 11 -14 q0 -15 -12 -15 l-410 0 l0 -266 q0 -51 -36 -77 q-29 -21 -42 -21 q-21 0 -26 23 q-16 27 -142 44 l4 19 l148 -11 q47 0 47 27 l0 262 l-254 0 q-123 0 -160 -8 l-23 47 q79 -9 183 -12 l254 0 l0 184 l-184 0 q-123 0 -160 -8 l-23 47 q79 -9 183 -12 l184 0 l0 170 q-176 -20 -359 -26 l-8 16 q177 10 328 34 q115 16 200 41 q64 16 128 50 q52 -32 52 -32 q22 -12 22 -23 q0 -5 -11 -7 l-51 3 Z" /><glyph glyph-name="" unicode="&#x6263;" d="M42 519 q35 -8 102 -8 l74 0 l0 114 q0 75 -8 113 q65 -13 65 -13 q25 -5 25 -14 q0 -7 -24 -14 q-15 -6 -15 -14 l0 -172 l71 0 q12 14 23 29 q12 14 20 14 q7 0 33 -23 q29 -26 29 -31 q0 -16 -20 -16 l-156 0 l0 -215 q65 27 145 67 l8 -12 q-88 -53 -153 -86 l0 -316 q0 -33 -22 -53 q-30 -26 -56 -26 q-4 0 -9 20 q-6 23 -89 35 l0 12 q52 -4 114 -4 q19 0 19 16 l0 295 q-30 -14 -54 -23 q-59 -22 -59 -34 q0 -24 -8 -24 q-10 0 -20 22 q-15 31 -23 49 q52 7 121 30 q21 7 43 15 l0 232 l-74 0 q-62 0 -86 -8 l-16 43 ZM460 660 q32 -11 58 -35 l310 0 q1 0 14 14 q15 17 21 17 q8 0 33 -26 q21 -22 21 -29 q0 -5 -22 -15 q-17 -10 -17 -16 q0 -356 4 -676 q0 -7 -14 -11 q-12 -4 -13 -4 q-20 0 -20 15 l0 71 l-320 0 l0 -20 l4 -59 q0 -11 -20 -16 q-13 -3 -19 -3 q-12 0 -12 19 l4 59 l0 617 q0 53 -12 98 ZM515 -8 l320 0 l0 605 l-320 0 l0 -605 Z" /></font>
</defs>
</svg>
