<?xml version="1.0" standalone="no"?><!DOCTYPE svg PUBLIC "-//W3C//DTD SVG 1.1//EN" "http://www.w3.org/Graphics/SVG/1.1/DTD/svg11.dtd" ><svg xmlns="http://www.w3.org/2000/svg"><metadata></metadata><defs><font id="LiSong" horiz-adv-x="1000"><font-face font-family="LiSong" font-weight="400" font-stretch="normal" units-per-em="1000" panose-1="2 2 3 0 0 0 0 0 0 0" ascent="800" descent="-200" x-height="0" bbox="23 -160 968 758" underline-thickness="50" underline-position="-110" unicode-range="U+002f-9a8c" /><missing-glyph horiz-adv-x="1000"  /><glyph glyph-name="" unicode="/" d="M255 662 L57 -146 L23 -134 L222 673 L255 662 Z" /><glyph glyph-name="" unicode="&#x4e00;" d="M46 340 Q126 331 230 328 L808 328 Q824 347 844 375 Q861 394 867 394 Q877 394 887 383 Q908 362 936 334 Q949 321 949 316 Q949 300 933 300 L230 300 Q106 300 70 293 L46 340 Z" /><glyph glyph-name="" unicode="&#x4e0a;" d="M421 730 Q470 719 501 713 Q531 708 531 695 Q531 686 504 677 Q484 672 484 656 L484 394 L722 394 Q722 394 742 420 Q763 449 773 449 Q781 449 811 423 Q847 389 847 383 Q847 367 832 367 L484 367 L484 -59 L808 -59 Q825 -40 838 -18 Q854 4 863 4 Q874 4 908 -28 Q949 -64 949 -71 Q949 -86 921 -86 L152 -86 Q89 -86 66 -94 L50 -51 Q84 -59 152 -59 L433 -59 L433 562 Q433 670 421 730 Z" /><glyph glyph-name="" unicode="&#x4e2a;" d="M492 734 Q530 720 561 708 Q574 702 574 695 Q574 689 555 686 Q530 682 522 671 Q594 556 704 471 Q813 386 953 343 L953 328 Q901 328 889 316 Q881 304 878 304 Q855 304 777 363 Q688 426 622 500 Q551 575 511 655 Q420 518 324 432 Q206 332 74 265 L66 277 Q234 376 325 479 Q407 563 492 734 ZM464 445 Q539 431 539 431 Q562 428 562 418 Q562 408 539 403 Q519 397 519 386 L519 -125 Q519 -141 496 -147 Q488 -149 484 -149 Q472 -149 472 -129 Q472 -74 476 -14 L476 355 Q476 419 464 445 Z" /><glyph glyph-name="" unicode="&#x4e2d;" d="M121 570 Q157 556 186 531 L468 531 L468 636 Q468 709 460 738 Q544 722 544 722 Q570 718 570 707 Q570 697 540 692 Q515 686 515 675 L515 531 L804 531 Q810 537 821 548 Q835 562 839 562 Q847 562 874 537 Q898 516 898 508 Q898 500 876 490 Q855 478 855 472 L855 269 Q855 221 863 152 Q863 138 844 133 Q828 129 820 129 Q804 129 804 152 Q806 170 806 191 L515 191 L515 44 Q519 -43 519 -125 Q519 -144 491 -150 Q481 -153 476 -153 Q464 -153 464 -129 Q464 -46 468 44 L468 191 L181 191 L183 152 Q183 138 163 133 Q150 129 144 129 Q128 129 128 152 L132 215 L132 465 Q132 522 121 570 ZM179 218 L468 218 L468 504 L179 504 L179 218 ZM515 504 L515 218 L807 218 Q808 242 808 269 L808 504 L515 504 Z" /><glyph glyph-name="" unicode="&#x4e3a;" d="M246 699 Q311 652 341 616 Q367 583 367 562 Q367 541 362 530 Q353 519 343 519 Q325 520 316 543 Q299 595 285 619 Q270 646 234 687 L246 699 ZM574 730 Q604 717 637 704 Q660 697 660 691 Q660 681 645 677 Q616 675 613 668 Q583 571 553 488 L816 488 Q832 507 841 518 Q854 531 863 531 Q869 531 897 506 Q921 484 921 476 Q921 466 890 452 Q871 444 871 441 Q848 71 818 -24 Q793 -98 746 -119 Q710 -137 687 -137 Q682 -137 675 -121 Q662 -92 608 -73 Q565 -59 527 -47 L531 -35 Q659 -59 718 -59 Q739 -59 752 -44 Q776 -22 791 67 Q812 181 824 461 L543 461 Q463 248 378 121 Q258 -50 85 -157 L78 -145 Q283 12 397 224 Q456 332 500 461 L273 461 Q178 461 117 453 L97 500 Q168 488 273 488 L509 488 Q547 602 574 730 ZM562 297 Q638 248 673 212 Q703 177 703 156 Q703 136 698 127 Q688 117 679 117 Q663 117 656 136 Q634 191 616 215 Q597 243 550 285 L562 297 Z" /><glyph glyph-name="" unicode="&#x4e9a;" d="M382 617 L203 617 Q140 617 117 609 L101 652 Q135 644 203 644 L761 644 Q775 661 787 680 Q800 699 808 699 Q817 699 847 671 Q882 639 882 633 Q882 617 859 617 L593 617 L593 -47 L781 -47 Q796 -30 808 -11 Q823 8 832 8 Q841 8 873 -21 Q910 -53 910 -59 Q910 -75 886 -75 L179 -75 Q117 -75 93 -82 L78 -39 Q112 -47 179 -47 L382 -47 L382 617 ZM425 -47 L550 -47 L550 617 L425 617 L425 -47 ZM183 449 Q240 338 266 255 Q289 177 289 129 Q289 109 284 99 Q274 90 265 90 Q249 90 242 109 Q227 229 215 282 Q203 344 171 437 L183 449 ZM753 453 Q829 426 829 426 Q849 419 847 410 Q847 404 826 400 L796 394 Q730 196 667 82 L652 90 Q708 212 753 453 Z" /><glyph glyph-name="" unicode="&#x4eab;" d="M421 742 Q501 715 526 692 Q542 676 542 660 Q542 629 523 629 Q515 629 500 650 Q479 687 414 730 L421 742 ZM54 633 Q88 625 156 625 L835 625 Q848 639 859 655 Q871 672 878 672 Q887 672 914 647 Q945 618 945 613 Q945 597 925 597 L156 597 Q93 597 70 590 L54 633 ZM238 558 Q270 548 296 523 L714 523 Q716 523 727 536 Q741 550 746 550 Q753 550 777 528 Q796 509 796 504 Q796 499 773 488 Q757 478 757 472 Q757 399 761 332 Q761 325 749 320 Q739 317 738 316 Q718 316 718 332 L718 347 L288 347 L289 332 Q289 321 270 316 Q259 312 253 312 Q242 312 242 332 L246 383 L246 468 Q246 517 238 558 ZM286 375 L718 375 L718 496 L285 496 L285 383 L286 375 ZM156 277 Q216 269 316 269 L718 269 Q729 275 740 284 Q748 289 753 289 Q759 289 787 268 Q820 240 820 230 Q820 222 769 222 L714 202 Q651 176 569 153 Q570 152 570 152 Q570 145 545 138 Q531 133 531 125 L531 101 L828 101 Q842 117 853 134 Q867 152 875 152 Q883 152 912 125 Q945 95 945 90 Q945 74 925 74 L531 74 L531 -63 Q531 -96 509 -118 Q479 -145 453 -145 Q446 -145 439 -122 Q430 -96 304 -82 L304 -71 Q380 -78 472 -78 Q492 -78 492 -63 L492 74 L160 74 Q97 74 74 66 L58 109 Q92 101 160 101 L492 101 Q491 148 488 175 Q546 165 546 165 Q551 164 553 163 Q637 191 718 242 L316 242 Q217 242 175 234 L156 277 Z" /><glyph glyph-name="" unicode="&#x4eba;" d="M449 711 Q491 705 529 699 Q550 695 550 687 Q550 678 536 674 Q509 665 508 662 Q529 430 567 321 Q611 188 697 91 Q786 -13 937 -78 L933 -90 Q901 -93 886 -110 Q874 -125 867 -125 Q854 -125 776 -59 Q604 89 536 315 Q512 386 498 487 Q475 270 389 138 Q304 -31 42 -141 L35 -125 Q239 -30 341 149 Q457 336 457 636 L449 711 Z" /><glyph glyph-name="" unicode="&#x4ee4;" d="M460 738 Q499 724 529 712 Q542 706 542 699 Q542 693 524 690 Q512 688 506 685 Q583 574 701 493 Q815 414 960 375 L960 359 Q909 359 896 347 Q889 336 886 336 Q862 336 780 390 Q686 449 616 517 Q536 594 492 676 Q489 674 488 672 Q395 537 294 454 Q177 362 46 300 L39 312 Q205 404 295 500 Q376 578 460 738 ZM386 480 Q473 434 512 400 Q546 368 546 347 Q546 328 541 318 Q532 308 523 308 Q507 309 500 328 Q474 379 452 402 Q430 428 375 468 L386 480 ZM152 265 Q198 254 308 254 L707 254 Q722 270 733 283 Q742 289 746 289 Q751 289 783 260 Q812 233 812 218 Q812 211 786 209 Q755 207 753 203 Q688 122 622 63 Q564 16 497 -24 Q552 -54 583 -78 Q613 -106 613 -125 Q613 -152 593 -153 Q570 -150 558 -133 Q462 -30 281 50 L285 70 Q402 24 478 -14 Q544 32 597 86 Q657 147 707 226 L308 226 Q206 226 171 218 L152 265 Z" /><glyph glyph-name="" unicode="&#x4ef6;" d="M253 734 Q297 717 332 702 Q347 696 347 687 Q347 681 326 676 Q293 672 285 656 Q248 554 211 482 Q215 480 220 478 Q238 473 238 465 Q238 458 223 455 Q214 451 214 445 L214 -28 Q214 -81 218 -133 Q218 -139 205 -143 Q196 -149 187 -149 Q167 -149 167 -133 Q171 -61 171 -28 L171 413 Q110 322 42 261 L35 277 Q121 376 168 479 Q209 563 253 734 ZM437 664 Q470 655 505 640 Q527 634 527 621 Q527 615 505 613 Q481 608 476 605 Q455 535 433 488 L605 488 L605 629 Q605 701 597 730 Q681 715 681 715 Q707 711 707 699 Q707 689 677 684 Q652 678 652 668 L652 488 L804 488 Q804 488 823 509 Q842 535 851 535 Q858 535 885 511 Q917 482 917 476 Q917 461 902 461 L652 461 L652 234 L832 234 Q846 250 857 267 Q871 285 878 285 Q887 285 916 258 Q949 228 949 222 Q949 207 929 207 L652 207 L652 42 Q656 -43 656 -125 Q656 -144 627 -150 Q618 -153 613 -153 Q601 -153 601 -129 Q601 -47 605 42 L605 207 L394 207 Q332 207 308 199 L292 242 Q327 234 394 234 L605 234 L605 461 L421 461 Q414 448 408 439 Q372 364 316 300 L304 312 Q351 376 380 452 Q417 542 437 664 Z" /><glyph glyph-name="" unicode="&#x4f1a;" d="M468 742 Q506 728 537 716 Q550 710 550 703 Q550 697 532 694 Q520 692 513 689 Q589 588 701 515 Q813 443 957 406 L957 390 Q899 390 886 376 Q877 363 875 363 Q852 363 772 414 Q682 470 615 535 Q540 604 499 679 Q497 677 496 675 Q401 548 301 470 Q182 382 50 324 L42 336 Q210 423 302 515 Q383 590 468 742 ZM261 383 Q295 375 363 375 L664 375 Q674 387 683 401 Q693 414 699 414 Q706 414 729 392 Q757 368 757 363 Q757 347 742 347 L363 347 Q300 347 277 340 L261 383 ZM156 207 Q190 199 257 199 L750 199 Q761 211 770 225 Q782 238 789 238 Q796 238 819 217 Q847 192 847 187 Q847 172 828 172 L437 172 Q369 48 261 -63 Q436 -62 709 -19 Q706 -15 704 -12 Q679 27 617 86 L628 97 Q724 29 767 -23 Q804 -71 804 -102 Q804 -121 799 -131 Q790 -141 781 -141 Q765 -140 757 -121 Q737 -67 719 -35 Q471 -86 324 -98 Q228 -106 217 -119 L214 -125 Q208 -149 199 -149 Q190 -149 182 -131 Q166 -92 156 -55 Q207 -62 237 -63 Q334 56 376 172 L257 172 Q195 172 171 164 L156 207 Z" /><glyph glyph-name="" unicode="&#x4f5c;" d="M277 738 Q318 723 352 709 Q367 703 367 695 Q367 689 347 684 Q316 679 308 664 Q271 566 232 494 Q238 492 244 490 Q261 485 261 476 Q261 469 247 467 Q238 463 238 457 L238 -24 Q238 -77 242 -129 Q242 -136 229 -139 Q219 -145 210 -145 Q191 -145 191 -129 Q195 -57 195 -24 L195 431 Q194 429 193 428 Q124 328 46 261 L39 273 Q132 373 184 479 Q229 564 277 738 ZM492 738 Q532 726 562 716 Q582 709 582 699 Q582 691 564 689 Q536 683 535 675 Q512 613 489 562 L839 562 Q839 562 858 584 Q877 609 886 609 Q893 609 920 586 Q953 556 953 550 Q953 535 937 535 L621 535 L621 359 L812 359 Q812 359 829 381 Q846 406 855 406 Q862 406 887 383 Q917 353 917 347 Q917 332 902 332 L621 332 L621 156 L816 156 Q816 156 833 177 Q850 203 859 203 Q866 203 891 179 Q921 150 921 144 Q921 129 906 129 L621 129 L621 8 L625 -117 Q625 -136 612 -140 Q597 -149 585 -149 Q574 -149 574 -117 L578 8 L578 535 L476 535 Q457 496 438 465 Q375 366 312 308 L304 316 Q376 408 420 498 Q473 608 492 738 Z" /><glyph glyph-name="" unicode="&#x4f7f;" d="M238 734 Q278 722 308 712 Q328 705 328 695 Q328 687 310 685 Q282 679 281 672 Q248 573 213 500 Q220 497 228 494 Q246 488 246 480 Q246 473 231 470 Q222 467 222 461 L222 -35 Q222 -89 226 -141 Q226 -147 213 -151 Q204 -157 195 -157 Q175 -157 175 -141 Q179 -69 179 -35 L179 436 Q115 328 50 265 L42 273 Q117 374 163 471 Q218 592 238 734 ZM296 613 Q331 605 398 605 L590 605 Q589 701 585 730 Q624 724 658 716 Q679 713 679 703 Q679 699 665 693 Q632 683 632 672 L632 605 L839 605 Q852 620 863 636 Q875 652 882 652 Q891 652 917 627 Q949 599 949 593 Q949 578 929 578 L632 578 L632 468 L808 468 Q810 468 822 483 Q838 500 843 500 Q851 500 877 473 Q898 451 898 445 Q898 440 877 429 Q863 420 863 414 Q863 305 867 207 Q867 200 852 195 Q841 192 839 191 Q820 191 820 207 L820 230 L626 230 Q618 153 600 112 Q576 56 543 15 Q621 -29 723 -52 Q834 -75 953 -75 L953 -94 Q897 -97 886 -120 Q881 -133 875 -133 Q846 -133 722 -99 Q606 -67 520 -11 Q495 -37 467 -56 Q377 -116 257 -145 L253 -133 Q389 -86 446 -36 Q471 -17 492 6 Q424 54 355 152 L371 160 Q442 73 513 32 Q537 65 556 102 Q578 151 587 230 L413 230 L414 211 Q414 199 393 195 Q380 191 375 191 Q363 191 363 211 L367 269 L367 406 Q367 459 355 504 Q388 491 413 468 L592 468 Q592 531 591 578 L398 578 Q335 578 312 570 L296 613 ZM411 258 L590 258 Q592 282 593 308 Q593 383 592 441 L410 441 L410 269 L411 258 ZM632 441 L632 308 Q631 281 629 258 L820 258 L820 441 L632 441 Z" /><glyph glyph-name="" unicode="&#x4fa0;" d="M242 726 Q285 710 311 700 Q328 694 328 687 Q328 676 303 673 Q283 665 281 656 Q244 568 207 495 Q213 493 220 490 Q238 485 238 476 Q238 469 223 467 Q214 463 214 457 L214 -32 Q214 -85 218 -137 Q218 -143 205 -147 Q196 -153 187 -153 Q167 -153 167 -137 Q171 -65 171 -32 L171 428 Q111 322 50 250 L39 258 Q186 485 242 726 ZM304 574 Q338 566 406 566 L562 566 Q560 696 554 722 Q601 715 642 704 Q667 700 667 687 Q667 683 649 677 Q609 668 609 656 L609 566 L808 566 Q821 579 832 594 Q844 609 851 609 Q859 609 884 586 Q914 560 914 554 Q914 539 894 539 L609 539 L609 488 Q604 328 587 246 L847 246 Q860 260 871 277 Q883 293 890 293 Q898 293 925 268 Q957 239 957 234 Q957 218 937 218 L620 218 Q675 100 748 31 Q803 -24 949 -90 L949 -110 Q901 -110 886 -127 Q877 -141 871 -141 Q853 -141 754 -41 Q646 71 598 218 L581 218 Q580 215 579 212 Q533 58 454 -24 Q370 -109 257 -149 L253 -133 Q376 -67 428 3 Q488 76 528 197 Q531 207 533 218 L355 218 Q292 218 269 211 L253 254 Q288 246 355 246 L539 246 Q559 340 562 488 L562 539 L406 539 Q343 539 320 531 L304 574 ZM359 480 Q420 431 448 395 Q472 361 472 340 Q472 320 467 310 Q458 300 449 300 Q433 301 425 320 Q409 374 395 399 Q382 426 347 468 L359 480 ZM769 492 Q809 480 838 472 Q863 467 863 457 Q863 448 841 444 Q816 436 812 429 Q764 342 687 281 L671 285 Q755 401 769 492 Z" /><glyph glyph-name="" unicode="&#x4fdd;" d="M234 738 Q275 723 309 709 Q324 703 324 695 Q324 689 304 684 Q273 679 265 664 Q235 569 203 498 Q210 496 216 494 Q234 488 234 480 Q234 473 219 470 Q210 467 210 461 L210 -35 Q210 -89 214 -141 Q214 -147 201 -151 Q192 -157 183 -157 Q164 -157 164 -141 Q167 -69 167 -35 L167 426 Q108 324 42 258 L35 269 Q113 370 156 476 Q194 562 234 738 ZM375 711 Q407 698 433 675 L757 675 Q759 675 771 690 Q787 707 792 707 Q800 707 826 680 Q847 658 847 652 Q847 647 827 636 Q812 627 812 621 Q812 500 816 390 Q816 384 801 379 Q790 375 789 375 Q769 375 769 390 L769 406 L621 406 L621 277 L843 277 Q856 290 867 305 Q879 320 886 320 Q894 320 919 297 Q949 271 949 265 Q949 250 929 250 L644 250 Q695 151 763 92 Q815 45 953 -12 L953 -28 Q912 -28 899 -43 Q892 -55 886 -55 Q870 -55 775 30 Q672 126 627 250 L621 250 L621 4 L625 -121 Q625 -139 612 -144 Q597 -153 585 -153 Q574 -153 574 -121 L578 4 L578 245 Q514 129 445 64 Q358 -21 253 -75 L246 -59 Q336 -8 410 73 Q472 137 528 250 L355 250 Q292 250 269 242 L253 285 Q288 277 355 277 L578 277 L578 406 L431 406 L433 383 Q433 371 413 366 Q400 363 394 363 Q382 363 382 383 L386 441 L386 613 Q386 666 375 711 ZM429 433 L769 433 L769 648 L429 648 L429 433 Z" /><glyph glyph-name="" unicode="&#x4fe1;" d="M265 730 Q307 715 340 701 Q355 695 355 687 Q355 681 335 676 Q304 672 296 656 Q259 552 220 479 Q226 477 232 474 Q250 469 250 461 Q250 454 235 451 Q226 447 226 441 L226 -24 Q226 -77 230 -129 Q230 -136 217 -139 Q208 -145 199 -145 Q179 -145 179 -129 Q183 -57 183 -24 L183 415 Q119 318 46 254 L39 265 Q128 365 176 471 Q220 556 265 730 ZM535 742 Q596 703 624 674 Q648 646 648 629 Q648 609 643 599 Q634 590 625 590 Q608 590 601 609 Q585 654 571 673 Q558 696 523 730 L535 742 ZM296 586 Q331 578 398 578 L851 578 Q863 590 872 604 Q883 617 890 617 Q897 617 921 595 Q949 571 949 566 Q949 550 929 550 L398 550 Q335 550 312 543 L296 586 ZM378 453 Q413 445 480 445 L769 445 Q779 457 788 471 Q798 484 804 484 Q812 484 835 463 Q863 438 863 433 Q863 418 847 418 L480 418 Q417 418 394 410 L378 453 ZM386 316 Q420 308 488 308 L773 308 Q783 321 792 334 Q802 347 808 347 Q815 347 839 326 Q867 301 867 297 Q867 281 851 281 L488 281 Q425 281 402 273 L386 316 ZM394 207 Q426 196 451 172 L769 172 Q770 172 783 185 Q799 199 804 199 Q812 199 838 173 Q859 151 859 144 Q859 139 836 129 Q820 119 820 113 Q820 -11 824 -121 Q824 -128 809 -133 Q798 -137 796 -137 Q777 -137 777 -121 L777 -78 L450 -78 L453 -117 Q453 -129 432 -134 Q419 -137 414 -137 Q402 -137 402 -117 L406 -59 L406 109 Q406 162 394 207 ZM449 -51 L777 -51 L777 144 L449 144 L449 -51 Z" /><glyph glyph-name="" unicode="&#x504f;" d="M242 738 Q282 726 312 716 Q332 709 332 699 Q332 691 314 689 Q286 683 285 675 Q252 576 217 504 Q224 501 232 498 Q250 492 250 484 Q250 477 235 474 Q226 471 226 465 L226 -28 Q226 -81 230 -133 Q230 -139 217 -143 Q208 -149 199 -149 Q179 -149 179 -133 Q183 -61 183 -28 L183 440 Q119 332 54 269 L46 277 Q121 378 166 475 Q222 596 242 738 ZM800 679 Q610 622 386 621 L386 539 L800 539 Q802 539 813 552 Q827 566 832 566 Q839 566 863 544 Q882 525 882 519 Q882 514 862 504 Q847 494 847 488 Q847 418 851 355 Q851 348 838 343 Q829 340 828 340 Q808 340 808 355 L808 375 L385 375 Q383 292 375 215 Q363 118 342 54 Q318 -20 261 -102 L250 -90 Q294 -11 312 63 Q329 125 338 219 Q347 328 347 445 L347 570 Q347 637 335 672 L395 638 Q635 653 800 738 Q832 715 856 696 Q867 690 867 683 Q866 673 843 672 Q825 673 800 679 ZM385 402 L808 402 L808 511 L386 511 L386 445 Q386 422 385 402 ZM402 304 Q429 295 451 277 L847 277 Q847 277 858 289 Q868 300 875 300 Q881 300 905 282 Q925 265 925 258 Q925 252 909 241 Q894 232 894 222 L894 -59 Q894 -96 863 -116 Q840 -133 832 -133 Q828 -133 825 -118 Q821 -96 761 -82 L765 -67 Q811 -71 839 -71 Q855 -71 855 -39 L855 101 L734 101 L734 -78 Q734 -96 724 -101 Q712 -110 703 -110 Q691 -110 691 -78 L695 31 L695 101 L593 101 L593 -82 Q593 -100 583 -105 Q571 -114 562 -114 Q550 -114 550 -82 L554 27 L554 101 L449 101 L449 -75 L453 -125 Q453 -137 434 -141 Q423 -145 417 -145 Q406 -145 406 -125 L410 -75 L410 215 Q410 263 402 304 ZM449 129 L554 129 L554 250 L449 250 L449 129 ZM593 250 L593 129 L695 129 L695 250 L593 250 ZM734 250 L734 129 L855 129 L855 250 L734 250 Z" /><glyph glyph-name="" unicode="&#x50cf;" d="M246 742 Q287 727 321 713 Q335 707 335 699 Q335 693 315 688 Q285 683 277 668 Q242 562 206 486 Q213 484 218 482 Q234 477 234 468 Q234 463 219 461 Q210 458 210 453 L210 -35 Q210 -83 214 -129 Q214 -136 203 -139 Q195 -145 187 -145 Q167 -145 167 -129 Q171 -65 171 -35 L171 421 Q113 328 50 265 L42 277 Q123 377 166 483 Q205 568 246 742 ZM468 730 Q530 718 530 718 Q554 714 554 703 Q554 697 541 697 L507 695 Q492 669 479 648 L652 648 Q660 654 667 659 Q681 672 691 672 Q695 672 721 647 Q746 623 746 617 Q746 609 729 607 Q698 606 695 597 Q655 553 613 515 L820 515 Q824 519 833 526 Q844 535 847 535 Q854 535 876 515 Q898 499 898 492 Q898 485 880 476 Q863 466 863 461 L863 381 Q863 363 867 336 Q867 324 851 319 Q838 316 832 316 Q820 316 820 336 Q821 339 821 343 L604 343 Q577 318 552 299 Q599 250 629 182 Q663 196 703 222 Q761 254 804 300 Q854 271 854 271 Q871 262 871 258 Q869 250 859 250 L824 254 Q787 233 739 211 Q776 127 832 66 Q887 7 957 -24 L957 -39 Q910 -39 899 -50 Q893 -59 890 -59 Q880 -59 846 -17 Q807 29 778 82 Q744 142 727 206 Q684 188 633 170 Q660 98 660 0 Q658 -66 624 -103 Q590 -137 566 -137 Q558 -137 554 -123 Q542 -95 460 -75 L464 -63 Q526 -71 566 -71 Q591 -71 599 -61 Q613 -43 617 0 Q617 52 612 93 Q457 -14 273 -63 L269 -51 Q455 7 606 135 Q605 144 603 151 Q596 177 586 201 Q444 102 273 58 L269 70 Q435 122 570 235 Q556 263 538 288 Q500 260 461 241 Q365 191 250 160 L246 175 Q347 204 430 250 Q496 285 554 343 L382 343 L382 328 Q382 319 368 313 Q352 308 347 308 Q339 308 339 328 Q347 402 347 425 Q347 470 345 491 Q307 459 261 433 L253 449 Q335 509 375 562 Q427 622 468 730 ZM382 371 L582 371 L582 488 L382 488 L382 371 ZM621 371 L824 371 L824 488 L621 488 L621 371 ZM395 515 L592 515 Q628 573 652 621 L461 621 Q423 563 392 534 Q388 529 384 526 L395 515 Z" /><glyph glyph-name="" unicode="&#x50f5;" d="M253 734 Q295 719 329 705 Q343 699 343 691 Q343 689 342 690 Q371 687 410 687 L820 687 Q833 700 843 716 Q855 730 863 730 Q871 730 896 707 Q925 681 925 675 Q925 660 906 660 L410 660 Q347 660 324 652 L314 678 Q291 673 285 660 Q250 561 214 490 Q219 488 224 486 Q242 481 242 472 Q242 466 227 463 Q218 459 218 453 L218 -20 Q218 -74 222 -125 Q222 -132 209 -136 Q200 -141 191 -141 Q171 -141 171 -125 Q175 -54 175 -20 L175 420 Q112 325 42 261 L35 273 Q121 372 168 477 Q209 561 253 734 ZM347 625 Q374 616 397 597 L789 597 Q793 602 801 610 Q812 621 816 621 Q823 621 845 601 Q867 585 867 578 Q867 571 851 562 Q835 552 835 547 L835 435 Q835 408 839 371 Q839 359 824 354 Q811 351 804 351 Q792 351 792 371 Q792 373 793 375 L397 375 L398 363 Q398 352 379 347 Q368 343 363 343 Q351 343 351 363 L355 414 L355 535 Q355 584 347 625 ZM395 402 L570 402 L570 472 L394 472 L394 414 L395 402 ZM609 472 L609 402 L795 402 Q796 418 796 435 L796 472 L609 472 ZM394 500 L570 500 L570 570 L394 570 L394 500 ZM609 570 L609 500 L796 500 L796 570 L609 570 ZM273 324 Q307 316 375 316 L835 316 Q847 328 856 342 Q868 355 875 355 Q882 355 905 334 Q933 309 933 304 Q933 289 914 289 L375 289 Q312 289 289 281 L273 324 ZM339 254 Q366 245 389 226 L796 226 Q801 231 809 239 Q820 250 824 250 Q831 250 853 230 Q875 214 875 207 Q875 200 859 191 Q843 181 843 175 L843 54 Q843 25 847 -16 Q847 -28 832 -33 Q818 -35 812 -35 Q800 -35 800 -16 Q801 -12 801 -8 L388 -8 L390 -28 Q390 -39 372 -44 Q360 -47 355 -47 Q343 -47 343 -28 L347 23 L347 164 Q347 213 339 254 ZM386 19 L574 19 L574 97 L386 97 L386 19 ZM613 97 L613 19 L803 19 Q804 36 804 54 L804 97 L613 97 ZM386 125 L574 125 L574 199 L386 199 L386 125 ZM613 199 L613 125 L804 125 L804 199 L613 199 ZM253 -75 Q288 -82 355 -82 L847 -82 Q860 -68 871 -52 Q883 -35 890 -35 Q898 -35 925 -60 Q957 -89 957 -94 Q957 -110 937 -110 L355 -110 Q292 -110 269 -117 L253 -75 Z" /><glyph glyph-name="" unicode="&#x5173;" d="M285 703 Q363 654 398 618 Q429 584 429 562 Q429 543 424 533 Q415 523 406 523 Q390 524 382 543 Q360 597 341 621 Q321 649 273 691 L285 703 ZM660 726 Q713 707 713 707 Q738 699 738 691 Q738 683 715 680 Q698 679 695 675 Q632 571 546 500 L539 511 Q587 565 607 602 Q637 648 660 726 ZM164 496 Q198 488 265 488 L714 488 Q727 503 738 519 Q750 535 757 535 Q766 535 792 510 Q824 482 824 476 Q824 461 804 461 L511 461 Q510 311 495 238 L800 238 Q814 254 826 271 Q839 289 847 289 Q856 289 884 262 Q917 232 917 226 Q917 211 898 211 L531 211 Q586 113 651 57 Q702 7 797 -28 Q859 -53 949 -59 L945 -78 Q914 -78 904 -99 Q895 -117 890 -117 Q871 -117 797 -85 Q710 -51 631 24 Q565 86 512 211 L488 211 Q486 203 484 198 Q461 125 409 54 Q354 -14 275 -61 Q188 -110 54 -149 L46 -129 Q168 -91 249 -44 Q320 1 371 68 Q418 136 439 207 Q440 209 440 211 L175 211 Q113 211 89 203 L74 246 Q108 238 175 238 L447 238 Q463 313 464 461 L265 461 Q203 461 179 453 L164 496 Z" /><glyph glyph-name="" unicode="&#x5185;" d="M113 566 Q144 555 170 531 L451 531 Q460 598 464 675 L464 730 Q499 720 529 712 Q558 703 558 699 Q558 687 539 682 Q513 675 511 664 Q504 590 494 531 L804 531 Q804 531 816 549 Q829 566 835 566 Q842 566 868 546 Q890 527 890 519 Q890 513 872 501 Q855 490 855 480 L855 -67 Q855 -110 824 -133 Q801 -153 792 -153 Q786 -153 778 -132 Q769 -102 640 -82 L644 -67 Q738 -82 796 -82 Q812 -82 812 -47 L812 504 L489 504 Q480 454 469 414 Q645 294 708 206 Q734 165 734 136 Q734 110 714 109 Q694 112 683 129 Q607 278 464 394 Q449 339 430 298 Q368 162 234 74 L222 86 Q338 176 389 300 Q428 382 447 504 L167 504 L167 -71 L171 -129 Q171 -140 151 -145 Q138 -149 132 -149 Q121 -149 121 -129 L125 -71 L125 468 Q125 521 113 566 Z" /><glyph glyph-name="" unicode="&#x518c;" d="M140 699 Q167 690 189 672 L371 672 Q371 672 383 687 Q395 703 402 703 Q409 703 435 682 Q457 664 457 656 Q457 650 438 637 Q421 627 421 617 L421 347 L527 347 L527 609 Q527 662 515 707 Q547 696 572 672 L789 672 Q789 672 801 687 Q813 703 820 703 Q827 703 853 682 Q875 664 875 656 Q875 650 856 637 Q839 627 839 617 L839 347 L859 347 Q859 347 879 376 Q893 398 902 398 Q912 398 945 362 Q964 338 964 336 Q964 320 953 320 L839 320 L839 -63 Q839 -102 799 -123 Q768 -141 757 -141 Q752 -141 746 -121 Q739 -93 636 -75 L640 -59 Q727 -75 781 -75 Q796 -75 796 -43 L796 320 L570 320 L570 -75 L574 -133 Q574 -144 553 -149 Q541 -153 535 -153 Q523 -153 523 -133 L527 -75 L527 320 L421 320 L421 -59 Q421 -98 387 -119 Q360 -137 351 -137 Q346 -137 341 -116 Q335 -87 246 -67 L250 -51 Q319 -71 363 -71 Q378 -71 378 -39 L378 320 L187 320 L187 -78 L191 -129 Q191 -140 172 -145 Q161 -149 156 -149 Q144 -149 144 -129 L148 -78 L148 320 Q92 318 54 312 L42 355 Q89 349 148 347 L148 609 Q148 658 140 699 ZM187 347 L378 347 L378 644 L187 644 L187 347 ZM570 347 L796 347 L796 644 L570 644 L570 347 Z" /><glyph glyph-name="" unicode="&#x51fb;" d="M101 547 Q135 539 203 539 L472 539 L472 578 Q472 677 464 734 Q510 724 539 718 Q566 715 566 703 Q566 694 539 685 Q519 679 519 664 L519 539 L757 539 Q770 553 781 570 Q793 586 800 586 Q809 586 835 561 Q867 532 867 527 Q867 511 847 511 L519 511 L519 343 L835 343 Q850 359 861 377 Q875 394 882 394 Q891 394 919 367 Q953 338 953 332 Q953 316 933 316 L519 316 L519 -59 L799 -59 Q800 -54 800 -51 L800 160 Q800 224 789 250 Q863 236 863 236 Q886 233 886 222 Q886 213 863 208 Q843 201 843 191 L843 -121 Q843 -137 820 -143 Q812 -145 808 -145 Q796 -145 796 -125 Q796 -105 797 -86 L222 -86 Q211 -86 196 -102 Q183 -117 179 -117 Q173 -117 150 -97 Q128 -82 128 -75 Q128 -68 152 -56 Q160 -48 160 -28 L160 144 Q160 189 152 250 Q187 239 208 235 Q242 228 242 218 Q242 211 219 207 Q203 201 203 195 L203 -59 L472 -59 L472 316 L140 316 Q78 316 54 308 L39 351 Q73 343 140 343 L472 343 L472 511 L203 511 Q140 511 117 504 L101 547 Z" /><glyph glyph-name="" unicode="&#x51fd;" d="M46 679 Q126 671 230 668 L832 668 Q845 683 860 704 Q874 718 878 718 Q887 718 895 709 Q912 692 934 670 Q945 659 945 656 Q945 640 933 640 L434 640 L377 508 L511 508 Q515 511 523 522 Q536 535 539 535 Q550 535 573 517 Q597 498 597 488 Q597 484 576 475 Q558 467 554 461 Q550 370 545 301 Q579 321 617 353 Q677 396 722 461 Q774 428 774 428 Q792 419 792 414 Q791 406 777 406 L742 410 Q666 346 544 282 Q543 267 542 254 Q662 195 718 151 Q769 106 769 78 Q769 60 765 51 Q757 43 750 43 Q736 43 730 58 Q687 128 650 159 Q617 192 541 237 Q532 121 522 77 Q511 24 487 3 Q462 -16 437 -16 Q435 -16 428 -1 Q422 20 335 43 L339 58 Q374 47 453 47 Q466 47 473 52 Q484 64 488 98 Q508 243 515 480 L365 480 L359 465 Q359 460 351 456 Q339 453 332 453 Q316 453 316 468 L391 640 L230 640 Q106 640 70 633 L46 679 ZM257 441 Q361 374 377 348 Q390 330 390 316 Q390 281 367 281 Q358 281 342 313 Q317 362 250 429 L257 441 ZM484 269 L488 258 Q388 174 265 101 Q255 95 258 81 Q264 58 253 58 Q245 58 228 80 Q209 101 195 117 Q291 151 484 269 ZM125 500 Q199 486 199 486 Q222 483 222 472 Q222 463 199 458 Q179 451 179 441 L179 -51 L813 -51 Q814 -21 816 9 L816 410 Q816 474 804 500 Q879 486 879 486 Q902 483 902 472 Q902 463 878 458 Q859 451 859 441 L859 -110 Q859 -126 836 -131 Q828 -133 824 -133 Q812 -133 812 -114 Q812 -95 813 -78 L179 -78 L179 -117 Q179 -134 156 -139 Q148 -141 144 -141 Q132 -141 132 -121 Q132 -61 136 3 L136 410 Q136 474 125 500 Z" /><glyph glyph-name="" unicode="&#x5206;" d="M328 675 Q369 660 403 646 Q417 640 417 633 Q417 626 397 622 Q367 617 359 601 Q294 474 226 396 Q145 308 54 250 L46 261 Q157 351 218 445 Q271 520 328 675 ZM472 691 Q520 683 605 683 Q614 693 622 703 Q629 715 636 715 Q645 715 669 693 Q695 670 695 664 Q695 657 672 647 Q648 639 648 633 Q663 560 750 465 Q812 390 941 328 L933 312 Q912 310 897 298 Q883 281 878 281 Q868 281 819 329 Q753 386 696 477 Q635 568 621 656 Q531 656 488 652 L472 691 ZM183 343 Q228 336 324 336 L675 336 Q683 342 691 352 Q705 367 710 367 Q716 367 742 348 Q769 326 769 320 Q769 311 751 302 Q734 295 734 289 Q714 -16 685 -74 Q669 -118 589 -133 Q581 -133 573 -108 Q550 -84 449 -63 L457 -47 Q583 -63 613 -63 Q626 -63 644 -36 Q675 26 687 308 L427 308 Q413 197 375 115 Q332 16 262 -40 Q186 -101 70 -145 L58 -129 Q161 -87 227 -28 Q289 27 327 122 Q361 202 373 308 L324 308 Q240 308 199 300 L183 343 Z" /><glyph glyph-name="" unicode="&#x5217;" d="M50 672 Q84 664 152 664 L457 664 Q469 678 480 695 Q492 711 500 711 Q508 711 535 686 Q566 657 566 652 Q566 636 546 636 L299 636 Q272 541 244 476 L429 476 Q437 483 445 493 Q453 504 460 504 Q467 504 491 487 Q511 470 511 465 Q511 459 500 452 Q484 442 484 437 Q442 238 338 97 Q229 -42 74 -125 L62 -114 Q205 -23 295 102 Q396 242 433 449 L232 449 Q216 414 200 390 Q188 367 173 346 Q262 308 291 276 Q312 252 312 226 Q312 199 292 199 Q282 199 263 230 Q237 278 163 332 Q118 272 54 218 L46 230 Q127 311 166 397 Q208 471 249 636 L152 636 Q89 636 66 629 L50 672 ZM621 648 Q644 641 678 633 Q707 628 707 621 Q707 613 690 606 Q671 602 671 593 L671 117 Q671 110 658 103 Q640 97 636 97 Q625 97 625 105 L628 148 L628 578 Q628 612 621 648 ZM828 726 Q892 714 892 714 Q917 708 917 699 Q917 692 893 685 Q878 679 878 672 L878 -63 Q878 -98 854 -120 Q821 -149 792 -149 Q786 -149 778 -126 Q769 -100 640 -86 L640 -71 Q720 -78 816 -78 Q835 -78 835 -63 L835 613 Q835 688 828 726 Z" /><glyph glyph-name="" unicode="&#x5219;" d="M121 703 Q152 692 178 668 L449 668 Q450 668 463 682 Q479 699 484 699 Q492 699 518 673 Q539 651 539 644 Q539 639 518 629 Q503 619 503 613 Q503 342 507 97 Q507 91 493 86 Q481 82 480 82 Q460 82 460 97 L460 640 L175 640 L175 160 L179 101 Q179 90 159 85 Q146 82 140 82 Q128 82 128 101 L132 160 L132 605 Q132 658 121 703 ZM277 531 Q320 524 358 514 Q382 511 382 500 Q382 496 366 490 Q332 480 332 468 L332 328 Q328 182 310 120 Q278 4 221 -58 Q162 -122 82 -153 L78 -137 Q162 -88 197 -35 Q238 19 265 110 Q285 185 289 328 Q289 501 277 531 ZM375 82 Q498 0 523 -39 Q539 -65 539 -75 Q539 -96 530 -110 Q525 -121 515 -121 Q503 -121 496 -110 Q450 -9 367 70 L375 82 ZM636 648 Q705 636 705 636 Q726 634 726 625 Q726 616 703 612 Q683 606 683 597 L683 97 Q683 81 663 76 Q655 74 652 74 Q640 74 640 93 Q640 147 644 204 L644 566 Q644 625 636 648 ZM839 730 Q904 717 904 717 Q929 712 929 703 Q929 696 905 689 Q890 683 890 675 L890 -63 Q890 -98 867 -120 Q836 -149 808 -149 Q802 -149 795 -125 Q787 -97 667 -82 L667 -67 Q740 -78 828 -78 Q847 -78 847 -63 L847 617 Q847 692 839 730 Z" /><glyph glyph-name="" unicode="&#x522b;" d="M113 699 Q140 690 161 672 L437 672 Q438 672 450 685 Q463 699 468 699 Q476 699 500 676 Q519 657 519 652 Q519 647 496 636 Q480 627 480 621 Q480 495 484 383 Q484 376 471 371 Q462 367 460 367 Q441 367 441 383 L441 406 L311 406 Q305 327 294 261 L445 261 Q452 269 458 282 Q471 300 476 300 Q481 300 503 283 Q527 263 527 258 Q527 250 513 241 Q500 235 500 230 Q481 -38 456 -89 Q441 -128 371 -141 Q363 -141 356 -114 Q337 -89 250 -67 L257 -51 Q368 -71 394 -71 Q405 -71 420 -49 Q447 2 457 234 L289 234 Q282 197 273 164 Q242 42 192 -28 Q138 -102 54 -157 L46 -141 Q117 -88 163 -15 Q206 52 232 171 Q239 201 245 234 L195 234 Q111 234 70 226 L54 269 Q99 261 195 261 L249 261 Q259 328 264 406 L162 406 L164 383 Q164 371 145 366 Q134 363 128 363 Q117 363 117 383 L121 433 L121 609 Q121 658 113 699 ZM160 433 L441 433 L441 644 L160 644 L160 433 ZM628 629 Q649 624 697 614 Q707 611 707 605 Q707 598 688 593 Q675 588 675 578 L675 109 Q675 101 657 96 Q646 93 636 93 Q628 93 628 117 Q628 171 632 234 L632 535 Q632 591 628 629 ZM832 718 Q896 706 896 706 Q921 700 921 691 Q921 684 897 677 Q882 672 882 664 L882 -59 Q882 -94 859 -116 Q828 -145 800 -145 Q793 -145 787 -124 Q777 -99 652 -86 L652 -71 Q728 -75 820 -75 Q839 -75 839 -59 L839 605 Q839 680 832 718 Z" /><glyph glyph-name="" unicode="&#x5230;" d="M66 675 Q100 668 167 668 L488 668 Q500 682 511 698 Q523 715 531 715 Q539 715 566 690 Q597 661 597 656 Q597 640 578 640 L340 640 Q289 522 207 419 Q334 423 511 445 Q500 461 490 471 Q466 500 406 543 L417 554 Q511 505 553 467 Q589 432 589 410 Q589 390 584 381 Q575 371 566 371 Q550 371 542 390 Q530 414 519 432 Q425 413 351 401 L351 222 L472 222 Q485 237 496 253 Q508 269 515 269 Q523 269 550 244 Q582 216 582 211 Q582 195 562 195 L351 195 L351 0 Q456 23 593 62 L601 50 Q351 -37 212 -67 Q121 -87 121 -98 Q121 -125 113 -125 Q102 -125 91 -101 Q75 -67 66 -47 Q144 -41 247 -22 Q276 -17 308 -10 L308 195 L203 195 Q140 195 117 187 L101 230 Q135 222 203 222 L308 222 L308 395 Q255 387 213 384 Q136 379 128 368 L125 363 Q120 343 113 343 Q106 343 99 358 Q86 391 78 422 Q128 418 156 418 L184 418 Q254 531 284 640 L167 640 Q105 640 82 633 L66 675 ZM656 640 Q679 633 713 625 Q742 620 742 613 Q742 605 726 598 Q707 594 707 586 L707 109 Q707 102 693 95 Q675 90 671 90 Q660 90 660 97 L664 140 L664 570 Q664 604 656 640 ZM835 734 Q900 721 900 721 Q925 716 925 707 Q925 700 901 693 Q886 687 886 679 L886 -51 Q886 -86 862 -109 Q829 -137 800 -137 Q794 -137 787 -115 Q778 -88 656 -75 L656 -59 Q731 -67 824 -67 Q843 -67 843 -51 L843 621 Q843 696 835 734 Z" /><glyph glyph-name="" unicode="&#x524d;" d="M285 734 Q337 694 361 663 Q382 635 382 617 Q382 597 377 588 Q368 578 359 578 Q343 578 335 597 Q323 643 312 663 Q301 687 273 722 L285 734 ZM652 738 Q716 718 716 718 Q738 710 738 699 Q738 694 718 690 Q696 685 695 683 Q662 625 604 566 L824 566 Q838 582 849 599 Q863 617 871 617 Q879 617 908 590 Q941 560 941 554 Q941 539 921 539 L175 539 Q113 539 89 531 L74 574 Q108 566 175 566 L582 566 Q640 649 652 738 ZM144 468 Q177 456 202 433 L414 433 Q414 433 424 447 Q435 461 441 461 Q447 461 471 442 Q492 425 492 418 Q492 412 475 401 Q460 392 460 383 L460 -78 Q460 -116 428 -136 Q403 -153 394 -153 Q390 -153 385 -137 Q379 -113 296 -98 L300 -82 Q365 -90 406 -90 Q421 -90 421 -59 L421 113 L199 113 L199 -82 L203 -141 Q203 -152 182 -157 Q169 -160 164 -160 Q152 -160 152 -141 L156 -82 L156 371 Q156 424 144 468 ZM199 140 L421 140 L421 265 L199 265 L199 140 ZM199 293 L421 293 L421 406 L199 406 L199 293 ZM593 445 Q662 433 662 433 Q683 430 683 422 Q683 413 660 409 Q640 403 640 394 L640 8 Q640 -9 620 -14 Q612 -16 609 -16 Q597 -16 597 4 Q597 46 601 92 L601 363 Q601 422 593 445 ZM800 484 Q865 471 865 471 Q890 466 890 457 Q890 450 866 443 Q851 437 851 429 L851 -67 Q851 -99 830 -119 Q802 -145 777 -145 Q772 -145 768 -124 Q761 -99 675 -86 L675 -75 Q727 -82 789 -82 Q808 -82 808 -67 L808 371 Q808 446 800 484 Z" /><glyph glyph-name="" unicode="&#x529f;" d="M46 582 Q81 574 148 574 L339 574 Q352 589 363 605 Q375 621 382 621 Q391 621 417 596 Q449 568 449 562 Q449 547 429 547 L261 547 L261 136 Q346 165 460 215 L468 203 Q279 102 174 67 Q105 43 105 31 Q105 4 97 4 Q86 4 75 28 Q59 62 50 82 Q111 89 191 113 Q205 117 218 121 L218 547 L148 547 Q85 547 62 539 L46 582 ZM375 511 Q446 500 550 500 L581 500 Q582 524 582 547 Q582 678 578 738 Q607 732 650 721 Q671 717 671 707 Q671 698 651 695 Q628 686 628 675 L628 547 Q627 522 626 500 L812 500 Q828 516 837 527 Q850 539 859 539 Q865 539 894 514 Q917 492 917 484 Q917 473 886 460 Q867 451 867 449 Q846 84 818 -10 Q796 -83 753 -103 Q720 -121 699 -121 Q694 -121 688 -108 Q675 -82 626 -65 Q586 -54 550 -43 L554 -32 Q671 -47 726 -47 Q745 -47 757 -33 Q777 -11 791 79 Q810 193 820 472 L624 472 Q614 314 586 222 Q547 90 470 4 Q388 -90 269 -141 L257 -129 Q360 -74 437 19 Q508 103 542 227 Q575 324 580 472 L550 472 Q456 472 394 465 L375 511 Z" /><glyph glyph-name="" unicode="&#x52a0;" d="M42 539 Q87 531 183 531 L221 531 Q222 581 222 633 Q222 692 218 734 Q274 722 274 722 Q304 719 304 711 Q304 700 282 696 Q265 691 265 683 Q265 600 263 531 L421 531 Q429 537 437 546 Q451 558 457 558 Q462 558 488 540 Q515 517 515 511 Q515 502 498 493 Q480 486 480 480 Q460 40 431 -43 Q415 -108 335 -129 Q328 -129 321 -104 Q303 -80 218 -59 L222 -47 Q329 -63 355 -63 Q369 -63 388 -23 Q421 72 433 504 L262 504 Q251 241 207 118 Q157 -45 50 -149 L42 -137 Q86 -86 120 -13 Q154 52 176 137 Q212 275 220 504 L183 504 Q99 504 58 496 L42 539 ZM578 605 Q609 594 635 570 L847 570 Q853 576 862 589 Q875 605 878 605 Q886 605 910 582 Q933 562 933 554 Q933 547 916 537 Q898 525 898 519 L898 119 Q898 25 906 -110 Q906 -123 887 -129 Q871 -133 863 -133 Q851 -133 851 -110 Q852 -81 853 -47 L632 -47 L632 -63 L636 -121 Q636 -133 616 -137 Q603 -141 597 -141 Q585 -141 585 -121 L589 -63 L589 508 Q589 560 578 605 ZM632 -20 L854 -20 Q855 43 855 119 L855 543 L632 543 L632 -20 Z" /><glyph glyph-name="" unicode="&#x52a8;" d="M97 590 Q131 582 199 582 L390 582 Q403 595 414 610 Q426 625 433 625 Q441 625 466 601 Q496 575 496 570 Q496 554 476 554 L199 554 Q136 554 113 547 L97 590 ZM58 363 Q92 355 160 355 L429 355 Q442 370 453 386 Q465 402 472 402 Q480 402 507 377 Q539 349 539 343 Q539 328 519 328 L304 328 Q251 164 166 18 Q184 21 200 25 Q289 43 430 87 Q423 108 417 120 Q403 156 367 211 L375 222 Q436 159 464 112 Q488 67 488 39 Q488 21 484 12 Q476 4 468 4 Q455 4 449 19 Q442 50 435 72 Q277 4 188 -20 Q125 -38 125 -47 Q125 -71 117 -71 Q105 -71 95 -48 Q79 -15 70 4 Q102 7 140 13 Q216 172 247 328 L160 328 Q97 328 74 320 L58 363 ZM500 504 Q544 496 640 496 L644 496 Q644 503 644 508 Q644 663 640 734 Q669 728 713 717 Q734 714 734 703 Q734 695 713 691 Q691 682 691 672 L691 508 Q691 501 690 496 L847 496 Q854 502 861 510 Q873 523 878 523 Q883 523 905 506 Q929 486 929 480 Q929 472 916 464 Q902 458 902 453 Q880 27 849 -54 Q832 -116 746 -137 Q738 -137 730 -110 Q709 -85 617 -63 L621 -51 Q737 -71 765 -71 Q782 -71 805 -33 Q844 58 859 468 L689 468 Q681 293 652 196 Q616 70 546 -13 Q472 -103 363 -153 L351 -141 Q443 -88 513 1 Q578 82 608 201 Q640 303 644 468 L640 468 Q556 468 515 461 L500 504 Z" /><glyph glyph-name="" unicode="&#x533a;" d="M42 660 Q77 652 144 652 L832 652 Q846 668 857 685 Q871 703 878 703 Q887 703 916 676 Q949 646 949 640 Q949 625 929 625 L187 625 L187 -20 Q187 -52 217 -66 Q268 -78 421 -78 L715 -78 Q752 -78 835 -59 Q871 -43 875 -43 Q877 -43 899 -63 Q914 -77 914 -86 Q914 -98 875 -105 Q785 -121 694 -121 L421 -121 Q284 -121 212 -104 Q144 -85 144 -20 L144 625 Q82 625 58 617 L42 660 ZM699 582 Q742 565 779 548 Q792 544 792 535 Q792 525 777 522 Q729 518 722 511 Q655 378 594 294 Q694 207 746 147 Q800 84 800 54 Q799 27 781 27 Q763 27 738 66 Q679 153 571 264 Q556 245 541 230 Q427 106 273 31 L265 43 Q440 161 543 292 Q446 393 328 488 L339 500 Q471 399 564 320 Q638 424 699 582 Z" /><glyph glyph-name="" unicode="&#x5355;" d="M273 718 Q338 683 368 657 Q394 633 394 617 Q394 595 389 585 Q380 574 371 574 Q352 574 343 597 Q326 637 312 655 Q297 676 261 707 L273 718 ZM656 738 Q735 716 735 716 Q761 707 761 695 Q761 689 738 684 Q712 678 710 675 Q661 616 574 554 L773 554 Q774 554 787 569 Q803 586 808 586 Q816 586 842 559 Q863 537 863 531 Q863 526 835 515 Q816 506 816 500 Q816 335 820 187 Q820 180 805 175 Q794 172 792 172 Q773 172 773 187 L773 218 L503 218 L503 97 L835 97 Q850 113 861 131 Q875 148 882 148 Q891 148 919 121 Q953 92 953 86 Q953 70 933 70 L503 70 L503 0 L507 -125 Q507 -143 495 -148 Q480 -157 468 -157 Q457 -157 457 -125 L460 0 L460 70 L152 70 Q89 70 66 62 L50 105 Q84 97 152 97 L460 97 L460 218 L205 218 L207 191 Q207 180 186 175 Q173 172 167 172 Q156 172 156 191 L160 250 L160 492 Q160 545 148 590 Q181 577 206 554 L546 554 Q637 641 656 738 ZM203 246 L460 246 L460 375 L203 375 L203 246 ZM503 375 L503 246 L773 246 L773 375 L503 375 ZM203 402 L460 402 L460 527 L203 527 L203 402 ZM503 527 L503 402 L773 402 L773 527 L503 527 Z" /><glyph glyph-name="" unicode="&#x5373;" d="M439 699 Q447 699 473 673 Q494 651 494 644 Q494 639 471 629 Q455 619 455 613 Q455 418 459 251 Q459 245 444 240 Q433 236 431 236 Q412 236 412 251 L412 279 L175 279 L175 13 Q263 37 395 91 Q393 95 391 98 Q370 139 316 203 L324 215 Q406 140 444 85 Q476 33 476 0 Q476 -18 472 -27 Q464 -35 457 -35 Q443 -35 437 -20 Q417 43 401 78 Q244 -6 155 -35 Q93 -56 93 -67 Q93 -90 85 -90 Q74 -90 63 -67 Q47 -35 39 -16 Q80 -11 132 1 L132 629 Q132 668 125 699 Q155 688 185 668 L404 668 Q405 668 418 682 Q434 699 439 699 ZM175 640 L175 494 L412 494 L412 640 L175 640 ZM175 466 L175 306 L412 306 L412 466 L175 466 ZM871 699 Q877 699 903 678 Q925 660 925 652 Q925 646 907 634 Q890 623 890 613 L890 86 Q890 43 855 19 Q829 0 820 0 Q814 0 808 18 Q801 45 699 62 L703 78 Q782 70 832 70 Q847 70 847 105 L847 640 L625 640 L625 -75 L628 -133 Q628 -144 608 -149 Q595 -153 589 -153 Q578 -153 578 -133 L582 -75 L582 605 Q582 658 570 703 Q601 692 627 668 L839 668 Q839 668 852 683 Q864 699 871 699 Z" /><glyph glyph-name="" unicode="&#x539f;" d="M875 715 Q881 715 908 691 Q941 662 941 656 Q941 640 925 640 L571 640 Q542 573 500 515 L742 515 Q743 515 756 529 Q771 543 777 543 Q785 543 811 516 Q832 494 832 488 Q832 483 809 472 Q792 463 792 457 Q792 309 796 175 Q796 169 782 164 Q770 160 769 160 Q750 160 750 175 L750 203 L585 203 L585 -55 Q585 -100 549 -122 Q520 -141 507 -141 Q490 -141 486 -120 Q473 -94 367 -78 L371 -63 L500 -75 Q542 -75 542 -51 L542 203 L377 203 L378 175 Q378 164 358 159 Q345 156 339 156 Q328 156 328 175 L332 234 L332 453 Q332 506 320 550 Q352 538 378 515 L481 515 Q508 580 520 640 L199 640 L199 465 Q199 332 186 209 Q174 103 152 32 Q126 -51 66 -141 L54 -125 Q99 -37 117 43 Q134 113 143 216 Q152 336 152 465 L152 586 Q152 668 140 711 L207 668 L828 668 Q828 668 846 689 Q865 715 875 715 ZM375 230 L750 230 L750 343 L375 343 L375 230 ZM375 371 L750 371 L750 488 L375 488 L375 371 ZM367 133 Q401 115 426 99 Q437 94 437 86 Q435 80 420 80 Q394 79 390 74 Q338 7 288 -38 Q232 -83 175 -114 L167 -106 Q232 -58 277 -3 Q328 54 367 133 ZM691 117 Q850 23 874 -13 Q894 -39 894 -59 Q894 -94 871 -94 Q856 -94 831 -51 Q791 14 683 105 L691 117 Z" /><glyph glyph-name="" unicode="&#x53cb;" d="M42 558 Q77 550 144 550 L370 550 Q376 611 378 675 L371 742 Q447 725 462 720 Q476 715 476 707 Q476 699 456 695 Q431 691 429 679 Q424 613 414 550 L832 550 Q846 568 857 587 Q871 605 878 605 Q888 605 917 577 Q953 545 953 539 Q953 523 929 523 L410 523 Q396 441 376 367 L722 367 Q727 370 733 376 Q749 390 753 390 Q767 390 793 368 Q824 341 824 332 Q824 323 795 321 Q767 320 765 316 Q701 185 617 91 Q605 78 595 68 Q624 45 654 25 Q761 -48 945 -78 L945 -98 Q911 -98 889 -123 Q881 -137 875 -137 Q863 -137 804 -114 Q714 -77 647 -29 Q600 3 564 38 Q504 -16 443 -49 Q329 -116 156 -157 L152 -141 Q304 -94 407 -32 Q479 5 541 62 Q509 97 485 133 Q433 207 391 340 L368 340 Q346 267 318 200 Q247 32 50 -117 L42 -106 Q201 26 288 221 Q347 354 367 523 L144 523 Q82 523 58 515 L42 558 ZM415 340 Q442 254 480 195 Q516 137 569 90 Q570 91 571 92 Q638 167 726 340 L415 340 Z" /><glyph glyph-name="" unicode="&#x53d8;" d="M421 750 Q500 728 518 704 Q535 682 535 660 Q533 640 515 640 Q501 642 492 652 Q467 702 421 738 L421 750 ZM54 633 Q88 625 156 625 L835 625 Q848 639 859 655 Q871 672 878 672 Q887 672 914 647 Q945 618 945 613 Q945 597 925 597 L632 597 L632 304 Q632 286 623 281 Q610 273 601 273 Q589 273 589 304 L593 414 L593 597 L402 597 L402 300 Q402 282 392 278 Q380 269 371 269 Q359 269 359 300 L363 410 L363 597 L156 597 Q93 597 70 590 L54 633 ZM214 519 Q264 510 264 510 Q296 506 296 496 Q296 485 274 483 Q257 481 257 480 Q222 434 175 399 Q130 363 54 336 L42 347 Q100 377 139 417 Q177 449 214 519 ZM191 258 Q228 253 320 250 L671 250 Q686 268 701 285 Q708 289 710 289 Q717 289 743 259 Q765 234 765 222 Q765 217 756 216 Q746 214 726 207 Q624 92 541 33 Q612 -6 699 -29 Q820 -59 949 -59 L945 -78 Q887 -82 875 -107 Q870 -121 863 -121 Q832 -121 698 -80 Q591 -46 507 10 Q397 -56 291 -89 Q173 -127 85 -141 L82 -125 Q330 -56 471 24 Q475 26 479 29 Q478 30 478 30 Q392 84 305 222 Q249 221 210 215 L191 258 ZM330 222 Q407 116 486 67 Q499 58 511 50 Q598 113 675 222 L330 222 ZM718 511 Q849 445 896 396 Q914 374 914 359 Q914 332 894 332 Q874 334 863 351 Q812 430 714 492 L718 511 Z" /><glyph glyph-name="" unicode="&#x53e3;" d="M140 636 Q176 623 206 597 L781 597 Q783 597 798 614 Q817 633 824 633 Q832 633 860 604 Q882 581 882 574 Q882 569 857 556 Q839 546 839 539 Q839 220 843 -67 Q843 -75 829 -82 Q817 -85 816 -86 Q792 -86 792 -71 L792 -4 L199 -4 L203 -67 Q203 -80 182 -86 Q169 -90 164 -90 Q148 -90 148 -67 L152 -4 L152 531 Q152 588 140 636 ZM199 23 L792 23 L792 570 L199 570 L199 23 Z" /><glyph glyph-name="" unicode="&#x53ec;" d="M93 683 Q165 672 269 672 L812 672 Q827 685 835 693 Q846 703 855 703 Q860 703 885 682 Q906 663 906 656 Q906 646 879 634 Q863 627 863 625 Q844 425 819 373 Q799 333 760 322 Q729 312 710 312 Q706 312 700 325 Q688 349 642 365 Q604 377 570 386 L574 398 Q683 379 734 379 Q751 379 762 386 Q781 398 793 443 Q810 501 820 644 L459 644 Q405 472 336 398 Q312 363 223 311 Q168 279 78 254 L70 273 Q151 298 200 328 Q280 378 302 411 Q364 482 412 644 L269 644 Q174 644 113 636 L93 683 ZM222 285 Q254 274 279 250 L742 250 Q743 250 756 264 Q771 281 777 281 Q785 281 811 255 Q832 233 832 226 Q832 221 809 211 Q792 201 792 195 Q792 22 796 -133 Q796 -140 782 -145 Q770 -148 769 -149 Q750 -149 750 -133 L750 -75 L277 -75 L281 -133 Q281 -144 260 -149 Q248 -153 242 -153 Q230 -153 230 -133 L234 -75 L234 187 Q234 240 222 285 ZM277 -47 L750 -47 L750 222 L277 222 L277 -47 Z" /><glyph glyph-name="" unicode="&#x53f0;" d="M441 734 Q510 710 510 710 Q529 703 527 695 Q527 689 508 685 L480 679 Q374 512 274 410 Q491 414 801 431 Q792 445 783 455 Q751 496 671 558 L683 570 Q799 497 853 443 Q898 391 898 359 Q898 340 893 330 Q884 320 875 320 Q858 321 851 340 Q830 384 812 415 Q487 377 293 368 Q157 361 149 350 Q148 347 148 347 Q142 324 132 324 Q125 324 117 341 Q103 379 93 414 Q151 410 183 410 L253 410 Q356 525 441 734 ZM218 265 Q250 254 276 230 L726 230 Q731 236 741 247 Q753 261 757 261 Q765 261 789 238 Q812 218 812 211 Q812 203 796 193 Q781 181 781 175 L781 -13 Q781 -58 789 -121 Q789 -135 770 -141 Q753 -145 746 -145 Q734 -145 734 -121 Q736 -100 737 -75 L274 -75 L277 -125 Q277 -137 256 -141 Q244 -145 238 -145 Q226 -145 226 -125 L230 -67 L230 168 Q230 220 218 265 ZM273 -47 L738 -47 Q738 -30 738 -13 L738 203 L273 203 L273 -47 Z" /><glyph glyph-name="" unicode="&#x540d;" d="M457 734 Q495 720 525 708 Q539 702 539 695 Q539 689 520 686 Q491 681 484 668 Q464 639 444 613 L679 613 Q691 627 701 636 Q715 648 722 648 Q728 648 772 616 Q804 591 804 582 Q804 575 769 565 Q745 560 738 554 Q611 390 519 314 Q466 269 409 234 L796 234 Q798 234 811 251 Q826 269 832 269 Q839 269 865 243 Q886 221 886 215 Q886 210 863 199 Q847 189 847 183 Q847 17 851 -133 Q851 -140 836 -145 Q825 -148 824 -149 Q804 -149 804 -133 L804 -75 L395 -75 Q396 -106 398 -133 Q398 -143 386 -147 Q365 -153 359 -153 Q348 -153 347 -137 Q348 -62 351 -24 L351 201 Q333 191 315 182 Q207 127 62 70 L54 90 Q281 189 376 251 Q464 309 558 402 Q628 473 699 586 L422 586 Q371 526 321 485 Q317 481 312 478 Q425 423 444 401 Q460 384 460 371 Q460 336 437 336 Q425 336 405 366 Q375 409 297 467 Q209 400 113 355 L105 367 Q244 446 319 529 Q386 596 457 734 ZM394 -47 L804 -47 L804 207 L394 207 L394 -24 Q394 -36 394 -47 Z" /><glyph glyph-name="" unicode="&#x5411;" d="M457 746 Q533 716 533 716 Q550 710 550 699 Q550 689 522 689 Q496 689 492 683 Q454 617 395 550 L812 550 Q812 550 828 566 Q842 582 851 582 Q858 582 886 560 Q910 539 910 531 Q910 524 887 511 Q867 500 867 488 L867 -67 Q867 -110 823 -133 Q789 -153 777 -153 Q770 -153 763 -133 Q754 -105 632 -86 L636 -71 Q737 -78 800 -78 Q820 -78 820 -43 L820 523 L175 523 L175 -67 L179 -129 Q179 -143 159 -149 Q146 -153 140 -153 Q125 -153 125 -129 L128 -67 L128 484 Q128 541 117 590 Q153 576 183 550 L374 550 Q398 588 416 626 Q439 673 457 746 ZM312 406 Q344 395 369 371 L601 371 Q603 371 615 387 Q631 406 636 406 Q644 406 670 380 Q691 358 691 351 Q691 346 670 336 Q656 326 656 320 Q656 188 660 70 Q660 63 645 58 Q634 55 632 54 Q613 54 613 70 L613 117 L368 117 L371 70 Q371 59 350 54 Q337 50 332 50 Q320 50 320 70 L324 129 L324 308 Q324 361 312 406 ZM367 144 L613 144 L613 343 L367 343 L367 144 Z" /><glyph glyph-name="" unicode="&#x5458;" d="M246 715 Q278 702 304 679 L707 679 Q708 679 721 696 Q736 715 742 715 Q750 715 775 688 Q796 666 796 660 Q796 655 776 644 Q761 634 761 629 Q761 550 765 480 Q765 473 750 468 Q739 465 738 465 Q718 465 718 480 L718 508 L302 508 L304 484 Q304 473 284 468 Q271 465 265 465 Q253 465 253 484 L257 543 L257 617 Q257 670 246 715 ZM300 535 L718 535 L718 652 L300 652 L300 535 ZM187 457 Q219 446 244 422 L753 422 Q755 422 768 438 Q783 457 789 457 Q796 457 822 430 Q843 408 843 402 Q843 397 823 386 Q808 377 808 371 Q808 194 812 35 Q812 28 797 23 Q786 20 785 19 Q765 19 765 35 L765 394 L242 394 L242 78 L246 19 Q246 8 225 3 Q212 0 207 0 Q195 0 195 19 L199 78 L199 359 Q199 412 187 457 ZM457 340 Q500 332 538 323 Q562 320 562 308 Q562 304 546 299 Q511 289 511 277 L511 222 Q504 108 474 60 Q418 -31 321 -79 Q219 -129 82 -153 L78 -137 Q233 -99 299 -58 Q375 -16 425 54 Q462 112 468 222 Q468 322 457 340 ZM542 43 Q792 -25 854 -75 Q887 -102 890 -133 Q890 -153 871 -153 Q860 -153 799 -108 Q715 -45 539 27 L542 43 Z" /><glyph glyph-name="" unicode="&#x547d;" d="M453 742 Q491 730 536 717 Q546 715 546 707 Q546 696 529 694 Q506 694 492 692 Q572 598 690 530 Q808 463 957 429 L957 414 Q905 414 893 402 Q885 390 882 390 Q857 390 772 438 Q676 489 604 549 Q521 615 476 687 Q414 605 301 517 Q202 439 46 367 L39 383 Q211 478 300 554 Q396 641 453 742 ZM257 449 Q291 441 359 441 L582 441 Q594 454 605 469 Q617 484 625 484 Q632 484 658 461 Q687 435 687 429 Q687 414 667 414 L359 414 Q296 414 273 406 L257 449 ZM132 336 Q165 323 191 300 L343 300 Q345 300 357 315 Q373 332 378 332 Q386 332 412 305 Q433 283 433 277 Q433 272 410 261 Q394 252 394 246 Q394 100 398 -32 Q398 -38 383 -43 Q372 -47 371 -47 Q351 -47 351 -32 L351 4 L188 4 L191 -43 Q191 -54 170 -59 Q158 -63 152 -63 Q140 -63 140 -43 L144 15 L144 238 Q144 291 132 336 ZM187 31 L351 31 L351 273 L187 273 L187 31 ZM515 340 Q548 327 573 304 L761 304 Q761 304 773 318 Q786 332 792 332 Q799 332 825 311 Q847 293 847 285 Q847 279 829 266 Q812 256 812 246 L812 15 Q812 -24 781 -45 Q758 -63 750 -63 Q745 -63 739 -47 Q732 -23 636 -8 L640 8 Q710 4 753 4 Q769 4 769 35 L769 277 L570 277 L570 -78 L574 -137 Q574 -148 553 -153 Q541 -157 535 -157 Q523 -157 523 -137 L527 -78 L527 242 Q527 295 515 340 Z" /><glyph glyph-name="" unicode="&#x5524;" d="M89 613 Q116 604 138 586 L242 586 Q243 586 254 597 Q268 609 273 609 Q280 609 304 587 Q324 568 324 562 Q324 557 306 547 Q292 537 292 531 Q292 282 296 58 Q296 51 284 47 Q274 43 273 43 Q253 43 253 58 L253 117 L136 117 L136 86 L140 35 Q140 24 122 19 Q110 15 105 15 Q93 15 93 35 L97 86 L97 523 Q97 572 89 613 ZM136 144 L253 144 L253 558 L136 558 L136 144 ZM523 742 Q553 734 585 720 Q605 714 605 703 Q605 697 585 695 Q562 690 558 687 Q543 659 530 636 L675 636 Q683 641 691 646 Q705 656 714 656 Q718 656 745 632 Q769 608 769 601 Q769 593 752 592 Q721 590 718 582 Q674 515 630 457 L781 457 Q800 477 800 478 Q807 484 812 484 Q820 484 845 461 Q863 443 863 437 Q863 432 840 423 Q828 418 828 406 L828 172 L847 172 Q860 186 871 202 Q883 218 890 218 Q898 218 925 194 Q957 165 957 160 Q957 144 937 144 L641 144 Q657 99 678 67 Q714 11 781 -31 Q844 -73 953 -90 L953 -106 Q926 -106 910 -126 Q903 -137 898 -137 Q891 -137 857 -123 Q806 -101 767 -72 Q709 -30 674 26 Q645 69 622 144 L606 144 Q585 89 549 36 Q500 -30 431 -75 Q353 -122 234 -160 L230 -145 Q337 -108 408 -62 Q471 -18 515 47 Q546 95 563 144 L402 144 Q339 144 316 136 L300 179 Q333 172 398 172 L398 422 Q398 454 395 479 Q360 449 320 422 L308 429 Q384 486 431 554 Q492 634 523 742 ZM437 172 L572 172 Q574 178 575 183 Q596 249 597 429 L437 429 L437 172 ZM640 429 Q639 244 616 175 Q615 173 615 172 L789 172 L789 429 L640 429 ZM446 457 L613 457 Q650 539 675 609 L513 609 Q485 568 458 542 Q430 509 398 482 Q423 472 446 457 Z" /><glyph glyph-name="" unicode="&#x552f;" d="M70 609 Q97 600 118 582 L242 582 Q243 582 254 596 Q268 613 273 613 Q280 613 304 591 Q324 571 324 566 Q324 561 306 550 Q292 541 292 535 Q292 441 293 351 Q358 428 398 501 Q456 606 476 730 Q513 720 540 711 Q558 704 558 695 Q558 687 542 685 Q517 679 515 672 Q485 598 456 543 L820 543 Q820 543 840 566 Q860 593 871 593 Q878 593 906 569 Q941 537 941 531 Q941 515 925 515 L675 515 L675 359 L808 359 Q808 359 825 381 Q842 406 851 406 Q858 406 883 383 Q914 353 914 347 Q914 332 898 332 L675 332 L675 164 L804 164 Q804 164 821 185 Q838 211 847 211 Q854 211 879 187 Q910 158 910 152 Q910 136 894 136 L675 136 L675 -59 L835 -59 Q835 -59 855 -35 Q876 -8 886 -8 Q894 -8 922 -33 Q957 -65 957 -71 Q957 -86 941 -86 L454 -86 Q455 -113 457 -137 Q457 -147 444 -151 Q423 -157 417 -157 Q406 -157 406 -141 Q407 -66 410 -28 L410 466 Q350 380 293 331 Q294 212 296 101 Q296 94 284 90 Q274 86 273 86 Q253 86 253 101 L253 168 L117 168 L117 140 L121 90 Q121 78 102 73 Q91 70 85 70 Q74 70 74 90 L78 140 L78 519 Q78 568 70 609 ZM453 -59 L636 -59 L636 136 L453 136 L453 -28 Q453 -45 453 -59 ZM636 164 L636 332 L453 332 L453 164 L636 164 ZM636 359 L636 515 L453 515 L453 359 L636 359 ZM117 195 L253 195 L253 554 L117 554 L117 195 ZM609 730 Q664 684 689 650 Q710 618 710 597 Q710 578 706 568 Q696 558 687 558 Q671 559 664 578 Q650 629 638 652 Q626 678 597 718 L609 730 Z" /><glyph glyph-name="" unicode="&#x5546;" d="M382 742 Q473 712 500 687 Q519 670 519 652 Q519 621 500 621 Q491 621 474 644 Q450 684 375 730 L382 742 ZM50 621 Q84 613 152 613 L832 613 Q844 628 855 644 Q867 660 875 660 Q883 660 910 635 Q941 607 941 601 Q941 586 921 586 L152 586 Q89 586 66 578 L50 621 ZM308 578 Q356 546 379 521 Q398 499 398 484 Q398 467 394 458 Q386 449 378 449 Q365 449 359 465 Q347 502 336 518 Q326 537 300 566 L308 578 ZM632 582 Q684 565 684 565 Q707 558 707 550 Q707 542 687 539 Q670 538 667 535 Q636 475 596 433 L820 433 Q820 433 832 449 Q844 465 851 465 Q858 465 884 444 Q906 425 906 418 Q906 412 887 399 Q871 389 871 379 L871 -67 Q871 -106 832 -127 Q803 -145 792 -145 Q787 -145 780 -128 Q772 -103 660 -86 L664 -71 Q755 -78 812 -78 Q828 -78 828 -47 L828 406 L593 406 L593 336 Q593 310 600 299 Q612 289 649 289 L722 289 Q731 289 751 304 Q760 316 761 316 Q763 316 781 301 Q792 292 792 285 Q792 274 781 268 Q755 254 729 254 L649 254 Q602 254 577 267 Q554 283 554 336 L554 406 L420 406 Q391 315 354 276 Q340 257 291 227 Q261 209 210 195 L203 211 Q245 224 270 240 Q311 268 322 286 Q353 323 377 406 L179 406 L179 -63 L183 -121 Q183 -133 163 -137 Q150 -141 144 -141 Q132 -141 132 -121 L136 -63 L136 371 Q136 424 125 468 Q157 456 183 433 L577 433 Q597 465 605 489 Q621 523 632 582 ZM324 226 Q351 217 373 199 L601 199 Q603 199 614 212 Q627 226 632 226 Q640 226 664 204 Q683 185 683 179 Q683 175 663 164 Q648 154 648 148 Q648 56 652 -28 Q652 -34 639 -39 Q630 -43 628 -43 Q609 -43 609 -28 L609 8 L372 8 L375 -35 Q375 -47 356 -52 Q345 -55 339 -55 Q328 -55 328 -35 L332 15 L332 136 Q332 185 324 226 ZM371 35 L609 35 L609 172 L371 172 L371 35 Z" /><glyph glyph-name="" unicode="&#x56fe;" d="M109 711 Q138 700 163 679 L824 679 Q829 684 838 694 Q851 707 855 707 Q862 707 887 684 Q910 664 910 656 Q910 648 894 638 Q878 627 878 621 L878 149 Q878 37 886 -121 Q886 -135 867 -141 Q851 -145 843 -145 Q832 -145 832 -121 Q832 -106 833 -90 L165 -90 L167 -129 Q167 -140 147 -145 Q134 -149 128 -149 Q117 -149 117 -129 L121 -71 L121 613 Q121 666 109 711 ZM164 -63 L833 -63 Q835 28 835 149 L835 652 L164 652 L164 -63 ZM425 629 Q454 617 478 608 Q488 603 488 597 Q488 592 473 590 Q451 586 445 574 Q431 552 417 535 L589 535 Q597 543 604 553 Q614 562 617 562 Q626 562 649 541 Q675 518 675 511 Q675 503 665 500 Q653 498 636 492 Q572 418 513 367 Q541 346 571 329 Q636 289 699 277 Q776 258 824 258 L820 238 Q772 238 761 224 Q752 211 750 211 Q734 211 683 232 Q627 252 576 287 Q531 314 493 349 Q473 332 454 318 Q368 251 179 175 L175 187 Q345 269 434 342 Q453 355 469 371 Q464 375 461 379 Q419 422 377 486 Q355 462 333 444 Q266 388 191 351 L187 359 Q281 417 332 478 Q377 528 425 629 ZM387 497 Q420 450 462 410 Q474 398 486 388 Q538 437 589 508 L396 508 Q391 502 387 497 ZM421 250 Q538 221 574 197 Q597 181 597 164 Q597 140 582 140 Q570 140 548 161 Q517 196 417 238 L421 250 ZM363 136 Q509 97 577 63 Q625 41 628 19 Q628 -8 609 -8 Q597 -8 558 19 Q479 80 359 121 L363 136 Z" /><glyph glyph-name="" unicode="&#x578b;" d="M97 675 Q131 668 199 668 L464 668 Q477 681 488 696 Q500 711 507 711 Q515 711 541 687 Q570 661 570 656 Q570 640 550 640 L441 640 L441 465 L496 465 Q507 477 517 490 Q528 504 535 504 Q542 504 565 482 Q593 458 593 453 Q593 437 574 437 L441 437 L441 328 L445 203 Q445 185 433 180 Q417 172 406 172 Q394 172 394 203 L398 328 L398 437 L272 437 Q267 394 257 360 Q242 292 202 238 Q165 180 82 129 L70 140 Q140 190 171 246 Q204 300 217 364 Q225 397 229 437 L167 437 Q105 437 82 429 L66 472 Q100 465 167 465 L231 465 Q234 500 234 539 L234 640 L199 640 Q136 640 113 633 L97 675 ZM398 465 L398 640 L277 640 L277 539 Q277 499 274 465 L398 465 ZM632 679 Q653 675 701 665 Q710 662 710 656 Q710 649 692 644 Q679 639 679 629 L679 281 Q679 273 661 268 Q650 265 640 265 Q632 265 632 289 Q632 343 636 406 L636 586 Q636 641 632 679 ZM816 718 Q880 706 880 706 Q906 700 906 691 Q906 684 881 677 Q867 672 867 664 L867 230 Q867 198 848 177 Q823 152 800 152 Q796 152 791 170 Q785 192 699 203 L699 215 L804 215 Q824 215 824 230 L824 605 Q824 680 816 718 ZM171 101 Q206 93 273 93 L476 93 Q475 162 468 203 Q507 195 531 189 Q554 186 554 175 Q554 169 532 161 Q515 156 515 144 L515 93 L710 93 Q723 108 734 124 Q746 140 753 140 Q762 140 789 115 Q820 87 820 82 Q820 66 800 66 L515 66 L515 -78 L832 -78 Q846 -61 857 -42 Q871 -24 878 -24 Q888 -24 917 -52 Q953 -84 953 -90 Q953 -106 929 -106 L148 -106 Q85 -106 62 -114 L46 -71 Q81 -78 148 -78 L476 -78 L476 66 L273 66 Q210 66 187 58 L171 101 Z" /><glyph glyph-name="" unicode="&#x57ce;" d="M46 468 Q81 461 148 461 L183 461 L183 582 Q183 672 175 722 Q217 714 244 709 Q269 705 269 695 Q269 687 244 679 Q226 674 226 660 L226 461 L273 461 Q283 471 292 484 Q302 496 308 496 Q315 496 337 476 Q363 453 363 449 Q363 433 347 433 L226 433 L226 142 Q280 160 347 187 L355 175 Q219 102 143 76 Q93 59 93 50 Q93 27 85 27 Q75 27 65 49 Q50 79 42 97 Q87 102 147 118 Q165 123 183 128 L183 433 L148 433 Q85 433 62 425 L46 468 ZM886 586 Q893 586 916 564 Q945 536 945 531 Q945 515 929 515 L694 515 Q696 426 702 363 Q718 242 749 153 Q754 160 757 167 Q813 279 835 414 Q898 390 910 384 Q927 379 929 367 Q929 360 899 356 Q876 351 875 340 Q820 199 765 112 Q798 34 839 -20 Q880 -71 890 -71 Q897 -71 902 -53 Q919 7 937 74 L949 74 Q933 -54 933 -78 Q933 -95 941 -110 Q949 -121 949 -125 Q949 -137 929 -137 Q898 -137 852 -93 Q791 -33 743 69 Q741 73 741 75 Q724 51 707 33 Q611 -72 437 -149 L425 -137 Q526 -87 608 -23 Q676 37 725 113 Q690 205 674 301 Q655 399 650 515 L417 515 L417 390 Q417 370 416 351 L539 351 Q544 360 549 364 Q559 379 562 379 Q570 379 594 360 Q617 342 617 336 Q617 332 601 325 Q585 315 585 308 Q585 129 575 78 Q570 44 544 27 Q517 8 503 8 Q499 8 496 24 Q491 45 417 58 L421 74 Q463 66 503 66 Q521 66 529 72 Q536 77 540 116 Q546 185 546 324 L415 324 Q412 243 399 170 Q382 78 350 16 Q313 -55 226 -133 L214 -121 Q289 -45 320 25 Q348 85 363 175 Q378 279 378 390 L378 472 Q378 540 367 574 L420 543 L649 543 Q648 574 648 605 Q648 685 640 738 Q671 733 702 724 Q730 719 730 711 Q730 704 711 700 Q693 695 691 683 Q691 607 693 543 L847 543 Q847 543 862 563 Q878 586 886 586 ZM757 707 Q808 680 831 660 Q851 641 851 629 Q851 611 847 602 Q839 593 832 593 Q818 594 812 609 Q799 640 788 655 Q777 671 750 695 L757 707 Z" /><glyph glyph-name="" unicode="&#x5854;" d="M42 449 Q77 441 144 441 L171 441 L171 570 Q171 653 164 699 Q202 691 227 685 Q250 682 250 672 Q250 665 227 657 Q210 653 210 640 L210 441 L265 441 Q275 452 284 464 Q294 476 300 476 Q307 476 329 456 Q355 434 355 429 Q355 414 339 414 L210 414 L210 97 Q272 124 351 168 L359 156 Q221 62 144 29 Q93 8 93 -4 Q93 -28 85 -28 Q75 -28 65 -6 Q50 25 42 43 Q88 49 148 71 Q160 75 171 80 L171 414 L144 414 Q82 414 58 406 L42 449 ZM285 617 Q319 609 386 609 L468 609 L468 648 Q468 712 457 738 Q531 724 531 724 Q554 721 554 711 Q554 701 531 696 Q511 690 511 679 L511 609 L683 609 L683 644 Q683 708 671 734 Q746 720 746 720 Q769 717 769 707 Q769 697 746 692 Q726 686 726 675 L726 609 L839 609 Q850 620 858 632 Q869 644 875 644 Q881 644 903 624 Q929 602 929 597 Q929 582 914 582 L726 582 L726 500 Q726 484 703 478 Q695 476 691 476 Q679 476 679 496 Q679 519 683 544 L683 582 L511 582 L511 496 Q511 480 488 474 Q480 472 476 472 Q464 472 464 492 Q464 516 468 541 L468 582 L386 582 Q324 582 300 574 L285 617 ZM574 527 Q606 514 632 503 Q644 498 644 492 Q644 487 628 484 Q619 482 613 480 Q672 393 748 343 Q806 302 960 254 L960 238 Q920 238 907 222 Q899 211 894 211 Q875 211 767 285 Q653 367 599 471 Q598 469 597 468 Q528 372 454 313 Q366 247 269 203 L265 215 Q387 282 453 353 Q512 410 574 527 ZM437 269 Q471 261 539 261 L644 261 Q656 274 665 287 Q676 300 683 300 Q690 300 714 279 Q742 255 742 250 Q742 234 722 234 L539 234 Q476 234 453 226 L437 269 ZM394 168 Q426 157 451 133 L722 133 Q724 133 736 147 Q752 164 757 164 Q765 164 791 137 Q812 115 812 109 Q812 104 791 93 Q777 84 777 78 Q777 -35 781 -137 Q781 -144 766 -149 Q755 -152 753 -153 Q734 -153 734 -137 L734 -110 L451 -110 L453 -137 Q453 -148 432 -153 Q419 -157 414 -157 Q402 -157 402 -137 L406 -78 L406 70 Q406 123 394 168 ZM449 -82 L734 -82 L734 105 L449 105 L449 -82 Z" /><glyph glyph-name="" unicode="&#x58f0;" d="M792 394 Q800 394 826 368 Q847 346 847 340 Q847 335 827 324 Q812 314 812 308 Q812 216 816 133 Q816 126 801 121 Q790 117 789 117 Q769 117 769 133 L769 164 L189 164 Q183 57 163 10 Q138 -67 66 -141 L50 -133 Q108 -60 129 15 Q152 79 152 254 Q152 336 140 398 Q170 381 193 363 L757 363 Q759 363 771 378 Q787 394 792 394 ZM191 336 L191 254 Q191 220 190 191 L484 191 L484 336 L191 336 ZM519 336 L519 191 L769 191 L769 336 L519 336 ZM74 636 Q108 629 175 629 L468 629 Q467 700 460 742 Q502 734 529 728 Q554 725 554 715 Q554 707 529 699 Q511 694 511 679 L511 629 L816 629 Q830 644 841 662 Q855 679 863 679 Q872 679 900 653 Q933 623 933 617 Q933 601 914 601 L511 601 L511 488 L742 488 Q754 503 765 519 Q777 535 785 535 Q793 535 820 510 Q851 482 851 476 Q851 461 832 461 L253 461 Q191 461 167 453 L152 496 Q186 488 253 488 L468 488 L468 601 L175 601 Q113 601 89 593 L74 636 Z" /><glyph glyph-name="" unicode="&#x5934;" d="M46 324 Q81 316 148 316 L462 316 Q492 454 492 629 Q492 692 488 738 Q549 724 549 724 Q581 720 581 711 Q581 700 557 697 Q538 691 538 683 Q538 465 509 316 L820 316 Q835 333 847 352 Q862 371 871 371 Q880 371 912 342 Q949 311 949 304 Q949 289 925 289 L503 289 Q497 265 489 242 Q698 136 862 -20 Q898 -63 898 -93 Q898 -120 878 -120 Q858 -118 847 -101 Q644 134 482 222 Q454 159 415 107 Q304 -44 75 -133 L63 -121 Q174 -71 256 -6 Q334 59 384 134 Q438 216 455 289 L148 289 Q85 289 62 281 L46 324 ZM144 531 Q263 490 300 456 Q324 434 324 410 Q323 383 304 383 Q292 383 270 412 Q238 461 136 519 L144 531 ZM207 691 Q333 647 372 610 Q398 585 398 558 Q397 531 378 531 Q366 531 342 563 Q307 616 199 679 L207 691 Z" /><glyph glyph-name="" unicode="&#x597d;" d="M214 722 Q245 716 280 707 Q300 702 300 695 Q300 687 278 684 Q259 680 257 672 Q241 583 224 504 L332 504 Q339 511 351 524 Q359 531 363 531 Q370 531 393 506 Q410 485 410 480 Q410 472 399 468 Q387 463 378 457 Q366 380 353 320 L617 320 L617 383 Q617 458 609 496 Q647 488 662 485 Q742 545 824 636 L566 636 Q456 636 402 629 L382 675 Q470 664 566 664 L820 664 Q830 677 838 692 Q849 703 851 703 Q859 703 896 665 Q925 634 925 625 Q925 613 863 613 Q792 554 685 480 Q699 475 699 468 Q699 462 674 455 Q660 449 660 441 L660 320 L832 320 Q832 320 852 345 Q872 375 882 375 Q890 375 920 348 Q957 315 957 308 Q957 293 941 293 L660 293 L660 -55 Q660 -94 638 -118 Q608 -149 582 -149 Q576 -149 570 -125 Q563 -97 460 -82 L460 -67 Q520 -75 593 -75 Q617 -75 617 -55 L617 293 L347 293 Q329 208 308 156 Q297 124 284 98 Q316 78 338 61 Q394 14 394 -16 Q394 -33 390 -42 Q382 -51 375 -51 Q361 -51 355 -35 Q309 37 270 69 Q246 23 217 -18 Q158 -93 62 -145 L54 -133 Q153 -59 206 24 Q226 58 241 92 Q202 122 137 159 Q129 134 121 109 Q114 97 101 97 Q92 97 83 101 Q74 105 74 113 Q138 283 178 476 Q103 475 70 468 L50 511 Q102 507 184 504 Q207 605 214 722 ZM141 173 Q205 143 251 117 Q272 164 287 212 Q314 305 335 476 L218 476 Q183 313 141 173 Z" /><glyph glyph-name="" unicode="&#x5b50;" d="M156 683 Q243 672 339 672 L757 672 Q769 682 778 695 Q791 703 792 703 Q800 703 839 663 Q871 631 871 621 Q871 609 800 609 Q703 545 552 461 Q558 458 558 453 Q558 446 531 439 Q515 433 515 425 L515 316 L812 316 Q827 333 839 352 Q854 371 863 371 Q873 371 904 342 Q941 311 941 304 Q941 289 917 289 L515 289 L515 -55 Q515 -95 492 -121 Q461 -153 433 -153 Q426 -153 419 -129 Q410 -101 285 -86 L285 -71 Q357 -75 445 -75 Q468 -75 468 -55 L468 289 L156 289 Q93 289 70 281 L54 324 Q88 316 156 316 L468 316 L468 359 Q468 442 460 484 Q513 473 524 470 Q641 536 761 644 L339 644 Q229 644 175 636 L156 683 Z" /><glyph glyph-name="" unicode="&#x5b62;" d="M54 675 Q114 668 214 668 L351 668 Q362 674 373 685 Q381 691 386 691 Q392 691 417 672 Q449 645 449 636 Q449 629 398 629 L360 596 Q320 556 269 523 Q289 518 289 511 Q289 505 264 498 Q250 492 250 484 L250 323 Q320 342 406 371 L414 359 Q319 318 250 292 L250 -63 Q250 -96 231 -118 Q206 -145 183 -145 Q178 -145 173 -124 Q167 -99 78 -86 L78 -75 Q129 -78 191 -78 Q210 -78 210 -63 L210 278 Q177 267 151 260 Q89 243 89 234 Q89 211 82 211 Q71 211 62 233 Q46 263 39 281 Q93 286 165 302 Q186 306 210 312 L210 433 Q210 501 207 535 Q236 529 250 527 Q300 568 351 640 L214 640 Q116 640 74 633 L54 675 ZM511 730 Q549 716 580 704 Q593 698 593 691 Q593 685 575 682 Q546 677 539 664 Q521 615 505 578 L832 578 Q837 586 845 599 Q857 613 863 613 Q873 613 900 589 Q925 565 925 554 Q925 549 909 541 Q892 533 890 523 Q890 300 872 207 Q858 136 844 113 Q831 90 801 73 Q770 58 750 58 Q741 58 734 74 Q730 99 656 117 L656 133 Q715 121 750 121 Q777 121 789 126 Q804 131 814 160 Q830 193 836 276 Q847 378 847 550 L492 550 Q480 527 470 510 Q429 445 382 402 L375 414 Q428 482 458 554 Q484 612 511 730 ZM664 445 Q670 445 693 425 Q714 409 714 402 Q714 395 703 386 Q691 376 691 371 L691 249 Q691 220 695 179 Q695 168 679 163 Q666 160 660 160 Q648 160 648 179 Q649 187 650 195 L492 195 L492 -35 Q492 -60 499 -70 Q510 -82 678 -82 Q855 -82 879 -66 Q897 -56 900 1 Q906 50 910 93 L925 93 L925 10 Q925 -50 939 -59 Q953 -73 953 -82 Q953 -94 937 -101 Q909 -117 733 -117 Q486 -117 465 -100 Q453 -88 453 -35 L453 336 Q453 407 449 445 Q471 432 490 418 L636 418 Q641 423 649 432 Q660 445 664 445 ZM492 390 L492 222 L652 222 L652 390 L492 390 Z" /><glyph glyph-name="" unicode="&#x5b88;" d="M390 742 Q496 707 529 677 Q550 658 550 636 Q550 601 527 601 Q517 601 497 628 Q470 673 382 726 L390 742 ZM179 640 Q179 613 178 590 L847 590 Q855 595 861 609 Q876 625 878 625 Q891 625 922 599 Q953 571 953 562 Q953 551 923 550 Q900 545 894 543 L800 453 L792 465 Q819 500 851 562 L176 562 Q171 505 159 481 Q145 453 109 445 Q82 445 82 476 Q138 544 145 577 Q160 603 160 636 L179 640 ZM46 351 Q81 343 148 343 L656 343 L656 394 Q656 477 648 519 Q718 505 718 505 Q746 499 746 488 Q746 481 719 474 Q703 468 703 461 L703 343 L832 343 Q846 359 857 377 Q871 394 878 394 Q887 394 916 367 Q949 338 949 332 Q949 316 929 316 L703 316 L703 -59 Q703 -97 675 -122 Q638 -153 605 -153 Q599 -153 592 -127 Q583 -98 460 -82 L460 -67 Q538 -78 632 -78 Q656 -78 656 -59 L656 316 L148 316 Q85 316 62 308 L46 351 ZM261 242 Q350 181 391 136 Q425 93 425 66 Q425 45 420 34 Q411 23 402 23 Q383 24 375 47 Q349 113 327 144 Q305 178 250 230 L261 242 Z" /><glyph glyph-name="" unicode="&#x5b9a;" d="M398 742 Q491 711 520 684 Q539 667 539 648 Q538 617 519 617 Q510 617 493 641 Q468 682 390 730 L398 742 ZM160 660 L183 660 Q183 627 181 601 L835 601 Q843 605 850 614 Q865 625 867 625 Q879 625 908 601 Q937 574 937 566 Q937 558 908 556 Q885 552 878 550 L804 472 L796 480 Q816 514 839 574 L179 574 Q175 542 168 523 Q159 489 138 471 Q122 457 109 457 Q86 459 85 472 Q85 483 104 503 Q129 530 143 562 Q157 590 160 660 ZM148 429 Q182 422 250 422 L730 422 Q743 436 753 452 Q766 468 773 468 Q781 468 808 444 Q839 415 839 410 Q839 394 820 394 L523 394 L523 211 L726 211 Q726 211 743 232 Q760 258 769 258 Q776 258 801 234 Q832 205 832 199 Q832 183 816 183 L523 183 L523 -53 Q598 -67 725 -67 Q835 -67 941 -55 L941 -67 Q900 -80 894 -102 Q894 -114 871 -114 Q626 -114 547 -95 Q470 -83 408 -49 Q351 -20 319 26 Q292 58 269 120 Q245 59 218 20 Q154 -71 58 -137 L50 -125 Q121 -63 167 1 Q208 58 231 123 Q253 184 273 316 Q336 294 336 294 Q355 289 355 281 Q355 275 342 272 Q312 265 312 258 Q296 193 278 144 Q306 74 352 29 Q396 -17 476 -41 Q478 -42 480 -42 L480 394 L250 394 Q187 394 164 386 L148 429 Z" /><glyph glyph-name="" unicode="&#x5bb6;" d="M410 746 Q500 716 528 691 Q546 674 546 656 Q546 621 523 621 Q514 621 498 644 Q475 684 402 730 L410 746 ZM156 664 L179 664 Q179 633 178 609 L832 609 Q839 613 846 624 Q861 636 863 636 Q875 636 906 611 Q937 583 937 574 Q937 563 908 561 Q885 557 878 554 L804 496 L796 508 Q814 534 835 582 L176 582 Q171 545 164 524 Q154 490 132 471 Q115 457 101 457 Q75 459 74 476 Q74 487 94 507 Q123 533 137 566 Q152 593 156 664 ZM164 484 Q198 476 265 476 L707 476 Q718 488 728 502 Q739 515 746 515 Q753 515 776 494 Q804 469 804 465 Q804 449 785 449 L531 449 Q492 417 453 393 Q506 347 532 298 Q548 270 558 239 Q645 282 682 314 Q723 340 761 402 Q790 388 817 375 Q832 367 832 359 Q832 352 820 349 Q778 349 777 343 Q723 297 639 257 Q662 192 700 140 Q738 91 798 43 Q857 -5 941 -32 L941 -47 Q909 -47 895 -63 Q884 -75 882 -75 Q873 -75 829 -42 Q789 -16 750 28 Q713 64 682 112 Q648 165 622 249 Q593 236 562 224 Q567 210 569 197 Q578 146 578 86 Q578 -4 555 -64 Q541 -105 510 -130 Q481 -153 460 -153 Q454 -153 445 -137 Q433 -115 335 -94 L339 -75 Q429 -86 468 -86 Q481 -86 494 -75 Q510 -60 520 -22 Q535 20 535 86 Q535 125 532 160 Q437 60 355 15 Q237 -55 70 -102 L62 -82 Q228 -30 345 50 Q428 104 524 220 Q518 254 504 284 Q402 208 305 164 Q208 117 85 82 L78 93 Q195 134 289 187 Q383 238 482 327 Q464 355 438 384 Q399 361 360 344 Q247 293 109 261 L101 281 Q221 310 319 356 Q396 391 465 449 L265 449 Q203 449 179 441 L164 484 Z" /><glyph glyph-name="" unicode="&#x5bfc;" d="M730 738 Q738 738 764 712 Q785 690 785 683 Q785 678 764 668 Q750 658 750 652 Q750 551 753 461 Q753 454 739 449 Q728 446 726 445 Q707 445 707 461 L707 492 L214 492 L214 343 Q214 323 226 313 Q241 304 279 304 L676 304 Q780 304 805 314 Q825 323 836 379 Q842 425 847 461 L863 461 L863 381 Q863 333 886 323 Q910 314 910 304 Q910 290 884 282 Q849 269 781 269 L264 269 Q211 269 192 284 Q171 300 171 343 L171 636 Q171 699 164 738 Q202 716 221 699 L695 699 Q696 699 709 717 Q725 738 730 738 ZM214 672 L214 519 L707 519 L707 672 L214 672 ZM54 156 Q88 148 156 148 L664 148 Q663 212 656 246 Q720 233 720 233 Q746 228 746 218 Q746 212 721 205 Q707 199 707 191 L707 148 L835 148 Q848 163 859 179 Q871 195 878 195 Q887 195 914 170 Q945 142 945 136 Q945 121 925 121 L707 121 L707 -75 Q707 -107 685 -127 Q655 -153 628 -153 Q622 -153 616 -132 Q607 -107 492 -94 L492 -82 Q561 -90 644 -90 Q664 -90 664 -75 L664 121 L156 121 Q93 121 70 113 L54 156 ZM320 105 Q388 68 418 39 Q445 13 445 -4 Q445 -22 441 -31 Q433 -39 425 -39 Q412 -39 406 -24 Q387 19 370 38 Q354 60 312 93 L320 105 Z" /><glyph glyph-name="" unicode="&#x5c04;" d="M253 730 Q312 712 312 712 Q332 705 332 695 Q332 690 313 686 Q294 681 292 679 Q273 642 240 605 L378 605 Q378 605 389 619 Q399 633 406 633 Q412 633 436 614 Q457 597 457 590 Q457 584 440 573 Q425 564 425 554 L425 232 Q447 262 468 293 Q494 277 516 259 Q527 252 527 242 Q527 241 519 238 Q499 239 480 242 Q451 203 425 174 L425 -71 Q425 -110 385 -131 Q354 -149 343 -149 Q338 -149 333 -132 Q326 -107 234 -90 L238 -75 Q319 -82 371 -82 Q386 -82 386 -51 L386 130 Q344 85 309 59 Q220 -17 42 -86 L35 -71 Q134 -35 267 65 Q326 110 386 183 L386 193 Q235 150 150 134 Q89 123 89 117 Q89 93 82 93 Q71 93 62 115 Q46 146 39 164 Q80 166 132 171 L132 570 Q132 605 128 633 Q155 623 182 605 L219 605 Q248 665 253 730 ZM171 176 Q257 187 386 209 L386 304 L171 304 L171 176 ZM171 332 L386 332 L386 445 L171 445 L171 332 ZM171 472 L386 472 L386 578 L171 578 L171 472 ZM464 484 Q499 476 566 476 L773 476 L773 613 Q773 688 765 726 Q830 714 830 714 Q855 708 855 699 Q855 692 831 685 Q816 679 816 672 L816 476 L847 476 Q860 489 871 505 Q883 519 890 519 Q898 519 923 496 Q953 470 953 465 Q953 449 933 449 L816 449 L816 -63 Q816 -98 791 -120 Q756 -149 726 -149 Q720 -149 714 -126 Q706 -100 597 -86 L597 -71 Q668 -78 753 -78 Q773 -78 773 -63 L773 449 L566 449 Q503 449 480 441 L464 484 ZM554 343 Q624 280 656 233 Q683 188 683 160 Q683 140 678 131 Q669 121 660 121 Q644 121 636 140 Q617 210 601 241 Q584 278 542 332 L554 343 Z" /><glyph glyph-name="" unicode="&#x5c38;" d="M855 703 Q863 703 889 676 Q910 655 910 648 Q910 643 885 633 Q867 623 867 617 Q867 473 871 343 Q871 337 856 332 Q845 328 843 328 Q824 328 824 343 L824 394 L236 394 Q229 193 201 109 Q167 -23 74 -149 L58 -141 Q136 -16 164 113 Q195 222 195 523 Q195 630 183 711 Q217 692 243 672 L820 672 Q821 672 834 686 Q850 703 855 703 ZM238 644 L238 523 Q238 468 237 422 L824 422 L824 644 L238 644 Z" /><glyph glyph-name="" unicode="&#x5dee;" d="M292 718 Q345 688 369 664 Q390 643 390 629 Q390 609 385 599 Q376 590 367 590 Q351 590 343 609 Q331 645 319 661 Q309 679 281 707 L292 718 ZM640 722 Q713 695 713 695 Q730 689 730 679 Q730 670 702 670 Q675 670 671 664 Q648 625 615 586 L796 586 Q809 600 820 616 Q832 633 839 633 Q848 633 875 608 Q906 579 906 574 Q906 558 886 558 L519 558 L519 449 L734 449 Q747 462 757 477 Q770 492 777 492 Q785 492 810 468 Q839 443 839 437 Q839 422 820 422 L519 422 L519 304 L835 304 Q848 319 859 335 Q871 351 878 351 Q887 351 914 326 Q945 298 945 293 Q945 277 925 277 L329 277 Q306 140 238 40 Q166 -67 50 -157 L39 -145 Q139 -57 200 47 Q259 145 279 277 L156 277 Q93 277 70 269 L54 312 Q88 304 156 304 L476 304 L476 422 L277 422 Q214 422 191 414 L175 457 Q209 449 277 449 L476 449 L476 558 L175 558 Q113 558 89 550 L74 593 Q108 586 175 586 L591 586 Q606 611 615 637 Q629 671 640 722 ZM324 152 Q358 144 425 144 L714 144 Q727 159 738 175 Q750 191 757 191 Q766 191 792 166 Q824 138 824 133 Q824 117 804 117 L582 117 L582 -86 L824 -86 Q838 -71 849 -53 Q863 -35 871 -35 Q879 -35 908 -62 Q941 -92 941 -98 Q941 -114 921 -114 L292 -114 Q230 -114 207 -121 L191 -78 Q225 -86 292 -86 L535 -86 L535 117 L425 117 Q363 117 339 109 L324 152 Z" /><glyph glyph-name="" unicode="&#x5e02;" d="M394 742 Q472 707 508 681 Q539 656 539 640 Q539 619 534 608 Q524 597 515 597 Q497 598 488 621 Q466 661 448 679 Q429 699 382 730 L394 742 ZM46 593 Q81 586 148 586 L835 586 Q848 600 859 616 Q871 633 878 633 Q887 633 914 608 Q945 579 945 574 Q945 558 925 558 L148 558 Q85 558 62 550 L46 593 ZM160 422 Q192 409 218 386 L472 386 L472 429 Q472 492 468 535 Q492 530 543 521 Q554 517 554 511 Q554 504 534 498 Q519 492 519 480 L519 386 L781 386 Q781 386 793 400 Q805 414 812 414 Q819 414 845 393 Q867 375 867 367 Q867 361 848 348 Q832 338 832 328 L832 31 Q832 -12 790 -35 Q757 -55 746 -55 Q740 -55 734 -37 Q727 -10 621 8 L625 23 Q716 15 773 15 Q789 15 789 50 L789 359 L519 359 L519 -133 Q519 -143 501 -149 Q490 -153 480 -153 Q468 -153 468 -129 Q468 -70 472 0 L472 359 L214 359 L214 4 L218 -55 Q218 -66 198 -71 Q185 -75 179 -75 Q167 -75 167 -55 L171 4 L171 324 Q171 377 160 422 Z" /><glyph glyph-name="" unicode="&#x5e1d;" d="M390 742 Q483 712 512 687 Q531 670 531 652 Q530 617 507 617 Q499 617 482 640 Q458 680 382 726 L390 742 ZM58 617 Q92 609 160 609 L832 609 Q844 624 855 640 Q867 656 875 656 Q883 656 910 631 Q941 603 941 597 Q941 582 921 582 L160 582 Q97 582 74 574 L58 617 ZM312 566 Q358 532 379 507 Q398 484 398 468 Q398 451 394 442 Q386 433 378 433 Q365 434 359 449 Q348 488 338 505 Q328 525 304 554 L312 566 ZM652 566 Q714 544 714 544 Q731 539 730 531 Q730 525 712 521 L687 515 Q643 451 603 410 L843 410 Q851 414 857 423 Q873 433 875 433 Q887 433 916 409 Q945 383 945 375 Q945 366 916 364 Q893 361 886 359 L796 289 L789 297 Q815 327 847 383 L168 383 Q164 341 156 319 Q146 286 124 268 Q107 254 93 254 Q71 256 70 269 Q70 280 89 299 Q116 325 130 357 Q145 384 148 453 L171 453 Q171 429 170 410 L579 410 Q619 467 652 566 ZM210 277 Q242 266 268 242 L468 242 L468 265 Q468 321 464 359 Q485 355 533 345 Q542 342 542 336 Q542 329 524 323 Q511 319 511 308 L511 242 L722 242 Q722 242 734 256 Q747 269 753 269 Q760 269 786 249 Q808 230 808 222 Q808 217 790 204 Q773 194 773 183 L773 -8 Q773 -45 738 -66 Q712 -82 703 -82 Q698 -82 692 -66 Q687 -43 597 -28 L601 -12 Q671 -20 714 -20 Q730 -20 730 11 L730 215 L511 215 L511 -137 Q511 -145 493 -150 Q482 -153 472 -153 Q464 -153 464 -129 Q464 -75 468 -12 L468 215 L265 215 L265 -4 L269 -63 Q269 -74 249 -79 Q236 -82 230 -82 Q218 -82 218 -63 L222 -4 L222 179 Q222 232 210 277 Z" /><glyph glyph-name="" unicode="&#x5e45;" d="M85 574 Q112 565 134 547 L214 547 L214 656 Q214 715 207 738 Q275 726 275 726 Q296 723 296 715 Q296 706 273 702 Q253 696 253 687 L253 547 L324 547 Q324 547 334 558 Q345 570 351 570 Q357 570 381 551 Q402 534 402 527 Q402 522 385 510 Q371 501 371 492 L371 125 Q371 90 344 71 Q323 54 316 54 Q312 54 309 70 Q305 89 253 102 L253 -133 Q253 -149 233 -155 Q226 -157 222 -157 Q210 -157 210 -137 Q210 -53 214 37 L214 519 L132 519 L132 109 L136 58 Q136 47 118 42 Q106 39 101 39 Q89 39 89 58 L93 109 L93 484 Q93 533 85 574 ZM253 519 L253 116 Q294 113 320 113 Q332 113 332 140 L332 519 L253 519 ZM394 683 Q428 675 496 675 L835 675 Q848 690 859 706 Q871 722 878 722 Q887 722 914 697 Q945 669 945 664 Q945 648 925 648 L496 648 Q433 648 410 640 L394 683 ZM480 582 Q507 573 530 554 L789 554 Q790 554 801 568 Q815 582 820 582 Q827 582 851 559 Q871 540 871 535 Q871 530 850 519 Q835 509 835 504 Q835 413 839 332 Q839 325 827 320 Q817 317 816 316 Q796 316 796 332 L796 367 L529 367 L531 336 Q531 324 512 320 Q501 316 496 316 Q484 316 484 336 L488 386 L488 492 Q488 541 480 582 ZM527 394 L796 394 L796 527 L527 527 L527 394 ZM417 308 Q449 297 475 273 L835 273 Q837 273 850 286 Q865 300 871 300 Q878 300 904 274 Q925 252 925 246 Q925 241 905 230 Q890 220 890 215 Q890 31 894 -133 Q894 -140 879 -145 Q868 -148 867 -149 Q847 -149 847 -133 L847 -90 L473 -90 L476 -129 Q476 -140 456 -145 Q443 -149 437 -149 Q425 -149 425 -129 L429 -71 L429 211 Q429 263 417 308 ZM472 -63 L636 -63 L636 86 L472 86 L472 -63 ZM675 -63 L847 -63 L847 86 L675 86 L675 -63 ZM472 113 L636 113 L636 246 L472 246 L472 113 ZM675 246 L675 113 L847 113 L847 246 L675 246 Z" /><glyph glyph-name="" unicode="&#x5e73;" d="M97 675 Q177 667 281 664 L808 664 Q821 679 837 700 Q850 715 855 715 Q863 715 871 705 Q889 688 911 666 Q921 655 921 652 Q921 636 910 636 L523 636 L523 242 L832 242 Q845 257 860 278 Q874 293 878 293 Q887 293 895 283 Q912 266 934 244 Q945 234 945 230 Q945 215 933 215 L523 215 L523 11 L527 -121 Q527 -141 515 -147 Q500 -157 488 -157 Q472 -157 472 -121 L476 11 L476 215 L230 215 Q106 215 70 207 L46 254 Q126 245 230 242 L476 242 L476 636 L281 636 Q157 636 121 629 L97 675 ZM214 578 Q286 501 319 443 Q347 389 347 355 Q347 336 342 326 Q333 316 324 316 Q308 317 300 336 Q280 420 263 457 Q246 501 203 566 L214 578 ZM742 582 Q811 557 811 557 Q830 551 828 543 Q828 537 809 533 L781 527 Q708 376 640 289 L628 297 Q690 393 742 582 Z" /><glyph glyph-name="" unicode="&#x5e97;" d="M433 742 Q497 711 525 688 Q550 666 550 652 Q550 633 545 623 Q536 613 527 613 Q511 613 503 633 Q486 668 472 684 Q458 702 421 730 L433 742 ZM882 652 Q889 652 916 629 Q949 599 949 593 Q949 578 933 578 L203 578 L203 468 Q203 210 169 117 Q139 5 54 -102 L39 -94 Q108 11 132 121 Q160 214 160 468 Q160 568 148 644 Q182 625 207 605 L835 605 Q835 605 854 627 Q873 652 882 652 ZM492 558 Q534 550 561 545 Q585 541 585 531 Q585 523 561 515 Q542 510 542 496 L542 394 L796 394 Q796 394 815 416 Q834 441 843 441 Q850 441 877 418 Q910 388 910 383 Q910 367 894 367 L542 367 L542 195 L765 195 Q767 195 779 210 Q795 226 800 226 Q808 226 834 200 Q855 178 855 172 Q855 167 832 156 Q816 146 816 140 Q816 -4 820 -133 Q820 -140 805 -145 Q794 -148 792 -149 Q773 -149 773 -133 L773 -75 L343 -75 L347 -133 Q347 -144 327 -149 Q314 -153 308 -153 Q296 -153 296 -133 L300 -75 L300 133 Q300 185 289 230 Q320 219 346 195 L500 195 L500 418 Q500 508 492 558 ZM343 -47 L773 -47 L773 168 L343 168 L343 -47 Z" /><glyph glyph-name="" unicode="&#x5f00;" d="M117 664 Q151 656 218 656 L777 656 Q790 671 800 687 Q812 703 820 703 Q828 703 855 678 Q886 650 886 644 Q886 629 867 629 L683 629 L683 316 L828 316 Q840 331 851 347 Q863 363 871 363 Q879 363 906 338 Q937 310 937 304 Q937 289 917 289 L683 289 L683 19 L687 -114 Q687 -134 675 -139 Q660 -149 648 -149 Q632 -149 632 -114 L636 19 L636 289 L370 289 Q364 216 349 161 Q329 71 277 -2 Q229 -80 121 -149 L109 -137 Q203 -70 244 7 Q288 78 305 166 Q318 220 324 289 L171 289 Q109 289 85 281 L70 324 Q104 316 171 316 L325 316 Q328 358 328 402 L328 629 L218 629 Q156 629 132 621 L117 664 ZM636 316 L636 629 L375 629 L375 402 Q375 355 372 316 L636 316 Z" /><glyph glyph-name="" unicode="&#x5f53;" d="M433 730 Q475 722 502 717 Q527 713 527 703 Q527 695 502 687 Q484 682 484 668 L484 367 L781 367 Q794 386 805 397 Q813 406 816 406 Q824 406 851 384 Q875 367 875 355 Q875 350 857 342 Q835 335 835 324 Q835 82 843 -129 Q843 -133 837 -139 Q830 -145 812 -149 Q793 -149 792 -129 L792 -90 L218 -90 Q151 -90 101 -102 L85 -51 Q133 -63 218 -63 L792 -63 L792 125 L265 125 Q198 125 148 113 L132 164 Q180 152 265 152 L792 152 L792 340 L242 340 Q156 340 117 332 L97 375 Q141 367 242 367 L441 367 L441 590 Q441 679 433 730 ZM144 636 Q231 570 270 521 Q304 474 304 445 Q304 425 299 416 Q290 406 281 406 Q265 406 257 425 Q232 498 210 531 Q188 568 132 625 L144 636 ZM789 586 Q708 476 632 406 L625 418 Q699 505 761 656 Q798 635 826 616 Q843 604 843 597 Q841 588 832 586 L789 586 Z" /><glyph glyph-name="" unicode="&#x5f55;" d="M191 691 Q217 683 355 683 L664 683 Q666 683 675 694 Q696 715 703 715 Q710 715 738 691 Q761 664 761 660 Q761 652 736 642 Q714 634 714 633 L667 418 L839 418 Q854 433 865 451 Q878 468 886 468 Q895 468 923 442 Q957 412 957 406 Q957 390 937 390 L518 390 Q570 275 635 195 Q714 250 781 336 Q814 316 839 299 Q855 287 855 281 Q853 275 843 273 L808 273 Q723 220 644 184 Q664 158 686 137 Q756 64 945 -24 L945 -43 Q899 -43 885 -59 Q876 -71 871 -71 Q847 -71 712 56 Q578 187 511 354 L511 -67 Q511 -109 482 -131 Q459 -149 449 -149 Q433 -149 429 -129 Q417 -105 320 -90 L324 -75 L429 -86 Q468 -86 468 -63 L468 169 Q293 72 148 4 Q145 0 145 -24 Q148 -47 136 -47 Q130 -47 105 -14 Q78 25 78 27 Q273 98 468 193 L468 390 L144 390 Q82 390 58 383 L42 425 Q77 418 144 418 L620 418 L646 523 L339 523 Q272 523 222 511 L207 562 Q254 550 339 550 L653 550 L679 660 L355 660 Q245 660 203 652 L191 691 ZM179 324 Q264 289 302 263 Q335 238 335 222 Q335 201 331 190 Q321 179 312 179 Q293 180 285 203 Q261 243 240 261 Q219 281 167 312 L179 324 Z" /><glyph glyph-name="" unicode="&#x5f85;" d="M234 730 Q272 711 300 694 Q312 688 312 679 Q310 672 294 672 Q265 670 261 664 Q212 588 164 538 Q112 487 58 453 L50 461 Q110 514 151 577 Q198 642 234 730 ZM265 547 Q305 526 335 508 Q347 502 347 492 Q345 484 328 484 Q297 483 292 476 Q256 409 222 357 L222 -39 Q222 -92 226 -137 Q226 -147 215 -151 Q196 -157 191 -157 Q180 -157 179 -141 Q180 -74 183 -39 L183 302 Q181 299 179 297 Q117 224 54 175 L42 183 Q115 256 165 340 Q221 427 265 547 ZM363 597 Q397 590 464 590 L589 590 L589 601 Q589 684 582 730 Q620 722 645 717 Q667 713 667 703 Q667 696 645 689 Q628 684 628 672 L628 590 L781 590 Q793 603 804 618 Q816 633 824 633 Q832 633 857 609 Q886 583 886 578 Q886 562 867 562 L628 562 L628 425 L820 425 Q833 439 843 454 Q855 468 863 468 Q871 468 896 445 Q925 419 925 414 Q925 398 906 398 L433 398 Q371 398 347 390 L332 433 Q366 425 433 425 L589 425 L589 562 L464 562 Q402 562 378 554 L363 597 ZM289 258 Q323 250 390 250 L722 250 L722 269 Q722 344 714 383 Q779 370 779 370 Q804 364 804 355 Q804 348 780 342 Q765 336 765 328 L765 250 L828 250 Q840 264 851 280 Q863 297 871 297 Q879 297 906 272 Q937 243 937 238 Q937 222 917 222 L765 222 L765 -59 Q765 -94 740 -116 Q706 -145 675 -145 Q669 -145 664 -124 Q655 -99 546 -86 L546 -71 Q617 -75 703 -75 Q722 -75 722 -59 L722 222 L390 222 Q328 222 304 215 L289 258 ZM441 179 Q504 132 533 97 Q558 64 558 43 Q558 21 553 10 Q544 0 535 0 Q516 0 507 23 Q491 76 478 100 Q464 127 429 168 L441 179 Z" /><glyph glyph-name="" unicode="&#x6001;" d="M46 582 Q81 574 148 574 L441 574 Q449 619 449 668 L441 738 Q480 732 515 726 Q535 722 535 715 Q535 707 521 703 Q497 695 496 691 Q496 628 486 574 L828 574 Q842 590 853 607 Q867 625 875 625 Q883 625 912 598 Q945 568 945 562 Q945 547 925 547 L508 547 Q552 458 608 396 Q668 337 754 292 Q831 254 949 226 L949 211 Q898 211 887 197 Q878 183 871 183 Q858 183 791 217 Q706 262 621 342 Q548 411 494 547 L481 547 Q454 433 382 360 Q301 253 50 183 L42 195 Q239 254 337 365 Q411 442 435 547 L148 547 Q85 547 62 539 L46 582 ZM433 332 Q507 297 541 271 Q570 246 570 230 Q570 211 565 201 Q556 191 546 191 Q530 192 523 211 Q502 251 484 269 Q466 289 421 320 L433 332 ZM207 133 L222 133 Q204 -14 172 -52 Q134 -98 101 -98 Q82 -98 82 -82 Q84 -69 97 -55 Q175 21 207 133 ZM312 156 Q345 150 369 145 Q398 138 398 129 Q398 120 378 113 Q363 106 363 90 L363 -43 Q363 -60 377 -71 Q397 -82 512 -82 Q626 -82 651 -75 Q675 -68 680 -7 Q687 30 691 86 L707 86 L707 -3 Q707 -62 726 -72 Q738 -78 738 -90 Q738 -106 702 -112 Q662 -121 512 -121 Q371 -121 346 -104 Q320 -85 320 -43 L320 90 Q320 117 312 156 ZM460 156 Q546 118 572 86 Q589 66 589 43 Q589 8 566 8 Q558 8 542 36 Q521 84 453 140 L460 156 ZM773 125 Q886 48 903 18 Q917 -4 917 -20 Q917 -59 890 -59 Q881 -59 864 -23 Q837 32 765 109 L773 125 Z" /><glyph glyph-name="" unicode="&#x606f;" d="M460 738 Q519 720 519 720 Q539 713 539 703 Q539 697 520 694 Q501 689 500 687 Q481 650 448 613 L718 613 Q720 613 732 630 Q748 648 753 648 Q761 648 787 622 Q808 600 808 593 Q808 589 788 578 Q773 568 773 562 Q773 363 777 183 Q777 176 762 172 Q751 168 750 168 Q730 168 730 183 L730 207 L271 207 L273 179 Q273 168 252 163 Q240 160 234 160 Q222 160 222 179 L226 238 L226 550 Q226 603 214 648 Q246 637 272 613 L426 613 Q455 673 460 738 ZM269 234 L730 234 L730 340 L269 340 L269 234 ZM269 367 L730 367 L730 468 L269 468 L269 367 ZM269 496 L730 496 L730 586 L269 586 L269 496 ZM171 105 L195 105 Q195 6 175 -37 Q163 -72 135 -91 Q114 -106 97 -106 Q75 -104 74 -90 Q74 -79 98 -58 Q132 -31 149 3 Q167 32 171 105 ZM304 148 Q337 142 361 137 Q390 130 390 121 Q390 112 371 105 Q355 98 355 82 L355 -63 Q355 -79 371 -91 Q393 -102 516 -102 Q640 -102 667 -95 Q693 -88 698 -28 Q706 8 710 62 L726 62 L726 -25 Q726 -82 745 -92 Q757 -98 757 -110 Q757 -125 719 -131 Q676 -141 516 -141 Q367 -141 340 -124 Q312 -105 312 -63 L312 82 Q312 109 304 148 ZM449 168 Q532 131 557 100 Q574 80 574 58 Q573 23 550 23 Q542 23 528 50 Q507 97 441 152 L449 168 ZM765 117 Q850 70 888 34 Q921 1 921 -20 Q921 -39 916 -49 Q907 -59 898 -59 Q882 -58 875 -39 Q850 13 829 37 Q807 64 753 105 L765 117 Z" /><glyph glyph-name="" unicode="&#x620f;" d="M58 636 Q111 632 195 629 L359 629 Q368 637 381 652 Q390 660 394 660 Q401 660 426 631 Q445 606 445 601 Q445 595 434 592 Q419 587 410 582 Q374 337 330 220 Q314 172 293 128 Q294 127 294 127 Q362 24 464 -24 L464 -39 Q429 -39 416 -55 Q406 -75 402 -75 Q392 -75 337 -7 Q298 37 272 84 Q252 46 229 12 Q162 -78 54 -141 L46 -129 Q157 -40 217 59 Q235 91 250 125 Q242 140 236 155 Q190 253 167 369 Q145 481 137 600 Q99 598 78 593 L58 636 ZM157 601 Q166 461 198 347 Q221 254 269 169 Q291 225 308 285 Q339 396 363 601 L157 601 ZM849 470 Q859 488 867 505 Q875 523 882 523 Q892 523 921 499 Q949 476 949 468 Q949 449 933 449 L643 426 Q646 385 650 352 Q669 236 706 149 Q787 264 824 390 Q862 372 894 353 Q910 346 910 340 Q910 326 879 326 Q857 326 855 324 Q793 194 725 109 Q767 27 820 -29 Q871 -78 882 -78 Q889 -78 894 -56 Q909 16 925 97 L941 97 Q929 -57 929 -86 Q929 -103 939 -117 Q949 -129 949 -133 Q949 -149 925 -149 Q889 -149 834 -105 Q762 -44 706 57 Q701 67 697 75 Q684 60 672 48 Q582 -49 421 -129 L414 -114 Q565 -23 663 93 Q672 104 679 113 Q641 200 624 289 Q609 353 602 423 L518 417 Q452 413 417 402 L394 441 L492 441 L599 450 Q593 519 593 593 Q593 673 585 726 Q616 721 647 713 Q675 708 675 699 Q675 693 657 689 Q638 683 636 672 Q636 545 641 453 L849 470 ZM722 687 Q805 652 831 622 Q847 603 847 582 Q847 547 824 547 Q816 547 801 573 Q780 618 714 672 L722 687 Z" /><glyph glyph-name="" unicode="&#x6210;" d="M875 597 Q882 597 910 572 Q945 541 945 535 Q945 519 929 519 L585 519 Q589 428 598 363 Q620 251 660 165 Q760 292 804 429 Q841 411 871 392 Q886 385 886 379 Q886 369 857 369 Q837 368 835 367 Q759 221 678 128 Q727 43 788 -13 Q846 -63 859 -63 Q868 -63 875 -44 Q897 17 921 86 L937 86 Q910 -46 910 -71 Q910 -89 917 -104 Q925 -117 925 -121 Q925 -137 902 -137 Q862 -137 802 -94 Q723 -33 662 68 Q655 82 648 94 Q630 75 614 60 Q506 -48 312 -137 L304 -121 Q490 -22 609 105 Q621 118 630 129 Q591 213 572 299 Q547 399 541 519 L195 519 L195 340 L402 340 Q409 346 415 354 Q422 363 429 363 Q435 363 459 342 Q484 321 484 308 Q484 304 473 301 Q446 294 445 285 Q438 197 426 113 Q421 71 398 40 Q379 10 339 0 Q333 0 329 13 Q322 33 290 40 Q267 46 230 54 L234 66 Q316 58 339 58 Q360 58 371 72 Q387 99 391 156 Q401 243 406 312 L194 312 Q189 131 167 57 Q143 -52 74 -157 L58 -149 Q112 -45 131 62 Q152 153 152 402 Q152 506 140 586 Q174 567 200 547 L540 547 Q539 574 539 601 Q539 681 531 734 Q562 729 593 720 Q621 716 621 707 Q621 700 602 696 Q583 691 582 679 Q582 607 584 547 L824 547 Q824 547 844 570 Q864 597 875 597 ZM679 711 Q747 682 778 661 Q804 641 804 629 Q804 609 799 599 Q790 590 781 590 Q765 590 757 609 Q739 642 723 657 Q707 674 667 699 L679 711 Z" /><glyph glyph-name="" unicode="&#x6212;" d="M46 574 Q81 566 148 566 L567 566 Q566 586 566 605 Q566 685 558 738 Q589 733 620 724 Q648 719 648 711 Q648 704 629 700 Q611 695 609 683 Q609 620 610 566 L828 566 Q842 582 853 599 Q867 617 875 617 Q883 617 912 590 Q945 560 945 554 Q945 539 925 539 L611 539 Q615 435 625 364 Q645 258 683 174 Q693 191 702 207 Q764 315 789 453 Q827 438 859 425 Q882 418 882 410 Q882 401 865 400 Q832 394 832 390 Q774 223 704 132 Q753 43 818 -17 Q877 -67 890 -67 Q895 -67 899 -46 Q912 24 925 101 L941 101 L941 -75 Q941 -93 949 -108 Q957 -121 957 -125 Q957 -141 933 -141 Q893 -141 833 -97 Q752 -36 690 66 Q682 81 675 95 Q619 28 560 -16 Q475 -83 316 -149 L308 -137 Q462 -61 560 27 Q614 72 656 133 Q618 216 600 300 Q573 407 567 539 L148 539 Q85 539 62 531 L46 574 ZM54 297 Q88 289 156 289 L218 289 L218 312 Q218 423 214 472 Q239 468 275 460 Q292 457 292 449 Q292 442 275 438 Q257 431 257 422 L257 312 Q257 300 256 289 L390 289 L390 402 Q390 436 382 472 Q405 465 439 457 Q468 452 468 445 Q468 437 452 430 Q433 426 433 418 L433 289 L480 289 Q490 301 499 315 Q509 328 515 328 Q522 328 546 306 Q574 282 574 277 Q574 261 558 261 L433 261 L433 4 Q433 -3 419 -10 Q402 -16 398 -16 Q386 -16 386 -8 L390 35 L390 261 L255 261 Q249 163 235 106 Q215 22 176 -33 Q134 -93 74 -125 L66 -117 Q114 -82 150 -23 Q184 30 200 110 Q214 170 217 261 L156 261 Q93 261 70 254 L54 297 ZM687 699 Q765 674 789 654 Q804 640 804 625 Q804 597 785 597 Q777 597 764 616 Q744 649 683 687 L687 699 Z" /><glyph glyph-name="" unicode="&#x6237;" d="M835 629 Q843 629 869 602 Q890 580 890 574 Q890 569 867 558 Q851 549 851 543 Q851 397 855 265 Q855 259 840 254 Q829 250 828 250 Q808 250 808 265 L808 316 L239 316 Q232 150 205 79 Q171 -37 78 -149 L62 -141 Q140 -31 168 84 Q199 180 199 445 Q199 551 187 633 Q222 613 248 593 L526 593 Q516 602 505 618 Q474 674 375 738 L382 750 Q499 705 535 668 Q558 644 558 617 Q558 600 552 593 L800 593 Q802 593 814 610 Q830 629 835 629 ZM242 566 L242 445 Q242 390 240 343 L808 343 L808 566 L242 566 Z" /><glyph glyph-name="" unicode="&#x624b;" d="M777 675 Q672 643 523 624 L523 449 L769 449 Q781 463 795 482 Q808 496 812 496 Q820 496 827 488 Q844 471 864 451 Q875 441 875 437 Q875 422 863 422 L523 422 L523 238 L832 238 Q845 253 860 274 Q874 289 878 289 Q887 289 895 280 Q912 262 934 240 Q945 230 945 226 Q945 211 933 211 L523 211 L523 -55 Q523 -106 487 -132 Q458 -153 445 -153 Q424 -153 419 -130 Q403 -103 277 -86 L281 -67 L429 -78 Q476 -78 476 -51 L476 211 L222 211 Q99 211 62 203 L39 250 Q118 241 222 238 L476 238 L476 422 L292 422 Q169 422 132 414 L109 461 Q188 452 292 449 L476 449 L476 619 Q300 599 117 593 L109 609 Q286 619 437 643 Q552 659 637 684 Q701 700 765 734 Q817 702 817 702 Q839 690 839 679 Q839 674 828 672 L777 675 Z" /><glyph glyph-name="" unicode="&#x6263;" d="M42 519 Q77 511 144 511 L218 511 L218 625 Q218 700 210 738 Q275 725 275 725 Q300 720 300 711 Q300 704 276 697 Q261 691 261 683 L261 511 L332 511 Q344 525 355 540 Q367 554 375 554 Q382 554 408 531 Q437 505 437 500 Q437 484 417 484 L261 484 L261 269 Q326 296 406 336 L414 324 Q326 271 261 238 L261 -78 Q261 -111 239 -131 Q209 -157 183 -157 Q179 -157 174 -137 Q168 -114 85 -102 L85 -90 Q137 -94 199 -94 Q218 -94 218 -78 L218 217 Q188 203 164 194 Q105 172 105 160 Q105 136 97 136 Q87 136 77 158 Q62 189 54 207 Q106 214 175 237 Q196 244 218 252 L218 484 L144 484 Q82 484 58 476 L42 519 ZM460 660 Q492 649 518 625 L828 625 Q829 625 842 639 Q857 656 863 656 Q871 656 896 630 Q917 608 917 601 Q917 596 895 586 Q878 576 878 570 Q878 214 882 -106 Q882 -113 868 -117 Q856 -121 855 -121 Q835 -121 835 -106 L835 -35 L515 -35 L515 -55 L519 -114 Q519 -125 499 -130 Q486 -133 480 -133 Q468 -133 468 -114 L472 -55 L472 562 Q472 615 460 660 ZM515 -8 L835 -8 L835 597 L515 597 L515 -8 Z" /><glyph glyph-name="" unicode="&#x6298;" d="M50 531 Q84 523 152 523 L222 523 L222 621 Q222 696 214 734 Q279 721 279 721 Q304 716 304 707 Q304 700 280 693 Q265 687 265 679 L265 523 L324 523 Q335 535 345 549 Q356 562 363 562 Q370 562 394 541 Q421 516 421 511 Q421 496 402 496 L265 496 L265 292 Q327 312 402 340 L410 328 Q328 287 265 260 L265 -75 Q265 -108 242 -130 Q211 -157 183 -157 Q178 -157 173 -134 Q166 -108 74 -94 L74 -82 Q132 -90 203 -90 Q222 -90 222 -75 L222 242 Q187 228 160 219 Q101 201 101 191 Q101 164 93 164 Q82 164 71 188 Q55 222 46 242 Q99 247 168 265 Q193 271 222 279 L222 496 L152 496 Q89 496 66 488 L50 531 ZM847 683 Q706 640 519 615 L519 515 Q519 459 518 410 L835 410 Q835 410 855 433 Q876 461 886 461 Q894 461 922 436 Q957 404 957 398 Q957 383 941 383 L761 383 L761 0 L765 -125 Q765 -143 753 -148 Q738 -157 726 -157 Q714 -157 714 -125 L718 0 L718 383 L517 383 Q509 185 475 101 Q434 -31 320 -157 L304 -149 Q403 -24 437 106 Q476 215 476 515 Q476 606 464 675 Q503 655 531 632 Q741 675 828 738 Q865 722 897 708 Q914 700 914 691 Q914 681 898 679 L847 683 Z" /><glyph glyph-name="" unicode="&#x62a4;" d="M58 531 Q92 523 160 523 L218 523 L218 629 Q218 696 214 730 Q273 719 273 719 Q296 715 296 707 Q296 700 272 693 Q257 687 257 679 L257 523 L316 523 Q326 535 335 549 Q345 562 351 562 Q358 562 382 541 Q410 516 410 511 Q410 496 394 496 L257 496 L257 290 Q324 316 406 355 L414 343 Q323 291 257 259 L257 -71 Q257 -103 235 -123 Q206 -149 179 -149 Q175 -149 170 -128 Q165 -103 85 -90 L85 -78 Q137 -86 199 -86 Q218 -86 218 -71 L218 241 Q184 226 158 217 Q97 195 97 183 Q97 160 89 160 Q79 160 69 182 Q54 212 46 230 Q100 237 170 259 Q193 266 218 275 L218 496 L160 496 Q97 496 74 488 L58 531 ZM542 738 Q691 707 726 672 Q757 640 757 609 Q755 593 742 593 Q728 595 718 605 Q656 675 542 726 L542 738 ZM445 597 Q480 577 505 558 L847 558 Q847 558 857 573 Q873 590 878 590 Q883 590 905 573 Q937 548 937 543 Q937 533 919 524 Q902 512 902 500 Q902 403 906 289 Q906 278 887 270 Q871 265 871 265 Q859 265 859 289 L859 312 L496 312 Q488 158 463 89 Q431 -32 339 -149 L324 -141 Q400 -26 427 94 Q457 195 457 472 Q457 543 445 597 ZM497 340 L859 340 L859 531 L500 531 L500 472 Q500 399 497 340 Z" /><glyph glyph-name="" unicode="&#x62c9;" d="M39 519 Q73 511 140 511 L191 511 L191 621 Q191 696 183 734 Q248 721 248 721 Q273 716 273 707 Q273 700 249 693 Q234 687 234 679 L234 511 L273 511 Q283 524 292 537 Q302 550 308 550 Q315 550 339 529 Q367 505 367 500 Q367 484 351 484 L234 484 L234 274 Q293 302 367 343 L375 332 Q293 277 234 243 L234 -75 Q234 -107 212 -127 Q182 -153 156 -153 Q151 -153 147 -133 Q141 -110 62 -98 L62 -86 Q111 -90 171 -90 Q191 -90 191 -75 L191 219 Q165 205 144 196 Q89 172 89 160 Q89 136 82 136 Q71 136 62 158 Q46 189 39 207 Q87 214 151 238 Q170 245 191 254 L191 484 L140 484 Q78 484 54 476 L39 519 ZM527 726 Q597 672 628 632 Q656 594 656 570 Q656 550 651 541 Q642 531 632 531 Q616 531 609 550 Q590 611 573 637 Q557 668 515 715 L527 726 ZM378 511 Q413 504 480 504 L832 504 Q844 518 855 534 Q867 550 875 550 Q883 550 910 526 Q941 497 941 492 Q941 476 921 476 L480 476 Q417 476 394 468 L378 511 ZM437 410 Q501 288 527 196 Q554 105 554 62 Q554 40 543 27 Q535 15 523 15 Q507 16 507 35 Q501 215 425 406 L437 410 ZM757 425 Q833 399 833 399 Q853 392 851 383 Q851 377 830 373 L800 367 Q724 87 651 -78 L835 -78 Q850 -61 861 -42 Q875 -24 882 -24 Q892 -24 921 -52 Q957 -84 957 -90 Q957 -106 933 -106 L382 -106 Q320 -106 296 -114 L281 -71 Q315 -78 382 -78 L631 -78 Q700 94 757 425 Z" /><glyph glyph-name="" unicode="&#x62df;" d="M62 531 Q96 523 164 523 L207 523 L207 648 Q207 716 203 750 Q261 739 261 739 Q285 734 285 726 Q285 719 260 713 Q246 707 246 699 L246 523 L292 523 Q304 535 313 549 Q325 562 332 562 Q339 562 362 541 Q390 516 390 511 Q390 496 371 496 L246 496 L246 283 Q306 314 378 359 L386 347 Q306 288 246 250 L246 -75 Q246 -105 224 -124 Q194 -149 167 -149 Q164 -149 159 -126 Q153 -100 78 -86 L78 -75 Q129 -90 191 -90 Q207 -90 207 -75 L207 227 Q181 212 159 202 Q105 177 105 164 Q105 140 97 140 Q87 140 77 162 Q62 193 54 211 Q102 218 166 245 Q186 253 207 263 L207 496 L164 496 Q101 496 78 488 L62 531 ZM570 629 Q642 561 674 510 Q703 463 703 433 Q703 414 698 404 Q688 394 679 394 Q663 395 656 414 Q636 488 619 521 Q602 559 558 617 L570 629 ZM425 734 Q464 726 488 720 Q511 717 511 707 Q511 700 489 693 Q472 688 472 675 L472 95 Q552 129 660 187 L667 175 Q501 72 408 36 Q347 12 347 0 Q347 -20 339 -20 Q330 -20 321 0 Q308 27 300 43 Q354 50 424 76 Q430 78 433 79 L433 605 Q433 688 425 734 ZM789 746 Q815 740 855 732 Q875 728 875 718 Q875 711 857 708 Q839 700 839 691 L839 554 Q832 339 796 224 Q785 188 772 159 Q860 78 903 16 Q945 -49 945 -90 Q945 -108 941 -116 Q933 -125 925 -125 Q912 -125 906 -110 Q872 -9 843 37 Q819 81 765 142 Q730 62 677 3 Q594 -93 472 -145 L460 -133 Q566 -76 646 17 Q720 103 755 230 Q796 350 796 554 Q796 686 789 746 Z" /><glyph glyph-name="" unicode="&#x636e;" d="M35 523 Q69 515 136 515 L199 515 L199 621 Q199 696 191 734 Q255 721 255 721 Q281 716 281 707 Q281 700 256 693 Q242 687 242 679 L242 515 L296 515 Q307 528 315 541 Q326 554 332 554 Q339 554 362 533 Q390 509 390 504 Q390 488 375 488 L242 488 L242 272 Q298 297 367 332 L375 320 Q300 272 242 240 L242 -71 Q242 -103 221 -123 Q192 -149 167 -149 Q163 -149 159 -129 Q153 -106 74 -94 L74 -82 Q121 -86 179 -86 Q199 -86 199 -71 L199 218 Q172 205 150 196 Q97 175 97 164 Q97 140 89 140 Q79 140 69 162 Q54 193 46 211 Q94 217 156 239 Q176 245 199 254 L199 488 L136 488 Q74 488 50 480 L35 523 ZM847 718 Q854 718 878 696 Q898 677 898 672 Q898 667 880 656 Q867 646 867 640 Q867 546 871 461 Q871 454 858 449 Q849 446 847 445 Q828 445 828 461 L828 492 L457 492 L457 488 Q457 403 454 336 L660 336 L660 347 Q660 430 652 476 Q690 468 715 463 Q738 459 738 449 Q738 442 715 435 Q699 430 699 418 L699 336 L855 336 Q855 336 870 356 Q886 379 894 379 Q900 379 924 357 Q953 329 953 324 Q953 308 937 308 L699 308 L699 160 L820 160 Q821 160 834 175 Q850 191 855 191 Q863 191 889 165 Q910 143 910 136 Q910 132 889 121 Q875 111 875 105 Q875 -18 878 -129 Q878 -136 864 -141 Q853 -144 851 -145 Q832 -145 832 -129 L832 -86 L543 -86 L546 -129 Q546 -140 526 -145 Q513 -149 507 -149 Q496 -149 496 -129 L500 -71 L500 97 Q500 150 488 195 Q519 184 545 160 L660 160 L660 308 L452 308 Q444 178 422 117 Q392 -1 304 -114 L289 -106 Q360 6 386 122 Q414 219 414 488 Q414 621 402 722 Q437 702 462 683 L816 683 Q817 683 829 700 Q842 718 847 718 ZM542 -59 L832 -59 L832 133 L542 133 L542 -59 ZM457 656 L457 519 L828 519 L828 656 L457 656 Z" /><glyph glyph-name="" unicode="&#x63a5;" d="M50 527 Q84 519 152 519 L199 519 L199 625 Q199 700 191 738 Q255 725 255 725 Q281 720 281 711 Q281 704 256 697 Q242 691 242 683 L242 519 L292 519 Q305 532 316 548 Q328 562 335 562 Q343 562 369 539 Q398 513 398 508 Q398 492 378 492 L242 492 L242 285 Q301 307 375 340 L382 328 Q301 282 242 253 L242 -67 Q242 -99 221 -119 Q192 -145 167 -145 Q163 -145 159 -125 Q152 -102 70 -90 L70 -78 Q119 -82 179 -82 Q199 -82 199 -67 L199 233 Q172 221 151 214 Q97 194 97 183 Q97 160 89 160 Q79 160 69 182 Q54 212 46 230 Q95 236 159 256 Q178 262 199 269 L199 492 L152 492 Q89 492 66 484 L50 527 ZM542 742 Q606 714 635 693 Q660 673 660 660 Q660 640 655 631 Q645 621 636 621 Q620 621 613 640 Q596 673 582 688 Q567 705 531 730 L542 742 ZM367 617 Q401 609 468 609 L812 609 Q825 624 835 640 Q848 656 855 656 Q863 656 890 631 Q921 603 921 597 Q921 582 902 582 L468 582 Q406 582 382 574 L367 617 ZM476 570 Q522 527 543 494 Q562 464 562 445 Q562 427 558 419 Q550 410 542 410 Q529 410 523 425 Q512 474 502 496 Q492 521 468 558 L476 570 ZM753 574 Q823 547 823 547 Q839 541 839 531 Q839 521 813 521 Q789 521 785 515 Q754 455 707 394 L835 394 Q848 409 859 425 Q871 441 878 441 Q887 441 914 416 Q945 388 945 383 Q945 367 925 367 L421 367 Q359 367 335 359 L320 402 Q354 394 421 394 L685 394 Q706 429 720 464 Q739 507 753 574 ZM566 347 Q597 341 620 332 Q644 325 644 316 Q644 307 618 303 Q603 301 601 293 L564 226 L839 226 Q854 243 865 262 Q878 281 886 281 Q895 281 925 253 Q960 221 960 215 Q960 199 937 199 L795 199 Q755 80 695 18 Q691 14 688 11 Q694 9 698 7 Q794 -31 837 -62 Q869 -83 875 -114 Q874 -135 859 -137 Q844 -137 825 -118 Q795 -89 703 -36 Q683 -24 662 -14 Q610 -59 541 -89 Q443 -134 320 -145 L312 -129 Q425 -118 514 -75 Q581 -45 630 2 Q562 32 471 57 L445 11 Q437 4 429 4 Q420 4 412 11 Q406 15 406 23 Q468 123 506 199 L410 199 Q347 199 324 191 L308 234 Q342 226 410 226 L520 226 Q555 299 566 347 ZM653 26 Q654 27 654 27 Q708 86 745 199 L549 199 L480 73 Q584 51 653 26 Z" /></font>
</defs>
</svg>
