<?xml version="1.0" encoding="UTF-8"?>
<svg xmlns="http://www.w3.org/2000/svg" viewBox="0 0 600 600">
  <path class="background" fill="#009e57" d=" M 0.00 0.00 L 600.00 0.00 L 600.00 600.00 L 0.00 600.00 L 0.00 0.00 Z" />
  <path class="text" fill="white"
        d=" M 260.00 78.00 C 284.33 78.00 308.67 78.00 333.00 78.00 C 333.00 102.33 333.00 126.67 333.00 151.00 C 352.67 151.00 372.33 151.00 392.00 151.00 C 392.00 130.67 392.00 110.33 392.00 90.00 C 416.33 90.00 440.67 90.00 465.00 90.00 C 465.00 135.00 465.00 180.00 465.00 225.00 C 421.00 225.00 377.00 225.00 333.00 225.00 C 333.00 256.67 333.00 288.33 333.00 320.00 C 352.67 320.00 372.33 320.00 392.00 320.00 C 392.00 296.67 392.00 273.33 392.00 250.00 C 416.33 250.00 440.67 250.00 465.00 250.00 C 465.00 298.00 465.00 346.00 465.00 394.00 C 352.67 394.00 240.33 394.00 128.00 394.00 C 128.00 346.00 128.00 298.00 128.00 250.00 C 152.33 250.00 176.67 250.00 201.00 250.00 C 201.00 273.33 201.00 296.67 201.00 320.00 C 220.67 320.00 240.33 320.00 260.00 320.00 C 260.00 288.33 260.00 256.67 260.00 225.00 C 216.00 225.00 172.00 225.00 128.00 225.00 C 128.00 180.00 128.00 135.00 128.00 90.00 C 152.33 90.00 176.67 90.00 201.00 90.00 C 201.00 110.33 201.00 130.67 201.00 151.00 C 220.67 151.00 240.33 151.00 260.00 151.00 C 260.00 126.67 260.00 102.33 260.00 78.00 Z" />
  <path class="text" fill="white"
        d=" M 130.00 411.00 C 151.00 411.00 172.00 411.00 193.00 411.00 C 193.00 417.33 193.00 423.67 193.00 430.00 C 179.74 430.02 166.48 429.95 153.22 430.04 C 153.26 437.01 153.28 443.98 153.21 450.95 C 165.74 451.09 178.27 450.91 190.79 451.04 C 190.74 457.34 190.73 463.65 190.80 469.95 C 178.26 470.11 165.73 469.88 153.20 470.07 C 153.32 477.96 153.21 485.86 153.26 493.75 C 167.17 493.75 181.09 493.75 195.00 493.75 C 195.00 500.17 195.00 506.58 195.00 513.00 C 173.33 513.00 151.67 513.00 130.00 513.00 C 130.00 479.00 130.00 445.00 130.00 411.00 Z" />
  <path class="text" fill="white"
        d=" M 219.09 411.03 C 228.03 410.97 236.96 411.01 245.90 411.00 C 251.34 422.74 257.32 434.23 262.33 446.17 C 267.20 434.31 272.46 422.59 277.98 411.00 C 286.86 411.00 295.74 411.00 304.62 411.00 C 295.50 426.82 286.39 442.65 277.21 458.44 C 276.76 459.42 275.54 460.56 276.47 461.66 C 286.40 478.76 296.35 495.85 306.21 513.00 C 297.20 512.97 288.18 513.06 279.17 512.95 C 273.40 500.93 267.05 489.20 261.41 477.12 C 261.20 477.15 260.78 477.19 260.57 477.22 C 255.71 489.28 249.73 500.85 244.73 512.86 C 235.79 513.18 226.84 512.93 217.90 512.99 C 227.71 495.69 237.75 478.51 247.42 461.14 C 237.88 444.49 228.51 427.74 219.09 411.03 Z" />
  <path class="text" fill="white"
        d=" M 333.36 512.78 C 333.73 478.84 333.30 444.89 333.58 410.95 C 341.32 411.08 349.06 410.91 356.80 411.05 C 356.73 445.02 356.74 478.99 356.79 512.96 C 348.98 512.91 341.15 513.26 333.36 512.78 Z" />
  <path class="text" fill="white"
        d=" M 383.75 411.00 C 409.92 411.00 436.08 411.00 462.25 411.00 C 462.29 417.44 462.15 423.88 462.33 430.32 C 453.07 430.76 443.78 430.37 434.51 430.51 C 434.43 458.02 434.63 485.54 434.41 513.05 C 426.67 512.90 418.93 513.10 411.20 512.94 C 411.32 485.49 411.17 458.03 411.27 430.58 C 402.10 430.39 392.92 430.56 383.75 430.49 C 383.75 423.99 383.75 417.50 383.75 411.00 Z" />
</svg>