<?xml version="1.0" encoding="utf-8"?><!DOCTYPE svg PUBLIC "-//W3C//DTD SVG 1.1//EN" "http://www.w3.org/Graphics/SVG/1.1/DTD/svg11.dtd"><svg xmlns="http://www.w3.org/2000/svg" xmlns:xlink="http://www.w3.org/1999/xlink"><symbol preserveAspectRatio="xMidYMid" viewBox="0 0 64 64" id="account-card-details"><path d="M12.417 14.375h39.166c2.056 0 3.917 1.86 3.917 3.917v27.416c0 2.056-1.86 3.917-3.917 3.917H12.417c-2.056 0-3.917-1.86-3.917-3.917V18.292c0-2.056 1.86-3.917 3.917-3.917m23.5 5.875v1.96h15.666v-1.96H35.917m0 3.917v1.958h15.667v-1.958H35.916m0 3.916v1.96h13.708v-1.96H35.917m-11.75 7.657c-3.917 0-11.75 2.135-11.75 6.05v1.96h23.5v-1.96c0-3.915-7.834-6.05-11.75-6.05m0-15.49a5.875 5.875 0 1 0 0 11.75 5.875 5.875 0 0 0 0-11.75z"/></symbol><symbol preserveAspectRatio="xMidYMid" viewBox="0 0 64 64" id="atb-achievements"><path d="M54.857 22.55l-6.546 7.288c.085.426.153.857.2 1.294l8.493 5.458-9.943 2.602c-.103.21-.212.416-.325.62l3.902 9.258-9.52-3.422c-.282.174-.572.34-.866.497l-1.17 9.897-6.76-7.884c-.06 0-.12.004-.18.004-.152 0-.302-.007-.453-.01l-6.767 7.89-1.19-10.058c-.228-.128-.452-.26-.673-.4l-9.694 3.486 4.024-9.548c-.043-.082-.086-.164-.127-.247L6.997 36.59l8.797-5.653c.034-.283.076-.564.125-.842L9.142 22.55l10.427.125c.092-.103.185-.204.28-.305l-1.427-10.566 8.696 6.104c.194-.06.39-.112.588-.164l4.336-9.783 4.18 9.692c.25.06.496.127.74.197l8.613-6.046-1.393 10.312c.18.182.353.367.523.556l10.15-.122z"/></symbol><symbol preserveAspectRatio="xMidYMid" viewBox="0 0 64 64" id="atb-cart"><path d="M52.29 37.357H22.275l.897 4.7h27.55V45.2H20.87l-6.235-32.676h-7.64V9.39h9.427v2.87H57.003l-4.712 25.097zm-9.426-2.633h7.02l1.862-9.914h-8.882v9.914zm-15.71-19.592h-9.12l1.547 8.107h7.574V15.13zm0 9.678H19.88l1.892 9.914h5.382V24.81zm14.14-9.678h-12.57v8.107h12.57V15.13zm0 9.678h-12.57v9.914h12.57V24.81zm1.57-9.678v8.107h9.177l1.524-8.108h-10.7zM23.226 46.768a3.924 3.924 0 0 1 3.928 3.92c0 2.166-1.76 3.922-3.928 3.922a3.925 3.925 0 0 1-3.928-3.92c0-2.167 1.76-3.922 3.928-3.922zm0 6.274a2.355 2.355 0 0 0 2.357-2.353c0-1.3-1.055-2.354-2.357-2.354a2.354 2.354 0 0 0-2.356 2.353c0 1.298 1.055 2.352 2.356 2.352zm23.566-6.274a3.924 3.924 0 0 1 3.928 3.92c0 2.166-1.76 3.922-3.928 3.922a3.925 3.925 0 0 1-3.928-3.92c0-2.167 1.76-3.922 3.928-3.922zm0 6.274a2.355 2.355 0 0 0 2.357-2.353c0-1.3-1.056-2.354-2.358-2.354a2.354 2.354 0 0 0-2.356 2.353c0 1.298 1.055 2.352 2.356 2.352z"/></symbol><symbol preserveAspectRatio="xMidYMid" viewBox="0 0 64 64" id="atb-cc"><path d="M31.815 26.87c-.126-1.185-.372-2.218-.737-3.1a10.527 10.527 0 0 0-2.296-3.44c-1.002-1.008-2.262-1.808-3.78-2.4-1.52-.593-3.204-.89-5.057-.89-2.08 0-4 .404-5.764 1.21a10.547 10.547 0 0 0-3.553 2.543c-.983 1.077-1.764 2.385-2.343 3.922-.832 2.18-1.248 4.568-1.248 7.163 0 2.067.305 4.04.917 5.916.61 1.878 1.493 3.453 2.646 4.725a10.342 10.342 0 0 0 4.195 2.806c1.644.6 3.418.898 5.32.898 1.613 0 3.157-.29 4.63-.87 1.476-.58 2.72-1.395 3.734-2.447 1.013-1.052 1.785-2.177 2.315-3.374.365-.832.705-2.01 1.02-3.534H26.05c-.365 1.272-.81 2.264-1.332 2.976-.523.712-1.213 1.263-2.07 1.653-.857.39-1.808.585-2.854.585-1.323 0-2.51-.337-3.563-1.01-1.05-.675-1.88-1.752-2.484-3.233-.605-1.48-.907-3.235-.907-5.264 0-2.03.298-3.8.896-5.31.6-1.513 1.44-2.616 2.524-3.31 1.083-.692 2.337-1.038 3.76-1.038 1.69 0 3.07.48 4.14 1.436.794.718 1.41 1.846 1.853 3.383h5.802zM57.06 26.87c-.127-1.185-.373-2.218-.738-3.1a10.527 10.527 0 0 0-2.296-3.44c-1.002-1.008-2.262-1.808-3.78-2.4-1.52-.593-3.204-.89-5.057-.89-2.08 0-4 .404-5.765 1.21a10.547 10.547 0 0 0-3.554 2.543c-.982 1.077-1.763 2.385-2.343 3.922-.83 2.18-1.247 4.568-1.247 7.163 0 2.067.305 4.04.917 5.916.61 1.878 1.493 3.453 2.646 4.725a10.335 10.335 0 0 0 4.196 2.806c1.643.6 3.417.898 5.32.898 1.612 0 3.156-.29 4.63-.87 1.474-.58 2.72-1.395 3.733-2.447 1.014-1.052 1.786-2.177 2.316-3.374.364-.832.704-2.01 1.02-3.534h-5.766c-.365 1.272-.81 2.264-1.332 2.976-.523.712-1.213 1.263-2.07 1.653-.857.39-1.808.585-2.854.585-1.323 0-2.51-.337-3.563-1.01-1.052-.675-1.88-1.752-2.485-3.233-.605-1.48-.907-3.235-.907-5.264 0-2.03.3-3.8.897-5.31.6-1.513 1.44-2.616 2.524-3.31 1.083-.692 2.337-1.038 3.76-1.038 1.69 0 3.07.48 4.14 1.436.794.718 1.41 1.846 1.853 3.383h5.802z"/></symbol><symbol preserveAspectRatio="xMidYMid" viewBox="0 0 64 64" id="atb-cloud"><path d="M52.163 47.646H14.356v-.04a9.724 9.724 0 0 1-8.857-9.69 9.73 9.73 0 0 1 6.494-9.177 9.435 9.435 0 0 1-.19-1.885c0-5.248 4.296-9.5 9.595-9.5a9.606 9.606 0 0 1 8.37 4.86 6.66 6.66 0 0 1 4.388-1.643c3.43 0 6.252 2.578 6.625 5.893a6.656 6.656 0 0 1 4.04-1.357c3.682 0 6.668 2.972 6.668 6.64 0 .457-.046.903-.134 1.335.265-.03.534-.05.807-.05 4.052 0 7.337 3.272 7.337 7.307s-3.285 7.306-7.337 7.306z"/></symbol><symbol preserveAspectRatio="xMidYMid" viewBox="0 0 64 64" id="atb-commentary"><path fill-rule="evenodd" d="M45.947 43.202h-12.96L20.03 56.27h-1.852V43.202C12.044 43.202 7.07 38.187 7.07 32V18.93c0-6.185 4.974-11.2 11.108-11.2h27.77c6.133 0 11.106 5.015 11.106 11.2V32c0 6.187-4.973 11.202-11.107 11.202zM33.59 37.294c-.58 0-2.132.033-4.66.098v-1.345c1.236-.044 1.95-.12 2.14-.23.192-.11.315-.416.37-.92.087-.69.13-.346.13-2.7 0-1.02-.015-1.962-.048-2.828l-.05-1.923c0-.635-.068-1.027-.204-1.175-.137-.148-.506-.233-1.108-.255l-1.23-.05v-1.262c2.636-.2 6.5-1.442 6.5-1.442v9.708s-.076 1.945 0 2.428c.054.34.34.386.485.485.147.1.97.065 2.253.164v1.345c-1.974-.065-3.5-.098-4.58-.098zm-2.25-22.097h3.735v3.734H31.34v-3.733z"/></symbol><symbol preserveAspectRatio="xMidYMid" viewBox="0 0 64 64" id="atb-coop"><path d="M34.688 47.333s-1.306.552-2.49.552c-1.27 0-2.6-.552-2.6-.552.015-.017-.242-2.36-.795-4.093-.41-1.288-1.023-2.53-1.023-2.53s.48 2.77.503 3.68c.052 2.11 0 3.863 0 3.863s-3.468 1.05-8.39.92c-4.922.13-8.39-.92-8.39-.92s-.052-1.753 0-3.864c.023-.91.503-3.68.503-3.68s-.61 1.242-1.022 2.53c-.553 1.734-.81 4.076-.795 4.093 0 0-1.332.552-2.6.552-1.186 0-2.492-.552-2.492-.552 0-8.164 5.007-14.77 12.565-15.984-3.39-1.035-5.866-4.276-5.866-8.117 0-4.673 3.665-8.462 8.185-8.462 4.52 0 8.185 3.79 8.185 8.463 0 3.865-2.506 7.12-5.93 8.135 7.503 1.262 12.45 7.843 12.45 15.965z"/><path d="M58.09 47.333s-1.305.552-2.49.552c-1.27 0-2.6-.552-2.6-.552.015-.017-.242-2.36-.795-4.093-.41-1.288-1.022-2.53-1.022-2.53s.48 2.77.503 3.68c.052 2.11 0 3.863 0 3.863s-3.468 1.05-8.39.92c-4.922.13-8.39-.92-8.39-.92s-.052-1.753 0-3.864c.023-.91.503-3.68.503-3.68s-.613 1.242-1.024 2.53c-.553 1.734-.81 4.076-.794 4.093 0 0-1.332.552-2.6.552-1.185 0-2.49-.552-2.49-.552 0-8.164 5.005-14.77 12.564-15.984-3.39-1.035-5.866-4.276-5.866-8.117 0-4.673 3.664-8.462 8.185-8.462 4.52 0 8.184 3.79 8.184 8.463 0 3.865-2.507 7.12-5.93 8.135 7.503 1.262 12.45 7.843 12.45 15.965z"/></symbol><symbol preserveAspectRatio="xMidYMid" viewBox="0 0 64 64" id="atb-editor"><path d="M34.695 40.698l-6.76-6.88 21.41-21.782 6.762 6.88-21.412 21.782zm-3.47 1.39l-6.652 1.975 1.864-6.74 4.788 4.765zM40.28 17.32c-.057-3.14-2.58-5.205-5.682-5.205h-14.09V23.81H10.442v23.28c0 3.2 2.545 5.795 5.684 5.795h18.472c3.14 0 5.683-2.595 5.683-5.795v-9.95l3.558-3.41v15.66c0 3.926-3.134 7.11-7 7.11H14.083c-3.867 0-7-3.184-7-7.11V20.752L19.45 8.5h17.387c3.867 0 7 3.184 7 7.11l-3.556 3.74v-2.03z"/></symbol><symbol preserveAspectRatio="xMidYMid" viewBox="0 0 64 64" id="atb-localcoop"><path opacity=".5" fill-rule="evenodd" d="M37.92 20.282s1.852-.02 2.307.003a7.928 7.928 0 0 1 5.933-2.674c4.205 0 7.65 3.296 7.972 7.48l4.96 14.43c1.162 2.933-.23 6.27-3.11 7.452-2.88 1.183-6.158-.236-7.32-3.168l-2.974-5.253c-1.446 1.975-8.075 2.526-13.544 2.526-.1 0-.197-.005-.293-.015-.094.01-.192.016-.292.016-1.785 0-3.694-.09-5.506-.28C37.81 20.217 37.92 20.28 37.92 20.28zm4.748 8.126a2.528 2.528 0 0 1 2.143 2.87c-.206 1.38-1.502 2.33-2.894 2.125a2.53 2.53 0 0 1-2.143-2.87c.208-1.38 1.504-2.33 2.895-2.125zm6.816 1.008a2.53 2.53 0 0 1 2.144 2.87 2.544 2.544 0 0 1-2.895 2.125 2.53 2.53 0 0 1-2.144-2.87 2.544 2.544 0 0 1 2.894-2.124zm-4.948-5.632a2.563 2.563 0 0 1 3.58-.405 2.51 2.51 0 0 1 .408 3.547 2.563 2.563 0 0 1-3.58.405 2.51 2.51 0 0 1-.408-3.548z"/><path d="M38.218 20.282s-4.185.09-5.867.09a.507.507 0 0 0-.2.05.507.507 0 0 0-.203-.05c-2.62 0-6.9-.153-8.174-.087a7.928 7.928 0 0 0-5.933-2.674c-4.205 0-7.65 3.296-7.972 7.48l-4.96 14.43c-1.162 2.933.23 6.27 3.11 7.452 2.88 1.183 6.158-.236 7.32-3.168l2.974-5.253c.974 1.33 4.3 1.852 8.037 2.245 11.86-20.78 11.868-20.513 11.868-20.513zM23.96 31.16h-2.084v2.382a1.19 1.19 0 0 1-1.19 1.19h-1.192a1.19 1.19 0 0 1-1.19-1.19V31.16H15.92a1.19 1.19 0 0 1-1.19-1.19v-1.192c0-.658.533-1.19 1.19-1.19h2.383v-2.383c0-.658.533-1.19 1.19-1.19h1.192c.658 0 1.19.532 1.19 1.19v2.382h2.085c.658 0 1.19.533 1.19 1.19v1.192a1.19 1.19 0 0 1-1.19 1.19z"/></symbol><symbol preserveAspectRatio="xMidYMid" viewBox="0 0 64 64" id="atb-multiplayer"><path d="M59.868 44.503s-1.502.632-2.864.632c-1.458 0-2.988-.632-2.988-.632.017-.02-.278-2.704-.914-4.69-.472-1.476-1.175-2.9-1.175-2.9s.552 3.174.578 4.216c.06 2.418 0 4.427 0 4.427s-.687.206-1.89.438a21.302 21.302 0 0 0-3.016-5.303c-2.105-2.697-4.753-4.73-7.8-6.01a12.513 12.513 0 0 0 4.21-9.352c0-6.074-4.308-11.13-9.95-12.13 1.406-3.53 4.77-6.013 8.7-6.013 5.195 0 9.407 4.342 9.407 9.698 0 4.4-2.845 8.115-6.743 9.3 8.69 1.392 14.444 8.962 14.444 18.318zm-17.95-19.108c0 4.74-3.084 8.732-7.293 9.975 9.227 1.547 15.312 9.617 15.312 19.576 0 0-1.606.677-3.063.677-1.56 0-3.198-.677-3.198-.677.02-.02-.297-2.892-.978-5.018-.505-1.58-1.257-3.103-1.257-3.103s.59 3.397.62 4.512c.064 2.588 0 4.737 0 4.737s-4.266 1.29-10.32 1.13c-6.053.16-10.318-1.13-10.318-1.13s-.064-2.15 0-4.737c.028-1.115.618-4.512.618-4.512s-.752 1.524-1.257 3.103c-.68 2.126-.996 4.998-.978 5.018 0 0-1.637.677-3.197.677-1.458 0-3.064-.677-3.064-.677 0-10.01 6.158-18.11 15.454-19.6-4.17-1.267-7.214-5.24-7.214-9.95 0-5.732 4.506-10.377 10.066-10.377 5.56 0 10.067 4.644 10.067 10.375zm-22.18-.065c0 3.655 1.61 7.056 4.213 9.352-3.047 1.28-5.695 3.313-7.8 6.01a21.302 21.302 0 0 0-3.015 5.303c-1.203-.232-1.89-.438-1.89-.438s-.06-2.01 0-4.428c.026-1.043.578-4.217.578-4.217s-.703 1.424-1.175 2.9c-.636 1.986-.93 4.67-.914 4.69 0 0-1.53.632-2.988.632-1.362 0-2.864-.632-2.864-.632 0-9.356 5.755-16.926 14.444-18.318-3.898-1.185-6.743-4.9-6.743-9.3 0-5.356 4.212-9.698 9.408-9.698 3.93 0 7.294 2.484 8.7 6.012-5.642 1-9.95 6.056-9.95 12.13z"/></symbol><symbol preserveAspectRatio="xMidYMid" viewBox="0 0 64 64" id="atb-singleplayer"><path d="M53.59 54.29s-1.898.802-3.62.802c-1.843 0-3.777-.802-3.777-.802.022-.024-.35-3.427-1.154-5.946-.598-1.87-1.487-3.676-1.487-3.676s.698 4.024.73 5.346c.077 3.066 0 5.612 0 5.612s-5.038 1.527-12.188 1.34c-7.15.187-12.19-1.34-12.19-1.34s-.075-2.546 0-5.612c.034-1.322.732-5.346.732-5.346s-.89 1.805-1.486 3.676c-.802 2.52-1.176 5.922-1.154 5.946 0 0-1.934.802-3.777.802-1.722 0-3.62-.802-3.62-.802 0-11.86 7.274-21.458 18.255-23.222-4.926-1.502-8.522-6.21-8.522-11.79 0-6.79 5.324-12.295 11.89-12.295 6.568 0 11.892 5.505 11.892 12.295 0 5.614-3.64 10.345-8.613 11.817C46.402 32.93 53.59 42.49 53.59 54.29z"/></symbol><symbol preserveAspectRatio="xMidYMid" viewBox="0 0 64 64" id="atb-steamcards"><path fill-rule="evenodd" d="M57.067 47.373H43.31v5.59a.93.93 0 0 1-.933.93H6.933a.932.932 0 0 1-.933-.93V11.037c0-.514.418-.93.933-.93h35.444a.93.93 0 0 1 .932.93v5.59h13.757c.515 0 .933.417.933.932v28.88a.933.933 0 0 1-.933.933zm-13.758-7.92V19.655h11.425v19.798H43.31zM10.896 14.997h27.75v27.717h-27.75V14.997z" class="alcls-1"/></symbol><symbol preserveAspectRatio="xMidYMid" viewBox="0 0 64 64" id="atb-steamworkshop"><path d="M54.08 54.086A6.485 6.485 0 0 1 49.464 56a6.48 6.48 0 0 1-4.617-1.914L29.236 38.47l9.15-9.32 15.696 15.697c2.545 2.548 2.545 6.693 0 9.24zm-4.3-7.398a3.093 3.093 0 1 0 .002 6.187 3.093 3.093 0 0 0 0-6.187zM27.197 36.43c-1.49.495-3.046.745-4.623.745-3.892 0-7.55-1.514-10.298-4.263-3.666-3.667-5.094-8.86-3.823-13.892a1.032 1.032 0 0 1 1.73-.477l7.108 7.005 8.258-8.258-6.998-7.116a1.032 1.032 0 0 1 .477-1.73A14.698 14.698 0 0 1 22.61 8c3.893 0 7.552 1.516 10.302 4.266 3.86 3.862 5.24 9.72 3.517 14.926l-9.234 9.238z" class="amcls-1"/></symbol><symbol preserveAspectRatio="xMidYMid" viewBox="0 0 64 64" id="book-open"><path d="M34.136 31.432H49.09v3.204H34.137m0-8.545H49.09v3.205H34.137m0 7.478H49.09v3.204H34.137M51.228 14.34H12.772A4.272 4.272 0 0 0 8.5 18.614v27.774a4.272 4.272 0 0 0 4.272 4.272h38.456a4.272 4.272 0 0 0 4.272-4.273V18.613a4.272 4.272 0 0 0-4.272-4.272m0 32.047H32V18.613h19.228"/></symbol><symbol preserveAspectRatio="xMidYMid" viewBox="0 0 64 64" id="bookmark"><path d="M44.503 9.495a5 5 0 0 1 5 5v40.01L32 47.003l-17.504 7.502v-40.01a5 5 0 0 1 5-5h25.007M29.5 37L45.127 21.4l-3.526-3.55L29.5 29.95l-6.477-6.477L19.497 27 29.5 37z"/></symbol><symbol preserveAspectRatio="xMidYMid" viewBox="0 0 64 64" id="check"><path d="M51.95 21.006L24.552 47.008 11.995 35.09l3.22-3.055 9.337 8.84 24.18-22.925 3.218 3.056z"/></symbol><symbol preserveAspectRatio="xMidYMid" viewBox="0 0 64 64" id="chevron-left"><path d="M44.883 48.03L29.553 32l15.33-16.065L40.163 11 20.078 32l20.085 21 4.72-4.97z"/></symbol><symbol preserveAspectRatio="xMidYMid" viewBox="0 0 64 64" id="chevron-right"><path d="M20.078 48.03L35.41 32 20.078 15.935 24.798 11l20.085 21-20.085 21-4.72-4.97z"/></symbol><symbol preserveAspectRatio="xMidYMid" viewBox="0 0 64 64" id="clock"><path d="M32 51.2c10.604 0 19.2-8.596 19.2-19.2S42.604 12.8 32 12.8 12.8 21.396 12.8 32 21.396 51.2 32 51.2M32 8c13.255 0 24 10.745 24 24S45.255 56 32 56C18.728 56 8 45.2 8 32 8 18.745 18.745 8 32 8m1.2 12v12.6L44 39.008l-1.8 2.952-12.6-7.56V20h3.6z"/></symbol><symbol preserveAspectRatio="xMidYMid" viewBox="0 0 64 64" id="close"><path d="M53 15.23L48.77 11 32 27.77 15.23 11 11 15.23 27.77 32 11 48.77 15.23 53 32 36.23 48.77 53 53 48.77 36.23 32 53 15.23z"/></symbol><symbol preserveAspectRatio="xMidYMid" viewBox="0 0 64 64" id="coffe"><path d="M8.667 53h42v-4.667h-42m42-25.666H46v-7h4.666m0-4.667H13.334v23.333a9.332 9.332 0 0 0 9.333 9.333h14A9.333 9.333 0 0 0 46 34.333v-7h4.666a4.666 4.666 0 0 0 4.667-4.666v-7c0-2.59-2.1-4.667-4.667-4.667z"/></symbol><symbol preserveAspectRatio="xMidYMid" viewBox="0 0 64 64" id="cuc"><path d="M50.705 59.5h-37.41a2.335 2.335 0 0 1-2.338-2.333V33.832a2.337 2.337 0 0 1 2.338-2.333h37.41a2.337 2.337 0 0 1 2.338 2.332v23.335a2.335 2.335 0 0 1-2.338 2.333zm-11.69-16.334h-4.677V38.5h-4.676v4.666h-4.676v4.667h4.676V52.5h4.676v-4.667h4.676v-4.667zm-2.34-22.168c0 1.935-1.57 3.5-3.506 3.5a3.502 3.502 0 0 1-3.508-3.5c0-1.933 1.57-3.5 3.507-3.5a3.503 3.503 0 0 1 3.506 3.5zM50.02 19.15L39.983 29.165H33.37l11.69-11.667-8.384-8.366-15.4 15.366 4.678 4.667H19.34L16.32 26.15a2.33 2.33 0 0 1 0-3.3L35.023 4.184a2.336 2.336 0 0 1 3.306 0L50.02 15.85a2.33 2.33 0 0 1 0 3.3z"/></symbol><symbol preserveAspectRatio="xMidYMid" viewBox="0 0 64 64" id="delta"><path d="M32 21.848L47.336 46.4H16.664L32 21.848m0-9.048L8 51.2h48"/></symbol><symbol preserveAspectRatio="xMidYMid" viewBox="0 0 64 64" id="dots-vertical"><path d="M32 43a5.5 5.5 0 0 1 0 11 5.5 5.5 0 0 1 0-11m0-16.5a5.5 5.5 0 0 1 0 11 5.5 5.5 0 0 1 0-11M32 10a5.5 5.5 0 1 1 0 11 5.5 5.5 0 0 1 0-11z"/></symbol><symbol preserveAspectRatio="xMidYMid" viewBox="0 0 64 64" id="dtb-3ds"><path d="M59.405 35.736c1.748 4.116-.435 7.377-5.71 9.532-5.8 2.37-18.16 1.274-27.15.703V40.7c5.876 1.36 24.29 5.6 23.22-3.867-.334-2.96-10.19-3.144-17.503-3.163v-4.22c6.02.213 17.467.26 16.43-4.57-.86-4.02-14.538-3.636-21.43-1.054V18.9c22.27-2.88 31.33-.156 31.806 5.167.413 4.607-6.453 7.024-7.113 7.146 4.874.506 6.595 2.607 7.45 4.523zm-41.49 11.696h-8.93a5 5 0 0 1-5-5v-5.055a5 5 0 0 1 5-5h8.93a5 5 0 0 1 5 5v5.055a5 5 0 0 1-5 5zm2.118-7.894a5 5 0 0 0-5-5h-3.135a5 5 0 0 0-5 5v1.145a5 5 0 0 0 5 5h3.135a5 5 0 0 0 5-5v-1.145zm-2.12-7.915h-8.93a5 5 0 0 1-5-5v-5.055a5 5 0 0 1 5-5h8.93a5 5 0 0 1 5 5v5.055a5 5 0 0 1-5 5zm2.12-7.895a5 5 0 0 0-5-5h-3.135a5 5 0 0 0-5 5v1.11a5 5 0 0 0 5 5h3.135a5 5 0 0 0 5-5v-1.11z"/></symbol><symbol preserveAspectRatio="xMidYMid" viewBox="0 0 64 64" id="dtb-android"><path d="M52.67 43.608h-.14a3.29 3.29 0 0 1-3.28-3.28v-14.27a3.29 3.29 0 0 1 3.28-3.276h.137a3.288 3.288 0 0 1 3.28 3.277v14.268c0 1.803-1.47 3.28-3.278 3.28zM17.262 21.94a10.04 10.04 0 0 1-.045-.888c0-4.888 3.11-9.15 7.724-11.41l-2.56-3.946a.544.544 0 0 1 .16-.752.544.544 0 0 1 .757.16l2.644 4.083A17.297 17.297 0 0 1 32.5 7.914c2.346 0 4.567.458 6.556 1.273l2.65-4.083a.544.544 0 1 1 .91.592L40.06 9.642c4.61 2.26 7.724 6.522 7.724 11.41 0 .3-.017.596-.042.89h-30.48zm8.172-8.16a1.463 1.463 0 0 0 0 2.927 1.463 1.463 0 0 0 0-2.926zm14.13 0a1.463 1.463 0 0 0 0 2.927 1.46 1.46 0 0 0 1.465-1.463 1.46 1.46 0 0 0-1.465-1.463zM12.475 43.61h-.144a3.284 3.284 0 0 1-3.276-3.28v-14.27c0-1.8 1.472-3.276 3.277-3.276h.142a3.29 3.29 0 0 1 3.28 3.277v14.268a3.287 3.287 0 0 1-3.278 3.28zm35.203 2.228a3.015 3.015 0 0 1-3.01 3.007h-3.22v7.708a3.287 3.287 0 0 1-3.28 3.283h-.138a3.29 3.29 0 0 1-3.282-3.282v-7.707H30.25v7.708a3.29 3.29 0 0 1-3.282 3.283h-.14a3.287 3.287 0 0 1-3.278-3.282v-7.707h-3.22a3.016 3.016 0 0 1-3.01-3.007v-22.53h30.358v22.53z"/></symbol><symbol preserveAspectRatio="xMidYMid" viewBox="0 0 64 64" id="dtb-app-store"><path d="M29.47 7.136C34.25 11.7 43.81 29.14 46.953 36.053l-4.14 1.377c-3.776-9.46-9.908-18.935-13.345-30.294zm1.38 12.852s1.416-1.466-.46-3.213c-1.893-1.763-3.68.46-3.68.46l4.14 2.753zm-5.982-.918c2.603.483 4.152 1.534 5.522 3.213l-2.3 4.13-1.38-.458-3.682-2.295 1.84-4.59zm-3.22 5.967l5.06 3.213-11.962 20.655-4.602-3.213c3.834-6.884 7.67-13.77 11.503-20.655zM6.002 41.56v-9.18h8.743l-5.062 9.2-3.68-.02zm21.166-9.18l11.502.04 4.14 9.16-21.165-.02 5.522-9.18zm20.724 0h10.103v9.2l-5.982-.038-4.12-9.16zm-.48 5.05c1.73 1.222 3.043 4.145 2.76 5.967l-3.22.918-2.76-5.05c1.073-.61 2.146-1.223 3.22-1.835zm3.22 7.803c3.376 1.52 6.902 9.18 6.902 9.18s-.202 1.693-1.84 2.295c-1.786.657-3.22-.918-3.22-.918l-3.682-9.64c.614-.305 1.227-.61 1.84-.917zm-41.41 2.754l4.14 2.295-5.98 5.967 1.84-8.263z"/></symbol><symbol preserveAspectRatio="xMidYMid" viewBox="0 0 64 64" id="dtb-battlenet"><path d="M16.872 22.972c-2.075-.02-4.833-.104-7.157.12-2.73.263-4.363.59-4.363.59s.662-1.964 11.403-2.12c-.108-5.445 1.583-7.877 2.985-8.49 2.277-.94 4.128 2.712 4.128 2.712s-.075-.984 0-2.004c.08-1.09.314-2.237.41-2.793.532-1.756 1.366-3.74 2.705-4.7 1.922-1.38 3.954-.778 5.258.42 3.066 2.82 6.024 6.9 7.91 10.86 4.185-.023 9.758 2.232 9.758 2.232s1.824-2.736 3.21-5.43c1.21-2.355 2.003-4.833 2.003-4.833s.43 1.03 0 2.357c-1.032 3.2-3.684 8.728-3.684 8.728s1.327.76 1.916 1.174c4.15 2.913 4.216 5.15 3.54 6.364-.64 1.147-4.01 1.415-4.01 1.415s.955.61 2.2 1.504c1.565 1.124 3.49 3.1 4.254 4.985.92 2.265-.588 3.766-1.856 4.59-2.996 1.946-8.767 2.394-14.152 2.003-1.47 2.252-5.212 5.845-7.27 7.26 1.86 3.75 6.562 9.596 6.562 9.596s-1.448.077-4.953-4.597c-.975-1.3-2.713-4.126-2.713-4.126s-1.262.66-1.858.97c-2.073 1.074-4.12 1.802-7.054 1.057-1.143-1.724-1.11-3.198.303-5.09-.08 0-.538.272-.538.272s-5.89 3.347-9.96 1.26c-.652-.336-1.26-1.85-1.443-2.67-.327-1.463.27-3.135.587-4.113.588-1.808 1.63-4.338 2.627-6.3 1.022-2.01 2.123-3.42 2.123-3.42s-1.238-3.336-1.533-4.125c-.75-2-.896-3.198-1.335-5.66zm10.816-3.525s1.524-1.184 4.553-1.777c2.8-.547 5.31-.354 5.31-.354-.004-.026-3.758-6.364-6.386-5.506-3.42 1.115-3.476 7.637-3.476 7.637zm-7.712 1.995l4.185.12c-.098-2.72-.064-4.94-2.22-5.3-1.015-.167-1.97 2.177-1.964 5.18zm9.317 18.74s-1.663-4.314-2.24-6.01c-1.08-3.162-2.478-10.255-2.478-10.255s-.762 1.255-1.297 2.83c-.526 1.548-.707 3.417-.707 3.417 0-.004-.632-1.5-.262-3.406.303-1.556 1.442-3.312 1.442-3.312l-3.774-.354c-.014.016.008 3.257 1.01 6.333 1.168 3.587 2.663 6.98 4.18 8.99.76 1.008 3.773 3.3 3.773 3.3s3.172-2.182 6.368-4.95c3.824-3.312 7.784-7.308 7.784-7.308l1.76 1.27s-5.245 6.354-6.95 8.042c-.877.868-4.6 4.124-4.6 4.124s1.696.084 3.185-.236c1.408-.3 3.185-1.06 3.185-1.06s-.818 1.105-3.722 1.914c-.614.17-2.765.325-2.765.325s.356.99.776 1.86c.44.91.874 1.913.876 1.912 0 0 3.16-2.354 4.364-3.773 3.54-4.174 7.722-8.536 6.958-13.673-.004-.03.117-.088.118-.118-1.41-.705-2.953-1.416-3.958-1.894-9.435-3.433-13.494-3.88-13.497-3.88l.022-2.202c.054-.045 7.943 1.05 10.358 1.847 1.836.606 5.78 1.886 5.78 1.886s.19-.157-1.534-2.475c-1.46-1.962-2.59-2.354-2.59-2.354s1.876.638 3.06 1.647c.86.73 2.242 2.594 2.242 2.594l2.123-2.947s-1.742-.827-2.594-1.18c-2.87-1.183-9.475-2.74-13.445-1.767-2.015.494-4.598 1.768-4.598 1.768s.517 5.174.752 7.054l1.646 6.932a344.525 344.525 0 0 0 1.376 4.048l-2.123 1.06zm20.585-17.01c.03-.055-.347.8-.89 1.688a26.014 26.014 0 0 1-1.297 1.886l3.068 1.532s1.278-.784 2.005-1.296c.643-.454.85-.525-.59-2.122-.897-.993-2.295-1.69-2.295-1.69zm-2.187 7.935s.046 2.115-.588 4.126c-.82 2.6-2.367 5.246-2.367 5.246s8.178-.134 8.028-3.48c-.12-2.696-5.072-5.893-5.072-5.893zM20.87 35.31c-.62 1.28-2.905 5.713-1.838 7.584 1.155 2.025 7.365.602 8.42-.417-2.102-1.01-3.656-2.76-4.937-4.583-.553-.788-.905-1.99-1.645-2.585zm10.428 9.234s-1.757.834-3.066 2.122c-.68.916-.633 2.274.07 2.52 2.617.916 5.12-.87 5.12-.87l-2.124-3.772z"/></symbol><symbol preserveAspectRatio="xMidYMid" viewBox="0 0 64 64" id="dtb-gba"><path d="M55.416 16.225c-.79 1.18-1.047 2.075-2.775 2.68 1.415.41 1.537 1.14 2.367 2.188a6.012 6.012 0 0 1 1.33 3.552c.077 1.74-.314 3.393-1.173 4.956-.858 1.565-2.087 2.69-3.688 3.375-1.6.686-2.337 1.03-5.166 1.03H33.508l4.424-29.01h9.282c2.014 0 1.447.067 2.256.2 1.342.197 2.99.593 3.942 1.186a6.14 6.14 0 0 1 2.215 2.376c.525.99.814 2.084.866 3.284.07 1.61-.29 3.005-1.077 4.185zm-15.61 13.11H45.2c2.26 0 1.79-.156 2.55-.466.758-.31 1.353-.822 1.785-1.534.433-.713.63-1.464.597-2.256-.042-.963-.41-1.758-1.104-2.384-.695-.627.158-.94-1.398-.94h-6.67l-1.153 7.578zM49.812 10.91c-.415-.474-.99-.79-1.726-.95-.41-.08.583-.118-.973-.118h-4.335l-1.053 6.866h4.26c1.916 0 1.308-.145 2.136-.435.827-.29 1.436-.765 1.828-1.425.39-.66.57-1.365.537-2.117-.032-.74-.256-1.346-.672-1.82zm-27.31.09c-1.972.845-4.73 1.836-6 3.5-1.27 1.66-2.447 2.903-2.876 4.956a14.838 14.838 0 0 0-.32 3.035c0 1.113.156 2.09.47 2.927.314.838.767 1.54 1.36 2.103.59.564 1.308.99 2.15 1.28.842.288 1.784.433 2.825.433.698 0 1.39-.073 2.076-.217a8.005 8.005 0 0 0 1.904-.652l.763-4.373h-6.266l.835-5.37h10.396c.47 0 .806.16 1.006.478.2.318.243.767.13 1.344l-1.706 10.176a3.54 3.54 0 0 1-.214.705c-.085.195-.2.372-.342.53-.157.174-.52.38-1.092.62a18.56 18.56 0 0 1-2.086.703c-.82.233-1.738.427-2.75.587a19.98 19.98 0 0 1-3.104.238c-1.983 0-3.73-.23-5.244-.694-1.512-.46-2.78-1.15-3.8-2.07-1.02-.917-1.793-2.04-2.32-3.37-.53-1.33-.793-2.862-.793-4.596 0-1.56.168-3.093.503-4.597.335-1.503.835-2.93 1.498-4.28C10.83 11.692 13.374 9.608 16 8c5.857-3.585 11.54-2.807 11.91-2.742C28.615 5.358 34 6 34 6l-1.5 5s-6.768-1.385-10 0zM35 38l12 21h-6l-8.5-15.5-7 11.5H32v4H17.5v-1.5L30 38h5z"/></symbol><symbol preserveAspectRatio="xMidYMid" viewBox="0 0 64 64" id="dtb-gogdotcom"><path d="M57.41 33.692H43.987v-3.986H55.23c.664 0 1.203-.538 1.203-1.203V15.268c0-.665-.54-1.203-1.204-1.203h-6.017c-.665 0-1.203.538-1.203 1.203v6.016c0 .665.538 1.203 1.203 1.203h4.82v3.986h-7.076a3.008 3.008 0 0 1-3.008-3.008V13.012a3.008 3.008 0 0 1 3.007-3.008H57.41a3.008 3.008 0 0 1 3.008 3.008v17.672a3.008 3.008 0 0 1-3.008 3.008zm-1.504 3.948h4.512l-.038 16.243h-3.948V41.7H53.686c-.663 0-1.202.54-1.202 1.204V53.81H48.5V41.7h-2.71c-.663 0-1.202.54-1.202 1.204V53.81h-3.985V40.648a3.008 3.008 0 0 1 3.008-3.008h12.297zM37.708 26.473H27.255a3.008 3.008 0 0 1-3.008-3.008V13.012a3.008 3.008 0 0 1 3.008-3.008h10.453a3.008 3.008 0 0 1 3.008 3.008v10.453a3.008 3.008 0 0 1-3.008 3.008zm-.978-11.205c0-.665-.538-1.203-1.203-1.203H29.51c-.664 0-1.203.538-1.203 1.203v6.016c0 .665.54 1.203 1.204 1.203h6.017c.665 0 1.203-.538 1.203-1.203v-6.016zm.79 25.267v10.453a3.008 3.008 0 0 1-3.008 3.008H24.06a3.008 3.008 0 0 1-3.01-3.008V40.535a3.008 3.008 0 0 1 3.01-3.008H34.51a3.008 3.008 0 0 1 3.008 3.008zm-3.986 2.256c0-.664-.538-1.202-1.203-1.202h-6.015c-.665 0-1.204.538-1.204 1.203v6.017c0 .665.54 1.204 1.205 1.204h6.016c.666 0 1.204-.538 1.204-1.203V42.79zm-15.49-9.098H4.62v-3.986h11.242c.665 0 1.203-.538 1.203-1.203V15.268c0-.665-.538-1.203-1.203-1.203H9.846c-.665 0-1.203.538-1.203 1.203v6.016c0 .665.538 1.203 1.203 1.203h4.82v3.986H7.59a3.008 3.008 0 0 1-3.008-3.008V13.012a3.008 3.008 0 0 1 3.008-3.008h10.453a3.008 3.008 0 0 1 3.008 3.008v17.672a3.008 3.008 0 0 1-3.007 3.008zM7.59 37.49h10.453v4.06H9.846c-.665 0-1.203.54-1.203 1.203v5.98c0 .664.538 1.202 1.203 1.202h8.197v3.986H7.59a3.008 3.008 0 0 1-3.008-3.007V40.498A3.008 3.008 0 0 1 7.59 37.49z"/></symbol><symbol preserveAspectRatio="xMidYMid" viewBox="0 0 64 64" id="dtb-google-play"><path d="M11.103 4.99L43.36 23.075l-7.194 7.187L11.103 4.99zm-3.017.464l5.57 5.564L27.81 25.16l6.73 6.724-6.265 6.26L15.28 51.127c-1.58 1.58-7.194 7.42-7.194 7.42s-.57-.234-.696-.697c-.203-.743-.232-2.086-.232-2.086V8.236s-.105-.848.464-2.318c.167-.433.464-.464.464-.464zM55.66 33.97l-10.444 5.797-7.194-7.65 7.658-7.884s6.704 3.754 9.747 5.565c1.1.654 1.438 1.42 1.392 2.086-.082 1.18-1.16 2.087-1.16 2.087zm-19.494-.23l7.194 6.954L10.87 59.01l25.296-25.27z"/></symbol><symbol preserveAspectRatio="xMidYMid" viewBox="0 0 64 64" id="dtb-ios"><path d="M50.53 60.003H14.47c-5.23 0-9.473-4.242-9.473-9.473V14.47c0-5.23 4.242-9.473 9.473-9.473h36.06c5.23 0 9.473 4.242 9.473 9.473v36.06c0 5.23-4.242 9.473-9.473 9.473zm7.945-44.92a8.557 8.557 0 0 0-8.557-8.558H15.082a8.557 8.557 0 0 0-8.557 8.557v34.836a8.557 8.557 0 0 0 8.557 8.557h34.836a8.557 8.557 0 0 0 8.557-8.557V15.082zM43.392 30.46c.7.286.727.286 3.714.936 4.156.883 5.82 2.467 5.82 5.48 0 3.663-2.52 5.74-6.99 5.74-2.908 0-5.064-.856-6.258-2.467-.676-.91-.96-1.715-1.22-3.43l2.26-.285c.077 1.247.258 1.87.804 2.57.857 1.144 2.415 1.794 4.338 1.794 3.09 0 4.96-1.456 4.96-3.872 0-1.272-.52-2.233-1.506-2.78-.857-.492-1.143-.57-4.286-1.272-1.636-.337-2.65-.7-3.532-1.194-1.61-.91-2.416-2.286-2.416-4.104 0-3.273 2.624-5.377 6.65-5.377 2.57 0 4.57.832 5.74 2.39.597.78.857 1.43 1.143 2.754l-2.182.31c-.207-1.038-.415-1.557-.908-2.154-.83-.987-2.156-1.507-3.844-1.507-2.676 0-4.546 1.43-4.546 3.533 0 1.35.727 2.31 2.26 2.935zM26.69 42.67c-5.48 0-8.96-4-8.96-10.26 0-6.235 3.53-10.26 8.986-10.26 5.48 0 8.96 4 8.96 10.26s-3.505 10.26-8.986 10.26zm4.572-16.91c-1.195-1.17-2.754-1.793-4.546-1.793-4.156 0-6.883 3.325-6.883 8.416 0 5.09 2.753 8.442 6.91 8.442 1.79 0 3.324-.598 4.493-1.767 1.48-1.454 2.31-3.87 2.31-6.65 0-2.856-.778-5.142-2.284-6.65zm-19.247-3.222h2.52v2.312h-2.52v-2.312zm.078 5.74h2.337c-.13.91-.18 1.637-.18 2.936v8.13c0 1.195.05 1.922.18 2.935h-2.337c.13-1.118.18-1.845.18-2.936v-8.13c0-1.247-.05-2.026-.18-2.935z"/></symbol><symbol preserveAspectRatio="xMidYMid" viewBox="0 0 64 64" id="dtb-nds"><path fill-rule="evenodd" d="M44.546 59.502H19.454a4.364 4.364 0 0 1-4.364-4.364v-15.82a4.364 4.364 0 0 1 4.364-4.363h25.092a4.364 4.364 0 0 1 4.364 4.364v15.818a4.364 4.364 0 0 1-4.364 4.364zm0-29.457H19.454a4.364 4.364 0 0 1-4.364-4.364V9.863a4.364 4.364 0 0 1 4.364-4.364h25.092a4.364 4.364 0 0 1 4.364 4.364v15.82a4.364 4.364 0 0 1-4.364 4.363zm-25.092 25.64V39.318h25.092v16.364H19.454zm0-45.823h25.092v16.365H19.454V9.862z" class="bgcls-1"/></symbol><symbol preserveAspectRatio="xMidYMid" viewBox="0 0 64 64" id="dtb-origin"><path fill-rule="evenodd" d="M32.11 24.843a7.758 7.758 0 0 1 7.76 7.756 7.758 7.758 0 0 1-7.76 7.755 7.758 7.758 0 0 1-7.76-7.756 7.758 7.758 0 0 1 7.76-7.757zm18.25 13.982c-2.744 8.616-9.875 14.232-11.1 15.347-2.71 2.47-5.216 3.993-6.386 4.315-.472.13-.655-.426-.655-.437 0 0-.034-.32.217-.655.433-.575.674-.18 1.75-2.622.56-1.275.785-2.772.85-3.3-.99.158-2.003.242-3.037.242-10.623 0-19.235-8.608-19.235-19.225 0 .83-.206-1.947 1.033-6.33 2.46-8.697 9.89-14.222 11.116-15.336 2.714-2.466 5.224-3.99 6.395-4.31.472-.13.655.425.656.435 0 0 .033.32-.22.654-.432.574-.674.18-1.75 2.62-.548 1.243-.776 2.693-.848 3.252.93-.138 1.883-.21 2.852-.21 10.623 0 19.235 8.606 19.235 19.224 0-2.255.182 3.018-.875 6.335z"/></symbol><symbol preserveAspectRatio="xMidYMid" viewBox="0 0 64 64" id="dtb-playstation"><path d="M23.236 48.068c-.82.172-1.68.262-2.557.406-2.26.372-4.933.002-6.846-.375-1.45-.287-2.913-.405-4.275-.723-1.955-.456-4.68-.82-5.026-2.858-.43-2.545 2.826-4.445 4.62-4.967 4.694-1.59 9.388-3.183 14.082-4.774v4.91l-7.063 2.548c-.758.295-2.84.66-2.54 1.79.26.983 2.033 1.38 3.263 1.04 2.113-.71 4.226-1.418 6.34-2.127v5.128zm11.48-24.8v-3.117c0-.395-.064-.937.058-1.24.164-.413.624-.676 1.097-.78.434-.095.933.007 1.243.116 1.483.522 1.098 2.114 1.098 4.013v12.79c2.643.644 5.6.984 7.683-.492 3.414-2.42 4.056-10.336 1.646-14.378-1.92-3.22-5.305-5.097-9.214-6.323l-5.054-1.328-7.596-2.022.004 39.527 3.057.98c1.928.614 4.164 1.38 5.942 1.914 0 0 .033-28.276.036-29.66zm2.407 28.853c.7-.243 1.4-.486 2.098-.73l12.97-4.56c2.63-1.027 5.14-1.564 7.162-3.177.493-.394 1.31-1.253 1.127-2.252-.395-2.148-2.222-2.913-4.103-3.58-4.775-1.692-12.185-1.62-17.156-.2l-2.097.622v5.214l10.243-3.5c.674-.085 1.348-.172 2.022-.26 1.014-.014 2.72-.083 2.86.752.09.374-.396.648-.636.808-.91.608-2.106.902-3.235 1.3L37.123 46.4v5.72z"/></symbol><symbol preserveAspectRatio="xMidYMid" viewBox="0 0 64 64" id="dtb-psp"><path d="M44.076 32.83v5.293h-.66V32.17h17.418v-4.63h-17.42v-.663h18.082v5.952h-17.42zm-12.568 4.63v.663h-9.923v-.662h9.26V26.878h9.924v.662h-9.262v9.92zm-27.342.663h-.662V32.17h17.42v-4.63H3.504v-.663h18.08v5.952H4.167v5.293z"/></symbol><symbol preserveAspectRatio="xMidYMid" viewBox="0 0 64 64" id="dtb-sonkwo"><path d="M46.534 36.258l-4.755-4.14 2.147-4.45 4.6 4.142s-.39 1.12-.92 2.3a34.822 34.822 0 0 1-1.073 2.148zm-6.75-15.03l1.382-3.222L45 21.84l-1.533 3.988-3.682-4.6zm-3.066-3.53c-1.227-1.34-2.3-2.913-2.3-2.913.005.007-1.82 4.613-3.723 7.97-1.362 2.4-2.72 4.147-2.72 4.147 0-.002 2.74 4.788 6.596 8.742 6.207 6.364 14.418 11.504 14.418 11.504s-3.682 4.467-7.67 7.822c-3.75 3.157-8.128 5.522-8.128 5.522s-6.56-3.28-12.16-8.16c-4.703-4.102-8.554-10.366-8.546-10.4l5.368-3.987s2.768 4.113 6.135 7.516c3.882 3.923 8.436 7.21 8.436 7.21l6.442-5.37s-6.26-4.03-10.736-9.662c-6.038-7.6-6.443-11.196-6.443-11.196s3.35-3.92 7.515-10.737C31.925 11.25 33.19 4.508 33.19 4.508s1.2 3.84 2.76 6.442c2.053 3.42 4.45 5.83 4.45 5.83l-1.228 3.526s-1.227-1.265-2.454-2.607zm-12.884-1.686s.893-1.07 1.687-2.3c.738-1.143 1.382-2.302 1.382-2.302l1.687 3.835-3.07 4.6-1.686-3.833zm.92 4.908s-.625.627-1.38 1.534a497.895 497.895 0 0 1-2.454 2.914l-1.534-3.988s.764-.763 1.534-1.687c1.09-1.31 2.3-2.914 2.3-2.914s.367 1.38.83 2.473l.704 1.667zm-5.98 16.41l4.907-4.293 2.915 4.294-4.755 4.143-3.067-4.142zM37.33 47.455l-5.06 3.988-4.908-3.988 4.908-4.14 5.06 4.14zm-14.723-4.908l4.755-4.14 4.14 4.14-5.06 3.988-3.835-3.988zm.46-10.43s-.93.738-1.84 1.534c-1.425 1.247-3.068 2.76-3.068 2.76l-1.995-4.6a79.95 79.95 0 0 0 2.615-2.336c.986-.926 1.987-1.96 1.987-1.96l2.3 4.603zm19.786 9.51l-5.06-4.14 3.373-4.45 4.755 4.295-3.067 4.296zm.307-14.878l-2.3 4.602-3.99-4.448 2.455-4.602 3.835 4.448zm-6.75-7.67c1.045 1.183 2.21 2.287 2.148 2.302-.12.03-2.454 4.6-2.454 4.6l-3.374-4.907 1.84-4.294s.862 1.19 1.84 2.3zm-.152 8.744s.76.795 1.534 1.687a177.25 177.25 0 0 0 2.454 2.76l-3.068 4.448-4.14-4.295a43.97 43.97 0 0 0 2.01-2.77c.52-.783 1.21-1.83 1.21-1.83zm-5.938.906a105.048 105.048 0 0 1-1.27-1.826s.828-1.168 1.686-2.454c.645-.968 1.38-2.148 1.38-2.148l3.528 4.755-3.22 4.6s-1.117-1.55-2.104-2.927zm16.674 9.217l5.522 4.14-3.068 4.296-5.675-4.14 3.22-4.295z"/></symbol><symbol preserveAspectRatio="xMidYMid" viewBox="0 0 64 64" id="dtb-steam"><path d="M51.495 21.508c2.767 0 5 2.24 5 4.996a5.003 5.003 0 0 1-5 4.996 4.996 4.996 0 0 1 0-9.992zm-40.003-2c3.862 0 7 3.137 7 6.996l-.032.732 14.822 7.685a6.99 6.99 0 0 1 4.222-1.42l5-6.996c0-4.963 4.025-8.997 9.002-8.997 4.966 0 9.002 4.023 9.002 8.997a8.993 8.993 0 0 1-9.002 8.997l-7 4.997a6.997 6.997 0 0 1-7.002 6.996 6.99 6.99 0 0 1-7-6.996v-.263l-15.183-7.87a6.94 6.94 0 0 1-3.828 1.136 6.997 6.997 0 0 1 0-13.993zm28.08 18.67a3 3 0 1 1-2.724 5.346l-4.288-2.218a5 5 0 0 0 9.932-.81 4.996 4.996 0 0 0-7.153-4.503l4.232 2.186zm-28.08-16.67a5.002 5.002 0 0 0-4.998 4.996 5.002 5.002 0 0 0 4.998 4.996c.57 0 1.116-.1 1.63-.274L9.808 29.51a2.998 2.998 0 0 1-1.313-4.034 3.002 3.002 0 0 1 4.037-1.312l3.96 2.056a5 5 0 0 0-5-4.712zm40.003-2c-3.86 0-7 3.137-7 6.996 0 3.86 3.128 6.996 7 6.996 3.86 0 7-3.126 7-6.996 0-3.87-3.128-6.997-7-6.997z"/></symbol><symbol preserveAspectRatio="xMidYMid" viewBox="0 0 64 64" id="dtb-uplay"><path d="M60.265 33.042c-.152 3.017-4.073 22.627-19.913 22.627-11.872 0-23.985-8.946-23.985-20.818 0-11.872 11.283-25.484 23.155-25.58 11.904-.098 21.243 13.818 20.743 23.77zm-9.278-9.957h-7.014v14.078c-.11.202-.26.432-.453.63-.426.434-1.098.68-1.098.68h-9.277c-1.594 0-1.844-4.074-1.844-4.074V23.084h-6.56v14.55s.258 2.902 1.81 4.458c1.68 1.686 4.44 2.036 4.44 2.036h19.996V23.084zm-31.213-7.69a2.497 2.497 0 0 1-2.488-2.504 2.496 2.496 0 0 1 2.488-2.504 2.496 2.496 0 0 1 2.488 2.505 2.497 2.497 0 0 1-2.488 2.506zM12.88 29.234c-3.342 1.49-6.355-.144-7.148-.717-1.48-1.068-1.673-4.364-1.358-6.562.398-2.782 2.176-4.752 6.336-4.752 1.713 0 4.417.692 5.43 2.49.806 1.428 2.092 7.156-3.26 9.54z"/></symbol><symbol preserveAspectRatio="xMidYMid" viewBox="0 0 64 64" id="dtb-wii"><path d="M45.312 18.603c1.704-.023 2.72.496 3.355 1.52.14.224.243.555.317.822.097.357.086.895 0 1.235-.36 1.42-1.07 2.135-2.47 2.5-1.88.492-3.215-.77-3.702-1.93-.23-.548-.314-1.497-.063-2.12.316-.79.93-1.48 1.708-1.806.228-.096.658-.096.854-.22zm10.95 0c1.853-.025 2.805.577 3.42 1.772.23.453.423 1.344.22 2.026-.084.285-.2.615-.348.856-.49.79-1.24 1.205-2.28 1.456-.44.107-1.15.057-1.518-.063-1.415-.462-2.845-2.203-2.025-4.148a3.263 3.263 0 0 1 1.678-1.678c.22-.094.663-.1.855-.22zM34.52 20.06c1.94-.004 3.943-.018 5.792.062-.022.504-.268 1.047-.41 1.488-.36 1.097-.572 2.224-.92 3.292-.24.737-.328 1.448-.57 2.184-.854 2.618-1.43 5.397-2.277 8.01-.13.395-.156.747-.285 1.14-.47 1.425-.83 2.953-1.298 4.367-.3.91-.452 1.906-.918 2.66-.754 1.22-1.74 2.09-3.734 2.09-.342-.002-.67-.006-.95-.096-.635-.205-1.07-.533-1.487-.95-.185-.185-.416-.356-.57-.57-.65-.908-.847-2.178-1.234-3.355-.967-2.94-1.575-6.093-2.533-9.054-.25-.775-.392-1.565-.633-2.31-.103-.32-.134-.91-.316-1.14-.03.285-.172.577-.253.823-.126.38-.202.76-.317 1.11-.372 1.13-.59 2.31-.95 3.418-.168.518-.21 1-.38 1.52-.53 1.627-.897 3.378-1.423 5-.312.963-.444 1.953-.823 2.85-.262.62-.633 1.144-1.013 1.646-.638.842-2.71 1.532-4.178.918-2.682-1.122-2.832-4.188-3.767-7.028-.31-.942-.505-1.937-.822-2.912-1.073-3.288-1.78-6.773-2.85-10.067-.392-1.213-.63-2.458-1.01-3.64-.158-.485-.206-.966-.38-1.424h5.695c.034.024.03.02.095.032 1.56 6.078 3.123 12.157 4.684 18.234.02-.45.22-.938.348-1.33.302-.926.438-1.89.728-2.785.215-.66.26-1.3.475-1.962.58-1.784.91-3.726 1.487-5.508.64-1.978.843-4.303 1.963-5.793.61-.812 2.404-1.472 3.892-.98 2.242.738 2.284 2.963 3.007 5.19 1.01 3.107 1.557 6.476 2.563 9.592.358 1.107.458 2.34.887 3.386h.03c.037-.375.208-.774.318-1.108.26-.8.393-1.63.633-2.406.143-.466.165-.898.316-1.36.585-1.79.904-3.736 1.456-5.54.23-.755.293-1.496.538-2.248.31-.954.44-1.995.76-2.976.15-.465.218-.99.38-1.488.094-.293.223-.633.252-.98zm8.61 7.628h5.474v17.474H43.13V27.688zm10.95 0h5.442v17.474H54.08V27.688z"/></symbol><symbol preserveAspectRatio="xMidYMid" viewBox="0 0 64 64" id="dtb-wiiu"><path d="M18.286 10.552v15.324c0 3.436-.163 7.027.696 9.675 1.234 3.808 3.41 6.394 6.96 7.895.306.13 5.703 2.554 11.68.62 2.666-.864 5.04-2.336 6.498-4.413 2.703-3.85 2.63-8.258 2.63-14.782V10.63c.502-.167 1.376-.078 2.01-.078h4.564c.426.26 1.71.138 2.243.31 1.786.574 3.136 1.623 4.022 3.095 1.25 2.08.85 6.18.85 9.443v14.318c0 5.1.072 8.623-2.088 11.53-.327.44-.867.836-1.315 1.162-3.124 2.274-6.194 2.09-11.525 2.09H16.43c-1.7 0-3.353.068-4.72-.31-3.263-.903-5.39-2.68-6.496-5.727-.742-2.04-.62-4.837-.62-7.585V26.573c0-3.886-.53-10.3.93-12.693 2.322-3.813 6.74-3.348 12.762-3.328zm6.883 0h14.696c.152.463.077 1.265.077 1.858v18.11c-.25.418-.152 1.644-.31 2.167-.467 1.552-1.237 3.232-2.397 4.102-.827.618-1.75 1.14-2.862 1.47-2.825.838-5.265-.532-6.73-1.78-2.586-2.206-2.475-5.6-2.475-10.372V10.552z"/></symbol><symbol preserveAspectRatio="xMidYMid" viewBox="0 0 64 64" id="dtb-windows-store"><path d="M46.74 58.996L8.175 51.194V20.637l8.41-1.726.11-3.365c.55-5.176 4.59-10.082 9.59-10.504 5.503-.464 10.02 3.548 10.59 9.706l3.007-.617c-.755-2.263-2.237-4.104-4.1-5.205-.01-.006-.02-.01-.03-.017l-2.186-2.34c-.788-.13-.763-.13.035.005 3.644.623 6.556 3.326 7.67 7.27l5.414-1.11 4.52 2.984v-.066l4.617.584v39.15l-9.084 3.612zM16.425 43.714l8.8 1.22v-8.33h-8.8v7.11zm0-14.642v7.215h8.8v-8.435l-8.8 1.22zM26.26 6.398c-4.696.396-8.605 5.766-8.394 10.632-.02.592-.024 1.373-.025 1.624l3.65-.75.03-.927c.427-4.02 2.96-7.88 6.415-9.598a.228.228 0 0 0 .038-.02l2.324.585-.04.008c-4.067.857-7.36 5.36-7.564 9.705l12.858-2.64c-.512-5.195-4.64-9.012-9.29-8.62zM36.68 26.26l-11.135 1.546v8.48H36.68V26.262zm0 10.345H25.544v8.375l11.134 1.546v-9.92zm-.926-27.697c-1.383-.81-1.37-.81 0 0z"/></symbol><symbol preserveAspectRatio="xMidYMid" viewBox="0 0 64 64" id="dtb-xbox"><path d="M16.756 9.176c-.028.022-.05.045-.075.067.157-.165.38-.342.53-.438 4.3-2.796 9.27-4.29 14.787-4.29a27.34 27.34 0 0 1 14.115 3.9c.3.178 1.115.738 1.536 1.246v.003C43.668 5.276 31.97 14.69 31.97 14.69c-4.045-3.12-7.766-5.244-10.536-6-2.316-.635-3.918-.105-4.678.486zm35.4 4.148c-.123-.134-.255-.26-.377-.4-1.007-1.103-2.244-1.37-3.36-1.298-1.014.32-5.702 2.008-11.48 7.463 0 0 6.504 6.323 10.488 12.788 3.98 6.466 6.36 11.547 4.896 18.6a27.37 27.37 0 0 0 7.15-18.486 27.37 27.37 0 0 0-7.32-18.668zm-9.93 21.316a190.298 190.298 0 0 0-7.856-8.264c-.758-.754-1.56-1.54-2.4-2.353 0 0-1.268 1.266-2.917 2.932v-.002c-2.11 2.132-4.847 4.913-6.365 6.536-2.705 2.884-10.452 11.947-10.888 17.028 0 0-1.724-4.03 2.06-13.326 2.47-6.076 9.938-15.2 13.057-18.174 0 0-2.85-3.135-6.425-5.3l-.022-.007s-.04-.03-.104-.072c-1.72-1.025-3.597-1.815-5.404-1.92-1.846.13-3.014 1.48-3.014 1.48a27.38 27.38 0 0 0-7.434 18.796c0 15.175 12.304 27.48 27.483 27.48 8.055 0 15.303-3.473 20.33-8.995 0-.01-.578-3.632-4.276-8.828-.868-1.217-4.044-5.017-5.824-7.012z"/></symbol><symbol viewBox="0 0 24 24" id="eye"><path d="M12 9a3 3 0 0 0-3 3 3 3 0 0 0 3 3 3 3 0 0 0 3-3 3 3 0 0 0-3-3m0 8a5 5 0 0 1-5-5 5 5 0 0 1 5-5 5 5 0 0 1 5 5 5 5 0 0 1-5 5m0-12.5C7 4.5 2.73 7.61 1 12c1.73 4.39 6 7.5 11 7.5s9.27-3.11 11-7.5c-1.73-4.39-6-7.5-11-7.5z"/></symbol><symbol viewBox="0 0 24 24" id="eye-off"><path d="M11.83 9L15 12.16V12a3 3 0 0 0-3-3h-.17m-4.3.8l1.55 1.55c-.05.21-.08.42-.08.65a3 3 0 0 0 3 3c.22 0 .44-.03.65-.08l1.55 1.55c-.67.33-1.41.53-2.2.53a5 5 0 0 1-5-5c0-.79.2-1.53.53-2.2M2 4.27l2.28 2.28.45.45C3.08 8.3 1.78 10 1 12c1.73 4.39 6 7.5 11 7.5 1.55 0 3.03-.3 4.38-.84l.43.42L19.73 22 21 20.73 3.27 3M12 7a5 5 0 0 1 5 5c0 .64-.13 1.26-.36 1.82l2.93 2.93c1.5-1.25 2.7-2.89 3.43-4.75-1.73-4.39-6-7.5-11-7.5-1.4 0-2.74.25-4 .7l2.17 2.15A5.05 5.05 0 0 1 12 7z"/></symbol><symbol preserveAspectRatio="xMidYMid" viewBox="0 0 64 64" id="file"><path d="M34.814 23.12V7.73l15.39 15.39h-15.39zM15.224 3.53A5.578 5.578 0 0 0 9.627 9.13v44.775a5.597 5.597 0 0 0 5.597 5.597h33.582a5.597 5.597 0 0 0 5.597-5.597v-33.58L37.613 3.53h-22.39z"/></symbol><symbol preserveAspectRatio="xMidYMid" viewBox="0 0 64 64" id="human-greeting"><path d="M4.984 11v3.938c0 10.893 5.93 20.422 14.758 25.724V53h40.25v-5.25c0-6.983-14.302-10.5-21.467-10.5h-.67c-12.746 0-23.48-10.5-23.48-22.312V11m24.15 0c-5.928 0-10.733 4.7-10.733 10.5S32.597 32 38.525 32c5.928 0 10.734-4.7 10.734-10.5S44.452 11 38.524 11z"/></symbol><symbol preserveAspectRatio="xMidYMid" viewBox="0 0 64 64" id="image"><path d="M23.833 35.5l5.834 7L37.833 32l10.5 14H15.667M53 48.333V15.667C53 13.077 50.9 11 48.333 11H15.667A4.668 4.668 0 0 0 11 15.667v32.666A4.668 4.668 0 0 0 15.667 53h32.666A4.668 4.668 0 0 0 53 48.333z"/></symbol><symbol preserveAspectRatio="xMidYMid" viewBox="0 0 257 513" id="keylol-logo-arrow"><path d="M.34 146.614L109.626 256.43.34 365.72V512.14l256.24-255.71L.34.19v146.424z"/></symbol><symbol preserveAspectRatio="xMidYMid" viewBox="0 0 64 64" id="login-passcode"><path d="M20.182 37.333c-2.61 0-4.727-2.164-4.727-4.833 0-2.67 2.116-4.833 4.727-4.833 2.61 0 4.727 2.164 4.727 4.833 0 2.67-2.117 4.833-4.728 4.833m13.354-9.666C31.598 22.037 26.35 18 20.182 18 12.35 18 6 24.492 6 32.5S12.35 47 20.182 47c6.17 0 11.416-4.036 13.354-9.667h10.282V47h9.455v-9.667H58v-9.666H33.536z"/></symbol><symbol preserveAspectRatio="xMidYMid" viewBox="0 0 64 64" id="login-steam-bot"><path d="M24.8 56a2.4 2.4 0 0 1-2.4-2.4v-7.2h-9.6A4.8 4.8 0 0 1 8 41.6V12.8A4.8 4.8 0 0 1 12.8 8h38.4a4.8 4.8 0 0 1 4.8 4.8v28.8a4.8 4.8 0 0 1-4.8 4.8H36.56l-8.88 8.904C27.2 55.76 26.6 56 26 56h-1.2m16.8-19.2v-2.4c0-3.192-6.408-4.8-9.6-4.8-3.192 0-9.6 1.608-9.6 4.8v2.4h19.2M32 17.6a4.8 4.8 0 1 0 0 9.6 4.8 4.8 0 0 0 0-9.6z"/></symbol><symbol preserveAspectRatio="xMidYMid" viewBox="0 0 64 64" id="login-steam-web-api"><path d="M42.9 37c.2-1.65.35-3.3.35-5 0-1.7-.15-3.35-.35-5h8.45c.4 1.6.65 3.275.65 5s-.25 3.4-.65 5M38.475 50.9c1.5-2.775 2.65-5.775 3.45-8.9H49.3a20.074 20.074 0 0 1-10.825 8.9M37.85 37h-11.7c-.25-1.65-.4-3.3-.4-5 0-1.7.15-3.375.4-5h11.7c.225 1.625.4 3.3.4 5 0 1.7-.175 3.35-.4 5M32 51.9c-2.075-3-3.75-6.325-4.775-9.9h9.55c-1.025 3.575-2.7 6.9-4.775 9.9M22 22h-7.3a19.808 19.808 0 0 1 10.8-8.9C24 15.875 22.875 18.875 22 22m-7.3 20H22c.875 3.125 2 6.125 3.5 8.9A20.02 20.02 0 0 1 14.7 42m-2.05-5c-.4-1.6-.65-3.275-.65-5s.25-3.4.65-5h8.45c-.2 1.65-.35 3.3-.35 5 0 1.7.15 3.35.35 5M32 12.075c2.075 3 3.75 6.35 4.775 9.925h-9.55c1.025-3.575 2.7-6.925 4.775-9.925M49.3 22h-7.375c-.8-3.125-1.95-6.125-3.45-8.9A19.967 19.967 0 0 1 49.3 22M32 7C18.175 7 7 18.25 7 32c0 13.807 11.193 25 25 25s25-11.193 25-25S45.807 7 32 7z"/></symbol><symbol preserveAspectRatio="xMidYMid" viewBox="0 0 64 64" id="map"><path d="M32 31.05c-4.038 0-7.31-3.246-7.31-7.25 0-4.005 3.272-7.25 7.31-7.25s7.31 3.245 7.31 7.25c0 4.004-3.272 7.25-7.31 7.25M32 3.5c-11.306 0-20.47 9.088-20.47 20.3C11.53 39.025 32 61.5 32 61.5s20.47-22.475 20.47-37.7c0-11.212-9.164-20.3-20.47-20.3z"/></symbol><symbol preserveAspectRatio="xMidYMid" viewBox="0 0 64 64" id="menu-down"><path d="M20 26.5l12 12 12-12H20z"/></symbol><symbol preserveAspectRatio="xMidYMid" viewBox="0 0 64 64" id="menu-left"><path d="M38.5 20l-12 12 12 12V20z"/></symbol><symbol preserveAspectRatio="xMidYMid" viewBox="0 0 64 64" id="menu-right"><path d="M26.5 44l12-12-12-12v24z"/></symbol><symbol preserveAspectRatio="xMidYMid" viewBox="0 0 64 64" id="menu-up"><path d="M20 38.5l12-12 12 12H20z"/></symbol><symbol preserveAspectRatio="xMidYMid" viewBox="0 0 64 64" id="more"><path d="M46 32a7 7 0 1 1 14 0 7 7 0 0 1-14 0m-21 0a7 7 0 1 1 14 0 7 7 0 0 1-14 0M4 32a7 7 0 1 1 14 0 7 7 0 0 1-14 0z"/></symbol><symbol preserveAspectRatio="xMidYMid" viewBox="0 0 64 64" id="new-article"><path d="M51.328 15.724l-1.263 2.204-17.49-10.18 1.262-2.204a5.028 5.028 0 0 1 6.897-1.863l8.746 5.09c2.414 1.407 3.242 4.52 1.848 6.954zM33.656 46.58L16.166 36.4 30.05 12.155l17.49 10.18L33.657 46.58zM12.996 61l.645-20.195 17.49 10.18-18.133 10.015z"/></symbol><symbol preserveAspectRatio="xMidYMid" viewBox="0 0 64 64" id="open-in-new"><path d="M36.89 10v4.89h8.774L21.636 38.917l3.446 3.446 24.03-24.028v8.775H54V10m-4.89 39.11H14.89V14.89H32V10H14.89C12.175 10 10 12.2 10 14.89v34.22c0 2.7 2.19 4.89 4.89 4.89h34.22c2.7 0 4.89-2.19 4.89-4.89V32h-4.89v17.11z"/></symbol><symbol preserveAspectRatio="xMidYMid" viewBox="0 0 64 64" id="register"><path d="M27.7 46.4l-9.6-9.6 3.384-3.384 6.216 6.192 15.816-15.816L46.9 27.2M32.5 12.8a2.4 2.4 0 1 1 0 4.8 2.4 2.4 0 0 1 0-4.8m16.8 0H39.268C38.26 10.016 35.62 8 32.5 8c-3.12 0-5.76 2.016-6.768 4.8H15.7a4.8 4.8 0 0 0-4.8 4.8v33.6a4.8 4.8 0 0 0 4.8 4.8h33.6a4.8 4.8 0 0 0 4.8-4.8V17.6a4.8 4.8 0 0 0-4.8-4.8z"/></symbol><symbol preserveAspectRatio="xMidYMid" viewBox="0 0 64 64" id="search"><path d="M25.133 11.58c-2.686.047-5.38.858-7.657 2.482-5.544 3.96-6.503 11.244-2.137 16.28 4.36 5.025 12.395 5.897 17.94 1.938 5.548-3.958 6.503-11.243 2.14-16.278-2.455-2.833-6.07-4.345-9.75-4.42a12.017 12.017 0 0 0-.537 0zm.22-8.014c6.402-.004 12.74 2.565 17.01 7.48 6.084 7.02 6.034 16.627.565 23.538L59.73 53.96l-9.154 6.537-16.742-19.303c-8.762 3.39-19.266 1.21-25.438-5.898-7.38-8.513-5.758-20.833 3.622-27.53 3.958-2.827 8.663-4.198 13.335-4.2z"/></symbol><symbol preserveAspectRatio="xMidYMid" viewBox="0 0 64 64" id="settings"><path d="M32.002 39.7c-4.337 0-7.853-3.447-7.853-7.7s3.515-7.7 7.852-7.7 7.854 3.447 7.854 7.7-3.517 7.7-7.854 7.7m16.672-5.566c.09-.704.157-1.408.157-2.134a18.4 18.4 0 0 0-.156-2.2l4.735-3.586c.425-.33.537-.924.268-1.408l-4.488-7.612c-.27-.484-.875-.682-1.37-.484l-5.586 2.2c-1.167-.858-2.378-1.606-3.792-2.156l-.83-5.83A1.128 1.128 0 0 0 36.49 10h-8.976c-.56 0-1.032.396-1.122.924l-.83 5.83c-1.413.55-2.625 1.298-3.792 2.156l-5.587-2.2c-.494-.198-1.1 0-1.37.484l-4.487 7.612a1.07 1.07 0 0 0 .27 1.408L15.33 29.8c-.09.748-.157 1.474-.157 2.2 0 .726.068 1.43.157 2.134l-4.734 3.652a1.07 1.07 0 0 0-.27 1.408l4.488 7.612c.27.484.875.66 1.37.484l5.586-2.222c1.167.88 2.38 1.628 3.792 2.178l.83 5.83c.09.528.56.924 1.122.924h8.976c.56 0 1.032-.396 1.122-.924l.83-5.83c1.414-.572 2.625-1.298 3.792-2.178l5.587 2.222c.495.176 1.1 0 1.37-.484l4.488-7.612a1.096 1.096 0 0 0-.27-1.408l-4.734-3.652z"/></symbol><symbol preserveAspectRatio="xMidYMid" viewBox="0 0 64 64" id="steamcn"><path d="M-.01-.01h64.02v64.02H-.01V-.01zm7 7V32.5l30.45 12.88s1.064-.73 2.15-1.044c1.143-.332 2.31-.25 2.31-.25l7.356-10.148.125-1.563c.19-.804.325-1.643.626-2.376 1.16-2.828 3.797-5.767 7.003-6.503V6.99H6.99zm0 50.02H34.69v-.126c-.593-.492-1.062-2.69-1.062-2.69L6.99 42.88v14.13zm50.02 0v-9.442l-6.553 4.95s-.287 2.247-.388 2.552c-.23.69-.708 1.297-.925 1.945 2.605 0 5.26-.006 7.864-.006z"/></symbol><symbol preserveAspectRatio="xMidYMid" viewBox="0 0 64 64" id="tune"><path d="M11 43.666v4.667h14v-4.667H11m0-28v4.668h23.333v-4.667H11M34.333 53v-4.667H53v-4.667H34.333V39h-4.666v14h4.666m-14-28v4.667H11v4.666h9.333V39H25V25h-4.667M53 34.333v-4.666H29.667v4.666H53M39 25h4.667v-4.666H53v-4.667h-9.333V11H39v14z"/></symbol><symbol preserveAspectRatio="xMidYMid" viewBox="0 0 64 64" id="user"><path d="M42.68 35.043c-.74 0-1.58 0-2.47.127 2.953 2.135 5.014 4.958 5.014 8.77V50.3h15.27V43.94c0-5.923-11.885-8.897-17.815-8.897m-20.36 0c-5.93 0-17.813 2.974-17.813 8.898V50.3h35.627V43.94c0-5.923-11.884-8.897-17.813-8.897m0-5.086c4.217 0 7.635-3.415 7.635-7.627a7.63 7.63 0 0 0-7.634-7.628c-4.216 0-7.634 3.415-7.634 7.628 0 4.212 3.418 7.627 7.635 7.627m20.36 0c4.216 0 7.634-3.415 7.634-7.627 0-4.213-3.418-7.628-7.635-7.628a7.63 7.63 0 0 0-7.635 7.628c0 4.212 3.418 7.627 7.634 7.627z"/></symbol><symbol preserveAspectRatio="xMidYMid" viewBox="0 0 64 64" id="video-play"><path d="M16 11v42l33-21-33-21z"/></symbol></svg>