<?xml version="1.0" encoding="utf-8"?><svg xmlns="http://www.w3.org/2000/svg" xmlns:xlink="http://www.w3.org/1999/xlink"><symbol preserveAspectRatio="xMidYMid" viewBox="0 0 64 64" id="3DS"><path d="M59.405 35.736c1.748 4.116-.435 7.377-5.71 9.532-5.8 2.37-18.16 1.274-27.15.703V40.7c5.876 1.36 24.29 5.6 23.22-3.867-.334-2.96-10.19-3.144-17.503-3.163v-4.22c6.02.213 17.467.26 16.43-4.57-.86-4.02-14.538-3.636-21.43-1.054V18.9c22.27-2.88 31.33-.156 31.806 5.167.413 4.607-6.453 7.024-7.113 7.146 4.874.506 6.595 2.607 7.45 4.523zm-41.49 11.696h-8.93a5 5 0 0 1-5-5v-5.055a5 5 0 0 1 5-5h8.93a5 5 0 0 1 5 5v5.055a5 5 0 0 1-5 5zm2.118-7.894a5 5 0 0 0-5-5h-3.135a5 5 0 0 0-5 5v1.145a5 5 0 0 0 5 5h3.135a5 5 0 0 0 5-5v-1.145zm-2.12-7.915h-8.93a5 5 0 0 1-5-5v-5.055a5 5 0 0 1 5-5h8.93a5 5 0 0 1 5 5v5.055a5 5 0 0 1-5 5zm2.12-7.895a5 5 0 0 0-5-5h-3.135a5 5 0 0 0-5 5v1.11a5 5 0 0 0 5 5h3.135a5 5 0 0 0 5-5v-1.11z"/></symbol><symbol preserveAspectRatio="xMidYMid" viewBox="0 0 64 64" id="App_Store"><path d="M29.47 7.136C34.25 11.7 43.81 29.14 46.953 36.053l-4.14 1.377c-3.776-9.46-9.908-18.935-13.345-30.294zm1.38 12.852s1.416-1.466-.46-3.213c-1.893-1.763-3.68.46-3.68.46l4.14 2.753zm-5.982-.918c2.603.483 4.152 1.534 5.522 3.213l-2.3 4.13-1.38-.458-3.682-2.295 1.84-4.59zm-3.22 5.967l5.06 3.213-11.962 20.655-4.602-3.213c3.834-6.884 7.67-13.77 11.503-20.655zM6.002 41.56v-9.18h8.743l-5.062 9.2-3.68-.02zm21.166-9.18l11.502.04 4.14 9.16-21.165-.02 5.522-9.18zm20.724 0h10.103v9.2l-5.982-.038-4.12-9.16zm-.48 5.05c1.73 1.222 3.043 4.145 2.76 5.967l-3.22.918-2.76-5.05c1.073-.61 2.146-1.223 3.22-1.835zm3.22 7.803c3.376 1.52 6.902 9.18 6.902 9.18s-.202 1.693-1.84 2.295c-1.786.657-3.22-.918-3.22-.918l-3.682-9.64c.614-.305 1.227-.61 1.84-.917zm-41.41 2.754l4.14 2.295-5.98 5.967 1.84-8.263z"/></symbol><symbol preserveAspectRatio="xMidYMid" viewBox="0 0 64 64" id="CuC"><path d="M50.705 59.5h-37.41a2.335 2.335 0 0 1-2.338-2.333V33.832a2.337 2.337 0 0 1 2.338-2.333h37.41a2.337 2.337 0 0 1 2.338 2.332v23.335a2.335 2.335 0 0 1-2.338 2.333zm-11.69-16.334h-4.677V38.5h-4.676v4.666h-4.676v4.667h4.676V52.5h4.676v-4.667h4.676v-4.667zm-2.34-22.168c0 1.935-1.57 3.5-3.506 3.5a3.502 3.502 0 0 1-3.508-3.5c0-1.933 1.57-3.5 3.507-3.5a3.503 3.503 0 0 1 3.506 3.5zM50.02 19.15L39.983 29.165H33.37l11.69-11.667-8.384-8.366-15.4 15.366 4.678 4.667H19.34L16.32 26.15a2.33 2.33 0 0 1 0-3.3L35.023 4.184a2.336 2.336 0 0 1 3.306 0L50.02 15.85a2.33 2.33 0 0 1 0 3.3z"/></symbol><symbol preserveAspectRatio="xMidYMid" viewBox="0 0 64 64" id="File"><path d="M34.814 23.12V7.73l15.39 15.39h-15.39zM15.224 3.53A5.578 5.578 0 0 0 9.627 9.13v44.775a5.597 5.597 0 0 0 5.597 5.597h33.582a5.597 5.597 0 0 0 5.597-5.597v-33.58L37.613 3.53h-22.39z"/></symbol><symbol preserveAspectRatio="xMidYMid" viewBox="0 0 64 64" id="GBA"><path d="M55.416 16.225c-.79 1.18-1.047 2.075-2.775 2.68 1.415.41 1.537 1.14 2.367 2.188a6.012 6.012 0 0 1 1.33 3.552c.077 1.74-.314 3.393-1.173 4.956-.858 1.565-2.087 2.69-3.688 3.375-1.6.686-2.337 1.03-5.166 1.03H33.508l4.424-29.01h9.282c2.014 0 1.447.067 2.256.2 1.342.197 2.99.593 3.942 1.186a6.14 6.14 0 0 1 2.215 2.376c.525.99.814 2.084.866 3.284.07 1.61-.29 3.005-1.077 4.185zm-15.61 13.11H45.2c2.26 0 1.79-.156 2.55-.466.758-.31 1.353-.822 1.785-1.534.433-.713.63-1.464.597-2.256-.042-.963-.41-1.758-1.104-2.384-.695-.627.158-.94-1.398-.94h-6.67l-1.153 7.578zM49.812 10.91c-.415-.474-.99-.79-1.726-.95-.41-.08.583-.118-.973-.118h-4.335l-1.053 6.866h4.26c1.916 0 1.308-.145 2.136-.435.827-.29 1.436-.765 1.828-1.425.39-.66.57-1.365.537-2.117-.032-.74-.256-1.346-.672-1.82zm-27.31.09c-1.972.845-4.73 1.836-6 3.5-1.27 1.66-2.447 2.903-2.876 4.956a14.838 14.838 0 0 0-.32 3.035c0 1.113.156 2.09.47 2.927.314.838.767 1.54 1.36 2.103.59.564 1.308.99 2.15 1.28.842.288 1.784.433 2.825.433.698 0 1.39-.073 2.076-.217a8.005 8.005 0 0 0 1.904-.652l.763-4.373h-6.266l.835-5.37h10.396c.47 0 .806.16 1.006.478.2.318.243.767.13 1.344l-1.706 10.176a3.54 3.54 0 0 1-.214.705c-.085.195-.2.372-.342.53-.157.174-.52.38-1.092.62a18.56 18.56 0 0 1-2.086.703c-.82.233-1.738.427-2.75.587a19.98 19.98 0 0 1-3.104.238c-1.983 0-3.73-.23-5.244-.694-1.512-.46-2.78-1.15-3.8-2.07-1.02-.917-1.793-2.04-2.32-3.37-.53-1.33-.793-2.862-.793-4.596 0-1.56.168-3.093.503-4.597.335-1.503.835-2.93 1.498-4.28C10.83 11.692 13.374 9.608 16 8c5.857-3.585 11.54-2.807 11.91-2.742C28.615 5.358 34 6 34 6l-1.5 5s-6.768-1.385-10 0zM35 38l12 21h-6l-8.5-15.5-7 11.5H32v4H17.5v-1.5L30 38h5z"/></symbol><symbol preserveAspectRatio="xMidYMid" viewBox="0 0 64 64" id="Google_Store"><path d="M11.103 4.99L43.36 23.075l-7.194 7.187L11.103 4.99zm-3.017.464l5.57 5.564L27.81 25.16l6.73 6.724-6.265 6.26L15.28 51.127c-1.58 1.58-7.194 7.42-7.194 7.42s-.57-.234-.696-.697c-.203-.743-.232-2.086-.232-2.086V8.236s-.105-.848.464-2.318c.167-.433.464-.464.464-.464zM55.66 33.97l-10.444 5.797-7.194-7.65 7.658-7.884s6.704 3.754 9.747 5.565c1.1.654 1.438 1.42 1.392 2.086-.082 1.18-1.16 2.087-1.16 2.087zm-19.494-.23l7.194 6.954L10.87 59.01l25.296-25.27z"/></symbol><symbol preserveAspectRatio="xMidYMid" viewBox="0 0 64 64" id="Map"><path d="M32 31.05c-4.038 0-7.31-3.246-7.31-7.25 0-4.005 3.272-7.25 7.31-7.25s7.31 3.245 7.31 7.25c0 4.004-3.272 7.25-7.31 7.25M32 3.5c-11.306 0-20.47 9.088-20.47 20.3C11.53 39.025 32 61.5 32 61.5s20.47-22.475 20.47-37.7c0-11.212-9.164-20.3-20.47-20.3z"/></symbol><symbol preserveAspectRatio="xMidYMid" viewBox="0 0 64 64" id="More"><path d="M46 32a7 7 0 1 1 14 0 7 7 0 0 1-14 0m-21 0a7 7 0 1 1 14 0 7 7 0 0 1-14 0M4 32a7 7 0 1 1 14 0 7 7 0 0 1-14 0z"/></symbol><symbol preserveAspectRatio="xMidYMid" viewBox="0 0 64 64" id="Orign"><path fill-rule="evenodd" d="M32.11 24.843a7.758 7.758 0 0 1 7.76 7.756 7.758 7.758 0 0 1-7.76 7.755 7.758 7.758 0 0 1-7.76-7.756 7.758 7.758 0 0 1 7.76-7.757zm18.25 13.982c-2.744 8.616-9.875 14.232-11.1 15.347-2.71 2.47-5.216 3.993-6.386 4.315-.472.13-.655-.426-.655-.437 0 0-.034-.32.217-.655.433-.575.674-.18 1.75-2.622.56-1.275.785-2.772.85-3.3-.99.158-2.003.242-3.037.242-10.623 0-19.235-8.608-19.235-19.225 0 .83-.206-1.947 1.033-6.33 2.46-8.697 9.89-14.222 11.116-15.336 2.714-2.466 5.224-3.99 6.395-4.31.472-.13.655.425.656.435 0 0 .033.32-.22.654-.432.574-.674.18-1.75 2.62-.548 1.243-.776 2.693-.848 3.252.93-.138 1.883-.21 2.852-.21 10.623 0 19.235 8.606 19.235 19.224 0-2.255.182 3.018-.875 6.335z"/></symbol><symbol preserveAspectRatio="xMidYMid" viewBox="0 0 64 64" id="PlayStation"><path d="M23.236 48.068c-.82.172-1.68.262-2.557.406-2.26.372-4.933.002-6.846-.375-1.45-.287-2.913-.405-4.275-.723-1.955-.456-4.68-.82-5.026-2.858-.43-2.545 2.826-4.445 4.62-4.967 4.694-1.59 9.388-3.183 14.082-4.774v4.91l-7.063 2.548c-.758.295-2.84.66-2.54 1.79.26.983 2.033 1.38 3.263 1.04 2.113-.71 4.226-1.418 6.34-2.127v5.128zm11.48-24.8v-3.117c0-.395-.064-.937.058-1.24.164-.413.624-.676 1.097-.78.434-.095.933.007 1.243.116 1.483.522 1.098 2.114 1.098 4.013v12.79c2.643.644 5.6.984 7.683-.492 3.414-2.42 4.056-10.336 1.646-14.378-1.92-3.22-5.305-5.097-9.214-6.323l-5.054-1.328-7.596-2.022.004 39.527 3.057.98c1.928.614 4.164 1.38 5.942 1.914 0 0 .033-28.276.036-29.66zm2.407 28.853c.7-.243 1.4-.486 2.098-.73l12.97-4.56c2.63-1.027 5.14-1.564 7.162-3.177.493-.394 1.31-1.253 1.127-2.252-.395-2.148-2.222-2.913-4.103-3.58-4.775-1.692-12.185-1.62-17.156-.2l-2.097.622v5.214l10.243-3.5c.674-.085 1.348-.172 2.022-.26 1.014-.014 2.72-.083 2.86.752.09.374-.396.648-.636.808-.91.608-2.106.902-3.235 1.3L37.123 46.4v5.72z"/></symbol><symbol preserveAspectRatio="xMidYMid" viewBox="0 0 64 64" id="Search"><path d="M25.133 11.58c-2.686.047-5.38.858-7.657 2.482-5.544 3.96-6.503 11.244-2.137 16.28 4.36 5.025 12.395 5.897 17.94 1.938 5.548-3.958 6.503-11.243 2.14-16.278-2.455-2.833-6.07-4.345-9.75-4.42a12.017 12.017 0 0 0-.537 0zm.22-8.014c6.402-.004 12.74 2.565 17.01 7.48 6.084 7.02 6.034 16.627.565 23.538L59.73 53.96l-9.154 6.537-16.742-19.303c-8.762 3.39-19.266 1.21-25.438-5.898-7.38-8.513-5.758-20.833 3.622-27.53 3.958-2.827 8.663-4.198 13.335-4.2z"/></symbol><symbol preserveAspectRatio="xMidYMid" viewBox="0 0 64 64" id="Steam"><path d="M51.495 21.508c2.767 0 5 2.24 5 4.996a5.003 5.003 0 0 1-5 4.996 4.996 4.996 0 0 1 0-9.992zm-40.003-2c3.862 0 7 3.137 7 6.996l-.032.732 14.822 7.685a6.99 6.99 0 0 1 4.222-1.42l5-6.996c0-4.963 4.025-8.997 9.002-8.997 4.966 0 9.002 4.023 9.002 8.997a8.993 8.993 0 0 1-9.002 8.997l-7 4.997a6.997 6.997 0 0 1-7.002 6.996 6.99 6.99 0 0 1-7-6.996v-.263l-15.183-7.87a6.94 6.94 0 0 1-3.828 1.136 6.997 6.997 0 0 1 0-13.993zm28.08 18.67a3 3 0 1 1-2.724 5.346l-4.288-2.218a5 5 0 0 0 9.932-.81 4.996 4.996 0 0 0-7.153-4.503l4.232 2.186zm-28.08-16.67a5.002 5.002 0 0 0-4.998 4.996 5.002 5.002 0 0 0 4.998 4.996c.57 0 1.116-.1 1.63-.274L9.808 29.51a2.998 2.998 0 0 1-1.313-4.034 3.002 3.002 0 0 1 4.037-1.312l3.96 2.056a5 5 0 0 0-5-4.712zm40.003-2c-3.86 0-7 3.137-7 6.996 0 3.86 3.128 6.996 7 6.996 3.86 0 7-3.126 7-6.996 0-3.87-3.128-6.997-7-6.997z"/></symbol><symbol preserveAspectRatio="xMidYMid" viewBox="0 0 64 64" id="Uplay"><path d="M60.265 33.042c-.152 3.017-4.073 22.627-19.913 22.627-11.872 0-23.985-8.946-23.985-20.818 0-11.872 11.283-25.484 23.155-25.58 11.904-.098 21.243 13.818 20.743 23.77zm-9.278-9.957h-7.014v14.078c-.11.202-.26.432-.453.63-.426.434-1.098.68-1.098.68h-9.277c-1.594 0-1.844-4.074-1.844-4.074V23.084h-6.56v14.55s.258 2.902 1.81 4.458c1.68 1.686 4.44 2.036 4.44 2.036h19.996V23.084zm-31.213-7.69a2.497 2.497 0 0 1-2.488-2.504 2.496 2.496 0 0 1 2.488-2.504 2.496 2.496 0 0 1 2.488 2.505 2.497 2.497 0 0 1-2.488 2.506zM12.88 29.234c-3.342 1.49-6.355-.144-7.148-.717-1.48-1.068-1.673-4.364-1.358-6.562.398-2.782 2.176-4.752 6.336-4.752 1.713 0 4.417.692 5.43 2.49.806 1.428 2.092 7.156-3.26 9.54z"/></symbol><symbol preserveAspectRatio="xMidYMid" viewBox="0 0 64 64" id="User"><path d="M42.68 35.043c-.74 0-1.58 0-2.47.127 2.953 2.135 5.014 4.958 5.014 8.77V50.3h15.27V43.94c0-5.923-11.885-8.897-17.815-8.897m-20.36 0c-5.93 0-17.813 2.974-17.813 8.898V50.3h35.627V43.94c0-5.923-11.884-8.897-17.813-8.897m0-5.086c4.217 0 7.635-3.415 7.635-7.627a7.63 7.63 0 0 0-7.634-7.628c-4.216 0-7.634 3.415-7.634 7.628 0 4.212 3.418 7.627 7.635 7.627m20.36 0c4.216 0 7.634-3.415 7.634-7.627 0-4.213-3.418-7.628-7.635-7.628a7.63 7.63 0 0 0-7.635 7.628c0 4.212 3.418 7.627 7.634 7.627z"/></symbol><symbol preserveAspectRatio="xMidYMid" viewBox="0 0 64 64" id="Wii"><path d="M45.312 18.603c1.704-.023 2.72.496 3.355 1.52.14.224.243.555.317.822.097.357.086.895 0 1.235-.36 1.42-1.07 2.135-2.47 2.5-1.88.492-3.215-.77-3.702-1.93-.23-.548-.314-1.497-.063-2.12.316-.79.93-1.48 1.708-1.806.228-.096.658-.096.854-.22zm10.95 0c1.853-.025 2.805.577 3.42 1.772.23.453.423 1.344.22 2.026-.084.285-.2.615-.348.856-.49.79-1.24 1.205-2.28 1.456-.44.107-1.15.057-1.518-.063-1.415-.462-2.845-2.203-2.025-4.148a3.263 3.263 0 0 1 1.678-1.678c.22-.094.663-.1.855-.22zM34.52 20.06c1.94-.004 3.943-.018 5.792.062-.022.504-.268 1.047-.41 1.488-.36 1.097-.572 2.224-.92 3.292-.24.737-.328 1.448-.57 2.184-.854 2.618-1.43 5.397-2.277 8.01-.13.395-.156.747-.285 1.14-.47 1.425-.83 2.953-1.298 4.367-.3.91-.452 1.906-.918 2.66-.754 1.22-1.74 2.09-3.734 2.09-.342-.002-.67-.006-.95-.096-.635-.205-1.07-.533-1.487-.95-.185-.185-.416-.356-.57-.57-.65-.908-.847-2.178-1.234-3.355-.967-2.94-1.575-6.093-2.533-9.054-.25-.775-.392-1.565-.633-2.31-.103-.32-.134-.91-.316-1.14-.03.285-.172.577-.253.823-.126.38-.202.76-.317 1.11-.372 1.13-.59 2.31-.95 3.418-.168.518-.21 1-.38 1.52-.53 1.627-.897 3.378-1.423 5-.312.963-.444 1.953-.823 2.85-.262.62-.633 1.144-1.013 1.646-.638.842-2.71 1.532-4.178.918-2.682-1.122-2.832-4.188-3.767-7.028-.31-.942-.505-1.937-.822-2.912-1.073-3.288-1.78-6.773-2.85-10.067-.392-1.213-.63-2.458-1.01-3.64-.158-.485-.206-.966-.38-1.424h5.695c.034.024.03.02.095.032 1.56 6.078 3.123 12.157 4.684 18.234.02-.45.22-.938.348-1.33.302-.926.438-1.89.728-2.785.215-.66.26-1.3.475-1.962.58-1.784.91-3.726 1.487-5.508.64-1.978.843-4.303 1.963-5.793.61-.812 2.404-1.472 3.892-.98 2.242.738 2.284 2.963 3.007 5.19 1.01 3.107 1.557 6.476 2.563 9.592.358 1.107.458 2.34.887 3.386h.03c.037-.375.208-.774.318-1.108.26-.8.393-1.63.633-2.406.143-.466.165-.898.316-1.36.585-1.79.904-3.736 1.456-5.54.23-.755.293-1.496.538-2.248.31-.954.44-1.995.76-2.976.15-.465.218-.99.38-1.488.094-.293.223-.633.252-.98zm8.61 7.628h5.474v17.474H43.13V27.688zm10.95 0h5.442v17.474H54.08V27.688z"/></symbol><symbol preserveAspectRatio="xMidYMid" viewBox="0 0 64 64" id="WindowsStore"><path d="M46.74 58.996L8.175 51.194V20.637l8.41-1.726.11-3.365c.55-5.176 4.59-10.082 9.59-10.504 5.503-.464 10.02 3.548 10.59 9.706l3.007-.617c-.755-2.263-2.237-4.104-4.1-5.205-.01-.006-.02-.01-.03-.017l-2.186-2.34c-.788-.13-.763-.13.035.005 3.644.623 6.556 3.326 7.67 7.27l5.414-1.11 4.52 2.984v-.066l4.617.584v39.15l-9.084 3.612zM16.425 43.714l8.8 1.22v-8.33h-8.8v7.11zm0-14.642v7.215h8.8v-8.435l-8.8 1.22zM26.26 6.398c-4.696.396-8.605 5.766-8.394 10.632-.02.592-.024 1.373-.025 1.624l3.65-.75.03-.927c.427-4.02 2.96-7.88 6.415-9.598a.228.228 0 0 0 .038-.02l2.324.585-.04.008c-4.067.857-7.36 5.36-7.564 9.705l12.858-2.64c-.512-5.195-4.64-9.012-9.29-8.62zM36.68 26.26l-11.135 1.546v8.48H36.68V26.262zm0 10.345H25.544v8.375l11.134 1.546v-9.92zm-.926-27.697c-1.383-.81-1.37-.81 0 0z"/></symbol></svg>