<?xml version="1.0" encoding="utf-8"?><!DOCTYPE svg PUBLIC "-//W3C//DTD SVG 1.1//EN" "http://www.w3.org/Graphics/SVG/1.1/DTD/svg11.dtd"><svg xmlns="http://www.w3.org/2000/svg" xmlns:xlink="http://www.w3.org/1999/xlink"><symbol preserveAspectRatio="xMidYMid" viewBox="0 0 64 64" id="account-card-details"><path d="M12.417 14.375h39.166c2.056 0 3.917 1.861 3.917 3.917v27.416c0 2.056-1.861 3.917-3.917 3.917H12.417c-2.056 0-3.917-1.861-3.917-3.917V18.292c0-2.056 1.861-3.917 3.917-3.917m23.5 5.875v1.959h15.666V20.25H35.917m0 3.917v1.958H51.583v-1.958H35.917m0 3.916v1.959h13.708v-1.959H35.917m-11.75 7.657c-3.917 0-11.75 2.135-11.75 6.051v1.959h23.5v-1.959c0-3.916-7.834-6.051-11.75-6.051m0-15.49a5.875 5.875 0 1 0 0 11.75 5.875 5.875 0 0 0 0-11.75z"/></symbol><symbol preserveAspectRatio="xMidYMid" viewBox="0 0 64 64" id="atb-achievements"><path d="M54.857 22.55l-6.546 7.288c.084.426.152.857.198 1.294l8.494 5.458-9.943 2.602c-.103.209-.212.416-.325.62l3.902 9.258-9.519-3.422c-.283.174-.573.34-.867.497l-1.171 9.897-6.761-7.884c-.06 0-.119.004-.179.004-.152 0-.302-.007-.453-.011l-6.767 7.891-1.19-10.058a16.766 16.766 0 0 1-.673-.399l-9.694 3.485 4.024-9.548c-.043-.082-.086-.164-.127-.247L6.997 36.59l8.797-5.653c.034-.283.076-.564.125-.842L9.143 22.55l10.427.125c.092-.103.185-.204.28-.305l-1.427-10.566 8.696 6.104c.195-.059.392-.112.589-.164l4.336-9.783 4.181 9.691c.249.06.495.127.74.197l8.612-6.045-1.393 10.312c.179.182.353.367.523.556l10.15-.122z"/></symbol><symbol preserveAspectRatio="xMidYMid" viewBox="0 0 64 64" id="atb-cart"><path d="M52.291 37.357H22.274l.897 4.701H50.72V45.2H20.87v-.001l-6.235-32.675H6.996V9.39h9.426v2.871H57.004l-4.713 25.096zm-9.427-2.633h7.02l1.862-9.914h-8.882v9.914zm-15.71-19.592h-9.12l1.547 8.107h7.573v-8.107zm0 9.678h-7.273l1.891 9.914h5.382V24.81zm14.139-9.678H28.725v8.107h12.568v-8.107zm0 9.678H28.725v9.914h12.568V24.81zm1.571-9.678v8.107h9.177l1.523-8.107h-10.7zM23.226 46.768a3.924 3.924 0 0 1 3.928 3.921 3.925 3.925 0 0 1-3.928 3.921 3.925 3.925 0 0 1-3.928-3.921 3.924 3.924 0 0 1 3.928-3.921zm0 6.274a2.355 2.355 0 0 0 2.357-2.353c0-1.3-1.055-2.353-2.357-2.353a2.354 2.354 0 0 0-2.356 2.353 2.355 2.355 0 0 0 2.356 2.353zm23.566-6.274a3.924 3.924 0 0 1 3.928 3.921 3.925 3.925 0 0 1-3.928 3.921 3.925 3.925 0 0 1-3.928-3.921 3.924 3.924 0 0 1 3.928-3.921zm0 6.274a2.355 2.355 0 0 0 2.357-2.353c0-1.3-1.055-2.353-2.357-2.353a2.354 2.354 0 0 0-2.356 2.353 2.355 2.355 0 0 0 2.356 2.353z"/></symbol><symbol preserveAspectRatio="xMidYMid" viewBox="0 0 64 64" id="atb-cc"><path d="M31.815 26.869c-.126-1.184-.372-2.217-.737-3.099a10.527 10.527 0 0 0-2.296-3.44c-1.002-1.008-2.262-1.808-3.781-2.401-1.518-.592-3.203-.888-5.056-.888-2.079 0-4 .403-5.764 1.21a10.547 10.547 0 0 0-3.554 2.542c-.983 1.077-1.764 2.385-2.343 3.922-.832 2.18-1.248 4.568-1.248 7.163 0 2.067.305 4.039.917 5.916.611 1.878 1.493 3.453 2.646 4.725a10.342 10.342 0 0 0 4.196 2.807c1.644.599 3.418.898 5.321.898 1.612 0 3.156-.29 4.63-.869 1.475-.58 2.719-1.396 3.733-2.448 1.014-1.052 1.786-2.177 2.316-3.374.365-.832.705-2.01 1.02-3.534H26.05c-.365 1.273-.809 2.265-1.332 2.977-.523.712-1.213 1.263-2.07 1.653-.857.391-1.808.586-2.854.586-1.323 0-2.511-.337-3.563-1.011-1.052-.674-1.88-1.751-2.485-3.232-.605-1.48-.907-3.235-.907-5.264 0-2.029.299-3.799.897-5.311.599-1.512 1.44-2.615 2.524-3.308 1.083-.693 2.337-1.039 3.761-1.039 1.688 0 3.068.479 4.139 1.436.794.718 1.411 1.846 1.853 3.383h5.802zM57.059 26.869c-.126-1.184-.372-2.217-.737-3.099a10.527 10.527 0 0 0-2.296-3.44c-1.002-1.008-2.262-1.808-3.781-2.401-1.518-.592-3.203-.888-5.056-.888-2.079 0-4 .403-5.764 1.21a10.547 10.547 0 0 0-3.554 2.542c-.983 1.077-1.764 2.385-2.344 3.922-.831 2.18-1.247 4.568-1.247 7.163 0 2.067.305 4.039.917 5.916.611 1.878 1.493 3.453 2.646 4.725a10.335 10.335 0 0 0 4.196 2.807c1.644.599 3.418.898 5.32.898 1.613 0 3.157-.29 4.631-.869 1.474-.58 2.719-1.396 3.733-2.448 1.014-1.052 1.786-2.177 2.316-3.374.365-.832.705-2.01 1.02-3.534h-5.765c-.365 1.273-.809 2.265-1.332 2.977-.523.712-1.213 1.263-2.07 1.653-.857.391-1.808.586-2.854.586-1.323 0-2.511-.337-3.563-1.011-1.052-.674-1.88-1.751-2.485-3.232-.605-1.48-.907-3.235-.907-5.264 0-2.029.299-3.799.897-5.311.599-1.512 1.44-2.615 2.524-3.308 1.083-.693 2.337-1.039 3.761-1.039 1.688 0 3.068.479 4.139 1.436.794.718 1.411 1.846 1.853 3.383h5.802z"/></symbol><symbol preserveAspectRatio="xMidYMid" viewBox="0 0 64 64" id="atb-cloud"><path d="M52.163 47.646H14.357v-.04A9.724 9.724 0 0 1 5.5 37.917a9.73 9.73 0 0 1 6.494-9.178 9.435 9.435 0 0 1-.189-1.884c0-5.248 4.295-9.501 9.594-9.501a9.606 9.606 0 0 1 8.371 4.86 6.66 6.66 0 0 1 4.388-1.642c3.429 0 6.252 2.578 6.625 5.893a6.656 6.656 0 0 1 4.039-1.357c3.683 0 6.669 2.972 6.669 6.639 0 .458-.047.904-.135 1.336.265-.029.534-.049.807-.049 4.052 0 7.337 3.271 7.337 7.306s-3.285 7.306-7.337 7.306z"/></symbol><symbol preserveAspectRatio="xMidYMid" viewBox="0 0 64 64" id="atb-commentary"><path fill-rule="evenodd" d="M45.947 43.202H32.988L20.03 56.27h-1.852V43.202c-6.134 0-11.107-5.015-11.107-11.202V18.931c0-6.186 4.973-11.201 11.107-11.201h27.769c6.134 0 11.107 5.015 11.107 11.201V32c0 6.187-4.973 11.202-11.107 11.202zm-12.358-5.908c-.578 0-2.131.033-4.659.098v-1.345c1.236-.044 1.949-.12 2.141-.23.191-.11.314-.416.369-.92.087-.691.131-.346.131-2.701a74.64 74.64 0 0 0-.049-2.827l-.049-1.922c0-.635-.069-1.027-.205-1.175-.137-.148-.506-.233-1.108-.255l-1.23-.049v-1.263c2.636-.199 6.5-1.442 6.5-1.442v9.708s-.076 1.944 0 2.427c.054.34.339.386.485.485.147.099.97.065 2.253.164v1.345c-1.974-.065-3.5-.098-4.579-.098zm-2.248-22.097h3.734v3.734h-3.734v-3.734z"/></symbol><symbol preserveAspectRatio="xMidYMid" viewBox="0 0 64 64" id="atb-coop"><path d="M34.688 47.333s-1.306.552-2.491.552c-1.268 0-2.6-.552-2.6-.552.016-.017-.241-2.359-.794-4.093-.411-1.288-1.023-2.53-1.023-2.53s.48 2.77.503 3.679c.052 2.111 0 3.864 0 3.864s-3.468 1.051-8.39.921c-4.922.13-8.39-.921-8.39-.921s-.052-1.753 0-3.864c.023-.909.503-3.679.503-3.679s-.611 1.242-1.022 2.53c-.553 1.734-.81 4.076-.795 4.093 0 0-1.331.552-2.6.552-1.185 0-2.491-.552-2.491-.552 0-8.164 5.007-14.77 12.565-15.984-3.39-1.034-5.866-4.275-5.866-8.116 0-4.673 3.665-8.462 8.185-8.462 4.52 0 8.185 3.789 8.185 8.462 0 3.865-2.506 7.121-5.929 8.135 7.502 1.262 12.45 7.843 12.45 15.965z"/><path d="M58.091 47.333s-1.306.552-2.491.552c-1.269 0-2.6-.552-2.6-.552.015-.017-.242-2.359-.795-4.093-.411-1.288-1.022-2.53-1.022-2.53s.48 2.77.503 3.679c.052 2.111 0 3.864 0 3.864s-3.468 1.051-8.39.921c-4.922.13-8.39-.921-8.39-.921s-.052-1.753 0-3.864c.023-.909.503-3.679.503-3.679s-.612 1.242-1.023 2.53c-.553 1.734-.81 4.076-.794 4.093 0 0-1.332.552-2.6.552-1.185 0-2.491-.552-2.491-.552 0-8.164 5.006-14.77 12.565-15.984-3.391-1.034-5.866-4.275-5.866-8.116 0-4.673 3.664-8.462 8.185-8.462 4.52 0 8.184 3.789 8.184 8.462 0 3.865-2.506 7.121-5.928 8.135 7.502 1.262 12.45 7.843 12.45 15.965z"/></symbol><symbol preserveAspectRatio="xMidYMid" viewBox="0 0 64 64" id="atb-editor"><path d="M34.695 40.698l-6.761-6.879 21.411-21.783 6.762 6.879-21.412 21.783zm-3.47 1.39l-6.652 1.975 1.864-6.74 4.788 4.765zM40.28 17.32c-.057-3.139-2.58-5.205-5.682-5.205h-14.09V23.81H10.442v23.28c0 3.2 2.545 5.795 5.684 5.795h18.472c3.139 0 5.683-2.595 5.683-5.795v-9.951l3.557-3.41v15.66c0 3.927-3.134 7.111-7.001 7.111H14.084c-3.867 0-7.001-3.184-7.001-7.111V20.753L19.451 8.5h17.386c3.867 0 7.001 3.184 7.001 7.111l-3.557 3.739-.001-2.03z"/></symbol><symbol preserveAspectRatio="xMidYMid" viewBox="0 0 64 64" id="atb-localcoop"><path opacity=".5" fill-rule="evenodd" d="M37.92 20.282s1.852-.02 2.307.003a7.928 7.928 0 0 1 5.933-2.674c4.205 0 7.65 3.295 7.972 7.48l4.959 14.43c1.163 2.932-.229 6.268-3.109 7.451-2.88 1.183-6.158-.236-7.321-3.168l-2.973-5.253c-1.446 1.974-8.075 2.525-13.544 2.525-.1 0-.197-.005-.293-.015-.095.01-.193.015-.293.015-1.785 0-3.694-.091-5.506-.281C37.81 20.218 37.92 20.282 37.92 20.282zm4.748 8.126a2.528 2.528 0 0 1 2.143 2.87c-.207 1.379-1.503 2.331-2.895 2.125a2.529 2.529 0 0 1-2.143-2.87c.208-1.379 1.504-2.33 2.895-2.125zm6.816 1.008a2.529 2.529 0 0 1 2.144 2.87 2.544 2.544 0 0 1-2.895 2.125 2.53 2.53 0 0 1-2.144-2.87 2.544 2.544 0 0 1 2.895-2.125zm-4.948-5.632a2.563 2.563 0 0 1 3.579-.405 2.51 2.51 0 0 1 .409 3.548 2.563 2.563 0 0 1-3.579.405 2.51 2.51 0 0 1-.409-3.548z"/><path d="M38.218 20.282s-4.185.091-5.867.091a.507.507 0 0 0-.202.049.507.507 0 0 0-.202-.049c-2.619 0-6.901-.154-8.174-.088a7.928 7.928 0 0 0-5.933-2.674c-4.205 0-7.65 3.295-7.972 7.48l-4.959 14.43c-1.163 2.932.229 6.268 3.109 7.451 2.88 1.183 6.158-.236 7.321-3.168l2.973-5.253c.974 1.33 4.299 1.851 8.037 2.244 11.862-20.779 11.869-20.513 11.869-20.513zM23.96 31.16h-2.084v2.382a1.19 1.19 0 0 1-1.191 1.191h-1.191a1.19 1.19 0 0 1-1.191-1.191V31.16H15.92a1.191 1.191 0 0 1-1.191-1.191v-1.191c0-.658.534-1.191 1.191-1.191h2.383v-2.382a1.19 1.19 0 0 1 1.191-1.191h1.191a1.19 1.19 0 0 1 1.191 1.191v2.382h2.084a1.19 1.19 0 0 1 1.191 1.191v1.191a1.19 1.19 0 0 1-1.191 1.191z"/></symbol><symbol preserveAspectRatio="xMidYMid" viewBox="0 0 64 64" id="atb-multiplayer"><path d="M59.868 44.503s-1.502.632-2.864.632c-1.458 0-2.988-.632-2.988-.632.017-.02-.278-2.704-.914-4.691-.472-1.475-1.175-2.899-1.175-2.899s.552 3.174.578 4.216c.06 2.419 0 4.428 0 4.428s-.687.206-1.89.438a21.302 21.302 0 0 0-3.016-5.303c-2.104-2.697-4.752-4.729-7.8-6.01a12.513 12.513 0 0 0 4.211-9.352c0-6.074-4.308-11.131-9.951-12.131 1.407-3.528 4.771-6.012 8.7-6.012 5.196 0 9.408 4.342 9.408 9.698 0 4.401-2.845 8.115-6.743 9.3 8.689 1.392 14.444 8.962 14.444 18.318zM41.917 25.395c0 4.739-3.083 8.732-7.292 9.975 9.227 1.547 15.312 9.617 15.312 19.576 0 0-1.606.677-3.063.677-1.561 0-3.198-.677-3.198-.677.019-.02-.297-2.892-.978-5.018-.505-1.579-1.257-3.103-1.257-3.103s.59 3.397.618 4.512c.065 2.588 0 4.737 0 4.737s-4.265 1.289-10.318 1.131c-6.054.158-10.319-1.131-10.319-1.131s-.064-2.149 0-4.737c.028-1.115.618-4.512.618-4.512s-.752 1.524-1.257 3.103c-.68 2.126-.996 4.998-.978 5.018 0 0-1.637.677-3.197.677-1.458 0-3.064-.677-3.064-.677 0-10.01 6.158-18.11 15.454-19.599-4.17-1.268-7.214-5.242-7.214-9.952 0-5.731 4.506-10.376 10.066-10.376 5.56 0 10.067 4.645 10.067 10.376zm-22.178-.065c0 3.655 1.61 7.056 4.212 9.352-3.048 1.281-5.696 3.313-7.8 6.01a21.302 21.302 0 0 0-3.016 5.303c-1.203-.232-1.89-.438-1.89-.438s-.06-2.009 0-4.428c.026-1.042.578-4.216.578-4.216s-.703 1.424-1.175 2.899c-.636 1.987-.931 4.671-.914 4.691 0 0-1.53.632-2.988.632-1.362 0-2.864-.632-2.864-.632 0-9.356 5.755-16.926 14.444-18.318-3.898-1.185-6.743-4.899-6.743-9.3 0-5.356 4.212-9.698 9.408-9.698 3.929 0 7.293 2.484 8.7 6.012-5.643 1-9.952 6.057-9.952 12.131z"/></symbol><symbol preserveAspectRatio="xMidYMid" viewBox="0 0 64 64" id="atb-singleplayer"><path d="M53.59 54.29s-1.898.802-3.619.802c-1.844 0-3.778-.802-3.778-.802.022-.024-.351-3.427-1.154-5.946-.597-1.871-1.486-3.676-1.486-3.676s.698 4.024.731 5.346c.076 3.066 0 5.612 0 5.612s-5.039 1.527-12.189 1.34c-7.151.187-12.189-1.34-12.189-1.34s-.076-2.546 0-5.612c.033-1.322.731-5.346.731-5.346s-.889 1.805-1.486 3.676c-.803 2.519-1.177 5.922-1.155 5.946 0 0-1.934.802-3.777.802-1.721 0-3.619-.802-3.619-.802 0-11.86 7.274-21.458 18.255-23.222-4.926-1.502-8.522-6.211-8.522-11.79 0-6.79 5.324-12.295 11.891-12.295s11.891 5.505 11.891 12.295c0 5.614-3.641 10.345-8.613 11.817C46.401 32.929 53.59 42.49 53.59 54.29z"/></symbol><symbol preserveAspectRatio="xMidYMid" viewBox="0 0 64 64" id="atb-steamcards"><path fill-rule="evenodd" d="M57.067 47.373H43.309v5.59a.931.931 0 0 1-.932.931H6.933A.932.932 0 0 1 6 52.963V11.037c0-.514.418-.931.933-.931h35.444c.515 0 .932.417.932.931v5.59h13.758c.515 0 .933.417.933.932v28.882a.933.933 0 0 1-.933.932zm-13.758-7.92V19.655h11.426v19.798H43.309zM10.897 14.997h27.749v27.717H10.897V14.997z" class="alcls-1"/></symbol><symbol preserveAspectRatio="xMidYMid" viewBox="0 0 64 64" id="atb-steamworkshop"><path d="M54.081 54.086A6.485 6.485 0 0 1 49.463 56a6.48 6.48 0 0 1-4.617-1.914L29.235 38.469l9.152-9.32 15.695 15.698c2.545 2.548 2.545 6.693-.001 9.239zm-4.3-7.398a3.093 3.093 0 1 0 0 6.187 3.093 3.093 0 0 0 0-6.187zM27.196 36.43a14.643 14.643 0 0 1-4.623.745 14.467 14.467 0 0 1-10.298-4.263c-3.666-3.667-5.094-8.86-3.823-13.892a1.032 1.032 0 0 1 1.73-.477l7.108 7.005 8.258-8.258-6.998-7.116a1.032 1.032 0 1 1 .477-1.731A14.698 14.698 0 0 1 22.609 8c3.894 0 7.553 1.516 10.303 4.266 3.861 3.862 5.241 9.72 3.517 14.926l-9.233 9.238z" class="amcls-1"/></symbol><symbol preserveAspectRatio="xMidYMid" viewBox="0 0 64 64" id="book-open"><path d="M34.136 31.432h14.955v3.204H34.136m0-8.545h14.955v3.204H34.136m0 7.478h14.955v3.204H34.136m17.092-25.636H12.772A4.272 4.272 0 0 0 8.5 18.613v27.774a4.272 4.272 0 0 0 4.272 4.272h38.456a4.272 4.272 0 0 0 4.272-4.272V18.613a4.272 4.272 0 0 0-4.272-4.272m0 32.046H32V18.613h19.228"/></symbol><symbol preserveAspectRatio="xMidYMid" viewBox="0 0 64 64" id="bookmark"><path d="M44.503 9.495a5.001 5.001 0 0 1 5.001 5.001v40.009L32 47.003l-17.504 7.502V14.496a5 5 0 0 1 5.001-5.001h25.006M29.499 37.001l15.629-15.603-3.526-3.551L29.499 29.95l-6.476-6.477-3.526 3.526 10.002 10.002z"/></symbol><symbol preserveAspectRatio="xMidYMid" viewBox="0 0 64 64" id="check"><path d="M51.95 21.006L24.552 47.008 11.995 35.09l3.219-3.055 9.338 8.841L48.731 17.95l3.219 3.056z"/></symbol><symbol preserveAspectRatio="xMidYMid" viewBox="0 0 64 64" id="chevron-left"><path d="M44.883 48.03L29.552 32l15.331-16.065L40.163 11 20.078 32l20.085 21 4.72-4.97z"/></symbol><symbol preserveAspectRatio="xMidYMid" viewBox="0 0 64 64" id="chevron-right"><path d="M20.078 48.03L35.41 32 20.078 15.935 24.798 11l20.085 21-20.085 21-4.72-4.97z"/></symbol><symbol preserveAspectRatio="xMidYMid" viewBox="0 0 64 64" id="clock"><path d="M32 51.2c10.604 0 19.2-8.596 19.2-19.2S42.604 12.8 32 12.8 12.8 21.396 12.8 32 21.396 51.2 32 51.2M32 8c13.255 0 24 10.745 24 24S45.255 56 32 56C18.728 56 8 45.2 8 32 8 18.745 18.745 8 32 8m1.2 12v12.6L44 39.008l-1.8 2.952-12.6-7.56V20h3.6z"/></symbol><symbol preserveAspectRatio="xMidYMid" viewBox="0 0 64 64" id="close"><path d="M52.999 15.231l-4.23-4.23L32 27.77 15.231 11.001l-4.23 4.23L27.77 32 11.001 48.769l4.23 4.23L32 36.23l16.769 16.769 4.23-4.23L36.23 32l16.769-16.769z"/></symbol><symbol preserveAspectRatio="xMidYMid" viewBox="0 0 64 64" id="coffe"><path d="M8.667 53h41.999v-4.667H8.667m41.999-25.666H46v-7h4.666m0-4.667H13.334v23.333a9.332 9.332 0 0 0 9.333 9.333h14A9.333 9.333 0 0 0 46 34.333v-7h4.666a4.666 4.666 0 0 0 4.667-4.666v-7c0-2.59-2.1-4.667-4.667-4.667z"/></symbol><symbol preserveAspectRatio="xMidYMid" viewBox="0 0 64 64" id="cuc"><path d="M50.705 59.5h-37.41a2.335 2.335 0 0 1-2.338-2.333V33.832a2.337 2.337 0 0 1 2.338-2.333h37.41a2.337 2.337 0 0 1 2.338 2.333v23.335a2.335 2.335 0 0 1-2.338 2.333zM39.014 43.166h-4.676v-4.667h-4.676v4.667h-4.676v4.667h4.676V52.5h4.676v-4.667h4.676v-4.667zm-2.338-22.168c0 1.935-1.57 3.5-3.507 3.5a3.502 3.502 0 0 1-3.507-3.5c0-1.933 1.57-3.5 3.507-3.5a3.503 3.503 0 0 1 3.507 3.5zM50.02 19.15L39.983 29.165H33.37l11.691-11.667-8.385-8.366-15.399 15.366 4.677 4.667h-6.613l-3.023-3.014a2.329 2.329 0 0 1 0-3.3L35.023 4.183a2.336 2.336 0 0 1 3.306 0L50.02 15.85c.914.91.914 2.386 0 3.3z"/></symbol><symbol preserveAspectRatio="xMidYMid" viewBox="0 0 64 64" id="delta"><path d="M32 21.848L47.336 46.4H16.664L32 21.848m0-9.048L8 51.2h48"/></symbol><symbol preserveAspectRatio="xMidYMid" viewBox="0 0 64 64" id="dots-vertical"><path d="M32 43a5.5 5.5 0 1 1 0 11 5.5 5.5 0 0 1 0-11m0-16.5a5.5 5.5 0 1 1 0 11 5.5 5.5 0 1 1 0-11M32 10a5.5 5.5 0 1 1 0 11 5.5 5.5 0 0 1 0-11z"/></symbol><symbol preserveAspectRatio="xMidYMid" viewBox="0 0 64 64" id="dtb-3ds"><path d="M59.405 35.736c1.748 4.116-.435 7.377-5.711 9.532-5.799 2.369-18.158 1.274-27.148.703v-5.273c5.875 1.359 24.288 5.601 23.219-3.867-.334-2.962-10.189-3.145-17.503-3.164v-4.219c6.02.212 17.467.258 16.431-4.57-.862-4.022-14.539-3.637-21.432-1.055v-4.922c22.271-2.88 31.33-.157 31.807 5.166.413 4.607-6.453 7.024-7.113 7.146 4.874.506 6.595 2.607 7.45 4.523zM17.914 47.432h-8.93a5 5 0 0 1-5-5v-5.055a5 5 0 0 1 5-5h8.93a5 5 0 0 1 5 5v5.055a5 5 0 0 1-5 5zm2.119-7.894a5 5 0 0 0-5-5h-3.135a5 5 0 0 0-5 5v1.145a5 5 0 0 0 5 5h3.135a5 5 0 0 0 5-5v-1.145zm-2.119-7.915h-8.93a5 5 0 0 1-5-5v-5.055a5 5 0 0 1 5-5h8.93a5 5 0 0 1 5 5v5.055a5 5 0 0 1-5 5zm2.119-7.895a5 5 0 0 0-5-5h-3.135a5 5 0 0 0-5 5v1.111a5 5 0 0 0 5 5h3.135a5 5 0 0 0 5-5v-1.111z"/></symbol><symbol preserveAspectRatio="xMidYMid" viewBox="0 0 64 64" id="dtb-android"><path d="M52.669 43.608h-.138a3.29 3.29 0 0 1-3.282-3.28V26.059a3.29 3.29 0 0 1 3.282-3.277h.136a3.288 3.288 0 0 1 3.279 3.277v14.269a3.285 3.285 0 0 1-3.277 3.28zM17.263 21.941a10.04 10.04 0 0 1-.045-.889c0-4.888 3.111-9.149 7.724-11.41l-2.559-3.946a.544.544 0 0 1 .16-.752.544.544 0 0 1 .756.16l2.645 4.083a17.297 17.297 0 0 1 6.557-1.273c2.345 0 4.566.458 6.555 1.273l2.65-4.083a.544.544 0 0 1 .911.592L40.06 9.642c4.611 2.261 7.724 6.522 7.724 11.41 0 .3-.017.596-.042.889H17.263zm8.172-8.16a1.463 1.463 0 1 0 0 2.927 1.463 1.463 0 1 0 0-2.927zm14.13 0a1.463 1.463 0 1 0 0 2.927 1.46 1.46 0 0 0 1.465-1.464c0-.813-.653-1.463-1.465-1.463zM12.474 43.608h-.143a3.284 3.284 0 0 1-3.277-3.28V26.059c0-1.8 1.472-3.277 3.277-3.277h.141a3.29 3.29 0 0 1 3.279 3.277v14.269a3.287 3.287 0 0 1-3.277 3.28zm35.204 2.228a3.015 3.015 0 0 1-3.009 3.007h-3.221v7.708a3.287 3.287 0 0 1-3.28 3.282h-.138a3.291 3.291 0 0 1-3.282-3.282v-7.708H30.25v7.708a3.289 3.289 0 0 1-3.282 3.282h-.141a3.287 3.287 0 0 1-3.277-3.282v-7.708h-3.219a3.016 3.016 0 0 1-3.012-3.007V23.305h30.359v22.531z"/></symbol><symbol preserveAspectRatio="xMidYMid" viewBox="0 0 64 64" id="dtb-app-store"><path d="M29.469 7.136c4.781 4.563 14.341 22.003 17.485 28.917l-4.141 1.377c-3.775-9.459-9.907-18.935-13.344-30.294zm1.381 12.852s1.416-1.466-.46-3.213c-1.893-1.763-3.681.459-3.681.459l4.141 2.754zm-5.982-.918c2.603.483 4.152 1.534 5.522 3.213l-2.301 4.131-1.38-.459-3.681-2.295 1.84-4.59zm-3.221 5.967l5.062 3.213-11.963 20.655-4.602-3.213 11.503-20.655zM6.003 41.561v-9.18h8.743L9.684 41.58l-3.681-.019zm21.166-9.18l11.503.038 4.141 9.161-21.166-.019 5.522-9.18zm20.725 0h10.103v9.199l-5.982-.038-4.121-9.161zm-.48 5.049c1.73 1.222 3.043 4.145 2.761 5.967l-3.221.918-2.761-5.049 3.221-1.836zm3.221 7.803c3.375 1.52 6.901 9.18 6.901 9.18s-.202 1.693-1.84 2.295c-1.786.657-3.221-.918-3.221-.918l-3.681-9.639 1.841-.918zM9.224 47.987l4.141 2.295-5.981 5.967 1.84-8.262z"/></symbol><symbol preserveAspectRatio="xMidYMid" viewBox="0 0 64 64" id="dtb-battlenet"><path d="M16.872 22.972c-2.075-.021-4.833-.104-7.157.12-2.731.263-4.363.589-4.363.589s.662-1.963 11.403-2.119c-.108-5.445 1.583-7.877 2.985-8.489 2.277-.942 4.128 2.711 4.128 2.711s-.075-.984 0-2.004c.08-1.09.314-2.237.411-2.793.531-1.756 1.365-3.739 2.704-4.7 1.922-1.381 3.954-.778 5.258.421 3.065 2.818 6.023 6.9 7.909 10.859 4.185-.023 9.758 2.232 9.758 2.232s1.824-2.735 3.209-5.429c1.21-2.355 2.004-4.833 2.004-4.833s.429 1.03 0 2.357c-1.033 3.201-3.685 8.728-3.685 8.728s1.327.76 1.916 1.174c4.151 2.913 4.216 5.15 3.539 6.364-.64 1.147-4.01 1.415-4.01 1.415s.956.611 2.2 1.504c1.566 1.125 3.49 3.102 4.255 4.986.919 2.265-.588 3.766-1.856 4.59-2.996 1.946-8.767 2.394-14.152 2.003-1.47 2.252-5.212 5.845-7.269 7.26 1.858 3.75 6.561 9.596 6.561 9.596s-1.448.077-4.953-4.597c-.975-1.299-2.713-4.126-2.713-4.126s-1.262.659-1.858.968c-2.073 1.075-4.121 1.803-7.054 1.058-1.143-1.724-1.109-3.198.303-5.09-.079 0-.538.272-.538.272s-5.89 3.348-9.959 1.26c-.653-.335-1.261-1.848-1.444-2.67-.327-1.462.27-3.134.587-4.112.587-1.808 1.628-4.338 2.626-6.301 1.022-2.01 2.123-3.419 2.123-3.419s-1.238-3.336-1.533-4.125c-.749-1.999-.896-3.198-1.335-5.66zm10.816-3.525s1.524-1.184 4.553-1.777c2.8-.547 5.308-.354 5.308-.354-.003-.026-3.757-6.364-6.385-5.506-3.419 1.115-3.476 7.637-3.476 7.637zm-7.712 1.995c1.411.039 2.775.08 4.185.119-.099-2.719-.065-4.94-2.22-5.298-1.016-.168-1.972 2.176-1.965 5.179zm9.317 18.741s-1.663-4.315-2.241-6.011c-1.078-3.162-2.477-10.255-2.477-10.255s-.762 1.255-1.297 2.829c-.526 1.549-.707 3.418-.707 3.418-.001-.004-.633-1.5-.263-3.406.303-1.556 1.442-3.312 1.442-3.312l-3.774-.354c-.014.016.008 3.257 1.009 6.333 1.169 3.587 2.664 6.98 4.18 8.99.76 1.008 3.774 3.3 3.774 3.3s3.173-2.182 6.369-4.95c3.824-3.312 7.784-7.308 7.784-7.308l1.761 1.27s-5.246 6.354-6.951 8.042c-.877.869-4.599 4.125-4.599 4.125s1.695.084 3.184-.236c1.408-.301 3.185-1.06 3.185-1.06-.001 0-.818 1.105-3.722 1.914-.614.171-2.765.325-2.765.325s.356.99.776 1.86c.438.91.873 1.913.875 1.912 0 0 3.16-2.353 4.364-3.772 3.54-4.174 7.722-8.536 6.958-13.673-.004-.029.117-.088.118-.118-1.411-.705-2.953-1.416-3.958-1.894-9.435-3.433-13.494-3.88-13.497-3.881l.021-2.201c.054-.045 7.943 1.051 10.358 1.847 1.836.606 5.779 1.886 5.779 1.886s.191-.157-1.533-2.475c-1.459-1.962-2.591-2.354-2.591-2.354s1.877.638 3.062 1.647c.858.728 2.241 2.593 2.241 2.593l2.123-2.947s-1.743-.827-2.595-1.179c-2.87-1.184-9.475-2.74-13.445-1.768-2.016.494-4.599 1.768-4.599 1.768s.517 5.174.752 7.054l1.646 6.932a344.525 344.525 0 0 0 1.376 4.048l-2.123 1.061zm20.585-17.012c.031-.054-.347.802-.889 1.689a26.014 26.014 0 0 1-1.298 1.886l3.067 1.532s1.278-.784 2.005-1.296c.643-.454.851-.525-.59-2.122-.897-.993-2.295-1.689-2.295-1.689zm-2.187 7.936s.045 2.115-.589 4.126c-.82 2.599-2.367 5.246-2.367 5.246s8.178-.133 8.028-3.478c-.121-2.697-5.072-5.894-5.072-5.894zM20.87 35.309c-.62 1.28-2.905 5.714-1.838 7.585 1.155 2.025 7.365.602 8.421-.417-2.103-1.011-3.657-2.76-4.938-4.583-.553-.788-.905-1.989-1.645-2.585zm10.428 9.235s-1.757.834-3.066 2.122c-.681.916-.633 2.274.071 2.52 2.616.916 5.118-.87 5.118-.87l-2.123-3.772z"/></symbol><symbol preserveAspectRatio="xMidYMid" viewBox="0 0 64 64" id="dtb-browser"><path d="M42.9 37c.2-1.65.35-3.3.35-5 0-1.7-.15-3.35-.35-5h8.45c.4 1.6.65 3.275.65 5s-.25 3.4-.65 5M38.475 50.9c1.5-2.775 2.65-5.775 3.45-8.9H49.3a20.074 20.074 0 0 1-10.825 8.9M37.85 37h-11.7c-.25-1.65-.4-3.3-.4-5 0-1.7.15-3.375.4-5h11.7c.225 1.625.4 3.3.4 5 0 1.7-.175 3.35-.4 5M32 51.9c-2.075-3-3.75-6.325-4.775-9.9h9.55c-1.025 3.575-2.7 6.9-4.775 9.9M22 22h-7.3a19.808 19.808 0 0 1 10.8-8.9C24 15.875 22.875 18.875 22 22m-7.3 20H22c.875 3.125 2 6.125 3.5 8.9A20.02 20.02 0 0 1 14.7 42m-2.05-5c-.4-1.6-.65-3.275-.65-5s.25-3.4.65-5h8.45c-.2 1.65-.35 3.3-.35 5 0 1.7.15 3.35.35 5M32 12.075c2.075 3 3.75 6.35 4.775 9.925h-9.55c1.025-3.575 2.7-6.925 4.775-9.925M49.3 22h-7.375c-.8-3.125-1.95-6.125-3.45-8.9A19.967 19.967 0 0 1 49.3 22M32 7C18.175 7 7 18.25 7 32c0 13.807 11.193 25 25 25s25-11.193 25-25S45.807 7 32 7z"/></symbol><symbol preserveAspectRatio="xMidYMid" viewBox="0 0 64 64" id="dtb-client"><path d="M14 56l-6-6V12.8A4.8 4.8 0 0 1 12.8 8h38.4a4.8 4.8 0 0 1 4.8 4.8v38.4a4.8 4.8 0 0 1-4.8 4.8H44V39.2a2.4 2.4 0 0 0-2.4-2.4H20a2.4 2.4 0 0 0-2.4 2.4V56H14m1.2-43.2v14.4a2.4 2.4 0 0 0 2.4 2.4h28.8a2.4 2.4 0 0 0 2.4-2.4V12.8H15.2m7.2 28.8h7.2v9.6h-7.2v-9.6m28.8-28.8v2.4h2.4v-2.4h-2.4z"/></symbol><symbol preserveAspectRatio="xMidYMid" viewBox="0 0 64 64" id="dtb-gba"><path d="M55.416 16.225c-.789 1.181-1.047 2.075-2.775 2.681 1.414.41 1.536 1.138 2.366 2.187a6.012 6.012 0 0 1 1.331 3.552c.076 1.741-.315 3.393-1.174 4.956-.858 1.564-2.087 2.688-3.688 3.374-1.6.686-2.337 1.029-5.166 1.029H33.508l4.424-29.008h9.282c2.014 0 1.447.066 2.256.198 1.342.198 2.99.594 3.942 1.187a6.139 6.139 0 0 1 2.215 2.375c.525.989.814 2.084.866 3.284.07 1.61-.289 3.005-1.077 4.185zM39.807 29.334h5.392c2.26 0 1.792-.155 2.55-.465a3.657 3.657 0 0 0 1.786-1.533 3.936 3.936 0 0 0 .597-2.256c-.042-.963-.41-1.758-1.104-2.384-.695-.627.158-.94-1.398-.94h-6.67l-1.153 7.578zm10.004-18.422c-.416-.474-.992-.791-1.727-.949-.411-.08.583-.119-.973-.119h-4.336l-1.053 6.866h4.261c1.915 0 1.307-.145 2.135-.435.827-.29 1.436-.765 1.828-1.425.391-.659.57-1.365.537-2.117-.032-.739-.256-1.346-.672-1.821zm-27.311.089c-1.972.846-4.73 1.837-6 3.5-1.27 1.662-2.447 2.904-2.876 4.957a14.838 14.838 0 0 0-.321 3.035c0 1.113.157 2.089.471 2.927.314.838.767 1.539 1.359 2.103.592.564 1.309.99 2.151 1.279.842.289 1.784.434 2.825.434.699 0 1.392-.073 2.077-.217a8.005 8.005 0 0 0 1.904-.651l.763-4.373h-6.266l.835-5.369h10.396c.471 0 .806.16 1.006.477.2.318.243.767.129 1.344l-1.705 10.176c-.057.275-.128.51-.214.705-.085.195-.2.372-.342.531-.157.173-.521.379-1.092.618a18.56 18.56 0 0 1-2.086.704c-.821.232-1.738.426-2.751.586a19.98 19.98 0 0 1-3.103.238c-1.983 0-3.731-.231-5.244-.694-1.512-.462-2.779-1.152-3.799-2.07-1.02-.918-1.794-2.041-2.322-3.371s-.792-2.862-.792-4.596c0-1.561.168-3.093.503-4.597.335-1.503.835-2.93 1.498-4.281 1.327-2.703 3.871-4.787 6.496-6.395 5.857-3.586 11.539-2.808 11.911-2.743.703.101 6.089.743 6.089.743l-1.5 5s-6.768-1.386-10 0zM35 38l12 20.999h-6L32.5 43.5l-7 11.499H32v4H17.5v-1.5L30 38h5z"/></symbol><symbol preserveAspectRatio="xMidYMid" viewBox="0 0 64 64" id="dtb-gogdotcom"><path d="M57.41 33.692H43.987v-3.986l11.242.001c.665 0 1.204-.539 1.204-1.204V15.268c0-.665-.539-1.203-1.204-1.203h-6.016c-.665 0-1.203.538-1.203 1.203v6.016c0 .665.538 1.203 1.203 1.203h4.82v3.986h-7.076a3.008 3.008 0 0 1-3.008-3.008V13.012a3.008 3.008 0 0 1 3.008-3.008H57.41a3.008 3.008 0 0 1 3.008 3.008v17.672a3.008 3.008 0 0 1-3.008 3.008zm-1.504 3.948h4.512l-.038 16.243h-3.948V41.701h-2.745c-.664 0-1.203.538-1.203 1.203V53.81h-3.985V41.701h-2.708c-.664 0-1.203.538-1.203 1.203V53.81h-3.985V40.648a3.008 3.008 0 0 1 3.008-3.008h12.295zM37.708 26.473H27.255a3.008 3.008 0 0 1-3.008-3.008V13.012a3.008 3.008 0 0 1 3.008-3.008h10.453a3.008 3.008 0 0 1 3.008 3.008v10.453a3.008 3.008 0 0 1-3.008 3.008zm-.978-11.205c0-.665-.538-1.203-1.203-1.203h-6.016c-.665 0-1.204.538-1.204 1.203v6.016c0 .665.539 1.203 1.204 1.203h6.016c.665 0 1.203-.538 1.203-1.203v-6.016zm.79 25.267v10.453a3.008 3.008 0 0 1-3.008 3.008H24.059a3.008 3.008 0 0 1-3.008-3.008V40.535a3.008 3.008 0 0 1 3.008-3.008h10.453a3.008 3.008 0 0 1 3.008 3.008zm-3.986 2.256c0-.665-.538-1.203-1.203-1.203h-6.016c-.665 0-1.204.538-1.204 1.203v6.016c0 .665.539 1.204 1.204 1.204h6.016c.665 0 1.203-.539 1.203-1.204v-6.016zm-15.491-9.099H4.62v-3.986l11.242.001c.665 0 1.203-.539 1.203-1.204V15.268c0-.665-.538-1.203-1.203-1.203H9.846c-.665 0-1.203.538-1.203 1.203v6.016c0 .665.538 1.203 1.203 1.203h4.82v3.986H7.59a3.008 3.008 0 0 1-3.008-3.008V13.012a3.008 3.008 0 0 1 3.008-3.008h10.453a3.008 3.008 0 0 1 3.008 3.008v17.672a3.008 3.008 0 0 1-3.008 3.008zM7.59 37.49h10.453v4.06H9.846c-.665 0-1.203.539-1.203 1.203v5.979c0 .665.538 1.203 1.203 1.203h8.197v3.986H7.59a3.008 3.008 0 0 1-3.008-3.008V40.498A3.008 3.008 0 0 1 7.59 37.49z"/></symbol><symbol preserveAspectRatio="xMidYMid" viewBox="0 0 64 64" id="dtb-google-play"><path d="M11.103 4.991L43.36 23.074l-7.194 7.187-25.063-25.27zm-3.017.463l5.57 5.564 14.155 14.143 6.73 6.723-6.266 6.26L15.28 51.127c-1.581 1.579-7.194 7.419-7.194 7.419s-.57-.233-.696-.696c-.203-.743-.232-2.086-.232-2.086V8.236s-.105-.848.464-2.318c.167-.433.464-.464.464-.464zm47.573 28.517l-10.443 5.796-7.194-7.651 7.658-7.883s6.704 3.754 9.747 5.565c1.099.654 1.438 1.42 1.392 2.086-.081 1.179-1.16 2.087-1.16 2.087zm-19.493-.232l7.194 6.955-32.489 18.315 25.295-25.27z"/></symbol><symbol preserveAspectRatio="xMidYMid" viewBox="0 0 64 64" id="dtb-ios"><path d="M50.53 60.003H14.47c-5.231 0-9.473-4.242-9.473-9.473V14.47c0-5.231 4.242-9.473 9.473-9.473h36.06c5.231 0 9.473 4.242 9.473 9.473v36.06c0 5.231-4.242 9.473-9.473 9.473zm7.945-44.921a8.557 8.557 0 0 0-8.557-8.557H15.082a8.557 8.557 0 0 0-8.557 8.557v34.836a8.557 8.557 0 0 0 8.557 8.557h34.836a8.557 8.557 0 0 0 8.557-8.557V15.082zM43.392 30.461c.701.285.727.285 3.714.935 4.156.883 5.819 2.467 5.819 5.48 0 3.663-2.52 5.741-6.988 5.741-2.909 0-5.065-.857-6.259-2.468-.676-.909-.961-1.714-1.221-3.428l2.26-.286c.078 1.247.259 1.87.805 2.571.857 1.143 2.415 1.793 4.338 1.793 3.091 0 4.961-1.455 4.961-3.871 0-1.272-.52-2.233-1.507-2.779-.857-.493-1.143-.571-4.286-1.273-1.636-.337-2.649-.701-3.532-1.194-1.611-.91-2.416-2.286-2.416-4.104 0-3.273 2.624-5.377 6.65-5.377 2.571 0 4.571.831 5.74 2.389.597.78.857 1.429 1.143 2.754l-2.182.311c-.208-1.039-.416-1.558-.909-2.155-.831-.987-2.156-1.507-3.844-1.507-2.676 0-4.546 1.429-4.546 3.533 0 1.35.727 2.311 2.26 2.935zM26.69 42.669c-5.48 0-8.961-4-8.961-10.26 0-6.234 3.532-10.26 8.987-10.26 5.481 0 8.961 4 8.961 10.26s-3.506 10.26-8.987 10.26zm4.572-16.91c-1.195-1.169-2.754-1.792-4.546-1.792-4.156 0-6.883 3.325-6.883 8.416s2.753 8.442 6.909 8.442c1.792 0 3.325-.598 4.494-1.767 1.48-1.454 2.311-3.87 2.311-6.649 0-2.857-.779-5.143-2.285-6.65zm-19.247-3.221h2.519v2.312h-2.519v-2.312zm.078 5.741h2.337c-.13.909-.181 1.636-.181 2.935v8.13c0 1.195.051 1.922.181 2.935h-2.337c.13-1.117.181-1.844.181-2.935v-8.13c0-1.247-.051-2.026-.181-2.935z"/></symbol><symbol preserveAspectRatio="xMidYMid" viewBox="0 0 64 64" id="dtb-nds"><path fill-rule="evenodd" d="M44.546 59.502H19.454a4.364 4.364 0 0 1-4.364-4.364V39.319a4.364 4.364 0 0 1 4.364-4.364h25.092a4.364 4.364 0 0 1 4.364 4.364v15.819a4.364 4.364 0 0 1-4.364 4.364zm0-29.457H19.454a4.364 4.364 0 0 1-4.364-4.364V9.862a4.364 4.364 0 0 1 4.364-4.364h25.092a4.364 4.364 0 0 1 4.364 4.364v15.819a4.364 4.364 0 0 1-4.364 4.364zM19.454 55.684V39.319h25.092v16.365H19.454zm0-45.822h25.092v16.365H19.454V9.862z" class="bicls-1"/></symbol><symbol preserveAspectRatio="xMidYMid" viewBox="0 0 64 64" id="dtb-origin"><path fill-rule="evenodd" d="M32.109 24.843a7.758 7.758 0 0 1 7.76 7.756 7.758 7.758 0 0 1-7.76 7.756 7.758 7.758 0 0 1-7.759-7.756 7.758 7.758 0 0 1 7.759-7.756zM50.36 38.825c-2.744 8.616-9.875 14.232-11.099 15.347-2.711 2.469-5.217 3.993-6.387 4.315-.472.13-.655-.426-.655-.437 0 0-.033-.321.218-.655.433-.575.674-.179 1.749-2.622.561-1.275.786-2.772.852-3.299a19.38 19.38 0 0 1-3.038.241c-10.623 0-19.235-8.608-19.235-19.225 0 .829-.206-1.947 1.033-6.331 2.459-8.696 9.89-14.221 11.116-15.335 2.714-2.466 5.224-3.989 6.395-4.311.473-.13.656.426.657.436 0 0 .033.321-.219.655-.433.574-.675.179-1.751 2.62-.548 1.243-.776 2.693-.848 3.252A19.438 19.438 0 0 1 32 13.265c10.623 0 19.235 8.607 19.235 19.225 0-2.255.182 3.018-.875 6.335z"/></symbol><symbol preserveAspectRatio="xMidYMid" viewBox="0 0 64 64" id="dtb-playstation"><path d="M23.236 48.068c-.82.172-1.681.262-2.557.406-2.258.372-4.932.002-6.845-.375-1.45-.286-2.913-.404-4.275-.722-1.954-.456-4.68-.82-5.025-2.858-.43-2.544 2.826-4.444 4.621-4.966l14.081-4.774v4.911l-7.063 2.548c-.758.295-2.84.66-2.541 1.79.26.983 2.034 1.38 3.264 1.039l6.34-2.126v5.127zm11.48-24.799v-3.118c0-.396-.064-.938.058-1.241.164-.413.624-.676 1.097-.78.433-.095.932.007 1.242.116 1.483.522 1.098 2.114 1.098 4.013v12.79c2.642.645 5.6.985 7.682-.491 3.414-2.42 4.056-10.336 1.646-14.378-1.919-3.219-5.304-5.097-9.213-6.323l-5.054-1.328-7.596-2.021.004 39.527 3.057.98c1.928.614 4.164 1.38 5.942 1.914 0 0 .034-28.275.037-29.66zm2.407 28.852l2.098-.731 12.968-4.561c2.632-1.026 5.141-1.563 7.163-3.176.493-.394 1.31-1.253 1.127-2.252-.394-2.149-2.221-2.914-4.102-3.58-4.775-1.693-12.185-1.622-17.156-.202l-2.098.623v5.214l10.243-3.499 2.022-.26c1.014-.015 2.72-.084 2.859.751.091.374-.395.648-.635.808-.91.608-2.106.902-3.235 1.3L37.123 46.4v5.721z"/></symbol><symbol preserveAspectRatio="xMidYMid" viewBox="0 0 64 64" id="dtb-psp"><path d="M44.076 32.831v5.292h-.661v-5.954h17.419v-4.63H43.415v-.662h18.081v5.954h-17.42zm-12.568 4.63v.662h-9.923v-.662h9.261V26.877h9.923v.662h-9.261v9.922zm-27.342.662h-.662v-5.954h17.42v-4.63H3.504v-.662h18.081v5.954H4.166v5.292z"/></symbol><symbol preserveAspectRatio="xMidYMid" viewBox="0 0 64 64" id="dtb-sonkwo"><path d="M46.534 36.258l-4.755-4.141 2.148-4.448 4.601 4.141s-.392 1.121-.92 2.3a34.822 34.822 0 0 1-1.074 2.148zm-6.749-15.031l1.381-3.221L45 21.84l-1.533 3.988-3.682-4.601zm-3.067-3.528c-1.227-1.342-2.301-2.914-2.301-2.914.006.007-1.819 4.613-3.722 7.969-1.362 2.401-2.72 4.148-2.72 4.148.001-.002 2.739 4.788 6.596 8.742 6.206 6.364 14.417 11.504 14.417 11.504s-3.682 4.467-7.669 7.822c-3.751 3.157-8.129 5.522-8.129 5.522s-6.56-3.281-12.159-8.161c-4.704-4.101-8.555-10.365-8.547-10.398l5.368-3.988s2.768 4.113 6.135 7.516c3.882 3.922 8.436 7.208 8.436 7.208l6.442-5.368s-6.261-4.03-10.736-9.663c-6.037-7.599-6.442-11.196-6.442-11.196s3.35-3.919 7.515-10.737c2.723-4.456 3.988-11.197 3.988-11.197s1.199 3.84 2.761 6.442c2.052 3.42 4.448 5.829 4.448 5.829l-1.227 3.527s-1.227-1.265-2.454-2.607zm-12.884-1.687s.893-1.069 1.687-2.301a46.448 46.448 0 0 0 1.381-2.301l1.687 3.835-3.068 4.601-1.687-3.834zm.92 4.908s-.625.627-1.38 1.534a497.895 497.895 0 0 1-2.454 2.914l-1.534-3.988s.764-.763 1.534-1.687c1.09-1.309 2.301-2.914 2.301-2.914s.366 1.381.828 2.474l.705 1.667zm-5.981 16.411l4.908-4.294 2.914 4.294-4.755 4.142-3.067-4.142zm18.558 10.123l-5.061 3.988-4.908-3.988 4.908-4.141 5.061 4.141zm-14.724-4.908l4.755-4.141 4.141 4.141-5.061 3.988-3.835-3.988zm.46-10.429s-.93.737-1.84 1.533c-1.425 1.247-3.068 2.761-3.068 2.761l-1.994-4.601a79.95 79.95 0 0 0 2.615-2.336c.986-.926 1.987-1.959 1.987-1.959l2.3 4.602zm19.786 9.509l-5.061-4.141 3.374-4.448 4.755 4.294-3.068 4.295zm.307-14.878l-2.301 4.602-3.988-4.448 2.454-4.602 3.835 4.448zm-6.749-7.669c1.044 1.182 2.21 2.286 2.147 2.301-.12.029-2.454 4.601-2.454 4.601l-3.374-4.908 1.841-4.294s.861 1.191 1.84 2.3zm-.153 8.743s.76.795 1.534 1.687a177.25 177.25 0 0 0 2.454 2.761l-3.068 4.448-4.141-4.295a43.97 43.97 0 0 0 2.01-2.77c.522-.783 1.211-1.831 1.211-1.831zm-5.938.906a105.048 105.048 0 0 1-1.271-1.826s.829-1.168 1.687-2.454c.645-.968 1.381-2.148 1.381-2.148l3.527 4.755-3.221 4.601s-1.116-1.55-2.103-2.928zm16.674 9.217l5.522 4.141-3.068 4.295-5.675-4.141 3.221-4.295z"/></symbol><symbol preserveAspectRatio="xMidYMid" viewBox="0 0 64 64" id="dtb-steam"><path d="M51.495 21.508a4.996 4.996 0 0 1 4.999 4.996 5.003 5.003 0 0 1-4.999 4.996 4.996 4.996 0 1 1 0-9.992zm-40.003-2.001c3.862 0 7.001 3.138 7.001 6.997l-.033.732 14.822 7.685a6.991 6.991 0 0 1 4.222-1.421l4.999-6.996c0-4.963 4.026-8.997 9.003-8.997 4.966 0 9.002 4.023 9.002 8.997a8.993 8.993 0 0 1-9.002 8.997l-7.001 4.996a6.997 6.997 0 0 1-7.001 6.996 6.99 6.99 0 0 1-7-6.996v-.263l-15.183-7.871a6.94 6.94 0 0 1-3.829 1.137 6.997 6.997 0 1 1 0-13.993zm28.08 18.672a3 3 0 0 1-2.724 5.346l-4.288-2.219a5 5 0 0 0 9.932-.809 4.996 4.996 0 0 0-7.153-4.504l4.233 2.186zm-28.08-16.671a5.002 5.002 0 0 0-4.998 4.996 5.002 5.002 0 0 0 4.998 4.996c.569 0 1.116-.099 1.63-.274L9.808 29.51a2.998 2.998 0 0 1-1.313-4.034 3.002 3.002 0 0 1 4.037-1.312l3.959 2.056a5.001 5.001 0 0 0-4.999-4.712zm40.003-2.001c-3.861 0-7.001 3.138-7.001 6.997a6.998 6.998 0 0 0 7.001 6.996 6.998 6.998 0 0 0 7.001-6.996 6.992 6.992 0 0 0-7.001-6.997z"/></symbol><symbol preserveAspectRatio="xMidYMid" viewBox="0 0 64 64" id="dtb-uplay"><path d="M60.265 33.042c-.152 3.017-4.073 22.627-19.913 22.627-11.872 0-23.985-8.945-23.985-20.817S27.65 9.368 39.522 9.271c11.904-.097 21.243 13.819 20.743 23.771zm-9.278-9.957h-7.014v14.078c-.11.202-.259.432-.453.63-.426.434-1.098.679-1.098.679h-9.277c-1.594 0-1.844-4.073-1.844-4.073V23.085h-6.562v14.549s.259 2.903 1.81 4.459c1.682 1.686 4.442 2.036 4.442 2.036H50.987V23.085zm-31.213-7.689a2.497 2.497 0 0 1-2.488-2.505 2.496 2.496 0 0 1 2.488-2.505 2.496 2.496 0 0 1 2.488 2.505 2.497 2.497 0 0 1-2.488 2.505zm-6.893 13.837c-3.343 1.491-6.356-.144-7.149-.717-1.479-1.068-1.673-4.364-1.358-6.562.398-2.782 2.176-4.752 6.336-4.752 1.713 0 4.417.692 5.43 2.489.806 1.429 2.092 7.157-3.259 9.542z"/></symbol><symbol preserveAspectRatio="xMidYMid" viewBox="0 0 64 64" id="dtb-wii"><path d="M45.312 18.603c1.704-.023 2.721.496 3.355 1.519.14.225.243.556.317.823.097.357.086.895 0 1.235-.359 1.419-1.071 2.135-2.469 2.501-1.881.491-3.216-.77-3.703-1.931-.229-.548-.314-1.497-.063-2.121.317-.789.932-1.479 1.709-1.805.228-.096.658-.096.854-.221zm10.951 0c1.852-.025 2.804.577 3.418 1.772.232.453.424 1.344.221 2.026-.084.284-.199.614-.348.855-.489.791-1.241 1.205-2.279 1.456-.44.107-1.152.057-1.519-.063-1.415-.461-2.845-2.202-2.025-4.147a3.263 3.263 0 0 1 1.677-1.678c.22-.094.663-.101.855-.221zM34.52 20.059c1.94-.003 3.943-.017 5.792.063-.022.504-.268 1.047-.411 1.488-.358 1.097-.571 2.224-.918 3.292-.24.737-.329 1.448-.57 2.184-.855 2.618-1.431 5.397-2.278 8.009-.129.396-.156.748-.285 1.14-.47 1.426-.83 2.954-1.298 4.368-.301.911-.452 1.906-.918 2.659-.754 1.221-1.74 2.091-3.734 2.09-.342-.001-.67-.005-.95-.095-.635-.205-1.071-.533-1.487-.95-.185-.185-.416-.356-.57-.57-.651-.908-.847-2.178-1.234-3.355-.966-2.94-1.574-6.093-2.532-9.054-.251-.775-.392-1.565-.633-2.311-.103-.32-.134-.908-.316-1.139-.03.285-.172.577-.253.823-.126.378-.202.758-.317 1.108-.372 1.131-.59 2.31-.949 3.419-.169.518-.211 1.001-.38 1.519-.531 1.628-.898 3.379-1.424 5.002-.312.962-.444 1.952-.823 2.849-.262.62-.633 1.144-1.013 1.646-.637.842-2.708 1.532-4.177.918-2.682-1.122-2.832-4.188-3.767-7.028-.31-.942-.505-1.937-.822-2.912-1.073-3.288-1.781-6.773-2.849-10.067-.393-1.213-.63-2.458-1.012-3.64-.157-.485-.205-.966-.38-1.424h5.696c.034.023.03.019.095.031l4.684 18.234c.02-.451.221-.938.348-1.33.302-.926.438-1.891.728-2.785.215-.662.26-1.302.475-1.963.581-1.784.911-3.726 1.487-5.508.64-1.978.843-4.303 1.963-5.793.61-.812 2.404-1.472 3.892-.981 2.242.739 2.284 2.964 3.007 5.191 1.009 3.107 1.557 6.476 2.563 9.592.358 1.108.458 2.34.887 3.387h.031c.036-.375.207-.774.317-1.108.261-.799.393-1.63.633-2.406.143-.466.165-.898.316-1.361.585-1.789.904-3.735 1.456-5.54.23-.754.293-1.495.538-2.247.31-.954.441-1.995.76-2.976.151-.465.218-.99.379-1.488.095-.293.224-.633.253-.981zm8.609 7.629h5.475v17.474h-5.475V27.688zm10.95 0h5.443v17.474h-5.443V27.688z"/></symbol><symbol preserveAspectRatio="xMidYMid" viewBox="0 0 64 64" id="dtb-wiiu"><path d="M18.286 10.552v15.324c-.001 3.436-.163 7.027.696 9.675 1.234 3.807 3.409 6.393 6.961 7.894.305.129 5.702 2.554 11.679.619 2.666-.863 5.039-2.335 6.498-4.412 2.703-3.85 2.629-8.258 2.629-14.782V10.629c.503-.166 1.377-.077 2.012-.077h4.563c.426.259 1.711.138 2.243.31 1.786.574 3.136 1.623 4.022 3.095 1.252 2.08.851 6.18.851 9.443v14.318c0 5.1.072 8.623-2.088 11.531-.327.439-.867.835-1.315 1.161-3.124 2.274-6.194 2.09-11.525 2.09H16.429c-1.699 0-3.352.068-4.718-.31-3.264-.903-5.39-2.68-6.497-5.727-.742-2.039-.619-4.837-.619-7.585V26.573c0-3.886-.53-10.3.928-12.693 2.323-3.813 6.741-3.348 12.763-3.328zm6.883 0h14.697c.152.463.077 1.265.077 1.858v18.11c-.25.418-.152 1.644-.31 2.167-.467 1.552-1.237 3.232-2.397 4.102-.827.619-1.75 1.14-2.862 1.47-2.825.839-5.265-.531-6.729-1.78-2.587-2.205-2.476-5.599-2.476-10.371V10.552z"/></symbol><symbol preserveAspectRatio="xMidYMid" viewBox="0 0 64 64" id="dtb-windows-store"><path d="M46.739 58.996L8.176 51.194V20.637l8.409-1.726.112-3.366c.548-5.176 4.589-10.082 9.59-10.504 5.502-.465 10.02 3.547 10.59 9.705l3.006-.617c-.755-2.262-2.237-4.103-4.1-5.204l-.029-.017-2.187-2.34c-.788-.131-.763-.131.035.005 3.644.623 6.556 3.326 7.671 7.271l5.413-1.111 4.52 2.984v-.066l4.617.583v39.151l-9.084 3.611zM16.426 43.714l8.801 1.22v-8.329h-8.801v7.109zm0-14.642v7.215h8.801v-8.435l-8.801 1.22zM26.26 6.398c-4.696.396-8.605 5.766-8.394 10.632-.021.592-.024 1.373-.025 1.624l3.65-.75.03-.927c.426-4.021 2.96-7.879 6.414-9.598a.228.228 0 0 0 .038-.019l2.324.585-.041.008c-4.066.857-7.359 5.361-7.563 9.705l12.858-2.639c-.513-5.196-4.642-9.013-9.291-8.621zm10.419 19.863l-11.134 1.545v8.481h11.134V26.261zm0 10.344H25.545v8.375l11.134 1.546v-9.921zm-.925-27.697l.001.001c-1.384-.81-1.371-.811-.001-.001z"/></symbol><symbol preserveAspectRatio="xMidYMid" viewBox="0 0 64 64" id="dtb-xbox"><path d="M16.756 9.176c-.028.022-.049.045-.075.067.156-.165.38-.342.528-.438 4.302-2.796 9.272-4.291 14.788-4.291 5.158 0 9.99 1.425 14.115 3.902.299.177 1.115.737 1.536 1.245v.002c-3.98-4.387-15.677 5.026-15.677 5.026-4.046-3.118-7.767-5.243-10.537-6-2.316-.634-3.918-.104-4.678.487zm35.399 4.148c-.122-.134-.254-.26-.376-.399-1.006-1.104-2.243-1.371-3.358-1.299-1.015.319-5.703 2.008-11.481 7.463 0 0 6.504 6.324 10.488 12.789 3.979 6.466 6.359 11.547 4.896 18.599a27.371 27.371 0 0 0 7.149-18.485 27.371 27.371 0 0 0-7.318-18.668zM42.226 34.64a190.298 190.298 0 0 0-7.856-8.264c-.758-.754-1.559-1.54-2.401-2.353 0 0-1.267 1.266-2.916 2.932v-.002c-2.11 2.132-4.847 4.913-6.365 6.536-2.705 2.885-10.452 11.948-10.888 17.029 0 0-1.724-4.03 2.059-13.326 2.472-6.076 9.939-15.2 13.058-18.174 0 0-2.849-3.135-6.425-5.301l-.022-.006s-.04-.032-.104-.073c-1.72-1.025-3.597-1.815-5.404-1.92-1.846.13-3.014 1.48-3.014 1.48a27.379 27.379 0 0 0-7.434 18.796c0 15.175 12.304 27.479 27.483 27.479 8.055 0 15.303-3.472 20.331-8.994-.002-.008-.579-3.631-4.277-8.827-.869-1.217-4.045-5.017-5.825-7.012z"/></symbol><symbol viewBox="0 0 24 24" id="eye"><path d="M12 9a3 3 0 0 0-3 3 3 3 0 0 0 3 3 3 3 0 0 0 3-3 3 3 0 0 0-3-3m0 8a5 5 0 0 1-5-5 5 5 0 0 1 5-5 5 5 0 0 1 5 5 5 5 0 0 1-5 5m0-12.5C7 4.5 2.73 7.61 1 12c1.73 4.39 6 7.5 11 7.5s9.27-3.11 11-7.5c-1.73-4.39-6-7.5-11-7.5z"/></symbol><symbol viewBox="0 0 24 24" id="eye-off"><path d="M11.83 9L15 12.16V12a3 3 0 0 0-3-3h-.17m-4.3.8l1.55 1.55c-.05.21-.08.42-.08.65a3 3 0 0 0 3 3c.22 0 .44-.03.65-.08l1.55 1.55c-.67.33-1.41.53-2.2.53a5 5 0 0 1-5-5c0-.79.2-1.53.53-2.2M2 4.27l2.28 2.28.45.45C3.08 8.3 1.78 10 1 12c1.73 4.39 6 7.5 11 7.5 1.55 0 3.03-.3 4.38-.84l.43.42L19.73 22 21 20.73 3.27 3M12 7a5 5 0 0 1 5 5c0 .64-.13 1.26-.36 1.82l2.93 2.93c1.5-1.25 2.7-2.89 3.43-4.75-1.73-4.39-6-7.5-11-7.5-1.4 0-2.74.25-4 .7l2.17 2.15C10.74 7.13 11.35 7 12 7z"/></symbol><symbol preserveAspectRatio="xMidYMid" viewBox="0 0 64 64" id="file"><path d="M34.814 23.12V7.729L50.205 23.12H34.814zM15.224 3.531a5.578 5.578 0 0 0-5.597 5.597v44.775a5.597 5.597 0 0 0 5.597 5.597h33.582a5.597 5.597 0 0 0 5.597-5.597V20.322L37.612 3.531H15.224z"/></symbol><symbol preserveAspectRatio="xMidYMid" viewBox="0 0 24 24" id="follower-mark"><path d="M9 14c2.67 0 8 1.33 8 4v2H1v-2c0-2.67 5.33-4 8-4m0-2a4 4 0 1 1 0-8 4 4 0 0 1 0 8M15.004 10.495v1.009h6.054l-2.775 2.775.717.716L22.995 11 19 7.004l-.717.716 2.775 2.775h-6.054z"/></symbol><symbol preserveAspectRatio="xMidYMid" viewBox="0 0 24 24" id="friended-mark"><path d="M21.994 9.194V7.807h-8.323l3.815-3.815-.985-.985-5.494 5.494 5.494 5.493.985-.985-3.815-3.815h8.323zM2.006 14.806v1.387h8.323l-3.815 3.815.985.985 5.494-5.494-5.494-5.493-.985.985 3.815 3.815H2.006z"/></symbol><symbol preserveAspectRatio="xMidYMid" viewBox="0 0 64 64" id="human-greeting"><path d="M4.984 11v3.938c0 10.893 5.93 20.422 14.758 25.724V53h40.25v-5.25c0-6.983-14.302-10.5-21.467-10.5h-.671c-12.745 0-23.479-10.5-23.479-22.312V11m24.15 0c-5.928 0-10.733 4.701-10.733 10.5S32.597 32 38.525 32c5.928 0 10.734-4.701 10.734-10.5S44.453 11 38.525 11z"/></symbol><symbol preserveAspectRatio="xMidYMid" viewBox="0 0 64 64" id="image"><path d="M23.833 35.5l5.834 7L37.833 32l10.5 14H15.667M53 48.333V15.667C53 13.077 50.9 11 48.333 11H15.667A4.668 4.668 0 0 0 11 15.667v32.666A4.668 4.668 0 0 0 15.667 53h32.666A4.668 4.668 0 0 0 53 48.333z"/></symbol><symbol preserveAspectRatio="xMidYMid" viewBox="0 0 257 513" id="keylol-logo-arrow"><path d="M.34 146.614l109.286 109.817L.34 365.718v146.423l256.24-255.71L.34.191v146.423z"/></symbol><symbol preserveAspectRatio="xMidYMid" viewBox="0 0 24 24" id="libraried-mark"><path d="M7 13l-1 1 4 4 9-11-1-1-8 10-3-3z"/></symbol><symbol preserveAspectRatio="xMidYMid" viewBox="0 0 64 64" id="login-passcode"><path d="M20.182 37.333c-2.611 0-4.727-2.164-4.727-4.833s2.116-4.833 4.727-4.833 4.727 2.164 4.727 4.833-2.116 4.833-4.727 4.833m13.354-9.666C31.598 22.036 26.351 18 20.182 18 12.349 18 6 24.492 6 32.5S12.349 47 20.182 47c6.169 0 11.416-4.036 13.354-9.667h10.282V47h9.455v-9.667H58v-9.666H33.536z"/></symbol><symbol preserveAspectRatio="xMidYMid" viewBox="0 0 64 64" id="login-steam-bot"><path d="M24.8 56a2.4 2.4 0 0 1-2.4-2.4v-7.2h-9.6A4.8 4.8 0 0 1 8 41.6V12.8C8 10.136 10.16 8 12.8 8h38.4a4.8 4.8 0 0 1 4.8 4.8v28.8a4.8 4.8 0 0 1-4.8 4.8H36.56l-8.88 8.904C27.2 55.76 26.6 56 26 56h-1.2m16.8-19.2v-2.4c0-3.192-6.408-4.8-9.6-4.8-3.192 0-9.6 1.608-9.6 4.8v2.4h19.2M32 17.6a4.8 4.8 0 1 0 0 9.6 4.8 4.8 0 0 0 0-9.6z"/></symbol><symbol preserveAspectRatio="xMidYMid" viewBox="0 0 64 64" id="login-steam-web-api"><path d="M42.9 37c.2-1.65.35-3.3.35-5 0-1.7-.15-3.35-.35-5h8.45c.4 1.6.65 3.275.65 5s-.25 3.4-.65 5M38.475 50.9c1.5-2.775 2.65-5.775 3.45-8.9H49.3a20.074 20.074 0 0 1-10.825 8.9M37.85 37h-11.7c-.25-1.65-.4-3.3-.4-5 0-1.7.15-3.375.4-5h11.7c.225 1.625.4 3.3.4 5 0 1.7-.175 3.35-.4 5M32 51.9c-2.075-3-3.75-6.325-4.775-9.9h9.55c-1.025 3.575-2.7 6.9-4.775 9.9M22 22h-7.3a19.808 19.808 0 0 1 10.8-8.9C24 15.875 22.875 18.875 22 22m-7.3 20H22c.875 3.125 2 6.125 3.5 8.9A20.02 20.02 0 0 1 14.7 42m-2.05-5c-.4-1.6-.65-3.275-.65-5s.25-3.4.65-5h8.45c-.2 1.65-.35 3.3-.35 5 0 1.7.15 3.35.35 5M32 12.075c2.075 3 3.75 6.35 4.775 9.925h-9.55c1.025-3.575 2.7-6.925 4.775-9.925M49.3 22h-7.375c-.8-3.125-1.95-6.125-3.45-8.9A19.967 19.967 0 0 1 49.3 22M32 7C18.175 7 7 18.25 7 32c0 13.807 11.193 25 25 25s25-11.193 25-25S45.807 7 32 7z"/></symbol><symbol preserveAspectRatio="xMidYMid" viewBox="0 0 64 64" id="login-steamcn"><path d="M11.513 11.513h41.974v41.974H11.513V11.513zm4.591 4.591v16.724l19.962 8.444s.698-.478 1.409-.684c.75-.218 1.516-.164 1.516-.164l4.822-6.653.082-1.025c.125-.527.213-1.077.41-1.558.761-1.853 2.49-3.78 4.591-4.263V16.104H16.104zm0 32.792h18.159v-.082c-.39-.322-.697-1.763-.697-1.763l-17.462-7.419v9.264zm32.792 0v-6.189l-4.295 3.245s-.189 1.473-.255 1.673c-.149.452-.463.85-.605 1.275 1.708 0 3.447-.004 5.155-.004z"/></symbol><symbol preserveAspectRatio="xMidYMid" viewBox="0 0 64 64" id="map"><path d="M32 31.05c-4.038 0-7.311-3.246-7.311-7.25 0-4.005 3.273-7.251 7.311-7.251s7.311 3.246 7.311 7.251c0 4.004-3.273 7.25-7.311 7.25m0-27.551c-11.306 0-20.471 9.089-20.471 20.301C11.529 39.025 32 61.501 32 61.501S52.471 39.025 52.471 23.8c0-11.212-9.165-20.301-20.471-20.301z"/></symbol><symbol preserveAspectRatio="xMidYMid" viewBox="0 0 64 64" id="menu-down"><path d="M20 26.5l12 12 12-12H20z"/></symbol><symbol preserveAspectRatio="xMidYMid" viewBox="0 0 64 64" id="menu-left"><path d="M38.5 20l-12 12 12 12V20z"/></symbol><symbol preserveAspectRatio="xMidYMid" viewBox="0 0 64 64" id="menu-right"><path d="M26.5 44l12-12-12-12v24z"/></symbol><symbol preserveAspectRatio="xMidYMid" viewBox="0 0 64 64" id="menu-up"><path d="M20 38.5l12-12 12 12H20z"/></symbol><symbol preserveAspectRatio="xMidYMid" viewBox="0 0 64 64" id="more"><path d="M46 32a7 7 0 1 1 14 0 7 7 0 0 1-14 0m-21 0a7 7 0 1 1 14 0 7 7 0 0 1-14 0M4 32a7 7 0 1 1 14 0 7 7 0 0 1-14 0z"/></symbol><symbol preserveAspectRatio="xMidYMid" viewBox="0 0 64 64" id="new-article"><path d="M51.328 15.724l-1.263 2.204-17.49-10.18 1.262-2.204a5.028 5.028 0 0 1 6.897-1.863l8.746 5.09c2.414 1.406 3.242 4.518 1.848 6.953zM33.656 46.579l-17.49-10.18L30.05 12.156l17.491 10.18-13.885 24.243zM12.997 61.002l.644-20.195 17.49 10.18-18.134 10.015z"/></symbol><symbol preserveAspectRatio="xMidYMid" viewBox="0 0 64 64" id="open-in-new"><path d="M36.889 10v4.889h8.775L21.636 38.918l3.446 3.446 24.029-24.028v8.775H54V10m-4.889 39.111H14.889V14.889H32V10H14.889A4.888 4.888 0 0 0 10 14.889v34.222A4.89 4.89 0 0 0 14.889 54h34.222A4.89 4.89 0 0 0 54 49.111V32h-4.889v17.111z"/></symbol><symbol preserveAspectRatio="xMidYMid" viewBox="0 0 64 64" id="register"><path d="M27.7 46.4l-9.6-9.6 3.384-3.384 6.216 6.192 15.816-15.816L46.9 27.2M32.5 12.8a2.4 2.4 0 1 1 .001 4.799A2.4 2.4 0 0 1 32.5 12.8m16.8 0H39.268C38.26 10.016 35.62 8 32.5 8c-3.12 0-5.76 2.016-6.768 4.8H15.7a4.8 4.8 0 0 0-4.8 4.8v33.6a4.8 4.8 0 0 0 4.8 4.8h33.6a4.8 4.8 0 0 0 4.8-4.8V17.6a4.8 4.8 0 0 0-4.8-4.8z"/></symbol><symbol preserveAspectRatio="xMidYMid" viewBox="0 0 64 64" id="search"><path d="M25.133 11.581c-2.686.046-5.381.857-7.657 2.481-5.544 3.959-6.503 11.244-2.137 16.279 4.362 5.026 12.396 5.898 17.941 1.939 5.548-3.958 6.503-11.243 2.139-16.278-2.454-2.833-6.068-4.345-9.749-4.421a12.017 12.017 0 0 0-.537 0zm.22-8.015c6.402-.004 12.741 2.565 17.009 7.481 6.085 7.018 6.035 16.626.566 23.537l16.803 19.375-9.155 6.538-16.742-19.303c-8.762 3.389-19.266 1.209-25.438-5.898-7.379-8.513-5.758-20.833 3.622-27.531 3.958-2.826 8.663-4.197 13.335-4.199z"/></symbol><symbol preserveAspectRatio="xMidYMid" viewBox="0 0 64 64" id="settings"><path d="M32.002 39.7c-4.337 0-7.853-3.447-7.853-7.7s3.516-7.7 7.853-7.7 7.854 3.447 7.854 7.7-3.517 7.7-7.854 7.7m16.672-5.566c.09-.704.157-1.408.157-2.134s-.067-1.452-.157-2.2l4.735-3.586c.426-.33.538-.924.269-1.408l-4.488-7.612c-.269-.484-.875-.682-1.369-.484l-5.587 2.2c-1.167-.858-2.378-1.606-3.792-2.156l-.83-5.83A1.128 1.128 0 0 0 36.49 10h-8.976c-.561 0-1.032.396-1.122.924l-.83 5.83c-1.413.55-2.625 1.298-3.792 2.156l-5.587-2.2c-.494-.198-1.1 0-1.369.484l-4.488 7.612a1.07 1.07 0 0 0 .27 1.408L15.33 29.8c-.089.748-.157 1.474-.157 2.2 0 .726.068 1.43.157 2.134l-4.734 3.652a1.07 1.07 0 0 0-.27 1.408l4.488 7.612c.269.484.875.66 1.369.484l5.587-2.222c1.167.88 2.379 1.628 3.792 2.178l.83 5.83c.09.528.561.924 1.122.924h8.976c.561 0 1.032-.396 1.122-.924l.83-5.83c1.414-.572 2.625-1.298 3.792-2.178l5.587 2.222c.494.176 1.1 0 1.369-.484l4.488-7.612a1.096 1.096 0 0 0-.269-1.408l-4.735-3.652z"/></symbol><symbol preserveAspectRatio="xMidYMid" viewBox="0 0 64 64" id="steamcn"><path d="M-.011-.011h64.022v64.022H-.011V-.011zm7.002 7.002V32.5l30.448 12.88s1.065-.729 2.15-1.044c1.144-.332 2.311-.25 2.311-.25l7.356-10.148.125-1.563c.19-.804.324-1.643.625-2.376 1.161-2.827 3.797-5.766 7.003-6.502V6.991H6.991zm0 50.018h27.697v-.125c-.593-.492-1.062-2.689-1.062-2.689L6.991 42.879v14.13zm50.018 0v-9.441l-6.552 4.95s-.287 2.247-.388 2.552c-.228.689-.707 1.297-.924 1.945 2.605 0 5.259-.006 7.864-.006z"/></symbol><symbol preserveAspectRatio="xMidYMid" viewBox="0 0 64 64" id="tune"><path d="M11 43.666v4.667h14v-4.667H11m0-27.999v4.667h23.333v-4.667H11M34.333 53v-4.667H53v-4.667H34.333V39h-4.666v14h4.666m-14-28v4.667H11v4.666h9.333V39H25V25h-4.667M53 34.333v-4.666H29.667v4.666H53M39 25h4.667v-4.666H53v-4.667h-9.333V11H39v14z"/></symbol><symbol preserveAspectRatio="xMidYMid" viewBox="0 0 64 64" id="user"><path d="M42.679 35.043c-.738 0-1.578 0-2.468.127 2.952 2.135 5.013 4.958 5.013 8.771v6.357h15.269v-6.357c0-5.924-11.884-8.898-17.814-8.898m-20.358 0c-5.93 0-17.814 2.974-17.814 8.898v6.357h35.627v-6.357c0-5.924-11.884-8.898-17.813-8.898m0-5.086c4.216 0 7.634-3.415 7.634-7.627a7.631 7.631 0 0 0-7.634-7.628c-4.217 0-7.635 3.415-7.635 7.628 0 4.212 3.418 7.627 7.635 7.627m20.358 0c4.217 0 7.635-3.415 7.635-7.627 0-4.213-3.418-7.628-7.635-7.628a7.631 7.631 0 0 0-7.634 7.628c0 4.212 3.418 7.627 7.634 7.627z"/></symbol><symbol preserveAspectRatio="xMidYMid" viewBox="0 0 64 64" id="video-play"><path d="M16 11v42l33-21-33-21z"/></symbol></svg>