<svg xmlns="http://www.w3.org/2000/svg" xmlns:xlink="http://www.w3.org/1999/xlink" preserveAspectRatio="xMidYMid" width="64" height="64" viewBox="0 0 64 64">
  <path d="M12.417,14.375 L51.583,14.375 C53.639,14.375 55.500,16.236 55.500,18.292 L55.500,45.708 C55.500,47.764 53.639,49.625 51.583,49.625 L12.417,49.625 C10.361,49.625 8.500,47.764 8.500,45.708 L8.500,18.292 C8.500,16.236 10.361,14.375 12.417,14.375 M35.917,20.250 L35.917,22.209 L51.583,22.209 L51.583,20.250 L35.917,20.250 M35.917,24.167 L35.917,26.125 L50.604,26.125 L51.583,26.125 L51.583,24.167 L35.917,24.167 M35.917,28.083 L35.917,30.042 L49.625,30.042 L49.625,28.083 L35.917,28.083 M24.167,35.740 C20.250,35.740 12.417,37.875 12.417,41.791 L12.417,43.750 L35.917,43.750 L35.917,41.791 C35.917,37.875 28.083,35.740 24.167,35.740 M24.167,20.250 C20.922,20.250 18.292,22.880 18.292,26.125 C18.292,29.370 20.922,32.000 24.167,32.000 C27.411,32.000 30.042,29.370 30.042,26.125 C30.042,22.880 27.411,20.250 24.167,20.250 Z"/>
</svg>
