<svg xmlns="http://www.w3.org/2000/svg" xmlns:xlink="http://www.w3.org/1999/xlink" preserveAspectRatio="xMidYMid" width="48.031" height="48" viewBox="0 0 48.031 48">
  <path d="M46.113,46.086 C44.878,47.321 43.239,48.000 41.495,48.000 C39.750,48.000 38.110,47.321 36.877,46.086 L21.266,30.469 L30.418,21.149 L46.113,36.847 C48.659,39.395 48.658,43.540 46.113,46.086 ZM41.812,38.688 C40.104,38.688 38.719,40.073 38.719,41.781 C38.719,43.490 40.104,44.875 41.812,44.875 C43.521,44.875 44.906,43.490 44.906,41.781 C44.906,40.073 43.521,38.688 41.812,38.688 ZM19.227,28.430 C17.736,28.925 16.181,29.175 14.604,29.175 C10.712,29.175 7.055,27.661 4.306,24.912 C0.640,21.245 -0.788,16.052 0.484,11.020 C0.574,10.660 0.852,10.376 1.210,10.278 C1.566,10.179 1.952,10.280 2.214,10.543 L9.322,17.548 L17.580,9.290 L10.582,2.174 C10.319,1.912 10.217,1.528 10.316,1.170 C10.415,0.811 10.699,0.534 11.059,0.443 C12.227,0.149 13.432,0.000 14.640,0.000 C18.534,0.000 22.193,1.516 24.944,4.266 C28.804,8.128 30.185,13.986 28.460,19.192 L19.227,28.430 Z"/>
</svg>
