<svg xmlns="http://www.w3.org/2000/svg" xmlns:xlink="http://www.w3.org/1999/xlink" preserveAspectRatio="xMidYMid" width="64" height="64" viewBox="0 0 64 64">
  <path d="M54.857,22.550 L48.311,29.838 C48.395,30.264 48.463,30.695 48.509,31.132 L57.003,36.590 L47.060,39.192 C46.957,39.401 46.848,39.608 46.735,39.812 L50.637,49.070 L41.118,45.648 C40.835,45.822 40.545,45.988 40.251,46.145 L39.080,56.042 L32.319,48.158 C32.259,48.158 32.200,48.162 32.140,48.162 C31.988,48.162 31.838,48.155 31.687,48.151 L24.920,56.042 L23.730,45.984 C23.502,45.856 23.278,45.723 23.057,45.585 L13.363,49.070 L17.387,39.522 C17.344,39.440 17.301,39.358 17.260,39.275 L6.997,36.590 L15.794,30.937 C15.828,30.654 15.870,30.373 15.919,30.095 L9.143,22.550 L19.570,22.675 C19.662,22.572 19.755,22.471 19.850,22.370 L18.423,11.804 L27.119,17.908 C27.314,17.849 27.511,17.796 27.708,17.744 L32.044,7.961 L36.225,17.652 C36.474,17.712 36.720,17.779 36.965,17.849 L45.577,11.804 L44.184,22.116 C44.363,22.298 44.537,22.483 44.707,22.672 L54.857,22.550 Z"/>
</svg>
