<svg xmlns="http://www.w3.org/2000/svg" xmlns:xlink="http://www.w3.org/1999/xlink" preserveAspectRatio="xMidYMid" width="50" height="48.563" viewBox="0 0 50 48.563">
  <path fill-rule="evenodd" d="M38.884,35.483 L25.926,35.483 L12.967,48.552 L11.116,48.552 L11.116,35.483 C4.981,35.483 0.009,30.468 0.009,24.281 L0.009,11.213 C0.009,5.026 4.981,0.011 11.116,0.011 L38.884,0.011 C45.019,0.011 49.991,5.026 49.991,11.213 L49.991,24.281 C49.991,30.468 45.019,35.483 38.884,35.483 ZM26.527,29.575 C25.949,29.575 24.396,29.608 21.867,29.674 L21.867,28.328 C23.103,28.284 23.817,28.208 24.008,28.098 C24.200,27.989 24.323,27.682 24.378,27.178 C24.465,26.488 24.509,26.832 24.509,24.477 C24.509,23.458 24.492,22.516 24.460,21.651 L24.410,19.728 C24.410,19.093 24.342,18.701 24.205,18.554 C24.068,18.406 23.699,18.321 23.098,18.299 L21.867,18.249 L21.867,16.986 C24.503,16.787 28.367,15.544 28.367,15.544 L28.367,25.252 C28.367,25.252 28.291,27.197 28.367,27.679 C28.422,28.019 28.706,28.066 28.853,28.164 C29.000,28.263 29.822,28.230 31.105,28.328 L31.105,29.674 C29.132,29.608 27.606,29.575 26.527,29.575 ZM24.279,7.479 L28.013,7.479 L28.013,11.213 L24.279,11.213 L24.279,7.479 Z"/>
</svg>
