<svg xmlns="http://www.w3.org/2000/svg" xmlns:xlink="http://www.w3.org/1999/xlink" preserveAspectRatio="xMidYMid" width="64" height="64" viewBox="0 0 64 64">
  <path fill-rule="evenodd" d="M45.947,43.202 L32.988,43.202 L20.030,56.270 L18.178,56.270 L18.178,43.202 C12.044,43.202 7.071,38.187 7.071,32.000 L7.071,18.931 C7.071,12.745 12.044,7.730 18.178,7.730 L45.947,7.730 C52.081,7.730 57.054,12.745 57.054,18.931 L57.054,32.000 C57.054,38.187 52.081,43.202 45.947,43.202 ZM33.589,37.294 C33.011,37.294 31.458,37.327 28.930,37.392 L28.930,36.047 C30.166,36.003 30.879,35.927 31.071,35.817 C31.262,35.707 31.385,35.401 31.440,34.897 C31.527,34.206 31.571,34.551 31.571,32.196 C31.571,31.177 31.555,30.235 31.522,29.369 L31.473,27.447 C31.473,26.812 31.404,26.420 31.268,26.272 C31.131,26.124 30.762,26.039 30.160,26.017 L28.930,25.968 L28.930,24.705 C31.566,24.506 35.430,23.263 35.430,23.263 L35.430,32.971 C35.430,32.971 35.354,34.915 35.430,35.398 C35.484,35.738 35.769,35.784 35.915,35.883 C36.062,35.982 36.885,35.948 38.168,36.047 L38.168,37.392 C36.194,37.327 34.668,37.294 33.589,37.294 ZM31.341,15.197 L35.075,15.197 L35.075,18.931 L31.341,18.931 L31.341,15.197 Z"/>
</svg>
