<svg xmlns="http://www.w3.org/2000/svg" xmlns:xlink="http://www.w3.org/1999/xlink" preserveAspectRatio="xMidYMid" width="52" height="43.813" viewBox="0 0 52 43.813">
  <path fill-rule="evenodd" d="M51.067,37.279 L37.309,37.279 L37.309,42.869 C37.309,43.383 36.892,43.801 36.377,43.801 L0.933,43.801 C0.418,43.801 0.000,43.383 0.000,42.869 L0.000,0.943 C0.000,0.429 0.418,0.012 0.933,0.012 L36.377,0.012 C36.892,0.012 37.309,0.429 37.309,0.943 L37.309,6.534 L51.067,6.534 C51.582,6.534 52.000,6.951 52.000,7.465 L52.000,36.347 C52.000,36.862 51.582,37.279 51.067,37.279 ZM37.309,29.360 L37.309,9.561 L48.735,9.561 L48.735,29.360 L37.309,29.360 ZM4.897,4.903 L32.646,4.903 L32.646,32.620 L4.897,32.620 L4.897,4.903 Z"/>
</svg>
