<svg xmlns="http://www.w3.org/2000/svg" xmlns:xlink="http://www.w3.org/1999/xlink" preserveAspectRatio="xMidYMid" width="64" height="64" viewBox="0 0 64 64">
  <g>
    <path opacity="0.5" fill-rule="evenodd" d="M37.920,20.282 C37.920,20.282 39.772,20.262 40.227,20.285 C41.691,18.643 43.807,17.611 46.160,17.611 C50.365,17.611 53.810,20.906 54.132,25.091 L59.091,39.521 C60.254,42.453 58.862,45.789 55.982,46.972 C53.102,48.155 49.824,46.736 48.661,43.804 L45.688,38.551 C44.242,40.525 37.613,41.076 32.144,41.076 C32.044,41.076 31.947,41.071 31.851,41.061 C31.756,41.071 31.658,41.076 31.558,41.076 C29.773,41.076 27.864,40.985 26.052,40.795 C37.810,20.218 37.920,20.282 37.920,20.282 ZM42.668,28.408 C44.059,28.614 45.019,29.899 44.811,31.278 C44.604,32.657 43.308,33.609 41.916,33.403 C40.525,33.197 39.566,31.912 39.773,30.533 C39.981,29.154 41.277,28.203 42.668,28.408 ZM49.484,29.416 C50.876,29.622 51.835,30.907 51.628,32.286 C51.420,33.665 50.124,34.617 48.733,34.411 C47.342,34.205 46.382,32.920 46.589,31.541 C46.797,30.162 48.093,29.210 49.484,29.416 ZM44.536,23.784 C45.412,22.693 47.014,22.511 48.115,23.379 C49.216,24.247 49.399,25.835 48.524,26.927 C47.649,28.018 46.046,28.200 44.945,27.332 C43.844,26.464 43.661,24.876 44.536,23.784 Z"/>
    <path d="M38.218,20.282 C38.218,20.282 34.033,20.373 32.351,20.373 C32.285,20.373 32.217,20.392 32.149,20.422 C32.081,20.392 32.013,20.373 31.947,20.373 C29.328,20.373 25.046,20.219 23.773,20.285 C22.309,18.643 20.193,17.611 17.840,17.611 C13.635,17.611 10.190,20.906 9.868,25.091 L4.909,39.521 C3.746,42.453 5.138,45.789 8.018,46.972 C10.898,48.155 14.176,46.736 15.339,43.804 L18.312,38.551 C19.286,39.881 22.611,40.402 26.349,40.795 C38.211,20.016 38.218,20.282 38.218,20.282 ZM23.960,31.160 L21.876,31.160 L21.876,33.542 C21.876,34.200 21.343,34.733 20.685,34.733 L19.494,34.733 C18.836,34.733 18.303,34.200 18.303,33.542 L18.303,31.160 L15.920,31.160 C15.263,31.160 14.729,30.627 14.729,29.969 L14.729,28.778 C14.729,28.120 15.263,27.587 15.920,27.587 L18.303,27.587 L18.303,25.205 C18.303,24.547 18.836,24.014 19.494,24.014 L20.685,24.014 C21.343,24.014 21.876,24.547 21.876,25.205 L21.876,27.587 L23.960,27.587 C24.618,27.587 25.151,28.120 25.151,28.778 L25.151,29.969 C25.151,30.627 24.618,31.160 23.960,31.160 Z"/>
  </g>
</svg>
