<svg xmlns="http://www.w3.org/2000/svg" xmlns:xlink="http://www.w3.org/1999/xlink" preserveAspectRatio="xMidYMid" width="64" height="64" viewBox="0 0 64 64">
  <g>
    <path d="M31.815,26.869 C31.689,25.685 31.443,24.652 31.078,23.770 C30.549,22.484 29.783,21.338 28.782,20.330 C27.780,19.322 26.520,18.522 25.001,17.929 C23.483,17.337 21.798,17.041 19.945,17.041 C17.866,17.041 15.945,17.444 14.181,18.251 C12.794,18.868 11.610,19.715 10.627,20.793 C9.644,21.870 8.863,23.178 8.284,24.715 C7.452,26.895 7.036,29.283 7.036,31.878 C7.036,33.945 7.341,35.917 7.953,37.794 C8.564,39.672 9.446,41.247 10.599,42.519 C11.752,43.792 13.151,44.728 14.795,45.326 C16.439,45.925 18.213,46.224 20.116,46.224 C21.728,46.224 23.272,45.934 24.746,45.355 C26.221,44.775 27.465,43.959 28.479,42.907 C29.493,41.855 30.265,40.730 30.795,39.533 C31.160,38.701 31.500,37.523 31.815,35.999 L26.050,35.999 C25.685,37.272 25.241,38.264 24.718,38.976 C24.195,39.688 23.505,40.239 22.648,40.629 C21.791,41.020 20.840,41.215 19.794,41.215 C18.471,41.215 17.283,40.878 16.231,40.204 C15.179,39.530 14.351,38.453 13.746,36.972 C13.141,35.492 12.839,33.737 12.839,31.708 C12.839,29.679 13.138,27.909 13.736,26.397 C14.335,24.885 15.176,23.782 16.260,23.089 C17.343,22.396 18.597,22.050 20.021,22.050 C21.709,22.050 23.089,22.529 24.160,23.486 C24.954,24.204 25.571,25.332 26.013,26.869 L31.815,26.869 Z"/>
    <path d="M57.059,26.869 C56.933,25.685 56.687,24.652 56.322,23.770 C55.793,22.484 55.027,21.338 54.026,20.330 C53.024,19.322 51.764,18.522 50.245,17.929 C48.727,17.337 47.042,17.041 45.189,17.041 C43.110,17.041 41.189,17.444 39.425,18.251 C38.038,18.868 36.854,19.715 35.871,20.793 C34.888,21.870 34.107,23.178 33.527,24.715 C32.696,26.895 32.280,29.283 32.280,31.878 C32.280,33.945 32.585,35.917 33.197,37.794 C33.808,39.672 34.690,41.247 35.843,42.519 C36.996,43.792 38.394,44.728 40.039,45.326 C41.683,45.925 43.457,46.224 45.359,46.224 C46.972,46.224 48.516,45.934 49.990,45.355 C51.464,44.775 52.709,43.959 53.723,42.907 C54.737,41.855 55.509,40.730 56.039,39.533 C56.404,38.701 56.744,37.523 57.059,35.999 L51.294,35.999 C50.929,37.272 50.485,38.264 49.962,38.976 C49.439,39.688 48.749,40.239 47.892,40.629 C47.035,41.020 46.084,41.215 45.038,41.215 C43.715,41.215 42.527,40.878 41.475,40.204 C40.423,39.530 39.595,38.453 38.990,36.972 C38.385,35.492 38.083,33.737 38.083,31.708 C38.083,29.679 38.382,27.909 38.980,26.397 C39.579,24.885 40.420,23.782 41.504,23.089 C42.587,22.396 43.841,22.050 45.265,22.050 C46.953,22.050 48.333,22.529 49.404,23.486 C50.198,24.204 50.815,25.332 51.257,26.869 L57.059,26.869 Z"/>
  </g>
</svg>
