<svg xmlns="http://www.w3.org/2000/svg" xmlns:xlink="http://www.w3.org/1999/xlink" preserveAspectRatio="xMidYMid" width="54" height="30.313" viewBox="0 0 54 30.313">
  <path d="M46.663,30.302 C46.662,30.302 46.660,30.302 46.659,30.302 L46.659,30.302 L8.857,30.302 L8.857,30.262 C3.894,29.826 0.000,25.656 0.000,20.574 C0.000,16.332 2.712,12.727 6.494,11.395 C6.370,10.786 6.305,10.156 6.305,9.511 C6.305,4.264 10.600,0.010 15.899,0.010 C19.495,0.010 22.627,1.971 24.270,4.871 C25.442,3.849 26.977,3.229 28.658,3.229 C32.087,3.229 34.910,5.806 35.283,9.121 C36.404,8.270 37.803,7.764 39.322,7.764 C43.005,7.764 45.991,10.736 45.991,14.403 C45.991,14.861 45.944,15.308 45.856,15.739 C46.121,15.710 46.390,15.690 46.663,15.690 C50.715,15.690 54.000,18.961 54.000,22.996 C54.000,27.031 50.715,30.302 46.663,30.302 Z"/>
</svg>
