<svg xmlns="http://www.w3.org/2000/svg" xmlns:xlink="http://www.w3.org/1999/xlink" preserveAspectRatio="xMidYMid" width="50" height="45.25" viewBox="0 0 50 45.25">
  <path d="M45.291,27.982 L44.759,27.982 L42.390,27.982 L15.274,27.982 L16.171,32.683 L43.720,32.683 L43.720,35.825 L13.870,35.825 L13.870,35.824 L7.635,3.149 L-0.004,3.149 L-0.004,0.015 L9.422,0.015 L9.422,2.886 L10.486,2.886 L47.103,2.886 L48.433,2.886 L50.004,2.886 L45.291,27.982 ZM35.864,25.349 L42.884,25.349 L44.746,15.435 L35.864,15.435 L35.864,25.349 ZM20.154,5.757 L11.034,5.757 L12.581,13.864 L20.154,13.864 L20.154,5.757 ZM20.154,15.435 L12.881,15.435 L14.772,25.349 L20.154,25.349 L20.154,15.435 ZM34.293,5.757 L21.725,5.757 L21.725,13.864 L34.293,13.864 L34.293,5.757 ZM34.293,15.435 L21.725,15.435 L21.725,25.349 L34.293,25.349 L34.293,15.435 ZM35.864,5.757 L35.864,13.864 L45.041,13.864 L46.564,5.757 L35.864,5.757 ZM16.226,37.393 C18.395,37.393 20.154,39.148 20.154,41.314 C20.154,43.479 18.395,45.235 16.226,45.235 C14.057,45.235 12.298,43.479 12.298,41.314 C12.298,39.148 14.057,37.393 16.226,37.393 ZM16.226,43.667 C17.528,43.667 18.583,42.613 18.583,41.314 C18.583,40.014 17.528,38.961 16.226,38.961 C14.925,38.961 13.870,40.014 13.870,41.314 C13.870,42.613 14.925,43.667 16.226,43.667 ZM39.792,37.393 C41.961,37.393 43.720,39.148 43.720,41.314 C43.720,43.479 41.961,45.235 39.792,45.235 C37.623,45.235 35.864,43.479 35.864,41.314 C35.864,39.148 37.623,37.393 39.792,37.393 ZM39.792,43.667 C41.094,43.667 42.149,42.613 42.149,41.314 C42.149,40.014 41.094,38.961 39.792,38.961 C38.491,38.961 37.436,40.014 37.436,41.314 C37.436,42.613 38.491,43.667 39.792,43.667 Z"/>
</svg>
