<svg xmlns="http://www.w3.org/2000/svg" xmlns:xlink="http://www.w3.org/1999/xlink" preserveAspectRatio="xMidYMid" width="49" height="48" viewBox="0 0 49 48">
  <path d="M27.602,32.198 L20.840,25.319 L42.251,3.536 L49.013,10.415 L27.602,32.198 ZM24.131,33.588 L17.479,35.563 L19.343,28.823 L24.131,33.588 ZM33.187,8.820 C33.129,5.681 30.607,3.615 27.504,3.615 L13.414,3.615 L13.414,15.310 L3.348,15.310 L3.348,38.590 C3.348,41.790 5.893,44.385 9.032,44.385 L27.504,44.385 C30.643,44.385 33.188,41.790 33.188,38.590 L33.188,28.639 L36.745,25.229 L36.745,40.889 C36.745,44.816 33.610,48.000 29.743,48.000 L6.990,48.000 C3.123,48.000 -0.011,44.816 -0.011,40.889 L-0.011,12.253 L12.358,0.000 L29.743,0.000 C33.610,0.000 36.745,3.184 36.745,7.111 L33.188,10.850 C33.188,10.850 33.187,8.857 33.187,8.820 Z"/>
</svg>
