<svg xmlns="http://www.w3.org/2000/svg" xmlns:xlink="http://www.w3.org/1999/xlink" preserveAspectRatio="xMidYMid" width="64" height="64" viewBox="0 0 64 64">
  <path d="M34.695,40.698 L27.934,33.819 L49.345,12.036 L56.107,18.915 L34.695,40.698 ZM31.225,42.088 L24.573,44.063 L26.437,37.323 L31.225,42.088 ZM40.280,17.320 C40.223,14.181 37.700,12.115 34.598,12.115 L20.508,12.115 L20.508,23.810 L10.442,23.810 L10.442,47.090 C10.442,50.290 12.987,52.885 16.126,52.885 L34.598,52.885 C37.737,52.885 40.281,50.290 40.281,47.090 L40.281,37.139 L43.838,33.729 L43.838,49.389 C43.838,53.316 40.704,56.500 36.837,56.500 L14.084,56.500 C10.217,56.500 7.083,53.316 7.083,49.389 L7.083,20.753 L19.451,8.500 L36.837,8.500 C40.704,8.500 43.838,11.684 43.838,15.611 L40.281,19.350 C40.281,19.350 40.281,17.357 40.280,17.320 Z"/>
</svg>
