<svg xmlns="http://www.w3.org/2000/svg" xmlns:xlink="http://www.w3.org/1999/xlink" preserveAspectRatio="xMidYMid" width="64" height="64" viewBox="0 0 64 64">
  <path d="M52.291,37.357 L51.759,37.357 L49.390,37.357 L22.274,37.357 L23.171,42.058 L50.720,42.058 L50.720,45.200 L20.870,45.200 L20.870,45.199 L14.635,12.524 L6.996,12.524 L6.996,9.390 L16.422,9.390 L16.422,12.261 L17.486,12.261 L54.103,12.261 L55.433,12.261 L57.004,12.261 L52.291,37.357 ZM42.864,34.724 L49.884,34.724 L51.746,24.810 L42.864,24.810 L42.864,34.724 ZM27.154,15.132 L18.034,15.132 L19.581,23.239 L27.154,23.239 L27.154,15.132 ZM27.154,24.810 L19.881,24.810 L21.772,34.724 L27.154,34.724 L27.154,24.810 ZM41.293,15.132 L28.725,15.132 L28.725,23.239 L41.293,23.239 L41.293,15.132 ZM41.293,24.810 L28.725,24.810 L28.725,34.724 L41.293,34.724 L41.293,24.810 ZM42.864,15.132 L42.864,23.239 L52.041,23.239 L53.564,15.132 L42.864,15.132 ZM23.226,46.768 C25.395,46.768 27.154,48.523 27.154,50.689 C27.154,52.854 25.395,54.610 23.226,54.610 C21.057,54.610 19.298,52.854 19.298,50.689 C19.298,48.523 21.057,46.768 23.226,46.768 ZM23.226,53.042 C24.528,53.042 25.583,51.988 25.583,50.689 C25.583,49.389 24.528,48.336 23.226,48.336 C21.925,48.336 20.870,49.389 20.870,50.689 C20.870,51.988 21.925,53.042 23.226,53.042 ZM46.792,46.768 C48.961,46.768 50.720,48.523 50.720,50.689 C50.720,52.854 48.961,54.610 46.792,54.610 C44.623,54.610 42.864,52.854 42.864,50.689 C42.864,48.523 44.623,46.768 46.792,46.768 ZM46.792,53.042 C48.094,53.042 49.149,51.988 49.149,50.689 C49.149,49.389 48.094,48.336 46.792,48.336 C45.491,48.336 44.436,49.389 44.436,50.689 C44.436,51.988 45.491,53.042 46.792,53.042 Z"/>
</svg>
