<svg xmlns="http://www.w3.org/2000/svg" xmlns:xlink="http://www.w3.org/1999/xlink" preserveAspectRatio="xMidYMid" width="64" height="64" viewBox="0 0 64 64">
  <path d="M54.081,54.086 C52.847,55.321 51.207,56.000 49.463,56.000 C47.719,56.000 46.079,55.321 44.846,54.086 L29.235,38.469 L38.387,29.149 L54.082,44.847 C56.627,47.395 56.627,51.540 54.081,54.086 ZM49.781,46.688 C48.073,46.688 46.688,48.073 46.688,49.781 C46.688,51.490 48.073,52.875 49.781,52.875 C51.490,52.875 52.875,51.490 52.875,49.781 C52.875,48.073 51.490,46.688 49.781,46.688 ZM27.196,36.430 C25.705,36.925 24.150,37.175 22.573,37.175 C18.681,37.175 15.024,35.661 12.275,32.912 C8.609,29.245 7.181,24.052 8.452,19.020 C8.543,18.660 8.821,18.376 9.179,18.278 C9.535,18.179 9.921,18.280 10.182,18.543 L17.290,25.548 L25.548,17.290 L18.550,10.174 C18.287,9.912 18.186,9.528 18.285,9.170 C18.383,8.811 18.668,8.534 19.027,8.443 C20.196,8.149 21.401,8.000 22.609,8.000 C26.503,8.000 30.162,9.516 32.912,12.266 C36.773,16.128 38.153,21.986 36.429,27.192 L27.196,36.430 Z" class="cls-1"/>
</svg>
