<svg xmlns="http://www.w3.org/2000/svg" xmlns:xlink="http://www.w3.org/1999/xlink" preserveAspectRatio="xMidYMid" width="64" height="64" viewBox="0 0 64 64">
  <path d="M59.868,44.503 C59.868,44.503 58.366,45.135 57.004,45.135 C55.546,45.135 54.016,44.503 54.016,44.503 C54.033,44.483 53.738,41.799 53.102,39.812 C52.630,38.337 51.927,36.913 51.927,36.913 C51.927,36.913 52.479,40.087 52.505,41.129 C52.565,43.548 52.505,45.557 52.505,45.557 C52.505,45.557 51.818,45.763 50.615,45.995 C49.860,44.082 48.854,42.300 47.599,40.692 C45.495,37.995 42.847,35.963 39.799,34.682 C42.401,32.386 44.010,28.985 44.010,25.330 C44.010,19.256 39.702,14.199 34.059,13.199 C35.466,9.671 38.830,7.187 42.759,7.187 C47.955,7.187 52.167,11.529 52.167,16.885 C52.167,21.286 49.322,25.000 45.424,26.185 C54.113,27.577 59.868,35.147 59.868,44.503 ZM41.917,25.395 C41.917,30.134 38.834,34.127 34.625,35.370 C43.852,36.917 49.937,44.987 49.937,54.946 C49.937,54.946 48.331,55.623 46.874,55.623 C45.313,55.623 43.676,54.946 43.676,54.946 C43.695,54.926 43.379,52.054 42.698,49.928 C42.193,48.349 41.441,46.825 41.441,46.825 C41.441,46.825 42.031,50.222 42.059,51.337 C42.124,53.925 42.059,56.074 42.059,56.074 C42.059,56.074 37.794,57.363 31.741,57.205 C25.687,57.363 21.422,56.074 21.422,56.074 C21.422,56.074 21.358,53.925 21.422,51.337 C21.450,50.222 22.040,46.825 22.040,46.825 C22.040,46.825 21.288,48.349 20.783,49.928 C20.103,52.054 19.787,54.926 19.805,54.946 C19.805,54.946 18.168,55.623 16.608,55.623 C15.150,55.623 13.544,54.946 13.544,54.946 C13.544,44.936 19.702,36.836 28.998,35.347 C24.828,34.079 21.784,30.105 21.784,25.395 C21.784,19.664 26.290,15.019 31.850,15.019 C37.410,15.019 41.917,19.664 41.917,25.395 ZM19.739,25.330 C19.739,28.985 21.349,32.386 23.951,34.682 C20.903,35.963 18.255,37.995 16.151,40.692 C14.896,42.300 13.890,44.082 13.135,45.995 C11.932,45.763 11.245,45.557 11.245,45.557 C11.245,45.557 11.185,43.548 11.245,41.129 C11.271,40.087 11.823,36.913 11.823,36.913 C11.823,36.913 11.120,38.337 10.648,39.812 C10.012,41.799 9.717,44.483 9.734,44.503 C9.734,44.503 8.204,45.135 6.746,45.135 C5.384,45.135 3.882,44.503 3.882,44.503 C3.882,35.147 9.637,27.577 18.326,26.185 C14.428,25.000 11.583,21.286 11.583,16.885 C11.583,11.529 15.795,7.187 20.991,7.187 C24.920,7.187 28.284,9.671 29.691,13.199 C24.048,14.199 19.739,19.256 19.739,25.330 Z"/>
</svg>
