<svg xmlns="http://www.w3.org/2000/svg" xmlns:xlink="http://www.w3.org/1999/xlink" preserveAspectRatio="xMidYMid" width="50.031" height="29.188" viewBox="0 0 50.031 29.188">
  <g>
    <path d="M24.784,9.838 C24.658,8.654 24.412,7.621 24.047,6.738 C23.518,5.453 22.752,4.307 21.750,3.298 C20.749,2.290 19.488,1.490 17.970,0.898 C16.452,0.306 14.766,0.010 12.914,0.010 C10.835,0.010 8.913,0.413 7.149,1.219 C5.763,1.837 4.579,2.684 3.596,3.761 C2.613,4.839 1.832,6.146 1.252,7.683 C0.421,9.864 0.005,12.251 0.005,14.847 C0.005,16.914 0.310,18.886 0.921,20.763 C1.533,22.641 2.415,24.216 3.568,25.488 C4.721,26.761 6.119,27.697 7.764,28.295 C9.408,28.893 11.181,29.193 13.084,29.193 C14.697,29.193 16.241,28.903 17.715,28.323 C19.189,27.744 20.434,26.928 21.448,25.876 C22.462,24.824 23.234,23.699 23.763,22.502 C24.129,21.670 24.469,20.492 24.784,18.967 L19.019,18.967 C18.654,20.240 18.209,21.233 17.687,21.944 C17.164,22.656 16.474,23.208 15.617,23.598 C14.760,23.989 13.809,24.184 12.763,24.184 C11.440,24.184 10.252,23.847 9.200,23.173 C8.148,22.499 7.319,21.422 6.715,19.941 C6.110,18.460 5.807,16.706 5.807,14.677 C5.807,12.648 6.107,10.878 6.705,9.366 C7.304,7.854 8.145,6.751 9.228,6.058 C10.312,5.365 11.566,5.018 12.990,5.018 C14.678,5.018 16.058,5.497 17.129,6.455 C17.923,7.173 18.540,8.301 18.981,9.838 L24.784,9.838 Z"/>
    <path d="M50.028,9.838 C49.902,8.654 49.656,7.621 49.291,6.738 C48.762,5.453 47.996,4.307 46.994,3.298 C45.993,2.290 44.732,1.490 43.214,0.898 C41.696,0.306 40.010,0.010 38.158,0.010 C36.079,0.010 34.157,0.413 32.393,1.219 C31.007,1.837 29.823,2.684 28.840,3.761 C27.857,4.839 27.076,6.146 26.496,7.683 C25.665,9.864 25.249,12.251 25.249,14.847 C25.249,16.914 25.554,18.886 26.165,20.763 C26.776,22.641 27.659,24.216 28.812,25.488 C29.965,26.761 31.363,27.697 33.008,28.295 C34.652,28.893 36.425,29.193 38.328,29.193 C39.941,29.193 41.485,28.903 42.959,28.323 C44.433,27.744 45.677,26.928 46.692,25.876 C47.706,24.824 48.478,23.699 49.007,22.502 C49.373,21.670 49.713,20.492 50.028,18.967 L44.263,18.967 C43.898,20.240 43.453,21.233 42.931,21.944 C42.408,22.656 41.718,23.208 40.861,23.598 C40.004,23.989 39.053,24.184 38.007,24.184 C36.684,24.184 35.496,23.847 34.444,23.173 C33.392,22.499 32.563,21.422 31.959,19.941 C31.354,18.460 31.051,16.706 31.051,14.677 C31.051,12.648 31.350,10.878 31.949,9.366 C32.547,7.854 33.389,6.751 34.472,6.058 C35.556,5.365 36.810,5.018 38.234,5.018 C39.922,5.018 41.302,5.497 42.373,6.455 C43.167,7.173 43.784,8.301 44.225,9.838 L50.028,9.838 Z"/>
  </g>
</svg>
