<svg xmlns="http://www.w3.org/2000/svg" xmlns:xlink="http://www.w3.org/1999/xlink" preserveAspectRatio="xMidYMid" width="64" height="64" viewBox="0 0 64 64">
  <path fill-rule="evenodd" d="M57.067,47.373 L43.309,47.373 L43.309,52.963 C43.309,53.477 42.892,53.894 42.377,53.894 L6.933,53.894 C6.418,53.894 6.000,53.477 6.000,52.963 L6.000,11.037 C6.000,10.523 6.418,10.106 6.933,10.106 L42.377,10.106 C42.892,10.106 43.309,10.523 43.309,11.037 L43.309,16.627 L57.067,16.627 C57.582,16.627 58.000,17.044 58.000,17.559 L58.000,46.441 C58.000,46.956 57.582,47.373 57.067,47.373 ZM43.309,39.453 L43.309,19.655 L54.735,19.655 L54.735,39.453 L43.309,39.453 ZM10.897,14.997 L38.646,14.997 L38.646,42.714 L10.897,42.714 L10.897,14.997 Z" class="cls-1"/>
</svg>
