<svg xmlns="http://www.w3.org/2000/svg" xmlns:xlink="http://www.w3.org/1999/xlink" preserveAspectRatio="xMidYMid" width="64" height="64" viewBox="0 0 64 64">
  <path d="M53.590,54.290 C53.590,54.290 51.692,55.092 49.971,55.092 C48.127,55.092 46.193,54.290 46.193,54.290 C46.215,54.266 45.842,50.863 45.039,48.344 C44.442,46.473 43.553,44.668 43.553,44.668 C43.553,44.668 44.251,48.692 44.284,50.014 C44.360,53.080 44.284,55.626 44.284,55.626 C44.284,55.626 39.245,57.153 32.095,56.966 C24.944,57.153 19.906,55.626 19.906,55.626 C19.906,55.626 19.830,53.080 19.906,50.014 C19.939,48.692 20.637,44.668 20.637,44.668 C20.637,44.668 19.748,46.473 19.151,48.344 C18.348,50.863 17.974,54.266 17.996,54.290 C17.996,54.290 16.062,55.092 14.219,55.092 C12.498,55.092 10.600,54.290 10.600,54.290 C10.600,42.430 17.874,32.832 28.855,31.068 C23.929,29.566 20.333,24.857 20.333,19.278 C20.333,12.488 25.657,6.983 32.224,6.983 C38.791,6.983 44.115,12.488 44.115,19.278 C44.115,24.892 40.474,29.623 35.502,31.095 C46.401,32.929 53.590,42.490 53.590,54.290 Z"/>
</svg>
