<svg xmlns="http://www.w3.org/2000/svg" xmlns:xlink="http://www.w3.org/1999/xlink" preserveAspectRatio="xMidYMid" width="64" height="64" viewBox="0 0 64 64">
  <g>
    <path d="M34.688,47.333 C34.688,47.333 33.382,47.885 32.197,47.885 C30.929,47.885 29.597,47.333 29.597,47.333 C29.613,47.316 29.356,44.974 28.803,43.240 C28.392,41.952 27.780,40.710 27.780,40.710 C27.780,40.710 28.260,43.480 28.283,44.389 C28.335,46.500 28.283,48.253 28.283,48.253 C28.283,48.253 24.815,49.304 19.893,49.174 C14.971,49.304 11.503,48.253 11.503,48.253 C11.503,48.253 11.451,46.500 11.503,44.389 C11.526,43.480 12.006,40.710 12.006,40.710 C12.006,40.710 11.395,41.952 10.984,43.240 C10.431,44.974 10.174,47.316 10.189,47.333 C10.189,47.333 8.858,47.885 7.589,47.885 C6.404,47.885 5.098,47.333 5.098,47.333 C5.098,39.169 10.105,32.563 17.663,31.349 C14.273,30.315 11.797,27.074 11.797,23.233 C11.797,18.560 15.462,14.771 19.982,14.771 C24.502,14.771 28.167,18.560 28.167,23.233 C28.167,27.098 25.661,30.354 22.238,31.368 C29.740,32.630 34.688,39.211 34.688,47.333 Z"/>
    <path d="M58.091,47.333 C58.091,47.333 56.785,47.885 55.600,47.885 C54.331,47.885 53.000,47.333 53.000,47.333 C53.015,47.316 52.758,44.974 52.205,43.240 C51.794,41.952 51.183,40.710 51.183,40.710 C51.183,40.710 51.663,43.480 51.686,44.389 C51.738,46.500 51.686,48.253 51.686,48.253 C51.686,48.253 48.218,49.304 43.296,49.174 C38.374,49.304 34.906,48.253 34.906,48.253 C34.906,48.253 34.854,46.500 34.906,44.389 C34.929,43.480 35.409,40.710 35.409,40.710 C35.409,40.710 34.797,41.952 34.386,43.240 C33.833,44.974 33.576,47.316 33.592,47.333 C33.592,47.333 32.260,47.885 30.992,47.885 C29.807,47.885 28.501,47.333 28.501,47.333 C28.501,39.169 33.507,32.563 41.066,31.349 C37.675,30.315 35.200,27.074 35.200,23.233 C35.200,18.560 38.864,14.771 43.385,14.771 C47.905,14.771 51.569,18.560 51.569,23.233 C51.569,27.098 49.063,30.354 45.641,31.368 C53.143,32.630 58.091,39.211 58.091,47.333 Z"/>
  </g>
</svg>
