<svg xmlns="http://www.w3.org/2000/svg" xmlns:xlink="http://www.w3.org/1999/xlink" preserveAspectRatio="xMidYMid" width="64" height="64" viewBox="0 0 64 64">
  <path d="M52.163,47.646 C52.162,47.646 52.160,47.646 52.159,47.646 L52.159,47.646 L14.357,47.646 L14.357,47.606 C9.394,47.170 5.500,43.000 5.500,37.917 C5.500,33.676 8.212,30.071 11.994,28.739 C11.870,28.130 11.805,27.500 11.805,26.855 C11.805,21.607 16.100,17.354 21.399,17.354 C24.995,17.354 28.127,19.315 29.770,22.214 C30.942,21.193 32.477,20.572 34.158,20.572 C37.587,20.572 40.410,23.150 40.783,26.465 C41.904,25.614 43.303,25.108 44.822,25.108 C48.505,25.108 51.491,28.080 51.491,31.747 C51.491,32.205 51.444,32.651 51.356,33.083 C51.621,33.054 51.890,33.034 52.163,33.034 C56.215,33.034 59.500,36.305 59.500,40.340 C59.500,44.375 56.215,47.646 52.163,47.646 Z"/>
</svg>
