<svg xmlns="http://www.w3.org/2000/svg" xmlns:xlink="http://www.w3.org/1999/xlink" preserveAspectRatio="xMidYMid" width="64" height="64" viewBox="0 0 64 64">
  <path d="M34.136,31.432 L49.091,31.432 L49.091,34.636 L34.136,34.636 M34.136,26.091 L49.091,26.091 L49.091,29.295 L34.136,29.295 M34.136,36.773 L49.091,36.773 L49.091,39.977 L34.136,39.977 M51.228,14.341 L12.772,14.341 C10.413,14.341 8.500,16.254 8.500,18.613 L8.500,46.387 C8.500,48.746 10.413,50.659 12.772,50.659 L51.228,50.659 C53.587,50.659 55.500,48.746 55.500,46.387 L55.500,18.613 C55.500,16.254 53.587,14.341 51.228,14.341 M51.228,46.387 L32.000,46.387 L32.000,18.613 L51.228,18.613 "/>
</svg>
