<svg xmlns="http://www.w3.org/2000/svg" xmlns:xlink="http://www.w3.org/1999/xlink" preserveAspectRatio="xMidYMid" width="196" height="196" viewBox="0 0 196 196">
  <path d="M143.143,105.874 L57.077,110.895 L-0.000,1.000 L196.000,1.000 L143.143,105.874 ZM97.000,3.000 C71.043,3.000 50.000,24.043 50.000,50.000 C50.000,75.957 71.043,97.000 97.000,97.000 C122.957,97.000 144.000,75.957 144.000,50.000 C144.000,24.043 122.957,3.000 97.000,3.000 ZM122.304,70.307 L130.000,63.000 L108.000,38.000 L106.430,51.837 L122.304,70.307 ZM114.246,64.119 L104.692,72.006 L103.530,84.152 L119.219,71.203 L114.246,64.119 ZM16.994,133.000 L22.707,133.000 L69.000,134.000 L77.000,139.000 L77.000,144.000 C77.000,144.000 87.840,150.099 91.000,152.000 C91.532,152.320 91.000,155.000 91.000,155.000 L64.000,158.000 L50.897,163.000 L47.234,154.833 C46.943,154.157 46.140,153.837 45.440,154.118 L43.752,154.798 C43.052,155.079 42.721,155.855 43.012,156.531 L45.911,164.000 C45.448,164.120 44.111,164.473 44.111,164.473 L40.635,156.712 C40.385,156.109 39.697,155.823 39.098,156.074 L37.650,156.680 C37.050,156.932 36.767,157.624 37.016,158.228 L40.235,165.533 L38.000,167.000 L33.271,158.804 C32.980,158.123 32.177,157.800 31.478,158.084 L29.789,158.768 C29.089,159.052 28.758,159.834 29.049,160.515 L32.664,168.338 L27.000,171.000 L18.989,165.000 L15.000,135.000 C15.000,133.895 15.893,133.000 16.994,133.000 ZM63.000,194.000 L41.000,195.000 L41.000,190.000 L63.000,189.000 L63.000,194.000 ZM43.000,180.000 C43.000,180.000 44.623,176.189 47.000,175.000 C56.873,170.063 64.674,167.971 67.671,167.281 C68.911,166.996 69.460,167.015 71.000,168.000 C72.792,169.146 75.000,171.000 75.000,171.000 L75.000,177.000 L70.000,182.000 L43.000,186.000 L43.000,180.000 ZM74.000,167.000 L122.000,163.000 C122.000,163.000 117.900,166.901 117.000,169.000 C116.100,171.099 115.610,177.186 116.292,178.088 C117.056,179.097 121.031,186.009 121.000,186.000 L109.000,186.000 C109.000,186.000 107.541,181.824 97.000,182.000 C87.815,182.482 86.000,187.000 86.000,187.000 L74.000,188.000 L74.000,186.000 C74.000,186.000 78.000,179.128 78.000,174.000 C77.763,170.042 74.000,167.000 74.000,167.000 ZM119.000,174.000 L119.000,170.000 L126.000,162.000 C126.000,162.000 145.167,169.992 151.000,173.000 C153.257,174.254 153.000,183.000 153.000,183.000 C153.020,182.991 132.858,179.839 132.858,179.839 C132.858,179.839 126.959,179.519 125.000,179.000 C120.266,177.747 119.000,174.000 119.000,174.000 ZM156.000,193.000 L135.000,194.000 L134.000,192.000 L155.000,190.000 L156.000,193.000 ZM59.599,115.750 L141.223,109.684 L137.538,116.995 L63.335,122.943 L59.599,115.750 ZM65.513,127.138 L135.358,121.321 L133.000,126.000 L67.000,130.000 L65.513,127.138 ZM83.000,144.000 L111.000,143.000 L110.000,145.000 L101.000,150.000 L101.000,155.000 L109.000,156.000 L109.000,159.000 C109.000,159.000 103.240,159.538 97.000,160.000 C89.808,160.533 82.000,161.000 82.000,161.000 L83.000,158.000 L93.000,157.000 C93.000,157.000 93.789,155.899 94.000,154.000 C94.279,151.486 93.000,150.000 93.000,150.000 L83.000,144.000 ZM157.920,151.228 C158.171,150.624 157.886,149.932 157.285,149.680 L155.833,149.074 C155.232,148.823 154.541,149.109 154.291,149.712 L150.805,157.473 C150.805,157.473 149.464,157.120 149.000,157.000 L151.907,149.531 C152.199,148.855 151.867,148.079 151.166,147.798 L149.472,147.118 C148.770,146.837 147.965,147.157 147.673,147.833 L144.000,156.000 L128.000,152.000 L104.000,153.000 C104.000,153.000 103.466,151.320 104.000,151.000 C107.169,149.099 119.000,144.000 119.000,144.000 L119.000,138.000 L126.000,131.000 L172.271,126.000 L178.000,126.000 C179.105,126.000 180.000,126.895 180.000,128.000 L176.000,158.000 L171.000,163.000 C171.000,163.000 165.808,161.578 161.283,160.338 L164.907,152.515 C165.199,151.834 164.867,151.052 164.166,150.768 L162.472,150.084 C161.770,149.800 160.965,150.123 160.673,150.804 L156.827,159.197 L154.693,158.533 L157.920,151.228 Z"/>
</svg>
