<svg xmlns="http://www.w3.org/2000/svg" xmlns:xlink="http://www.w3.org/1999/xlink" preserveAspectRatio="xMidYMid" width="196" height="196" viewBox="0 0 196 196">
  <path d="M176.831,93.981 C171.960,93.981 167.527,92.106 164.214,89.039 C185.357,77.933 185.367,77.914 185.367,77.914 C185.367,77.914 185.388,77.880 166.287,60.843 C169.138,59.061 173.222,56.826 176.831,56.826 C187.092,56.826 195.409,65.143 195.409,75.403 C195.409,85.664 187.092,93.981 176.831,93.981 ZM175.325,76.910 L152.229,86.952 L150.220,108.040 L138.170,103.019 L136.161,104.023 L138.170,97.998 L145.199,100.006 L147.208,82.935 L162.271,73.897 L148.212,57.830 L152.229,42.767 L143.191,38.750 L143.191,21.679 L128.128,27.704 L126.119,27.704 L148.212,5.612 L150.220,33.729 L169.300,34.733 L155.241,56.826 L175.325,76.910 ZM146.203,63.855 C146.203,76.056 136.312,85.948 124.111,85.948 C111.910,85.948 102.019,76.056 102.019,63.855 C102.019,51.654 111.910,41.763 124.111,41.763 C136.312,41.763 146.203,51.654 146.203,63.855 ZM124.111,46.784 C114.683,46.784 107.040,54.427 107.040,63.855 C107.040,73.283 114.683,80.927 124.111,80.927 C133.539,80.927 141.182,73.283 141.182,63.855 C141.182,54.427 133.539,46.784 124.111,46.784 ZM124.111,71.889 C119.674,71.889 116.077,68.292 116.077,63.855 C116.077,59.418 119.674,55.822 124.111,55.822 C128.548,55.822 132.145,59.418 132.145,63.855 C132.145,68.292 128.548,71.889 124.111,71.889 ZM124.111,57.830 C120.783,57.830 118.086,60.527 118.086,63.855 C118.086,67.183 120.783,69.880 124.111,69.880 C127.439,69.880 130.136,67.183 130.136,63.855 C130.136,60.527 127.439,57.830 124.111,57.830 ZM102.521,44.775 L29.214,44.775 C28.382,44.775 27.708,44.101 27.708,43.269 C27.708,42.437 28.382,41.763 29.214,41.763 L102.521,41.763 C103.353,41.763 104.027,42.437 104.027,43.269 C104.027,44.101 103.353,44.775 102.521,44.775 ZM90.972,63.855 C90.972,64.964 90.073,65.864 88.964,65.864 L1.599,65.864 C0.489,65.864 -0.410,64.964 -0.410,63.855 C-0.410,62.746 0.489,61.847 1.599,61.847 L88.964,61.847 C90.073,61.847 90.972,62.746 90.972,63.855 ZM51.840,104.759 C53.079,103.123 54.940,102.264 56.843,102.204 L56.830,102.015 L91.977,102.015 L81.935,116.073 L59.650,116.073 L41.041,140.664 C38.866,143.538 34.772,144.105 31.897,141.930 C29.023,139.754 28.456,135.661 30.631,132.786 L51.840,104.759 ZM58.838,85.948 C57.729,85.948 56.830,85.048 56.830,83.939 C56.830,82.830 57.729,81.931 58.838,81.931 L99.006,81.931 C100.115,81.931 101.014,82.830 101.014,83.939 C101.014,85.048 100.115,85.948 99.006,85.948 L58.838,85.948 ZM114.069,91.973 C114.069,91.973 119.533,92.902 124.111,92.977 C130.556,93.082 135.157,90.969 135.157,90.969 L125.115,101.011 L125.115,115.069 L102.019,132.141 L86.956,149.212 L86.931,149.222 L86.956,184.861 C86.956,188.466 84.033,191.388 80.428,191.388 C76.823,191.388 73.901,188.466 73.901,184.861 L73.901,145.195 L98.002,107.036 L114.069,91.973 ZM193.592,125.455 C196.202,127.941 196.302,132.073 193.816,134.683 C191.329,137.293 187.197,137.394 184.587,134.907 L158.254,110.048 L160.262,93.981 L193.592,125.455 Z"/>
</svg>
