<svg xmlns="http://www.w3.org/2000/svg" xmlns:xlink="http://www.w3.org/1999/xlink" preserveAspectRatio="xMidYMid" width="196" height="196" viewBox="0 0 196 196">
  <path d="M191.142,139.825 L76.045,195.710 C75.801,195.710 75.380,195.710 75.380,195.710 C75.380,195.710 61.543,195.766 50.764,195.710 C24.676,195.710 3.527,183.796 3.527,169.098 C3.527,168.833 3.527,168.433 3.527,168.433 L3.527,65.977 L3.557,66.017 C3.702,64.871 4.670,63.981 5.856,63.981 L19.827,61.320 C21.113,61.320 22.156,62.362 22.156,63.648 C22.156,64.934 21.113,65.977 19.827,65.977 L9.358,67.971 C9.411,67.972 9.469,67.973 9.515,67.973 C9.515,67.973 18.012,77.376 31.470,81.279 C50.344,86.752 73.384,85.270 73.384,85.270 L171.692,41.143 L97.288,53.719 C99.918,54.215 103.264,55.172 106.361,56.472 C116.996,60.936 91.418,73.173 87.355,73.960 C86.505,74.125 85.372,73.604 86.025,72.630 C87.923,69.794 95.476,63.898 96.004,61.985 C96.808,58.568 91.347,54.667 91.347,54.667 C91.347,54.666 91.347,54.652 91.347,54.633 C90.220,54.470 89.351,53.510 89.351,52.338 C89.351,51.052 90.394,50.009 91.680,50.009 L186.152,34.042 C186.641,34.042 187.483,34.042 187.483,34.042 C188.769,34.042 189.811,35.085 189.811,36.371 C189.811,37.657 188.769,38.699 187.483,38.699 L75.047,89.262 C75.047,89.262 74.128,89.927 73.051,89.927 C73.051,89.927 46.717,91.322 28.143,85.936 C17.709,82.910 11.408,77.415 8.850,74.782 L8.881,169.042 C8.881,169.042 8.842,169.525 8.850,169.763 C9.206,180.497 24.831,190.814 52.760,191.053 C67.332,191.178 74.714,191.083 74.714,191.083 L74.714,170.429 C74.714,169.694 75.310,169.098 76.045,169.098 L191.142,113.213 C191.877,113.213 192.473,113.809 192.473,114.544 L192.473,138.494 C192.473,139.229 191.877,139.825 191.142,139.825 ZM191.142,105.229 L76.045,161.115 C75.310,161.115 74.714,160.519 74.714,159.784 L74.714,135.833 C74.714,135.098 75.310,134.503 76.045,134.503 L191.142,78.617 C191.877,78.617 192.473,79.213 192.473,79.948 L192.473,103.899 C192.473,104.634 191.877,105.229 191.142,105.229 ZM191.142,69.303 L76.045,125.188 C75.310,125.188 74.714,124.593 74.714,123.858 L74.714,99.907 C74.714,99.172 75.310,98.576 76.045,98.576 L191.142,42.691 C191.877,42.691 192.473,43.287 192.473,44.022 L192.473,67.973 C192.473,68.707 191.877,69.303 191.142,69.303 ZM70.958,33.555 C70.698,33.815 70.277,33.815 70.017,33.555 L69.547,33.085 C69.287,32.825 69.287,32.404 69.547,32.144 L77.554,24.137 L77.376,24.063 C77.376,24.063 81.647,19.842 82.698,18.740 C83.135,18.283 83.018,17.729 82.698,17.410 C81.188,15.899 72.120,5.643 72.120,5.643 C71.860,5.383 71.860,4.962 72.120,4.702 L76.240,-0.083 C76.500,-0.343 76.921,-0.343 77.181,-0.083 L88.276,18.331 C88.536,18.591 88.536,19.012 88.276,19.272 L70.958,33.555 ZM42.932,66.392 C44.819,68.701 48.652,75.348 54.090,76.621 C57.422,77.402 60.597,76.541 62.739,75.956 C65.413,75.227 66.721,75.144 68.061,74.626 C69.387,74.113 70.674,75.273 69.392,76.621 C66.735,79.418 58.052,85.001 53.425,83.940 C47.353,82.547 42.378,72.894 41.449,69.303 C40.472,65.523 42.289,65.605 42.932,66.392 ZM79.350,36.824 C83.077,40.204 85.359,45.215 85.359,52.005 C85.359,65.533 74.383,71.299 62.074,71.299 C61.676,71.299 61.281,71.289 60.890,71.270 C60.401,71.296 59.910,71.310 59.413,71.299 C46.868,71.022 38.468,62.726 38.788,51.340 C39.250,34.928 47.699,28.826 59.059,29.667 C60.636,29.783 65.966,31.070 66.066,32.712 C66.319,36.912 61.957,38.481 60.743,40.695 C59.422,43.104 59.437,45.551 60.078,46.018 C61.719,47.238 62.818,44.552 64.202,41.534 C65.354,39.023 66.704,36.283 68.727,35.373 C70.868,34.410 77.907,35.516 79.350,36.824 ZM30.805,53.336 C30.229,55.502 32.923,67.244 34.131,69.968 C34.540,70.891 36.117,75.193 31.689,71.534 C28.852,69.190 20.700,58.690 22.156,52.671 C23.265,48.084 32.466,42.488 36.127,41.361 C37.893,40.817 37.836,43.069 36.792,44.022 C34.998,45.661 31.712,49.922 30.805,53.336 Z"/>
</svg>
