<svg xmlns="http://www.w3.org/2000/svg" xmlns:xlink="http://www.w3.org/1999/xlink" preserveAspectRatio="xMidYMid" width="64" height="64" viewBox="0 0 64 64">
  <path d="M32.000,51.200 C42.604,51.200 51.200,42.604 51.200,32.000 C51.200,21.396 42.604,12.800 32.000,12.800 C21.396,12.800 12.800,21.396 12.800,32.000 C12.800,42.604 21.396,51.200 32.000,51.200 M32.000,8.000 C45.255,8.000 56.000,18.745 56.000,32.000 C56.000,45.255 45.255,56.000 32.000,56.000 C18.728,56.000 8.000,45.200 8.000,32.000 C8.000,18.745 18.745,8.000 32.000,8.000 M33.200,20.000 L33.200,32.600 L44.000,39.008 L42.200,41.960 L29.600,34.400 L29.600,20.000 L33.200,20.000 Z"/>
</svg>
