<svg xmlns="http://www.w3.org/2000/svg" xmlns:xlink="http://www.w3.org/1999/xlink" preserveAspectRatio="xMidYMid" width="64" height="64" viewBox="0 0 64 64">
  <path d="M50.705,59.500 L13.295,59.500 C12.004,59.500 10.957,58.457 10.957,57.167 L10.957,33.832 C10.957,32.545 12.004,31.499 13.295,31.499 L50.705,31.499 C51.996,31.499 53.043,32.545 53.043,33.832 L53.043,57.167 C53.043,58.457 51.996,59.500 50.705,59.500 ZM39.014,43.166 L34.338,43.166 L34.338,38.499 L29.662,38.499 L29.662,43.166 L24.986,43.166 L24.986,47.833 L29.662,47.833 L29.662,52.500 L34.338,52.500 L34.338,47.833 L39.014,47.833 L39.014,43.166 ZM36.676,20.998 C36.676,22.933 35.106,24.498 33.169,24.498 C31.232,24.498 29.662,22.933 29.662,20.998 C29.662,19.065 31.232,17.498 33.169,17.498 C35.106,17.498 36.676,19.065 36.676,20.998 ZM50.020,19.150 L39.983,29.165 L33.370,29.165 L45.061,17.498 L36.676,9.132 L21.277,24.498 L25.954,29.165 L19.341,29.165 L16.318,26.151 C15.404,25.237 15.404,23.760 16.318,22.851 L35.023,4.183 C35.937,3.269 37.416,3.269 38.329,4.183 L50.020,15.850 C50.934,16.760 50.934,18.236 50.020,19.150 Z"/>
</svg>
