<svg xmlns="http://www.w3.org/2000/svg" xmlns:xlink="http://www.w3.org/1999/xlink" preserveAspectRatio="xMidYMid" width="64" height="64" viewBox="0 0 64 64">
  <path d="M32.000,43.000 C35.038,43.000 37.500,45.462 37.500,48.500 C37.500,51.537 35.038,54.000 32.000,54.000 C28.962,54.000 26.500,51.537 26.500,48.500 C26.500,45.462 28.962,43.000 32.000,43.000 M32.000,26.500 C35.038,26.500 37.500,28.962 37.500,32.000 C37.500,35.038 35.038,37.500 32.000,37.500 C28.962,37.500 26.500,35.038 26.500,32.000 C26.500,28.962 28.962,26.500 32.000,26.500 M32.000,10.000 C35.038,10.000 37.500,12.463 37.500,15.500 C37.500,18.538 35.038,21.000 32.000,21.000 C28.962,21.000 26.500,18.538 26.500,15.500 C26.500,12.463 28.962,10.000 32.000,10.000 Z"/>
</svg>
