<svg xmlns="http://www.w3.org/2000/svg" xmlns:xlink="http://www.w3.org/1999/xlink" preserveAspectRatio="xMidYMid" width="64" height="64" viewBox="0 0 64 64">
  <path d="M59.405,35.736 C61.153,39.852 58.970,43.113 53.694,45.268 C47.895,47.637 35.536,46.542 26.546,45.971 C26.546,44.214 26.546,42.456 26.546,40.698 C32.421,42.057 50.834,46.299 49.765,36.831 C49.431,33.869 39.576,33.686 32.262,33.667 C32.262,32.261 32.262,30.854 32.262,29.448 C38.282,29.660 49.729,29.706 48.693,24.878 C47.831,20.856 34.154,21.241 27.261,23.823 C27.261,22.182 27.261,20.541 27.261,18.901 C49.532,16.021 58.591,18.744 59.068,24.067 C59.481,28.674 52.615,31.091 51.955,31.213 C56.829,31.719 58.550,33.820 59.405,35.736 ZM17.914,47.432 L8.984,47.432 C6.222,47.432 3.984,45.194 3.984,42.432 L3.984,37.377 C3.984,34.616 6.222,32.377 8.984,32.377 L17.914,32.377 C20.675,32.377 22.914,34.616 22.914,37.377 L22.914,42.432 C22.914,45.194 20.675,47.432 17.914,47.432 ZM20.033,39.538 C20.033,36.776 17.794,34.538 15.033,34.538 L11.898,34.538 C9.137,34.538 6.898,36.776 6.898,39.538 L6.898,40.683 C6.898,43.445 9.137,45.683 11.898,45.683 L15.033,45.683 C17.794,45.683 20.033,43.445 20.033,40.683 L20.033,39.538 ZM17.914,31.623 L8.984,31.623 C6.222,31.623 3.984,29.384 3.984,26.623 L3.984,21.568 C3.984,18.806 6.222,16.568 8.984,16.568 L17.914,16.568 C20.675,16.568 22.914,18.806 22.914,21.568 L22.914,26.623 C22.914,29.384 20.675,31.623 17.914,31.623 ZM20.033,23.728 C20.033,20.967 17.794,18.728 15.033,18.728 L11.898,18.728 C9.137,18.728 6.898,20.967 6.898,23.728 L6.898,24.839 C6.898,27.601 9.137,29.839 11.898,29.839 L15.033,29.839 C17.794,29.839 20.033,27.601 20.033,24.839 L20.033,23.728 Z"/>
</svg>
