<svg xmlns="http://www.w3.org/2000/svg" xmlns:xlink="http://www.w3.org/1999/xlink" preserveAspectRatio="xMidYMid" width="64" height="64" viewBox="0 0 64 64">
  <path d="M46.534,36.258 L41.779,32.117 L43.927,27.669 L48.528,31.810 C48.528,31.810 48.136,32.931 47.608,34.110 C47.144,35.146 46.534,36.258 46.534,36.258 ZM39.785,21.227 L41.166,18.006 L45.000,21.840 L43.467,25.828 L39.785,21.227 ZM36.718,17.699 C35.491,16.357 34.417,14.785 34.417,14.785 C34.423,14.792 32.598,19.398 30.695,22.754 C29.333,25.155 27.975,26.902 27.975,26.902 C27.976,26.900 30.714,31.690 34.571,35.644 C40.777,42.008 48.988,47.148 48.988,47.148 C48.988,47.148 45.306,51.615 41.319,54.970 C37.568,58.127 33.190,60.492 33.190,60.492 C33.190,60.492 26.630,57.211 21.031,52.331 C16.327,48.230 12.476,41.966 12.484,41.933 L17.852,37.945 C17.852,37.945 20.620,42.058 23.987,45.461 C27.869,49.383 32.423,52.669 32.423,52.669 L38.865,47.301 C38.865,47.301 32.604,43.271 28.129,37.638 C22.092,30.039 21.687,26.442 21.687,26.442 C21.687,26.442 25.037,22.523 29.202,15.705 C31.925,11.249 33.190,4.508 33.190,4.508 C33.190,4.508 34.389,8.348 35.951,10.950 C38.003,14.370 40.399,16.779 40.399,16.779 L39.172,20.306 C39.172,20.306 37.945,19.041 36.718,17.699 ZM23.834,16.012 C23.834,16.012 24.727,14.943 25.521,13.711 C26.258,12.569 26.902,11.410 26.902,11.410 L28.589,15.245 L25.521,19.846 L23.834,16.012 ZM24.754,20.920 C24.754,20.920 24.129,21.547 23.374,22.454 C22.277,23.770 20.920,25.368 20.920,25.368 L19.386,21.380 C19.386,21.380 20.150,20.617 20.920,19.693 C22.010,18.384 23.221,16.779 23.221,16.779 C23.221,16.779 23.587,18.160 24.049,19.253 C24.420,20.130 24.754,20.920 24.754,20.920 ZM18.773,37.331 L23.681,33.037 L26.595,37.331 L21.840,41.473 L18.773,37.331 ZM37.331,47.454 L32.270,51.442 L27.362,47.454 L32.270,43.313 L37.331,47.454 ZM22.607,42.546 L27.362,38.405 L31.503,42.546 L26.442,46.534 L22.607,42.546 ZM23.067,32.117 C23.067,32.117 22.137,32.854 21.227,33.650 C19.802,34.897 18.159,36.411 18.159,36.411 L16.165,31.810 C16.164,31.812 17.497,30.678 18.780,29.474 C19.766,28.548 20.767,27.515 20.767,27.515 L23.067,32.117 ZM42.853,41.626 L37.792,37.485 L41.166,33.037 L45.921,37.331 L42.853,41.626 ZM43.160,26.748 L40.859,31.350 L36.871,26.902 L39.325,22.300 L43.160,26.748 ZM36.411,19.079 C37.455,20.261 38.621,21.365 38.558,21.380 C38.438,21.409 36.104,25.981 36.104,25.981 L32.730,21.073 L34.571,16.779 C34.571,16.779 35.432,17.970 36.411,19.079 ZM36.258,27.822 C36.258,27.822 37.018,28.617 37.792,29.509 C38.937,30.831 40.246,32.270 40.246,32.270 L37.178,36.718 L33.037,32.423 C33.030,32.438 34.062,31.133 35.047,29.653 C35.569,28.870 36.258,27.822 36.258,27.822 ZM30.320,28.728 C29.728,27.900 29.054,26.911 29.049,26.902 C29.049,26.902 29.878,25.734 30.736,24.448 C31.381,23.480 32.117,22.300 32.117,22.300 L35.644,27.055 L32.423,31.656 C32.423,31.656 31.307,30.106 30.320,28.728 ZM46.994,37.945 L52.516,42.086 L49.448,46.381 L43.773,42.240 L46.994,37.945 Z"/>
</svg>
