<svg xmlns="http://www.w3.org/2000/svg" xmlns:xlink="http://www.w3.org/1999/xlink" preserveAspectRatio="xMidYMid" width="64" height="64" viewBox="0 0 64 64">
  <path d="M45.312,18.603 C47.016,18.580 48.033,19.099 48.667,20.122 C48.807,20.347 48.910,20.678 48.984,20.945 C49.081,21.302 49.070,21.840 48.984,22.180 C48.625,23.599 47.913,24.315 46.515,24.681 C44.634,25.172 43.299,23.911 42.812,22.750 C42.583,22.202 42.498,21.253 42.749,20.629 C43.066,19.840 43.681,19.150 44.458,18.824 C44.686,18.728 45.116,18.728 45.312,18.603 ZM56.263,18.603 C58.115,18.578 59.067,19.180 59.681,20.375 C59.913,20.828 60.105,21.719 59.902,22.401 C59.818,22.685 59.703,23.015 59.554,23.256 C59.065,24.047 58.313,24.461 57.275,24.712 C56.835,24.819 56.123,24.769 55.756,24.649 C54.341,24.188 52.911,22.447 53.731,20.502 C54.042,19.765 54.676,19.140 55.408,18.824 C55.628,18.730 56.071,18.723 56.263,18.603 ZM34.520,20.059 C36.460,20.056 38.463,20.042 40.312,20.122 C40.290,20.626 40.044,21.169 39.901,21.610 C39.543,22.707 39.330,23.834 38.983,24.902 C38.743,25.639 38.654,26.350 38.413,27.086 C37.558,29.704 36.982,32.483 36.135,35.095 C36.006,35.491 35.979,35.843 35.850,36.235 C35.380,37.661 35.020,39.189 34.552,40.603 C34.251,41.514 34.100,42.509 33.634,43.262 C32.880,44.483 31.894,45.353 29.900,45.352 C29.558,45.351 29.230,45.347 28.950,45.257 C28.315,45.052 27.879,44.724 27.463,44.307 C27.278,44.122 27.047,43.951 26.893,43.737 C26.242,42.829 26.046,41.559 25.659,40.382 C24.693,37.442 24.085,34.289 23.127,31.328 C22.876,30.553 22.735,29.763 22.494,29.017 C22.391,28.697 22.360,28.109 22.178,27.878 C22.148,28.163 22.006,28.455 21.925,28.701 C21.799,29.079 21.723,29.459 21.608,29.809 C21.236,30.940 21.018,32.119 20.659,33.228 C20.490,33.746 20.448,34.229 20.279,34.747 C19.748,36.375 19.381,38.126 18.855,39.749 C18.543,40.711 18.411,41.701 18.032,42.598 C17.770,43.218 17.399,43.742 17.019,44.244 C16.382,45.086 14.311,45.776 12.842,45.162 C10.160,44.040 10.010,40.974 9.075,38.134 C8.765,37.192 8.570,36.197 8.253,35.222 C7.180,31.934 6.472,28.449 5.404,25.155 C5.011,23.942 4.774,22.697 4.392,21.515 C4.235,21.030 4.187,20.549 4.012,20.091 C5.910,20.091 7.810,20.091 9.708,20.091 C9.742,20.114 9.738,20.110 9.803,20.122 C11.364,26.200 12.926,32.279 14.487,38.356 C14.507,37.905 14.708,37.418 14.835,37.026 C15.137,36.100 15.273,35.135 15.563,34.241 C15.778,33.579 15.823,32.939 16.038,32.278 C16.619,30.494 16.949,28.552 17.525,26.770 C18.165,24.792 18.368,22.467 19.488,20.977 C20.098,20.165 21.892,19.505 23.380,19.996 C25.622,20.735 25.664,22.960 26.387,25.187 C27.396,28.294 27.944,31.663 28.950,34.779 C29.308,35.887 29.408,37.119 29.837,38.166 C29.847,38.166 29.858,38.166 29.868,38.166 C29.904,37.791 30.075,37.392 30.185,37.058 C30.446,36.259 30.578,35.428 30.818,34.652 C30.961,34.186 30.983,33.754 31.134,33.291 C31.719,31.502 32.038,29.556 32.590,27.751 C32.820,26.997 32.883,26.256 33.128,25.504 C33.438,24.550 33.569,23.509 33.888,22.528 C34.039,22.063 34.106,21.538 34.267,21.040 C34.362,20.747 34.491,20.407 34.520,20.059 ZM43.129,27.688 C44.954,27.688 46.779,27.688 48.604,27.688 C48.604,33.512 48.604,39.338 48.604,45.162 C46.779,45.162 44.954,45.162 43.129,45.162 C43.129,39.338 43.129,33.512 43.129,27.688 ZM54.079,27.688 C55.893,27.688 57.708,27.688 59.522,27.688 C59.522,33.512 59.522,39.338 59.522,45.162 C57.708,45.162 55.893,45.162 54.079,45.162 C54.079,39.338 54.079,33.512 54.079,27.688 Z"/>
</svg>
