<svg xmlns="http://www.w3.org/2000/svg" xmlns:xlink="http://www.w3.org/1999/xlink" preserveAspectRatio="xMidYMid" width="64" height="64" viewBox="0 0 64 64">
  <path d="M18.286,10.552 C18.286,15.660 18.286,20.769 18.286,25.876 C18.285,29.312 18.123,32.903 18.982,35.551 C20.216,39.358 22.391,41.944 25.943,43.445 C26.248,43.574 31.645,45.999 37.622,44.064 C40.288,43.201 42.661,41.729 44.120,39.652 C46.823,35.802 46.749,31.394 46.749,24.870 C46.749,20.124 46.749,15.376 46.749,10.629 C47.252,10.463 48.126,10.552 48.761,10.552 C50.282,10.552 51.803,10.552 53.324,10.552 C53.750,10.811 55.035,10.690 55.567,10.862 C57.353,11.436 58.703,12.485 59.589,13.957 C60.841,16.037 60.440,20.137 60.440,23.400 C60.440,28.172 60.440,32.945 60.440,37.718 C60.440,42.818 60.512,46.341 58.352,49.249 C58.025,49.688 57.485,50.084 57.037,50.410 C53.913,52.684 50.843,52.500 45.512,52.500 C37.958,52.500 30.403,52.500 22.849,52.500 C20.709,52.500 18.569,52.500 16.429,52.500 C14.730,52.500 13.077,52.568 11.711,52.190 C8.447,51.287 6.321,49.510 5.214,46.463 C4.472,44.424 4.595,41.626 4.595,38.878 C4.595,34.777 4.595,30.674 4.595,26.573 C4.595,22.687 4.065,16.273 5.523,13.880 C7.846,10.067 12.264,10.532 18.286,10.552 ZM25.169,10.552 C30.068,10.552 34.967,10.552 39.866,10.552 C40.018,11.015 39.943,11.817 39.943,12.410 C39.943,13.854 39.943,15.299 39.943,16.744 C39.943,21.335 39.943,25.928 39.943,30.520 C39.693,30.938 39.791,32.164 39.633,32.687 C39.166,34.239 38.396,35.919 37.236,36.789 C36.409,37.408 35.486,37.929 34.374,38.259 C31.549,39.098 29.109,37.728 27.645,36.479 C25.058,34.274 25.169,30.880 25.169,26.108 C25.169,20.923 25.169,15.737 25.169,10.552 Z"/>
</svg>
