<svg xmlns="http://www.w3.org/2000/svg" xmlns:xlink="http://www.w3.org/1999/xlink" preserveAspectRatio="xMidYMid" width="64" height="64" viewBox="0 0 64 64">
  <path d="M44.076,32.831 L44.076,38.123 L43.415,38.123 L43.415,32.831 L43.415,32.169 L60.834,32.169 L60.834,27.539 L43.415,27.539 L43.415,26.877 L61.496,26.877 L61.496,27.539 L61.496,32.169 L61.496,32.831 L44.076,32.831 ZM31.508,37.461 L31.508,38.123 L21.585,38.123 L21.585,37.461 L30.846,37.461 L30.846,27.539 L30.846,26.877 L40.769,26.877 L40.769,27.539 L31.508,27.539 L31.508,37.461 ZM4.166,38.123 L3.504,38.123 L3.504,32.831 L3.504,32.169 L20.924,32.169 L20.924,27.539 L3.504,27.539 L3.504,26.877 L21.585,26.877 L21.585,27.539 L21.585,32.169 L21.585,32.831 L4.166,32.831 L4.166,38.123 Z"/>
</svg>
