<svg xmlns="http://www.w3.org/2000/svg" xmlns:xlink="http://www.w3.org/1999/xlink" preserveAspectRatio="xMidYMid" width="64" height="64" viewBox="0 0 64 64">
  <path d="M16.872,22.972 C14.797,22.951 12.039,22.868 9.715,23.092 C6.984,23.355 5.352,23.681 5.352,23.681 C5.352,23.681 6.014,21.718 16.755,21.562 C16.647,16.117 18.338,13.685 19.740,13.073 C22.017,12.131 23.868,15.784 23.868,15.784 C23.868,15.784 23.793,14.800 23.868,13.780 C23.948,12.690 24.182,11.543 24.279,10.987 C24.810,9.231 25.644,7.248 26.983,6.287 C28.905,4.906 30.937,5.509 32.241,6.708 C35.306,9.526 38.264,13.608 40.150,17.567 C44.335,17.544 49.908,19.799 49.908,19.799 C49.908,19.799 51.732,17.064 53.117,14.370 C54.327,12.015 55.121,9.537 55.121,9.537 C55.121,9.537 55.550,10.567 55.121,11.894 C54.088,15.095 51.436,20.622 51.436,20.622 C51.436,20.622 52.763,21.382 53.352,21.796 C57.503,24.709 57.568,26.946 56.891,28.160 C56.251,29.307 52.881,29.575 52.881,29.575 C52.881,29.575 53.837,30.186 55.081,31.079 C56.647,32.204 58.571,34.181 59.336,36.065 C60.255,38.330 58.748,39.831 57.480,40.655 C54.484,42.601 48.713,43.049 43.328,42.658 C41.858,44.910 38.116,48.503 36.059,49.918 C37.917,53.668 42.620,59.514 42.620,59.514 C42.620,59.514 41.172,59.591 37.667,54.917 C36.692,53.618 34.954,50.791 34.954,50.791 C34.954,50.791 33.692,51.450 33.096,51.759 C31.023,52.834 28.975,53.562 26.042,52.817 C24.899,51.093 24.933,49.619 26.345,47.727 C26.266,47.727 25.807,47.999 25.807,47.999 C25.807,47.999 19.917,51.347 15.848,49.259 C15.195,48.924 14.587,47.411 14.404,46.589 C14.077,45.127 14.674,43.455 14.991,42.477 C15.578,40.669 16.619,38.139 17.617,36.176 C18.639,34.166 19.740,32.757 19.740,32.757 C19.740,32.757 18.502,29.421 18.207,28.632 C17.458,26.633 17.311,25.434 16.872,22.972 ZM27.688,19.447 C27.688,19.447 29.212,18.263 32.241,17.670 C35.041,17.123 37.549,17.316 37.549,17.316 C37.546,17.290 33.792,10.952 31.164,11.810 C27.745,12.925 27.688,19.447 27.688,19.447 ZM19.976,21.442 C21.387,21.481 22.751,21.522 24.161,21.561 C24.062,18.842 24.096,16.621 21.941,16.263 C20.925,16.095 19.969,18.439 19.976,21.442 ZM29.293,40.183 C29.293,40.183 27.630,35.868 27.052,34.172 C25.974,31.010 24.575,23.917 24.575,23.917 C24.575,23.917 23.813,25.172 23.278,26.746 C22.752,28.295 22.571,30.164 22.571,30.164 C22.570,30.160 21.938,28.664 22.308,26.758 C22.611,25.202 23.750,23.446 23.750,23.446 L19.976,23.092 C19.962,23.108 19.984,26.349 20.985,29.425 C22.154,33.012 23.649,36.405 25.165,38.415 C25.925,39.423 28.939,41.715 28.939,41.715 C28.939,41.715 32.112,39.533 35.308,36.765 C39.132,33.453 43.092,29.457 43.092,29.457 L44.853,30.727 C44.853,30.727 39.607,37.081 37.902,38.769 C37.025,39.638 33.303,42.894 33.303,42.894 C33.303,42.894 34.998,42.978 36.487,42.658 C37.895,42.357 39.672,41.598 39.672,41.598 C39.671,41.598 38.854,42.703 35.950,43.512 C35.336,43.683 33.185,43.837 33.185,43.837 C33.185,43.837 33.541,44.827 33.961,45.697 C34.399,46.607 34.834,47.610 34.836,47.609 C34.836,47.609 37.996,45.256 39.200,43.837 C42.740,39.663 46.922,35.301 46.158,30.164 C46.154,30.135 46.275,30.076 46.276,30.046 C44.865,29.341 43.323,28.630 42.318,28.152 C32.883,24.719 28.824,24.272 28.821,24.271 L28.842,22.070 C28.896,22.025 36.785,23.121 39.200,23.917 C41.036,24.523 44.979,25.803 44.979,25.803 C44.979,25.803 45.170,25.646 43.446,23.328 C41.987,21.366 40.855,20.974 40.855,20.974 C40.855,20.974 42.732,21.612 43.917,22.621 C44.775,23.349 46.158,25.214 46.158,25.214 L48.281,22.267 C48.281,22.267 46.538,21.440 45.686,21.088 C42.816,19.904 36.211,18.348 32.241,19.320 C30.225,19.814 27.642,21.088 27.642,21.088 C27.642,21.088 28.159,26.262 28.394,28.142 C28.942,30.452 29.491,32.764 30.040,35.074 C30.466,36.379 31.416,39.122 31.416,39.122 L29.293,40.183 ZM49.878,23.171 C49.909,23.117 49.531,23.973 48.989,24.860 C48.423,25.786 47.691,26.746 47.691,26.746 L50.758,28.278 C50.758,28.278 52.036,27.494 52.763,26.982 C53.406,26.528 53.614,26.457 52.173,24.860 C51.276,23.867 49.878,23.171 49.878,23.171 ZM47.691,31.107 C47.691,31.107 47.736,33.222 47.102,35.233 C46.282,37.832 44.735,40.479 44.735,40.479 C44.735,40.479 52.913,40.346 52.763,37.001 C52.642,34.304 47.691,31.107 47.691,31.107 ZM20.870,35.309 C20.250,36.589 17.965,41.023 19.032,42.894 C20.187,44.919 26.397,43.496 27.453,42.477 C25.350,41.466 23.796,39.717 22.515,37.894 C21.962,37.106 21.610,35.905 20.870,35.309 ZM31.298,44.544 C31.298,44.544 29.541,45.378 28.232,46.666 C27.551,47.582 27.599,48.940 28.303,49.186 C30.919,50.102 33.421,48.316 33.421,48.316 L31.298,44.544 Z"/>
</svg>
