<svg xmlns="http://www.w3.org/2000/svg" xmlns:xlink="http://www.w3.org/1999/xlink" preserveAspectRatio="xMidYMid" width="64" height="64" viewBox="0 0 64 64">
  <path d="M52.669,43.608 L52.531,43.608 C50.728,43.608 49.249,42.136 49.249,40.328 L49.249,26.059 C49.249,24.259 50.725,22.782 52.531,22.782 L52.667,22.782 C54.472,22.782 55.946,24.259 55.946,26.059 L55.946,40.328 C55.946,42.131 54.477,43.608 52.669,43.608 ZM17.263,21.941 C17.237,21.648 17.218,21.352 17.218,21.052 C17.218,16.164 20.329,11.903 24.942,9.642 L22.383,5.696 C22.219,5.447 22.292,5.106 22.543,4.944 C22.794,4.780 23.137,4.848 23.299,5.104 L25.944,9.187 C27.937,8.372 30.154,7.914 32.501,7.914 C34.846,7.914 37.067,8.372 39.056,9.187 L41.706,5.104 C41.868,4.848 42.208,4.780 42.457,4.944 C42.708,5.106 42.781,5.447 42.617,5.696 L40.060,9.642 C44.671,11.903 47.784,16.164 47.784,21.052 C47.784,21.352 47.767,21.648 47.742,21.941 L17.263,21.941 ZM25.435,13.781 C24.625,13.781 23.968,14.431 23.968,15.244 C23.968,16.056 24.625,16.708 25.435,16.708 C26.245,16.708 26.902,16.056 26.902,15.244 C26.902,14.431 26.250,13.781 25.435,13.781 ZM39.565,13.781 C38.755,13.781 38.098,14.431 38.098,15.244 C38.098,16.056 38.755,16.708 39.565,16.708 C40.377,16.708 41.030,16.056 41.030,15.244 C41.030,14.431 40.377,13.781 39.565,13.781 ZM12.474,43.608 L12.331,43.608 C10.526,43.608 9.054,42.136 9.054,40.328 L9.054,26.059 C9.054,24.259 10.526,22.782 12.331,22.782 L12.472,22.782 C14.275,22.782 15.749,24.259 15.751,26.059 L15.751,40.328 C15.751,42.131 14.279,43.608 12.474,43.608 ZM47.678,45.836 C47.678,47.493 46.324,48.843 44.669,48.843 L41.448,48.843 L41.448,56.551 C41.448,58.358 39.976,59.833 38.168,59.833 L38.030,59.833 C36.229,59.833 34.748,58.361 34.748,56.551 L34.748,48.843 L30.250,48.843 L30.250,56.551 C30.250,58.358 28.776,59.833 26.968,59.833 L26.827,59.833 C25.027,59.833 23.550,58.361 23.550,56.551 L23.550,48.843 L20.331,48.843 C18.674,48.843 17.319,47.493 17.319,45.836 L17.319,23.305 L47.678,23.305 L47.678,45.836 Z"/>
</svg>
