<svg xmlns="http://www.w3.org/2000/svg" xmlns:xlink="http://www.w3.org/1999/xlink" preserveAspectRatio="xMidYMid" width="64" height="64" viewBox="0 0 64 64">
  <path d="M60.265,33.042 C60.113,36.059 56.192,55.669 40.352,55.669 C28.480,55.669 16.367,46.724 16.367,34.852 C16.367,22.980 27.650,9.368 39.522,9.271 C51.426,9.174 60.765,23.090 60.265,33.042 ZM50.987,23.085 L43.973,23.085 L43.973,37.163 C43.863,37.365 43.714,37.595 43.520,37.793 C43.094,38.227 42.422,38.472 42.422,38.472 C42.422,38.472 36.695,38.472 33.145,38.472 C31.551,38.472 31.301,34.399 31.301,34.399 L31.301,23.085 L24.739,23.085 L24.739,37.634 C24.739,37.634 24.998,40.537 26.549,42.093 C28.231,43.779 30.991,44.129 30.991,44.129 L31.292,44.129 L31.301,44.129 L43.973,44.129 L44.199,44.129 L50.987,44.129 L50.987,23.085 ZM19.774,15.396 C18.400,15.396 17.286,14.274 17.286,12.891 C17.286,11.507 18.400,10.386 19.774,10.386 C21.148,10.386 22.262,11.507 22.262,12.891 C22.262,14.274 21.148,15.396 19.774,15.396 ZM12.881,29.233 C9.538,30.724 6.525,29.089 5.732,28.516 C4.253,27.448 4.059,24.152 4.374,21.954 C4.772,19.172 6.550,17.202 10.710,17.202 C12.423,17.202 15.127,17.894 16.140,19.691 C16.946,21.120 18.232,26.848 12.881,29.233 Z"/>
</svg>
