<svg xmlns="http://www.w3.org/2000/svg" xmlns:xlink="http://www.w3.org/1999/xlink" preserveAspectRatio="xMidYMid" width="64" height="64" viewBox="0 0 64 64">
  <path d="M46.739,58.996 L8.176,51.194 L8.176,20.637 L16.585,18.911 L16.697,15.545 C17.245,10.369 21.286,5.463 26.287,5.041 C31.789,4.576 36.307,8.588 36.877,14.746 L39.883,14.129 C39.128,11.867 37.646,10.026 35.783,8.925 C35.773,8.919 35.764,8.914 35.754,8.908 L33.567,6.568 C32.779,6.437 32.804,6.437 33.602,6.573 C37.246,7.196 40.158,9.899 41.273,13.844 L46.686,12.733 L51.206,15.717 L51.206,15.651 L55.823,16.234 L55.823,55.385 L46.739,58.996 ZM16.426,43.714 L25.227,44.934 L25.227,36.605 L16.426,36.605 L16.426,43.714 ZM16.426,29.072 L16.426,36.287 L25.227,36.287 L25.227,27.852 L16.426,29.072 ZM26.260,6.398 C21.564,6.794 17.655,12.164 17.866,17.030 C17.845,17.622 17.842,18.403 17.841,18.654 L21.491,17.904 L21.521,16.977 C21.947,12.956 24.481,9.098 27.935,7.379 C27.956,7.371 27.973,7.360 27.973,7.360 L30.297,7.945 C30.297,7.945 30.286,7.948 30.256,7.953 C26.190,8.810 22.897,13.314 22.693,17.658 L35.551,15.019 C35.038,9.823 30.909,6.006 26.260,6.398 ZM36.679,26.261 L25.545,27.806 L25.545,36.287 L36.679,36.287 L36.679,26.261 ZM36.679,36.605 L25.545,36.605 L25.545,44.980 L36.679,46.526 L36.679,36.605 ZM35.754,8.908 L35.755,8.909 C34.371,8.099 34.384,8.098 35.754,8.908 Z"/>
</svg>
