<svg xmlns="http://www.w3.org/2000/svg" xmlns:xlink="http://www.w3.org/1999/xlink" preserveAspectRatio="xMidYMid" width="64" height="64" viewBox="0 0 64 64">
  <path d="M57.410,33.692 L43.987,33.692 L43.987,29.706 L55.229,29.707 C55.894,29.707 56.433,29.168 56.433,28.503 L56.433,15.268 C56.433,14.603 55.894,14.065 55.229,14.065 L49.213,14.065 C48.548,14.065 48.010,14.603 48.010,15.268 L48.010,21.284 C48.010,21.949 48.548,22.487 49.213,22.487 L54.033,22.487 L54.033,26.473 L46.957,26.473 C45.296,26.473 43.949,25.126 43.949,23.465 L43.949,13.012 C43.949,11.351 45.296,10.004 46.957,10.004 L57.410,10.004 C59.071,10.004 60.418,11.351 60.418,13.012 L60.418,30.684 C60.418,32.345 59.071,33.692 57.410,33.692 ZM55.906,37.640 L60.418,37.640 L60.380,53.883 L56.432,53.883 L56.432,41.701 L55.906,41.701 L53.687,41.701 C53.023,41.701 52.484,42.239 52.484,42.904 L52.484,53.810 L48.499,53.810 L48.499,41.701 L45.791,41.701 C45.127,41.701 44.588,42.239 44.588,42.904 L44.588,53.810 L40.603,53.810 L40.603,40.648 C40.603,38.987 41.950,37.640 43.611,37.640 L51.507,37.640 L55.906,37.640 ZM37.708,26.473 L27.255,26.473 C25.594,26.473 24.247,25.126 24.247,23.465 L24.247,13.012 C24.247,11.351 25.594,10.004 27.255,10.004 L37.708,10.004 C39.369,10.004 40.716,11.351 40.716,13.012 L40.716,23.465 C40.716,25.126 39.369,26.473 37.708,26.473 ZM36.730,15.268 C36.730,14.603 36.192,14.065 35.527,14.065 L29.511,14.065 C28.846,14.065 28.307,14.603 28.307,15.268 L28.307,21.284 C28.307,21.949 28.846,22.487 29.511,22.487 L35.527,22.487 C36.192,22.487 36.730,21.949 36.730,21.284 L36.730,15.268 ZM37.520,40.535 L37.520,50.988 C37.520,52.649 36.173,53.996 34.512,53.996 L24.059,53.996 C22.398,53.996 21.051,52.649 21.051,50.988 L21.051,40.535 C21.051,38.874 22.398,37.527 24.059,37.527 L34.512,37.527 C36.173,37.527 37.520,38.874 37.520,40.535 ZM33.534,42.791 C33.534,42.126 32.996,41.588 32.331,41.588 L26.315,41.588 C25.650,41.588 25.111,42.126 25.111,42.791 L25.111,48.807 C25.111,49.472 25.650,50.011 26.315,50.011 L32.331,50.011 C32.996,50.011 33.534,49.472 33.534,48.807 L33.534,42.791 ZM18.043,33.692 L4.620,33.692 L4.620,29.706 L15.862,29.707 C16.527,29.707 17.065,29.168 17.065,28.503 L17.065,15.268 C17.065,14.603 16.527,14.065 15.862,14.065 L9.846,14.065 C9.181,14.065 8.643,14.603 8.643,15.268 L8.643,21.284 C8.643,21.949 9.181,22.487 9.846,22.487 L14.666,22.487 L14.666,26.473 L7.590,26.473 C5.929,26.473 4.582,25.126 4.582,23.465 L4.582,13.012 C4.582,11.351 5.929,10.004 7.590,10.004 L18.043,10.004 C19.704,10.004 21.051,11.351 21.051,13.012 L21.051,30.684 C21.051,32.345 19.704,33.692 18.043,33.692 ZM7.590,37.490 L18.043,37.490 L18.043,41.550 L9.846,41.550 C9.181,41.550 8.643,42.089 8.643,42.753 L8.643,48.732 C8.643,49.397 9.181,49.935 9.846,49.935 L18.043,49.935 L18.043,53.921 L7.590,53.921 C5.929,53.921 4.582,52.574 4.582,50.913 L4.582,40.498 C4.582,38.836 5.929,37.490 7.590,37.490 Z"/>
</svg>
