<svg xmlns="http://www.w3.org/2000/svg" xmlns:xlink="http://www.w3.org/1999/xlink" preserveAspectRatio="xMidYMid" width="64" height="64" viewBox="0 0 64 64">
  <path d="M14.000,56.000 L8.000,50.000 L8.000,12.800 C8.000,10.149 10.149,8.000 12.800,8.000 L51.200,8.000 C53.851,8.000 56.000,10.149 56.000,12.800 L56.000,51.200 C56.000,53.851 53.851,56.000 51.200,56.000 L44.000,56.000 L44.000,39.200 C44.000,37.874 42.926,36.800 41.600,36.800 L20.000,36.800 C18.675,36.800 17.600,37.874 17.600,39.200 L17.600,56.000 L14.000,56.000 M15.200,12.800 L15.200,27.200 C15.200,28.526 16.275,29.600 17.600,29.600 L46.400,29.600 C47.726,29.600 48.800,28.526 48.800,27.200 L48.800,12.800 L15.200,12.800 M22.400,41.600 L29.600,41.600 L29.600,51.200 L22.400,51.200 L22.400,41.600 M51.200,12.800 L51.200,15.200 L53.600,15.200 L53.600,12.800 L51.200,12.800 Z"/>
</svg>
