<svg xmlns="http://www.w3.org/2000/svg" xmlns:xlink="http://www.w3.org/1999/xlink" preserveAspectRatio="xMidYMid" width="64" height="64" viewBox="0 0 64 64">
  <path d="M50.530,60.003 L14.470,60.003 C9.239,60.003 4.997,55.761 4.997,50.530 L4.997,14.470 C4.997,9.239 9.239,4.997 14.470,4.997 L50.530,4.997 C55.761,4.997 60.003,9.239 60.003,14.470 L60.003,50.530 C60.003,55.761 55.761,60.003 50.530,60.003 ZM58.475,15.082 C58.475,10.356 54.644,6.525 49.918,6.525 L15.082,6.525 C10.356,6.525 6.525,10.356 6.525,15.082 L6.525,49.918 C6.525,54.644 10.356,58.475 15.082,58.475 L49.918,58.475 C54.644,58.475 58.475,54.644 58.475,49.918 L58.475,15.082 ZM43.392,30.461 C44.093,30.746 44.119,30.746 47.106,31.396 C51.262,32.279 52.925,33.863 52.925,36.876 C52.925,40.539 50.405,42.617 45.937,42.617 C43.028,42.617 40.872,41.760 39.678,40.149 C39.002,39.240 38.717,38.435 38.457,36.721 L40.717,36.435 C40.795,37.682 40.976,38.305 41.522,39.006 C42.379,40.149 43.937,40.799 45.860,40.799 C48.951,40.799 50.821,39.344 50.821,36.928 C50.821,35.656 50.301,34.695 49.314,34.149 C48.457,33.656 48.171,33.578 45.028,32.876 C43.392,32.539 42.379,32.175 41.496,31.682 C39.885,30.772 39.080,29.396 39.080,27.578 C39.080,24.305 41.704,22.201 45.730,22.201 C48.301,22.201 50.301,23.032 51.470,24.590 C52.067,25.370 52.327,26.019 52.613,27.344 L50.431,27.655 C50.223,26.616 50.015,26.097 49.522,25.500 C48.691,24.513 47.366,23.993 45.678,23.993 C43.002,23.993 41.132,25.422 41.132,27.526 C41.132,28.876 41.859,29.837 43.392,30.461 ZM26.690,42.669 C21.210,42.669 17.729,38.669 17.729,32.409 C17.729,26.175 21.261,22.149 26.716,22.149 C32.197,22.149 35.677,26.149 35.677,32.409 C35.677,38.669 32.171,42.669 26.690,42.669 ZM31.262,25.759 C30.067,24.590 28.508,23.967 26.716,23.967 C22.560,23.967 19.833,27.292 19.833,32.383 C19.833,37.474 22.586,40.825 26.742,40.825 C28.534,40.825 30.067,40.227 31.236,39.058 C32.716,37.604 33.547,35.188 33.547,32.409 C33.547,29.552 32.768,27.266 31.262,25.759 ZM12.015,22.538 L14.534,22.538 L14.534,24.850 L12.015,24.850 L12.015,22.538 ZM12.093,28.279 L14.430,28.279 C14.300,29.188 14.249,29.915 14.249,31.214 L14.249,39.344 C14.249,40.539 14.300,41.266 14.430,42.279 L12.093,42.279 C12.223,41.162 12.274,40.435 12.274,39.344 L12.274,31.214 C12.274,29.967 12.223,29.188 12.093,28.279 Z"/>
</svg>
