<svg xmlns="http://www.w3.org/2000/svg" xmlns:xlink="http://www.w3.org/1999/xlink" preserveAspectRatio="xMidYMid" width="64" height="64" viewBox="0 0 64 64">
  <path fill-rule="evenodd" d="M44.546,59.502 L19.454,59.502 C17.043,59.502 15.090,57.548 15.090,55.138 L15.090,39.319 C15.090,36.909 17.043,34.955 19.454,34.955 L44.546,34.955 C46.957,34.955 48.910,36.909 48.910,39.319 L48.910,55.138 C48.910,57.548 46.957,59.502 44.546,59.502 ZM44.546,30.045 L19.454,30.045 C17.043,30.045 15.090,28.091 15.090,25.681 L15.090,9.862 C15.090,7.452 17.043,5.498 19.454,5.498 L44.546,5.498 C46.957,5.498 48.910,7.452 48.910,9.862 L48.910,25.681 C48.910,28.091 46.957,30.045 44.546,30.045 ZM19.454,55.684 L19.454,39.319 L44.546,39.319 L44.546,55.684 L19.454,55.684 ZM19.454,9.862 L44.546,9.862 L44.546,26.227 L19.454,26.227 L19.454,9.862 Z" class="cls-1"/>
</svg>
