<svg xmlns="http://www.w3.org/2000/svg" xmlns:xlink="http://www.w3.org/1999/xlink" preserveAspectRatio="xMidYMid" width="64" height="64" viewBox="0 0 64 64">
  <path d="M51.495,21.508 C54.262,21.508 56.494,23.749 56.494,26.504 C56.494,29.259 54.251,31.500 51.495,31.500 C48.738,31.500 46.496,29.259 46.496,26.504 C46.496,23.738 48.738,21.508 51.495,21.508 ZM11.492,19.507 C15.354,19.507 18.493,22.645 18.493,26.504 L18.460,27.236 L33.282,34.921 C34.453,34.036 35.918,33.500 37.504,33.500 L42.503,26.504 C42.503,21.541 46.529,17.507 51.506,17.507 C56.472,17.507 60.508,21.530 60.508,26.504 C60.508,31.478 56.483,35.501 51.506,35.501 L44.505,40.497 C44.505,44.356 41.377,47.493 37.504,47.493 C33.632,47.493 30.504,44.367 30.504,40.497 C30.504,40.409 30.504,40.322 30.504,40.234 L15.321,32.363 C14.227,33.085 12.904,33.500 11.492,33.500 C7.631,33.500 4.492,30.374 4.492,26.504 C4.492,22.634 7.631,19.507 11.492,19.507 ZM39.572,38.179 C41.048,38.933 41.639,40.737 40.884,42.213 C40.130,43.689 38.325,44.279 36.848,43.525 L32.560,41.306 C32.943,43.678 35.010,45.493 37.493,45.493 C40.250,45.493 42.492,43.252 42.492,40.497 C42.492,37.731 40.250,35.501 37.493,35.501 C36.717,35.501 35.984,35.676 35.339,35.993 L39.572,38.179 ZM11.492,21.508 C8.736,21.508 6.494,23.749 6.494,26.504 C6.494,29.259 8.736,31.500 11.492,31.500 C12.061,31.500 12.608,31.401 13.122,31.226 L9.808,29.510 C8.331,28.756 7.741,26.952 8.495,25.476 C9.250,24.000 11.055,23.410 12.532,24.164 L16.491,26.220 C16.338,23.585 14.161,21.508 11.492,21.508 ZM51.495,19.507 C47.634,19.507 44.494,22.645 44.494,26.504 C44.494,30.363 47.623,33.500 51.495,33.500 C55.356,33.500 58.496,30.374 58.496,26.504 C58.496,22.634 55.367,19.507 51.495,19.507 Z"/>
</svg>
