<svg xmlns="http://www.w3.org/2000/svg" xmlns:xlink="http://www.w3.org/1999/xlink" preserveAspectRatio="xMidYMid" width="64" height="64" viewBox="0 0 64 64">
  <path d="M11.103,4.991 L43.360,23.074 L36.166,30.261 L11.103,4.991 ZM8.086,5.454 C8.086,5.454 11.864,9.229 13.656,11.018 C18.374,15.732 23.093,20.447 27.811,25.161 C29.965,27.312 34.541,31.884 34.541,31.884 C34.541,31.884 36.011,30.416 28.275,38.144 C23.944,42.471 19.612,46.799 15.280,51.127 C13.699,52.706 8.086,58.546 8.086,58.546 C8.086,58.546 7.516,58.313 7.390,57.850 C7.187,57.107 7.158,55.764 7.158,55.764 L7.158,8.236 C7.158,8.236 7.053,7.388 7.622,5.918 C7.789,5.485 8.086,5.454 8.086,5.454 ZM55.659,33.971 L45.216,39.767 L38.022,32.116 L45.680,24.233 C45.680,24.233 52.384,27.987 55.427,29.798 C56.526,30.452 56.865,31.218 56.819,31.884 C56.738,33.063 55.659,33.971 55.659,33.971 ZM36.166,33.739 L43.360,40.694 L10.871,59.009 L36.166,33.739 Z"/>
</svg>
