<svg xmlns="http://www.w3.org/2000/svg" xmlns:xlink="http://www.w3.org/1999/xlink" preserveAspectRatio="xMidYMid" width="64" height="64" viewBox="0 0 64 64">
  <path d="M29.469,7.136 C34.250,11.699 43.810,29.139 46.954,36.053 C45.574,36.512 44.193,36.971 42.813,37.430 C39.038,27.971 32.906,18.495 29.469,7.136 ZM30.850,19.988 C30.850,19.988 32.266,18.522 30.390,16.775 C28.497,15.012 26.709,17.234 26.709,17.234 L30.850,19.988 ZM24.868,19.070 C27.471,19.553 29.020,20.604 30.390,22.283 C29.623,23.660 28.856,25.037 28.089,26.414 C27.629,26.261 27.169,26.108 26.709,25.955 C25.482,25.190 24.255,24.425 23.028,23.660 C23.641,22.130 24.255,20.600 24.868,19.070 ZM21.647,25.037 C23.334,26.108 25.022,27.179 26.709,28.250 C22.721,35.134 18.733,42.021 14.746,48.905 C13.212,47.834 11.678,46.763 10.144,45.692 C13.978,38.808 17.813,31.921 21.647,25.037 ZM6.003,41.561 L6.003,32.381 L14.746,32.381 L9.684,41.580 L6.003,41.561 ZM27.169,32.381 L38.672,32.419 L42.813,41.580 L21.647,41.561 L27.169,32.381 ZM47.894,32.381 L57.997,32.381 L57.997,41.580 L52.015,41.542 L47.894,32.381 ZM47.414,37.430 C49.144,38.652 50.457,41.575 50.175,43.397 C49.101,43.703 48.027,44.009 46.954,44.315 C46.034,42.632 45.113,40.949 44.193,39.266 C45.267,38.654 46.340,38.042 47.414,37.430 ZM50.635,45.233 C54.010,46.753 57.536,54.413 57.536,54.413 C57.536,54.413 57.334,56.106 55.696,56.708 C53.910,57.365 52.475,55.790 52.475,55.790 C52.475,55.790 50.021,49.364 48.794,46.151 C49.408,45.845 50.021,45.539 50.635,45.233 ZM9.224,47.987 L13.365,50.282 L7.384,56.249 L9.224,47.987 Z"/>
</svg>
