<svg xmlns="http://www.w3.org/2000/svg" xmlns:xlink="http://www.w3.org/1999/xlink" preserveAspectRatio="xMidYMid" width="64" height="64" viewBox="0 0 64 64">
  <path d="M16.756,9.176 C16.728,9.198 16.707,9.221 16.681,9.243 C16.837,9.078 17.061,8.901 17.209,8.805 C21.511,6.009 26.481,4.514 31.997,4.514 C37.155,4.514 41.987,5.939 46.112,8.416 C46.411,8.593 47.227,9.153 47.648,9.661 L47.648,9.663 C43.668,5.276 31.971,14.689 31.971,14.689 C27.925,11.571 24.204,9.446 21.434,8.689 C19.118,8.055 17.516,8.585 16.756,9.176 ZM52.155,13.324 C52.033,13.190 51.901,13.064 51.779,12.925 C50.773,11.821 49.536,11.554 48.421,11.626 C47.406,11.945 42.718,13.634 36.940,19.089 C36.940,19.089 43.444,25.413 47.428,31.878 C51.407,38.344 53.787,43.425 52.324,50.477 C56.765,45.597 59.473,39.112 59.473,31.992 C59.473,24.785 56.698,18.226 52.155,13.324 ZM42.226,34.640 C40.462,32.660 37.837,29.824 34.370,26.376 C33.612,25.622 32.811,24.836 31.969,24.023 C31.969,24.023 30.702,25.289 29.053,26.955 L29.053,26.953 C26.943,29.085 24.206,31.866 22.688,33.489 C19.983,36.374 12.236,45.437 11.800,50.518 C11.800,50.518 10.076,46.488 13.859,37.192 C16.331,31.116 23.798,21.992 26.917,19.018 C26.917,19.018 24.068,15.883 20.492,13.717 L20.470,13.711 C20.470,13.711 20.430,13.679 20.366,13.638 C18.646,12.613 16.769,11.823 14.962,11.718 C13.116,11.848 11.948,13.198 11.948,13.198 C7.336,18.115 4.514,24.723 4.514,31.994 C4.514,47.169 16.818,59.473 31.997,59.473 C40.052,59.473 47.300,56.001 52.328,50.479 C52.326,50.471 51.749,46.848 48.051,41.652 C47.182,40.435 44.006,36.635 42.226,34.640 Z"/>
</svg>
