<svg xmlns="http://www.w3.org/2000/svg" xmlns:xlink="http://www.w3.org/1999/xlink" preserveAspectRatio="xMidYMid" width="64" height="64" viewBox="0 0 64 64">
  <path d="M55.416,16.225 C54.627,17.406 54.369,18.300 52.641,18.906 C54.055,19.316 54.177,20.044 55.007,21.093 C55.837,22.142 56.281,23.326 56.338,24.645 C56.414,26.386 56.023,28.038 55.164,29.601 C54.306,31.165 53.077,32.289 51.476,32.975 C49.876,33.661 49.139,34.004 46.310,34.004 L33.508,34.004 L37.932,4.996 L47.214,4.996 C49.228,4.996 48.661,5.062 49.470,5.194 C50.812,5.392 52.460,5.788 53.412,6.381 C54.364,6.975 55.103,7.766 55.627,8.756 C56.152,9.745 56.441,10.840 56.493,12.040 C56.563,13.650 56.204,15.045 55.416,16.225 ZM39.807,29.334 L45.199,29.334 C47.459,29.334 46.991,29.179 47.749,28.869 C48.508,28.560 49.103,28.048 49.535,27.336 C49.968,26.623 50.166,25.872 50.132,25.080 C50.090,24.117 49.722,23.322 49.028,22.696 C48.333,22.069 49.186,21.756 47.630,21.756 L40.960,21.756 L39.807,29.334 ZM49.811,10.912 C49.395,10.438 48.819,10.121 48.084,9.963 C47.673,9.883 48.667,9.844 47.111,9.844 L42.775,9.844 L41.722,16.710 L45.983,16.710 C47.898,16.710 47.290,16.565 48.118,16.275 C48.945,15.985 49.554,15.510 49.946,14.850 C50.337,14.191 50.516,13.485 50.483,12.733 C50.451,11.994 50.227,11.387 49.811,10.912 ZM22.500,11.001 C20.528,11.847 17.770,12.838 16.500,14.501 C15.230,16.163 14.053,17.405 13.624,19.458 C13.410,20.484 13.303,21.496 13.303,22.493 C13.303,23.606 13.460,24.582 13.774,25.420 C14.088,26.258 14.541,26.959 15.133,27.523 C15.725,28.087 16.442,28.513 17.284,28.802 C18.126,29.091 19.068,29.236 20.109,29.236 C20.808,29.236 21.501,29.163 22.186,29.019 C22.870,28.874 23.505,28.658 24.090,28.368 L24.853,23.995 L18.587,23.995 L19.422,18.626 L29.818,18.626 C30.289,18.626 30.624,18.786 30.824,19.103 C31.024,19.421 31.067,19.870 30.953,20.447 L29.248,30.623 C29.191,30.898 29.120,31.133 29.034,31.328 C28.949,31.523 28.834,31.700 28.692,31.859 C28.535,32.032 28.171,32.238 27.600,32.477 C27.030,32.715 26.334,32.950 25.514,33.181 C24.693,33.413 23.776,33.607 22.763,33.767 C21.750,33.926 20.716,34.005 19.660,34.005 C17.677,34.005 15.929,33.774 14.416,33.311 C12.904,32.849 11.637,32.159 10.617,31.241 C9.597,30.323 8.823,29.200 8.295,27.870 C7.767,26.540 7.503,25.008 7.503,23.274 C7.503,21.713 7.671,20.181 8.006,18.677 C8.341,17.174 8.841,15.747 9.504,14.396 C10.831,11.693 13.375,9.609 16.000,8.001 C21.857,4.415 27.539,5.193 27.911,5.258 C28.614,5.359 34.000,6.001 34.000,6.001 L32.500,11.001 C32.500,11.001 25.732,9.615 22.500,11.001 ZM35.000,38.000 L47.000,58.999 L41.000,58.999 L32.500,43.500 L25.500,54.999 L32.000,54.999 L32.000,58.999 L17.500,58.999 L17.500,57.499 L30.000,38.000 L35.000,38.000 Z"/>
</svg>
