<svg xmlns="http://www.w3.org/2000/svg" xmlns:xlink="http://www.w3.org/1999/xlink" preserveAspectRatio="xMidYMid" width="33.813" height="54" viewBox="0 0 33.813 54">
  <path fill-rule="evenodd" d="M29.453,54.002 L4.360,54.002 C1.950,54.002 -0.004,52.048 -0.004,49.638 L-0.004,33.819 C-0.004,31.409 1.950,29.455 4.360,29.455 L29.453,29.455 C31.863,29.455 33.817,31.409 33.817,33.819 L33.817,49.638 C33.817,52.048 31.863,54.002 29.453,54.002 ZM29.453,24.545 L4.360,24.545 C1.950,24.545 -0.004,22.591 -0.004,20.181 L-0.004,4.362 C-0.004,1.952 1.950,-0.002 4.360,-0.002 L29.453,-0.002 C31.863,-0.002 33.817,1.952 33.817,4.362 L33.817,20.181 C33.817,22.591 31.863,24.545 29.453,24.545 ZM4.360,50.184 L4.360,33.819 L29.453,33.819 L29.453,50.184 L4.360,50.184 ZM4.360,4.362 L29.453,4.362 L29.453,20.727 L4.360,20.727 L4.360,4.362 Z"/>
</svg>
