<svg xmlns="http://www.w3.org/2000/svg" xmlns:xlink="http://www.w3.org/1999/xlink" preserveAspectRatio="xMidYMid" width="58" height="11.25" viewBox="0 0 58 11.25">
  <path d="M40.576,5.956 L40.576,11.248 L39.915,11.248 L39.915,5.956 L39.915,5.294 L57.334,5.294 L57.334,0.664 L39.915,0.664 L39.915,0.002 L57.996,0.002 L57.996,0.664 L57.996,5.294 L57.996,5.956 L40.576,5.956 ZM28.008,10.586 L28.008,11.248 L18.085,11.248 L18.085,10.586 L27.346,10.586 L27.346,0.664 L27.346,0.002 L37.269,0.002 L37.269,0.664 L28.008,0.664 L28.008,10.586 ZM0.666,11.248 L0.004,11.248 L0.004,5.956 L0.004,5.294 L17.424,5.294 L17.424,0.664 L0.004,0.664 L0.004,0.002 L18.085,0.002 L18.085,0.664 L18.085,5.294 L18.085,5.956 L0.666,5.956 L0.666,11.248 Z"/>
</svg>
