<svg xmlns="http://www.w3.org/2000/svg" xmlns:xlink="http://www.w3.org/1999/xlink" preserveAspectRatio="xMidYMid" width="64" height="64" viewBox="0 0 64 64">
  <path fill-rule="evenodd" d="M32.109,24.843 C36.395,24.843 39.869,28.316 39.869,32.599 C39.869,36.882 36.395,40.355 32.109,40.355 C27.824,40.355 24.350,36.882 24.350,32.599 C24.350,28.316 27.824,24.843 32.109,24.843 ZM50.360,38.825 C47.616,47.441 40.485,53.057 39.261,54.172 C36.550,56.641 34.044,58.165 32.874,58.487 C32.402,58.617 32.219,58.061 32.219,58.050 C32.219,58.050 32.186,57.729 32.437,57.395 C32.870,56.820 33.111,57.216 34.186,54.773 C34.747,53.498 34.972,52.001 35.038,51.474 C34.048,51.631 33.034,51.715 32.000,51.715 C21.377,51.715 12.765,43.107 12.765,32.490 C12.765,33.319 12.559,30.543 13.798,26.159 C16.257,17.463 23.688,11.938 24.914,10.824 C27.628,8.358 30.138,6.835 31.309,6.513 C31.782,6.383 31.965,6.939 31.966,6.949 C31.966,6.949 31.999,7.270 31.747,7.604 C31.314,8.178 31.072,7.783 29.996,10.224 C29.448,11.467 29.220,12.917 29.148,13.476 C30.079,13.338 31.031,13.265 32.000,13.265 C42.623,13.265 51.235,21.872 51.235,32.490 C51.235,30.235 51.417,35.508 50.360,38.825 Z"/>
</svg>
