<svg xmlns="http://www.w3.org/2000/svg" xmlns:xlink="http://www.w3.org/1999/xlink" preserveAspectRatio="xMidYMid" width="64" height="64" viewBox="0 0 64 64">
  <path d="M23.236,48.068 C22.416,48.240 21.555,48.330 20.679,48.474 C18.421,48.846 15.747,48.476 13.834,48.099 C12.384,47.813 10.921,47.695 9.559,47.377 C7.605,46.921 4.879,46.557 4.534,44.519 C4.104,41.975 7.360,40.075 9.155,39.553 C13.848,37.962 18.542,36.370 23.236,34.779 L23.236,39.690 C20.882,40.540 18.527,41.389 16.173,42.238 C15.415,42.533 13.333,42.898 13.632,44.028 C13.892,45.011 15.666,45.408 16.896,45.067 C19.009,44.359 21.122,43.650 23.236,42.941 L23.236,48.068 ZM34.716,23.269 C34.716,22.230 34.716,21.190 34.716,20.151 C34.716,19.755 34.652,19.213 34.774,18.910 C34.938,18.497 35.398,18.234 35.871,18.130 C36.304,18.035 36.803,18.137 37.113,18.246 C38.596,18.768 38.211,20.360 38.211,22.259 C38.211,26.522 38.211,30.786 38.211,35.049 C40.853,35.694 43.811,36.034 45.893,34.558 C49.307,32.138 49.949,24.222 47.539,20.180 C45.620,16.961 42.235,15.083 38.326,13.857 C36.641,13.415 34.956,12.972 33.272,12.529 C30.740,11.856 28.207,11.182 25.676,10.508 C25.676,18.358 25.680,50.035 25.680,50.035 C26.699,50.361 27.718,50.688 28.737,51.015 C30.665,51.629 32.901,52.395 34.679,52.929 C34.679,52.929 34.713,24.654 34.716,23.269 ZM37.123,52.121 C37.823,51.877 38.522,51.634 39.221,51.390 C43.544,49.870 47.867,48.349 52.189,46.829 C54.821,45.803 57.330,45.266 59.352,43.653 C59.845,43.259 60.662,42.400 60.479,41.401 C60.085,39.252 58.258,38.487 56.377,37.821 C51.602,36.128 44.192,36.199 39.221,37.619 C38.522,37.826 37.823,38.034 37.123,38.242 L37.123,43.456 C40.537,42.290 43.952,41.123 47.366,39.957 C48.040,39.871 48.714,39.784 49.388,39.697 C50.402,39.682 52.108,39.613 52.247,40.448 C52.338,40.822 51.852,41.096 51.612,41.256 C50.702,41.864 49.506,42.158 48.377,42.556 C44.626,43.837 40.874,45.119 37.123,46.400 L37.123,52.121 Z"/>
</svg>
