<svg xmlns="http://www.w3.org/2000/svg" xmlns:xlink="http://www.w3.org/1999/xlink" preserveAspectRatio="xMidYMid" width="24" height="24" viewBox="0 0 24 24">
  <g>
    <path d="M9.000,14.000 C11.670,14.000 17.000,15.330 17.000,18.000 L17.000,20.000 L1.000,20.000 L1.000,18.000 C1.000,15.330 6.330,14.000 9.000,14.000 M9.000,12.000 C6.791,12.000 5.000,10.209 5.000,8.000 C5.000,5.791 6.791,4.000 9.000,4.000 C11.209,4.000 13.000,5.791 13.000,8.000 C13.000,10.209 11.209,12.000 9.000,12.000 "/>
    <path d="M15.004,10.495 L15.004,11.504 L21.058,11.504 L18.283,14.279 L19.000,14.995 L22.995,11.000 L19.000,7.004 L18.283,7.720 L21.058,10.495 L15.004,10.495 Z"/>
  </g>
</svg>
