<svg xmlns="http://www.w3.org/2000/svg" xmlns:xlink="http://www.w3.org/1999/xlink" preserveAspectRatio="xMidYMid" width="64" height="64" viewBox="0 0 64 64">
  <path d="M33.042,28.786 L33.042,37.699 L47.650,37.699 C46.919,41.413 43.267,48.840 33.042,48.840 C24.278,48.840 17.339,41.413 17.339,32.500 C17.339,23.587 24.278,16.160 33.042,16.160 C38.155,16.160 41.442,18.388 43.267,20.245 L50.206,13.561 C45.824,9.104 39.981,6.505 33.042,6.505 C18.800,6.505 7.479,18.017 7.479,32.500 C7.479,46.983 18.800,58.495 33.042,58.495 C47.650,58.495 57.510,48.097 57.510,33.243 C57.510,31.386 57.510,30.272 57.145,28.786 L33.042,28.786 Z"/>
</svg>
