<svg xmlns="http://www.w3.org/2000/svg" xmlns:xlink="http://www.w3.org/1999/xlink" preserveAspectRatio="xMidYMid" width="64" height="64" viewBox="0 0 64 64">
  <path d="M4.984,11.000 L4.984,14.938 C4.984,25.831 10.914,35.360 19.742,40.662 L19.742,53.000 L59.992,53.000 L59.992,47.750 C59.992,40.767 45.690,37.250 38.525,37.250 C38.525,37.250 38.069,37.250 37.854,37.250 C25.109,37.250 14.375,26.750 14.375,14.938 L14.375,11.000 M38.525,11.000 C32.597,11.000 27.792,15.701 27.792,21.500 C27.792,27.299 32.597,32.000 38.525,32.000 C44.453,32.000 49.259,27.299 49.259,21.500 C49.259,15.701 44.453,11.000 38.525,11.000 Z"/>
</svg>
