<svg xmlns="http://www.w3.org/2000/svg" xmlns:xlink="http://www.w3.org/1999/xlink" preserveAspectRatio="xMidYMid" width="64" height="64" viewBox="0 0 64 64">
  <path d="M24.800,56.000 C23.475,56.000 22.400,54.925 22.400,53.600 L22.400,46.400 L12.800,46.400 C10.149,46.400 8.000,44.251 8.000,41.600 L8.000,12.800 C8.000,10.136 10.160,8.000 12.800,8.000 L51.200,8.000 C53.851,8.000 56.000,10.149 56.000,12.800 L56.000,41.600 C56.000,44.251 53.851,46.400 51.200,46.400 L36.560,46.400 L27.680,55.304 C27.200,55.760 26.600,56.000 26.000,56.000 L26.000,56.000 L24.800,56.000 M41.600,36.800 L41.600,34.400 C41.600,31.208 35.192,29.600 32.000,29.600 C28.808,29.600 22.400,31.208 22.400,34.400 L22.400,36.800 L41.600,36.800 M32.000,17.600 C29.349,17.600 27.200,19.749 27.200,22.400 C27.200,25.051 29.349,27.200 32.000,27.200 C34.651,27.200 36.800,25.051 36.800,22.400 C36.800,19.749 34.651,17.600 32.000,17.600 Z"/>
</svg>
