<svg xmlns="http://www.w3.org/2000/svg" xmlns:xlink="http://www.w3.org/1999/xlink" preserveAspectRatio="xMidYMid" width="64" height="64" viewBox="0 0 64 64">
  <path d="M11.513,11.513 C25.503,11.513 39.497,11.513 53.487,11.513 C53.487,25.503 53.487,39.497 53.487,53.487 C39.497,53.487 25.503,53.487 11.513,53.487 C11.513,39.497 11.513,25.503 11.513,11.513 ZM16.104,16.104 C16.104,21.678 16.104,32.828 16.104,32.828 L36.066,41.272 C36.066,41.272 36.764,40.794 37.475,40.588 C38.225,40.370 38.991,40.424 38.991,40.424 L43.813,33.771 C43.813,33.771 43.868,33.087 43.895,32.746 C44.020,32.219 44.108,31.669 44.305,31.188 C45.066,29.335 46.795,27.408 48.896,26.925 C48.896,23.319 48.896,19.711 48.896,16.104 C37.966,16.104 27.034,16.104 16.104,16.104 ZM16.104,48.896 C22.156,48.896 28.210,48.896 34.263,48.896 C34.263,48.869 34.263,48.841 34.263,48.814 C33.873,48.492 33.566,47.051 33.566,47.051 L16.104,39.632 C16.104,39.632 16.104,45.808 16.104,48.896 ZM48.896,48.896 C48.896,46.860 48.896,42.707 48.896,42.707 L44.601,45.952 C44.601,45.952 44.412,47.425 44.346,47.625 C44.197,48.077 43.883,48.475 43.741,48.900 C45.449,48.900 47.188,48.896 48.896,48.896 Z"/>
</svg>
