<svg xmlns="http://www.w3.org/2000/svg" xmlns:xlink="http://www.w3.org/1999/xlink" preserveAspectRatio="xMidYMid" width="64" height="64" viewBox="0 0 64 64">
  <path d="M20.182,37.333 C17.571,37.333 15.455,35.169 15.455,32.500 C15.455,29.831 17.571,27.667 20.182,27.667 C22.793,27.667 24.909,29.831 24.909,32.500 C24.909,35.169 22.793,37.333 20.182,37.333 M33.536,27.667 C31.598,22.036 26.351,18.000 20.182,18.000 C12.349,18.000 6.000,24.492 6.000,32.500 C6.000,40.508 12.349,47.000 20.182,47.000 C26.351,47.000 31.598,42.964 33.536,37.333 L43.818,37.333 L43.818,47.000 L53.273,47.000 L53.273,37.333 L58.000,37.333 L58.000,27.667 L33.536,27.667 Z"/>
</svg>
