<svg xmlns="http://www.w3.org/2000/svg" xmlns:xlink="http://www.w3.org/1999/xlink" preserveAspectRatio="xMidYMid" width="64" height="64" viewBox="0 0 64 64">
  <path d="M42.900,37.000 C43.100,35.350 43.250,33.700 43.250,32.000 C43.250,30.300 43.100,28.650 42.900,27.000 L51.350,27.000 C51.750,28.600 52.000,30.275 52.000,32.000 C52.000,33.725 51.750,35.400 51.350,37.000 M38.475,50.900 C39.975,48.125 41.125,45.125 41.925,42.000 L49.300,42.000 C46.900,46.125 43.075,49.325 38.475,50.900 M37.850,37.000 L26.150,37.000 C25.900,35.350 25.750,33.700 25.750,32.000 C25.750,30.300 25.900,28.625 26.150,27.000 L37.850,27.000 C38.075,28.625 38.250,30.300 38.250,32.000 C38.250,33.700 38.075,35.350 37.850,37.000 M32.000,51.900 C29.925,48.900 28.250,45.575 27.225,42.000 L36.775,42.000 C35.750,45.575 34.075,48.900 32.000,51.900 M22.000,22.000 L14.700,22.000 C17.075,17.850 20.925,14.650 25.500,13.100 C24.000,15.875 22.875,18.875 22.000,22.000 M14.700,42.000 L22.000,42.000 C22.875,45.125 24.000,48.125 25.500,50.900 C20.925,49.325 17.075,46.125 14.700,42.000 M12.650,37.000 C12.250,35.400 12.000,33.725 12.000,32.000 C12.000,30.275 12.250,28.600 12.650,27.000 L21.100,27.000 C20.900,28.650 20.750,30.300 20.750,32.000 C20.750,33.700 20.900,35.350 21.100,37.000 M32.000,12.075 C34.075,15.075 35.750,18.425 36.775,22.000 L27.225,22.000 C28.250,18.425 29.925,15.075 32.000,12.075 M49.300,22.000 L41.925,22.000 C41.125,18.875 39.975,15.875 38.475,13.100 C43.075,14.675 46.900,17.850 49.300,22.000 M32.000,7.000 C18.175,7.000 7.000,18.250 7.000,32.000 C7.000,45.807 18.193,57.000 32.000,57.000 C45.807,57.000 57.000,45.807 57.000,32.000 C57.000,18.193 45.807,7.000 32.000,7.000 Z"/>
</svg>
