<svg xmlns="http://www.w3.org/2000/svg" xmlns:xlink="http://www.w3.org/1999/xlink" preserveAspectRatio="xMidYMid" width="64" height="64" viewBox="0 0 64 64">
  <path d="M46.000,32.000 C46.000,28.134 49.134,25.000 53.000,25.000 C56.866,25.000 60.000,28.134 60.000,32.000 C60.000,35.866 56.866,39.000 53.000,39.000 C49.134,39.000 46.000,35.866 46.000,32.000 M25.000,32.000 C25.000,28.134 28.134,25.000 32.000,25.000 C35.866,25.000 39.000,28.134 39.000,32.000 C39.000,35.866 35.866,39.000 32.000,39.000 C28.134,39.000 25.000,35.866 25.000,32.000 M4.000,32.000 C4.000,28.134 7.134,25.000 11.000,25.000 C14.866,25.000 18.000,28.134 18.000,32.000 C18.000,35.866 14.866,39.000 11.000,39.000 C7.134,39.000 4.000,35.866 4.000,32.000 Z"/>
</svg>
