<svg xmlns="http://www.w3.org/2000/svg" xmlns:xlink="http://www.w3.org/1999/xlink" preserveAspectRatio="xMidYMid" width="64" height="64" viewBox="0 0 64 64">
  <path d="M36.889,10.000 L36.889,14.889 L45.664,14.889 L21.636,38.918 L25.082,42.364 L49.111,18.336 L49.111,27.111 L54.000,27.111 L54.000,10.000 M49.111,49.111 L14.889,49.111 L14.889,14.889 L32.000,14.889 L32.000,10.000 L14.889,10.000 C12.176,10.000 10.000,12.200 10.000,14.889 L10.000,49.111 C10.000,51.811 12.189,54.000 14.889,54.000 L49.111,54.000 C51.811,54.000 54.000,51.811 54.000,49.111 L54.000,32.000 L49.111,32.000 L49.111,49.111 Z"/>
</svg>
