<svg xmlns="http://www.w3.org/2000/svg" xmlns:xlink="http://www.w3.org/1999/xlink" preserveAspectRatio="xMidYMid" width="64" height="64" viewBox="0 0 64 64">
  <path d="M27.700,46.400 L18.100,36.800 L21.484,33.416 L27.700,39.608 L43.516,23.792 L46.900,27.200 M32.500,12.800 C33.826,12.800 34.900,13.874 34.900,15.200 C34.900,16.526 33.826,17.600 32.500,17.600 C31.174,17.600 30.100,16.526 30.100,15.200 C30.100,13.874 31.174,12.800 32.500,12.800 M49.300,12.800 L39.268,12.800 C38.260,10.016 35.620,8.000 32.500,8.000 C29.380,8.000 26.740,10.016 25.732,12.800 L15.700,12.800 C13.049,12.800 10.900,14.949 10.900,17.600 L10.900,51.200 C10.900,53.851 13.049,56.000 15.700,56.000 L49.300,56.000 C51.951,56.000 54.100,53.851 54.100,51.200 L54.100,17.600 C54.100,14.949 51.951,12.800 49.300,12.800 Z"/>
</svg>
