<svg xmlns="http://www.w3.org/2000/svg" xmlns:xlink="http://www.w3.org/1999/xlink" preserveAspectRatio="xMidYMid" width="64" height="64" viewBox="0 0 64 64">
  <path d="M25.133,11.581 C22.447,11.627 19.752,12.438 17.476,14.062 C11.932,18.021 10.973,25.306 15.339,30.341 C19.701,35.367 27.735,36.239 33.280,32.280 C38.828,28.322 39.783,21.037 35.419,16.002 C32.965,13.169 29.351,11.657 25.670,11.581 C25.492,11.577 25.312,11.577 25.133,11.581 ZM25.353,3.566 C31.755,3.562 38.094,6.131 42.362,11.047 C48.447,18.065 48.397,27.673 42.928,34.584 L59.731,53.959 L50.576,60.497 L33.834,41.194 C25.072,44.583 14.568,42.403 8.396,35.296 C1.017,26.783 2.638,14.463 12.018,7.765 C15.976,4.939 20.681,3.568 25.353,3.566 Z"/>
</svg>
