<svg xmlns="http://www.w3.org/2000/svg" xmlns:xlink="http://www.w3.org/1999/xlink" preserveAspectRatio="xMidYMid" width="64" height="64" viewBox="0 0 64 64">
  <path d="M32.002,39.700 C27.665,39.700 24.149,36.253 24.149,32.000 C24.149,27.747 27.665,24.300 32.002,24.300 C36.339,24.300 39.856,27.747 39.856,32.000 C39.856,36.253 36.339,39.700 32.002,39.700 M48.674,34.134 C48.764,33.430 48.831,32.726 48.831,32.000 C48.831,31.274 48.764,30.548 48.674,29.800 L53.409,26.214 C53.835,25.884 53.947,25.290 53.678,24.806 L49.190,17.194 C48.921,16.710 48.315,16.512 47.821,16.710 L42.234,18.910 C41.067,18.052 39.856,17.304 38.442,16.754 L37.612,10.924 C37.522,10.396 37.051,10.000 36.490,10.000 L27.514,10.000 C26.953,10.000 26.482,10.396 26.392,10.924 L25.562,16.754 C24.149,17.304 22.937,18.052 21.770,18.910 L16.183,16.710 C15.689,16.512 15.083,16.710 14.814,17.194 L10.326,24.806 C10.035,25.290 10.169,25.884 10.596,26.214 L15.330,29.800 C15.241,30.548 15.173,31.274 15.173,32.000 C15.173,32.726 15.241,33.430 15.330,34.134 L10.596,37.786 C10.169,38.116 10.035,38.710 10.326,39.194 L14.814,46.806 C15.083,47.290 15.689,47.466 16.183,47.290 L21.770,45.068 C22.937,45.948 24.149,46.696 25.562,47.246 L26.392,53.076 C26.482,53.604 26.953,54.000 27.514,54.000 L36.490,54.000 C37.051,54.000 37.522,53.604 37.612,53.076 L38.442,47.246 C39.856,46.674 41.067,45.948 42.234,45.068 L47.821,47.290 C48.315,47.466 48.921,47.290 49.190,46.806 L53.678,39.194 C53.947,38.710 53.835,38.116 53.409,37.786 L48.674,34.134 Z"/>
</svg>
