<svg xmlns="http://www.w3.org/2000/svg" xmlns:xlink="http://www.w3.org/1999/xlink" preserveAspectRatio="xMidYMid" width="64" height="64" viewBox="0 0 64 64">
  <path d="M-0.011,-0.011 C21.328,-0.011 42.672,-0.011 64.011,-0.011 C64.011,21.328 64.011,42.672 64.011,64.011 C42.672,64.011 21.328,64.011 -0.011,64.011 C-0.011,42.672 -0.011,21.328 -0.011,-0.011 ZM6.991,6.991 C6.991,15.493 6.991,32.500 6.991,32.500 L37.439,45.380 C37.439,45.380 38.504,44.651 39.589,44.336 C40.733,44.004 41.900,44.086 41.900,44.086 L49.256,33.938 C49.256,33.938 49.339,32.896 49.381,32.375 C49.571,31.571 49.705,30.732 50.006,29.999 C51.167,27.172 53.803,24.233 57.009,23.497 C57.009,17.996 57.009,12.493 57.009,6.991 C40.338,6.991 23.662,6.991 6.991,6.991 ZM6.991,57.009 C16.223,57.009 25.457,57.009 34.688,57.009 C34.688,56.967 34.688,56.925 34.688,56.884 C34.095,56.392 33.626,54.195 33.626,54.195 L6.991,42.879 C6.991,42.879 6.991,52.299 6.991,57.009 ZM57.009,57.009 C57.009,53.904 57.009,47.568 57.009,47.568 L50.457,52.518 C50.457,52.518 50.170,54.765 50.069,55.070 C49.841,55.759 49.362,56.367 49.145,57.015 C51.750,57.015 54.404,57.009 57.009,57.009 Z"/>
</svg>
