<svg xmlns="http://www.w3.org/2000/svg" xmlns:xlink="http://www.w3.org/1999/xlink" preserveAspectRatio="xMidYMid" width="64" height="64" viewBox="0 0 64 64">
  <path d="M42.679,35.043 C41.941,35.043 41.101,35.043 40.211,35.170 C43.163,37.305 45.224,40.128 45.224,43.941 L45.224,50.298 L60.493,50.298 L60.493,43.941 C60.493,38.017 48.609,35.043 42.679,35.043 M22.321,35.043 C16.391,35.043 4.507,38.017 4.507,43.941 L4.507,50.298 L40.134,50.298 L40.134,43.941 C40.134,38.017 28.250,35.043 22.321,35.043 M22.321,29.957 C26.537,29.957 29.955,26.542 29.955,22.330 C29.955,18.117 26.537,14.702 22.321,14.702 C18.104,14.702 14.686,18.117 14.686,22.330 C14.686,26.542 18.104,29.957 22.321,29.957 M42.679,29.957 C46.896,29.957 50.314,26.542 50.314,22.330 C50.314,18.117 46.896,14.702 42.679,14.702 C38.463,14.702 35.045,18.117 35.045,22.330 C35.045,26.542 38.463,29.957 42.679,29.957 Z"/>
</svg>
